<svg width="276" height="215" viewBox="0 0 276 215" fill="none" xmlns="http://www.w3.org/2000/svg">
<path d="M216.042 70.4302C216.27 63.1013 221.273 51.4488 214.763 38.4596" stroke="#CCDDE2" stroke-width="1.43715" stroke-miterlimit="10"/>
<path d="M196.101 15.5693C173.058 0.64969 130.084 -6.37166 106.243 12.0373" stroke="#CCDDE2" stroke-width="1.43715" stroke-miterlimit="10"/>
<path d="M220.676 90.1332C221.282 91.5539 221.97 92.9387 222.735 94.2802C227.993 103.509 235.346 111.407 243.281 118.474C255.987 129.792 264.595 143.387 257.156 160.411C249.629 177.653 235.45 189.199 221.27 200.794" stroke="#CCDDE2" stroke-width="1.43715" stroke-miterlimit="10"/>
<path d="M130.708 193.17C130.708 193.17 134.493 170.858 148.039 173.647C161.585 176.436 165.172 191.575 165.172 191.575" stroke="#CCDDE2" stroke-width="1.43715" stroke-miterlimit="10"/>
<path d="M145.652 173.415C145.652 173.415 135.254 183.158 135.866 194.844" stroke="#CCDDE2" stroke-width="1.43715" stroke-miterlimit="10"/>
<path d="M144.45 180.221C144.45 180.221 140.23 186.74 140.747 194.836" stroke="#CCDDE2" stroke-width="1.43715" stroke-miterlimit="10"/>
<path d="M147.939 177.83C147.939 177.83 153.42 185.597 153.216 193.17" stroke="#CCDDE2" stroke-width="1.43715" stroke-miterlimit="10"/>
<path d="M152.631 177.83C152.631 177.83 157.092 181.216 160.14 191.175" stroke="#CCDDE2" stroke-width="1.43715" stroke-miterlimit="10"/>
<path d="M147.041 183.287C146.502 187.993 146.811 192.757 147.954 197.354" stroke="#CCDDE2" stroke-width="1.43715" stroke-miterlimit="10"/>
<path d="M143.89 213.825C144.897 212.276 144.84 209.356 146.161 207.017C147.184 205.209 148.88 203.811 151.054 204.405C153.322 205.014 154.269 206.856 154.68 209.021C154.939 210.388 155.822 212.723 157.305 213.825" stroke="#CCDDE2" stroke-width="1.43715" stroke-miterlimit="10"/>
<path d="M163.288 191.988C163.897 193.935 164.366 195.725 164.695 197.359C165.185 203.403 165.365 208.994 165.304 213.838" stroke="#CCDDE2" stroke-width="1.43715" stroke-miterlimit="10"/>
<path d="M134.057 213.825C133.129 207.785 132.776 201.387 132.812 198.744C132.831 196.878 132.959 195.015 133.196 193.163" stroke="#CCDDE2" stroke-width="1.43715" stroke-miterlimit="10"/>
<path d="M132.81 198.742C132.81 198.742 155.341 204.177 164.683 197.354" stroke="#CCDDE2" stroke-width="1.43715" stroke-miterlimit="10"/>
<path d="M125.979 22.2029C125.979 22.2029 134.864 11.1411 147.238 22.2029C147.238 22.2029 150.411 10.5535 165.324 12.2312" stroke="#CCDDE2" stroke-width="1.43715" stroke-miterlimit="10"/>
<path d="M100.947 50.2914C100.947 50.2914 107.609 41.9942 116.89 50.2914C116.89 50.2914 119.271 41.5527 130.458 42.8102" stroke="#CCDDE2" stroke-width="1.43715" stroke-miterlimit="10"/>
<path d="M119.588 26.5274C118.497 26.3209 117.388 26.2281 116.278 26.2503C110.377 26.246 104.716 28.5851 100.539 32.7528C96.3623 36.9209 94.0108 42.5766 94.002 48.4775" stroke="#CCDDE2" stroke-width="1.43715" stroke-miterlimit="10"/>
<path d="M107.921 69.3581C101.609 62.1083 89.317 58.8748 79.0437 57.5807C76.8606 57.3128 74.781 57.1209 72.8475 57.0052C68.4426 56.6977 64.0182 56.8171 59.6361 57.3615C59.2524 57.4102 58.8688 57.465 58.4882 57.5229C58.3633 57.5442 58.1837 57.5807 57.9614 57.6386" stroke="#CCDDE2" stroke-width="1.43715" stroke-miterlimit="10"/>
<path d="M46.1355 60.9792C43.1957 58.1146 41.3624 54.3037 40.9593 50.2188C40.9136 49.6525 40.874 49.0618 40.874 48.4863C40.8783 44.2077 42.45 40.0789 45.2924 36.881C48.1347 33.683 52.0506 31.6372 56.2991 31.1308C56.968 29.0403 57.8337 27.0176 58.8841 25.0899C61.8842 19.5803 66.3445 15.0043 71.7753 11.8641C77.206 8.72372 83.3973 7.14102 89.6687 7.28961C95.9404 7.43789 102.05 9.31198 107.326 12.7057C112.602 16.0995 116.841 20.8817 119.576 26.5271C124.844 27.3004 129.657 29.9446 133.135 33.9759C136.613 38.0072 138.523 43.156 138.515 48.4802V48.6994C138.519 48.8562 138.512 49.0127 138.494 49.1683C138.503 49.2155 138.503 49.2642 138.494 49.3114V49.4089" stroke="#CCDDE2" stroke-width="1.43715" stroke-miterlimit="10"/>
<path d="M119.588 26.5274C118.497 26.3209 117.388 26.2281 116.278 26.2503C110.377 26.246 104.716 28.5851 100.539 32.7528C96.3623 36.9209 94.0108 42.5766 94.002 48.4775" stroke="#CCDDE2" stroke-width="1.43715" stroke-miterlimit="10"/>
<path d="M66.6816 122.783L62.4341 141.679" stroke="#CCDDE2" stroke-width="1.43715" stroke-miterlimit="10"/>
<path d="M82.1371 136.619C80.9718 136.139 79.8711 135.515 78.8609 134.761C76.2484 132.819 74.2358 130.194 72.4363 127.484C70.9139 125.185 69.2575 122.448 66.6816 122.783C66.1183 122.864 65.5754 123.052 65.0831 123.337C62.7751 124.622 61.4537 127.11 59.3954 128.681C50.6263 135.315 40.5175 125.962 35.8346 118.724C31.2673 111.657 20.306 113.295 13.2755 114.157C9.5517 114.626 6.175 114.693 3.40422 111.697C0.968366 109.054 0.274148 105.08 1.827 101.892C9.77093 85.5479 26.0972 68.704 46.1352 60.9793C49.9607 59.4958 53.9171 58.3744 57.9521 57.63C58.5063 57.5234 59.0604 57.4381 59.6268 57.3529C66.0626 56.3405 72.623 56.4145 79.0344 57.5721" stroke="#CCDDE2" stroke-width="1.43715" stroke-miterlimit="10"/>
<path d="M208.96 213.823C203.409 212.225 177.988 207.767 165.206 206.004" stroke="#CCDDE2" stroke-width="1.43715" stroke-miterlimit="10"/>
<path d="M132.888 201.955C126.667 201.236 122.627 200.795 122.627 200.795C96.8523 196.9 100.259 180.221 100.259 180.221C100.259 180.221 93.7983 182.614 91.7675 189.307C89.155 197.942 77.2254 203.045 68.7791 199.866C64.0505 198.097 59.6842 194.802 57.1753 188.944C56.0183 186.222 55.4915 183.025 55.4428 179.505C55.3849 175.852 55.8538 171.875 56.6394 167.835" stroke="#CCDDE2" stroke-width="1.43715" stroke-miterlimit="10"/>
<path d="M40.7822 213.825C37.1467 203.704 34.924 192.667 36.687 181.913C37.9049 174.447 41.5587 168.515 45.3616 162.526" stroke="#CCDDE2" stroke-width="1.43715" stroke-miterlimit="10"/>
<path d="M56.7213 166.492L47.73 214" stroke="#CCDDE2" stroke-width="1.43715" stroke-miterlimit="10"/>
<path d="M117.749 83.7392L116.857 84.6313L116.12 85.3502C116.342 85.1005 116.552 84.8509 116.772 84.6103C116.991 84.3698 117.137 84.1993 117.317 84.0014C117.441 83.8847 117.588 83.7955 117.749 83.7392Z" fill="#353642"/>
<path d="M251.441 58.3487C251.346 58.2422 251.264 58.1478 251.173 58.0443C248.977 55.6297 249.888 52.6762 251.961 50.4109C253.56 48.654 256.224 46.8545 258.702 46.8637C261.138 46.8637 263.799 48.9676 265.252 50.7641C267.736 53.8363 268.735 57.7672 266.22 61.1165C263.383 64.871 260.141 68.3019 256.553 71.3471C239.073 86.3945 218.398 94.2806 195.37 91.184C193.111 90.8796 190.048 89.7926 187.889 89.0527" stroke="black" stroke-width="1.43715" stroke-miterlimit="10"/>
<path d="M256.552 51.8198C254.299 52.6754 251.626 54.8098 251.398 57.4161C251.218 59.4653 253.313 60.9633 254.936 59.3861" stroke="black" stroke-width="1.43715" stroke-miterlimit="10"/>
<path d="M236.464 213.823H38.5142" stroke="black" stroke-width="1.43715" stroke-miterlimit="10"/>
<path d="M187.89 89.0733C182.875 98.36 173.299 104.075 164.253 109.321C161.945 110.652 153.097 115.67 149.851 117.518C148.07 116.909 146.395 116.37 144.855 115.871C144.806 115.871 144.769 115.843 144.721 115.831C138.18 113.764 133.93 112.701 133.318 112.549L140.095 114.589C123.982 110.25 122.777 110.156 106.481 106.517C104.995 106.182 103.673 105.826 102.522 105.464C102.827 104.87 103.131 104.276 103.46 103.701C103.478 103.67 103.495 103.639 103.509 103.606C103.558 103.521 103.613 103.424 103.652 103.338C103.75 103.165 103.844 102.994 103.929 102.83L104.13 102.486L104.218 102.343L104.255 102.276C104.724 101.431 105.203 100.608 105.692 99.8063C107.251 97.1817 108.871 94.7306 110.518 92.4409C112.345 89.9045 114.212 87.5692 116.099 85.386L116.127 85.3586L116.864 84.6401L117.756 83.7479L124.957 85.3586C124.957 85.3586 133.025 77.5334 137.815 78.5504C140.132 77.4208 143.207 77.2168 145.704 76.6809C148.849 76.005 152.68 75.8497 154.768 73.0271C157.076 69.9123 157.789 65.3938 157.128 61.6486C156.373 57.3859 153.587 52.566 149.34 51.1014C145.61 49.8165 141.563 49.579 137.654 49.3689C147.029 49.0126 157.5 45.2736 166.317 47.5999C166.347 47.6017 166.375 47.6078 166.403 47.6181L167.849 48.02C168.298 48.1449 168.765 48.1842 169.228 48.1357C169.533 50.9035 171.421 59.8918 177.97 63.8866C182.333 66.5386 185.984 65.5034 188.146 63.7313C189.038 65.1106 189.507 66.4412 189.973 68.0976C191.909 74.988 191.318 82.7249 187.89 89.0733Z" fill="#353642"/>
<path d="M202.094 203.69L229.604 203.946C230.968 203.946 237.998 208.233 236.159 211.022C234.615 213.36 236.159 213.823 236.159 213.823H208.96L202.094 203.69Z" fill="#A9D6E5"/>
<path d="M27.9268 129.701L13.6162 148.293C13.6162 148.293 7.81279 149.815 5.59921 148.101L3.38867 146.383L20.0712 124.887L27.9268 129.701Z" fill="#A9D6E5"/>
<path d="M125.605 144.185L122.182 148.323C76.1235 200.797 16.5669 143.147 16.5669 143.147L19.2676 139.471" stroke="black" stroke-width="1.43715" stroke-miterlimit="10"/>
<path d="M133.644 112.881C133.644 112.881 149.924 116.429 169.639 125.024C169.639 125.024 170.145 125.219 171.043 125.633" stroke="black" stroke-width="1.43715" stroke-miterlimit="10"/>
<path d="M200.804 152.923C200.804 152.947 200.828 152.96 200.84 152.981C202.615 156.501 204.406 160.27 206.12 164.085C206.144 164.134 206.156 164.183 206.181 164.232C206.973 165.982 207.752 167.748 208.51 169.499C215.172 184.903 222.723 204.621 222.723 204.621" stroke="black" stroke-width="1.43715" stroke-miterlimit="10"/>
<path d="M200.851 152.994C200.83 152.974 200.814 152.95 200.802 152.924C190.538 135.553 175.64 127.725 171.042 125.627C170.129 125.219 169.639 125.018 169.639 125.018" stroke="black" stroke-width="1.43715" stroke-miterlimit="10"/>
<path d="M104.252 102.264C104.252 102.264 86.1014 130.58 127.301 144.797C171.091 159.884 171.417 154.963 188.066 181.481C198.419 197.974 202.471 204.317 204.03 206.701L205.017 208.19L208.96 213.823H236.171V211.021C236.171 209.326 235.498 207.699 234.298 206.5C233.099 205.301 231.473 204.627 229.777 204.627H218.816" stroke="black" stroke-width="1.43715" stroke-miterlimit="10"/>
<path d="M26.9371 129.039L20.4852 124.21L3.67773 146.599L6.39067 148.636C6.91267 149.027 7.50723 149.311 8.13982 149.471C8.77244 149.631 9.43049 149.663 10.0758 149.567C10.7211 149.47 11.3407 149.246 11.8988 148.908C12.4569 148.57 12.9423 148.125 13.3268 147.597L16.5787 143.143" stroke="black" stroke-width="1.43715" stroke-miterlimit="10"/>
<path d="M187.758 63.1598C197.173 70.5952 209.906 71.6061 221.373 69.8158C231.272 68.272 243.561 64.6548 246.341 53.6356L248.356 44.6199C248.658 43.9071 249.197 43.321 249.882 42.9608C250.566 42.6006 251.355 42.4888 252.113 42.6441C252.871 42.7994 253.552 43.2126 254.04 43.813C254.528 44.4135 254.793 45.1643 254.79 45.9383C254.787 46.3277 254.718 46.7138 254.586 47.0801L254.154 48.2676" stroke="black" stroke-width="1.43715" stroke-linejoin="round"/>
<path d="M150.103 117.36C152.599 115.932 161.776 110.753 164.249 109.313C173.301 104.066 182.88 98.3514 187.898 89.0616C191.317 82.7284 191.923 74.9885 189.968 68.0981C189.435 66.2194 188.903 64.7488 187.758 63.1594" stroke="black" stroke-width="1.43715" stroke-linejoin="round"/>
<path d="M169.185 48.3099C169.185 48.3465 169.167 48.3769 169.167 48.3769C169.033 48.8062 170.269 59.5879 177.458 63.9725C182.092 66.7981 185.856 65.1904 187.75 63.1686H187.771C187.973 62.9451 188.165 62.7113 188.343 62.4683V62.4409" stroke="black" stroke-width="1.43715" stroke-miterlimit="10"/>
<path d="M187.758 63.1593L195.623 53.7538" stroke="black" stroke-width="1.43715" stroke-miterlimit="10"/>
<path d="M144.854 115.867C144.805 115.867 144.769 115.84 144.72 115.828L140.095 114.585C123.982 110.247 122.776 110.152 106.48 106.514C104.994 106.179 103.673 105.822 102.522 105.46C90.3729 101.602 94.8153 96.0973 96.4625 96.0973C108.191 96.0973 110.316 92.2943 110.316 92.2943L110.517 92.4374L144.854 115.867Z" fill="#353642"/>
<path d="M26.9346 129.046C26.9346 129.046 77.9109 164.406 97.2698 116.818C98.9183 112.758 100.664 108.98 102.507 105.482" stroke="black" stroke-width="1.43715" stroke-miterlimit="10"/>
<path d="M123.803 77.5614C120.031 80.992 116.528 84.7064 113.323 88.6719C111.122 91.3362 108.944 93.6137 105.58 94.7616C103.981 95.285 102.328 95.6299 100.653 95.7907C98.9301 95.9764 96.3694 95.6872 95.0692 97.0695C94.7818 97.3786 94.5653 97.7464 94.4347 98.1477C94.3044 98.549 94.2633 98.9741 94.3141 99.3927C94.442 100.143 94.7763 100.843 95.2793 101.414C97.8644 104.593 102.69 105.677 106.481 106.508C124.254 110.467 124.074 110.238 144.846 115.868" stroke="black" stroke-width="1.43715" stroke-miterlimit="10"/>
<path d="M116.857 84.6311L116.12 85.3497C116.342 85.1 116.552 84.8503 116.772 84.6098L116.857 84.6311Z" fill="#353642"/>
<path d="M93.7935 98.0738C93.7935 98.0738 92.0062 104.772 100.672 109.123L102.821 104.861C102.821 104.861 92.0397 101.557 93.7935 98.0738Z" fill="black"/>
<path d="M25.1743 162.834C25.1743 162.834 41.8812 181.505 77.7705 181.505" stroke="black" stroke-width="1.43715" stroke-miterlimit="10"/>
<path d="M179.607 178.771L187.889 191.556" stroke="black" stroke-width="1.43715" stroke-miterlimit="10"/>
<path d="M269.007 66.5781C272.097 63.4907 274.673 59.6116 275.033 54.5815" stroke="black" stroke-width="1.43715" stroke-miterlimit="10"/>
<path d="M223.176 162.551C201.254 170.881 171.454 159.859 171.454 159.859C75.7311 128.915 48.9611 100.711 41.5804 86.2233C41.5317 86.138 41.483 86.0497 41.4434 85.9736C41.0689 85.2288 40.85 84.4156 40.7997 83.5834C40.7495 82.7513 40.8692 81.9173 41.1514 81.133C41.4337 80.3486 41.8727 79.6297 42.4415 79.0202C43.0106 78.4109 43.6975 77.9237 44.4608 77.5882C59.2038 71.0753 97.7147 66.1184 191.745 103.487C191.745 103.487 218.113 112.716 230.941 130.659C230.952 130.67 230.962 130.682 230.971 130.696C231.813 131.874 232.595 133.094 233.316 134.35C234.727 136.824 235.586 139.574 235.833 142.411C236.08 145.249 235.708 148.106 234.745 150.787C233.781 153.467 232.248 155.907 230.251 157.938C228.254 159.968 225.84 161.542 223.176 162.551Z" fill="white"/>
<path d="M223.176 162.551C201.254 170.881 171.454 159.859 171.454 159.859C75.7312 128.915 48.9612 100.71 41.5806 86.2233C41.6393 85.1009 42.0062 84.0167 42.6411 83.0895C43.2762 82.1624 44.1544 81.4283 45.1795 80.9679C59.8556 74.3119 98.3177 68.9896 192.701 105.457C192.701 105.457 217.565 113.895 230.941 130.659C230.952 130.67 230.962 130.682 230.971 130.696C231.813 131.874 232.595 133.093 233.316 134.35C234.727 136.823 235.586 139.574 235.833 142.411C236.079 145.249 235.708 148.106 234.745 150.786C233.781 153.467 232.248 155.906 230.251 157.937C228.254 159.968 225.84 161.542 223.176 162.551Z" fill="#A9D6E5"/>
<path d="M184.167 142.382C172.377 146.864 156.334 140.933 156.334 140.933C140.197 135.714 124.004 129.713 109.234 121.251C101.817 117.003 90.6941 110.74 87.0068 102.547C86.5653 101.566 86.5044 100.339 87.1347 99.4653C87.6188 98.7985 88.4166 98.4392 89.1869 98.1408C100.453 93.7654 113.144 96.0095 124.604 98.3509C139.49 101.396 153.445 106.797 167.78 111.66C167.78 111.66 181.159 116.2 188.372 125.243C188.827 125.878 189.249 126.537 189.635 127.216C192.781 132.773 190.117 140.12 184.167 142.382Z" fill="#D7E8F0"/>
<path d="M127.817 151.709C128.289 151.709 128.731 151.709 129.185 151.688C129.19 151.69 129.197 151.69 129.203 151.688" stroke="black" stroke-width="1.43715" stroke-miterlimit="10"/>
<path d="M139.325 141.748C136.682 141.051 135.114 136.417 134.551 135.208C134.488 135.078 134.408 134.958 134.313 134.849L132.605 132.221L132.036 135.299C132.194 136.919 134.45 141.085 135.641 145.375C136.831 149.665 134.347 149.747 132.949 149.796C131.551 149.844 131.019 147.055 130.699 149.796C130.379 152.536 127.35 151.574 125.559 150.645C123.769 149.717 123.775 147.43 123.678 149.19C123.58 150.95 121.781 151.684 120.49 151.321C119.509 151.053 118.072 149.147 117.445 148.249C116.918 149.214 115.603 150.922 113.529 149.114C110.789 146.711 110.32 137.543 110.67 128.409C111.02 119.274 100.564 99.0478 103.557 82.1734C103.557 82.149 103.557 82.1095 103.579 82.0821C103.856 80.8215 104.188 79.5731 104.593 78.3339C105.361 75.9751 106.357 73.6969 107.567 71.5318C108.442 69.9582 109.417 68.4428 110.487 66.995L134.204 80.243C133.969 80.38 132.511 80.5475 132.273 80.6967C124.101 85.6749 125.958 95.5067 128.394 103.384C130.857 111.401 134.039 119.567 138.363 126.786C139.631 128.9 140.742 131.105 141.688 133.381L141.301 133.457C141.438 134.273 141.624 135.079 141.858 135.872C142.82 138.926 141.974 142.436 139.325 141.748Z" fill="white"/>
<path d="M129.542 147.014L129.532 147.011" stroke="black" stroke-width="1.43715" stroke-miterlimit="10"/>
<path d="M116.523 146.628L116.513 146.624" stroke="black" stroke-width="1.43715" stroke-miterlimit="10"/>
<path d="M125.061 131.287C124.421 136.113 126.617 142.276 129.53 146.995C130.377 148.365 132.575 150.414 134.341 149.735C138.159 148.277 134.286 142.577 133.385 140.497C132.289 137.973 131.637 135.218 131.957 132.456C131.962 132.282 132.027 132.114 132.14 131.981C132.227 131.914 132.334 131.878 132.444 131.878C132.554 131.878 132.661 131.914 132.749 131.981C132.919 132.115 133.057 132.287 133.151 132.483C134.302 134.514 135.23 136.637 136.177 138.768C136.85 140.29 139.109 142.614 140.933 141.56C144.892 139.267 139.106 129.076 137.584 126.537C133.272 119.321 130.082 111.151 127.618 103.134C125.182 95.2484 124.546 85.3802 132.718 80.411C136.981 77.8168 142.078 77.7468 146.865 76.9552C154.574 75.6794 157.786 70.4301 157.786 70.4301" stroke="black" stroke-width="1.43715" stroke-miterlimit="10"/>
<path d="M119.723 134.673C119.723 134.673 119.981 145.534 126.266 150.93C126.634 151.259 127.071 151.503 127.545 151.642C128.019 151.781 128.519 151.812 129.006 151.734C130.075 151.523 131.138 150.756 130.51 148.366" stroke="black" stroke-width="1.43715" stroke-miterlimit="10"/>
<path d="M114.245 135.416C114.41 139.468 114.948 143.825 116.925 147.433C117.838 149.078 119.08 150.825 120.907 151.501C123.096 152.314 124.004 150.137 123.584 148.316C123.498 147.924 123.364 147.543 123.185 147.184" stroke="black" stroke-width="1.43715" stroke-miterlimit="10"/>
<path d="M170.595 47.3871L169.191 48.3006C157.195 46.6259 121.847 44.251 106.772 71.2676C104.917 74.6005 103.572 78.1928 102.781 81.9245C102.779 81.9291 102.777 81.9342 102.777 81.9397C102.777 81.9449 102.779 81.9501 102.781 81.9549C102.779 81.9607 102.779 81.9671 102.781 81.9732C99.8211 98.8415 110.259 119.053 109.903 128.151C109.546 137.249 110.009 146.447 112.768 148.856C115.526 151.264 116.942 147.431 116.942 147.431C116.942 147.431 115.514 151.27 112.768 148.856C110.021 146.441 109.549 137.27 109.903 128.151C110.256 119.032 99.8211 98.8415 102.781 81.9732C102.779 81.9671 102.779 81.9607 102.781 81.9549C102.782 81.9096 102.788 81.8648 102.799 81.821" stroke="black" stroke-width="1.43715" stroke-miterlimit="10"/>
<path d="M219.599 34.5715C219.437 35.1759 219.168 35.7465 218.804 36.2553C217.196 37.1687 214.882 38.8373 213.15 38.2527C210.565 37.3818 210.565 37.3818 209.277 36.9647C208.634 36.916 208.214 37.4336 207.246 39.1966C207.078 39.5044 206.887 39.7985 206.674 40.0765C205.227 40.8316 203.467 42.3358 202.039 41.943C200.258 41.4649 199.177 40.1526 198.297 41.5137C197.414 41.8669 196.744 42.6616 196.236 43.8978C195.949 44.5661 195.555 45.183 195.07 45.7246C194.651 46.0188 194.206 46.2724 193.739 46.4828C192.686 46.9304 191.364 45.4202 189.869 43.8856C188.374 42.351 186.69 43.1487 186.215 44.4336C184.611 44.7625 183.837 47.515 183.195 48.806C182.552 50.097 181.773 51.4428 180.628 52.3776C179.843 52.9932 178.89 53.3556 177.894 53.4165C176.898 53.4774 175.907 53.2341 175.053 52.7186C173.04 51.5342 172.1 49.0435 172.075 46.7964C172.054 44.6041 173.293 42.5337 173.028 40.3779C172.861 39.0535 172.261 37.8142 171.579 36.6846C171.104 35.896 170.574 35.1622 170.245 34.3066C170.181 34.1665 170.155 34.0121 170.169 33.859C170.236 33.4693 171.007 33.384 171.308 33.3079C174.803 32.4158 177.867 35.2109 180.089 35.4393C182.312 35.6676 198.69 33.1983 198.69 33.1983C198.69 33.1983 211.807 30.5371 214.356 29.849C216.904 29.1608 220.585 30.9177 219.599 34.5715Z" fill="#A9D6E5"/>
<path d="M130.099 82.4691C147.391 87.1703 167.767 93.9511 191.76 103.478C191.76 103.478 221.754 113.98 233.331 134.356C234.74 136.829 235.596 139.578 235.841 142.414C236.087 145.25 235.715 148.105 234.751 150.784C233.788 153.462 232.255 155.9 230.26 157.929C228.265 159.959 225.853 161.533 223.191 162.542C201.269 170.872 171.469 159.85 171.469 159.85C158.401 155.63 146.623 151.456 136.006 147.366" stroke="black" stroke-width="1.43715" stroke-miterlimit="10"/>
<path d="M109.845 136.451C62.748 115.003 46.7962 96.6609 41.4434 85.9736C41.0689 85.2289 40.85 84.4153 40.7997 83.5832C40.7495 82.751 40.8692 81.9173 41.1514 81.133C41.4337 80.3483 41.8727 79.6298 42.4415 79.0202C43.0106 78.4109 43.6975 77.9234 44.4608 77.5882C53.3852 73.6513 70.9994 70.2806 104.368 76.5042" stroke="black" stroke-width="1.43715" stroke-miterlimit="10"/>
<path d="M189.956 34.4588L180.947 35.0221C180.862 31.691 181.58 26.5697 185.63 21.226C186.871 19.5888 188.45 18.2366 190.258 17.2607C192.067 16.2849 194.063 15.7079 196.113 15.5687C199.431 15.7691 202.558 17.1871 204.894 19.5514C207.295 21.9488 209.195 24.8003 210.482 27.9398C210.999 27.6901 211.544 27.4496 212.092 27.2304C213.705 26.605 215.351 26.0685 217.022 25.6227C218.91 25.0746 221.09 24.4048 223.093 24.6727C223.158 24.6736 223.222 24.6809 223.285 24.694C226.988 25.2969 218.2 30.9816 189.956 34.4588Z" fill="#353642"/>
<path d="M215.749 29.4476C216.864 29.95 218.261 30.2697 219.047 31.2745C220.679 33.3784 219.281 36.4507 217.281 37.7386C214.422 39.5838 211.018 37.3458 208.146 36.7003C208.799 39.8965 210.328 42.8481 212.561 45.2258C212.561 45.2258 210.686 46.1393 209.142 46.8365C208.289 47.2293 207.592 48.5508 207.132 49.6408C206.508 51.1937 205.468 52.5449 204.127 53.5473C197.087 58.6017 190.952 49.5555 190.952 49.5555" stroke="black" stroke-width="1.43715" stroke-linejoin="round"/>
<path d="M189.993 34.449C189.981 34.4532 189.968 34.4532 189.956 34.449C187.149 34.8509 184.345 35.1767 181.519 35.4264C180.912 35.515 180.295 35.5016 179.692 35.3868C179.458 35.3286 179.23 35.2449 179.013 35.1371C178.709 35.0031 178.404 34.8326 178.1 34.6895C175.998 33.6193 173.644 33.1424 171.292 33.3102C170.569 33.3327 169.871 33.5845 169.3 34.0288C168.387 34.8113 168.603 35.7126 168.996 36.4646C169.839 38.1515 171.477 39.4912 171.715 41.3577C171.907 42.7948 171.219 44.1741 170.875 45.5808C170.442 47.3876 170.575 49.2839 171.255 51.0128C172.117 53.1746 174.166 55.0989 176.492 54.9284C177.978 54.8127 179.278 53.884 180.344 52.8305C181.681 51.4929 182.758 49.9185 183.52 48.1872C183.876 47.3742 184.162 46.5125 184.689 45.794C185.216 45.0754 186.05 44.5121 186.93 44.576C188.702 44.71 189.466 47.0636 191.141 47.6208C192.541 48.0897 194.033 47.1215 194.935 45.9431C195.836 44.7648 196.39 43.349 197.431 42.3046C199.042 40.6695 200.208 41.3394 202.038 41.9514C204.699 42.8405 208.079 39.2111 208.155 36.7052" stroke="black" stroke-width="1.43715" stroke-linejoin="round"/>
<path d="M179.023 35.1472C178.916 31.8162 179.604 26.637 183.703 21.2263C188.845 14.4486 198.893 13.5108 204.879 19.5486C207.285 21.9461 209.19 24.7988 210.482 27.9402C212.531 26.9476 214.836 26.2472 217.022 25.62C218.968 25.0598 221.236 24.3686 223.282 24.7066C226.991 25.3155 218.206 30.9941 189.96 34.4652" stroke="black" stroke-width="1.43715" stroke-linejoin="round"/>
</svg>
