<svg width="785" height="413" viewBox="0 0 785 413" fill="none" xmlns="http://www.w3.org/2000/svg">
<rect x="93.2334" y="27.3828" width="691.267" height="344.817" stroke="#ECECEC"/>
<path d="M92.7334 140.773H785" stroke="#ECECEC"/>
<path d="M92.7334 84.8672H785" stroke="#ECECEC"/>
<path d="M92.7334 196.688H785" stroke="#ECECEC"/>
<path d="M92.7334 252.594H785" stroke="#ECECEC"/>
<path d="M92.7334 308.508H785" stroke="#ECECEC"/>
<path d="M209.189 26.8828L209.189 372.7" stroke="#ECECEC"/>
<path d="M323.489 26.8828L323.489 372.7" stroke="#ECECEC"/>
<path d="M437.788 26.8828L437.788 372.7" stroke="#ECECEC"/>
<path d="M552.088 26.8828L552.088 372.7" stroke="#ECECEC"/>
<path d="M666.387 26.8828L666.387 372.7" stroke="#ECECEC"/>
<path d="M147.4 383.704H148.281V388.903C148.281 389.367 148.196 389.761 148.025 390.085C147.855 390.41 147.614 390.656 147.304 390.824C146.994 390.992 146.628 391.076 146.207 391.076C145.809 391.076 145.455 391.004 145.145 390.859C144.835 390.713 144.591 390.504 144.414 390.234C144.236 389.964 144.147 389.644 144.147 389.272H145.014C145.014 389.478 145.065 389.658 145.166 389.812C145.271 389.963 145.413 390.082 145.593 390.167C145.772 390.252 145.977 390.295 146.207 390.295C146.46 390.295 146.676 390.241 146.853 390.135C147.031 390.028 147.166 389.872 147.258 389.666C147.353 389.458 147.4 389.203 147.4 388.903V383.704ZM151.537 391.104C151.191 391.104 150.878 391.039 150.596 390.909C150.314 390.777 150.091 390.586 149.925 390.337C149.759 390.086 149.676 389.783 149.676 389.428C149.676 389.116 149.738 388.862 149.861 388.668C149.984 388.472 150.149 388.318 150.355 388.207C150.561 388.095 150.788 388.013 151.036 387.958C151.287 387.901 151.539 387.856 151.793 387.823C152.124 387.781 152.393 387.749 152.599 387.727C152.807 387.704 152.959 387.665 153.053 387.61C153.151 387.556 153.199 387.461 153.199 387.326V387.298C153.199 386.947 153.103 386.675 152.911 386.481C152.722 386.287 152.434 386.19 152.048 386.19C151.648 386.19 151.335 386.277 151.107 386.452C150.88 386.628 150.72 386.815 150.628 387.013L149.833 386.729C149.975 386.398 150.164 386.14 150.401 385.955C150.64 385.768 150.9 385.638 151.182 385.565C151.466 385.489 151.745 385.451 152.02 385.451C152.195 385.451 152.397 385.472 152.624 385.515C152.853 385.555 153.075 385.639 153.288 385.767C153.503 385.895 153.682 386.088 153.824 386.346C153.966 386.604 154.037 386.95 154.037 387.383V390.977H153.199V390.238H153.156C153.1 390.356 153.005 390.483 152.872 390.618C152.74 390.753 152.563 390.868 152.343 390.962C152.123 391.057 151.854 391.104 151.537 391.104ZM151.665 390.352C151.996 390.352 152.276 390.286 152.503 390.156C152.733 390.026 152.905 389.858 153.022 389.652C153.14 389.446 153.199 389.229 153.199 389.002V388.235C153.164 388.278 153.085 388.317 152.965 388.352C152.846 388.385 152.709 388.415 152.553 388.441C152.399 388.465 152.249 388.486 152.102 388.505C151.957 388.522 151.84 388.536 151.75 388.548C151.532 388.576 151.329 388.622 151.139 388.686C150.952 388.748 150.801 388.841 150.685 388.967C150.571 389.09 150.514 389.258 150.514 389.471C150.514 389.762 150.622 389.982 150.838 390.131C151.055 390.278 151.331 390.352 151.665 390.352ZM156.405 387.695V390.977H155.567V385.522H156.376V386.374H156.447C156.575 386.097 156.769 385.875 157.03 385.707C157.29 385.536 157.626 385.451 158.038 385.451C158.408 385.451 158.731 385.527 159.008 385.678C159.285 385.827 159.5 386.055 159.654 386.36C159.808 386.663 159.885 387.047 159.885 387.511V390.977H159.047V387.567C159.047 387.139 158.936 386.805 158.713 386.566C158.491 386.325 158.185 386.204 157.797 386.204C157.529 386.204 157.29 386.262 157.08 386.378C156.871 386.494 156.707 386.663 156.586 386.886C156.465 387.108 156.405 387.378 156.405 387.695Z" fill="#4F4F4F"/>
<path d="M263.862 390.977V383.704H268.222V384.485H264.742V386.942H267.896V387.724H264.742V390.977H263.862ZM271.504 391.09C270.978 391.09 270.525 390.974 270.144 390.742C269.765 390.508 269.472 390.181 269.266 389.762C269.063 389.341 268.961 388.851 268.961 388.292C268.961 387.733 269.063 387.241 269.266 386.815C269.472 386.386 269.759 386.052 270.126 385.813C270.495 385.572 270.926 385.451 271.418 385.451C271.702 385.451 271.983 385.498 272.26 385.593C272.537 385.688 272.789 385.842 273.016 386.055C273.244 386.265 273.425 386.545 273.56 386.893C273.695 387.241 273.762 387.669 273.762 388.178V388.533H269.558V387.809H272.91C272.91 387.501 272.848 387.227 272.725 386.985C272.604 386.744 272.432 386.553 272.207 386.413C271.984 386.274 271.721 386.204 271.418 386.204C271.085 386.204 270.796 386.287 270.552 386.452C270.31 386.616 270.125 386.829 269.994 387.092C269.864 387.354 269.799 387.636 269.799 387.937V388.42C269.799 388.832 269.87 389.181 270.012 389.467C270.157 389.751 270.357 389.968 270.612 390.117C270.868 390.264 271.165 390.337 271.504 390.337C271.724 390.337 271.923 390.307 272.1 390.245C272.28 390.181 272.435 390.086 272.565 389.961C272.696 389.833 272.796 389.674 272.867 389.485L273.677 389.712C273.592 389.987 273.448 390.228 273.247 390.437C273.046 390.643 272.797 390.804 272.501 390.92C272.206 391.033 271.873 391.09 271.504 391.09ZM275.151 390.977V383.704H275.989V386.388H276.06C276.121 386.294 276.207 386.173 276.315 386.026C276.427 385.877 276.585 385.745 276.791 385.629C277 385.51 277.281 385.451 277.636 385.451C278.096 385.451 278.501 385.566 278.851 385.795C279.201 386.025 279.475 386.351 279.671 386.772C279.868 387.193 279.966 387.691 279.966 388.263C279.966 388.841 279.868 389.342 279.671 389.766C279.475 390.187 279.202 390.514 278.854 390.746C278.506 390.975 278.105 391.09 277.651 391.09C277.3 391.09 277.02 391.032 276.809 390.916C276.598 390.798 276.436 390.664 276.323 390.515C276.209 390.363 276.121 390.238 276.06 390.138H275.96V390.977H275.151ZM275.974 388.249C275.974 388.661 276.035 389.025 276.156 389.339C276.276 389.652 276.453 389.897 276.685 390.075C276.917 390.25 277.201 390.337 277.537 390.337C277.887 390.337 278.18 390.245 278.414 390.06C278.651 389.873 278.828 389.622 278.947 389.308C279.068 388.99 279.128 388.638 279.128 388.249C279.128 387.866 279.069 387.52 278.95 387.212C278.834 386.902 278.658 386.657 278.421 386.477C278.187 386.295 277.892 386.204 277.537 386.204C277.196 386.204 276.91 386.29 276.678 386.463C276.446 386.634 276.27 386.873 276.152 387.18C276.034 387.486 275.974 387.842 275.974 388.249Z" fill="#4F4F4F"/>
<path d="M377.785 383.704H378.836L381.308 389.741H381.393L383.864 383.704H384.916V390.977H384.092V385.451H384.021L381.748 390.977H380.953L378.68 385.451H378.609V390.977H377.785V383.704ZM388.173 391.104C387.827 391.104 387.514 391.039 387.232 390.909C386.95 390.777 386.726 390.586 386.561 390.337C386.395 390.086 386.312 389.783 386.312 389.428C386.312 389.116 386.374 388.862 386.497 388.668C386.62 388.472 386.784 388.318 386.99 388.207C387.196 388.095 387.424 388.013 387.672 387.958C387.923 387.901 388.175 387.856 388.429 387.823C388.76 387.781 389.029 387.749 389.235 387.727C389.443 387.704 389.595 387.665 389.689 387.61C389.786 387.556 389.835 387.461 389.835 387.326V387.298C389.835 386.947 389.739 386.675 389.547 386.481C389.358 386.287 389.07 386.19 388.684 386.19C388.284 386.19 387.97 386.277 387.743 386.452C387.516 386.628 387.356 386.815 387.264 387.013L386.468 386.729C386.61 386.398 386.8 386.14 387.037 385.955C387.276 385.768 387.536 385.638 387.818 385.565C388.102 385.489 388.381 385.451 388.656 385.451C388.831 385.451 389.032 385.472 389.26 385.515C389.489 385.555 389.711 385.639 389.924 385.767C390.139 385.895 390.318 386.088 390.46 386.346C390.602 386.604 390.673 386.95 390.673 387.383V390.977H389.835V390.238H389.792C389.735 390.356 389.641 390.483 389.508 390.618C389.376 390.753 389.199 390.868 388.979 390.962C388.759 391.057 388.49 391.104 388.173 391.104ZM388.301 390.352C388.632 390.352 388.912 390.286 389.139 390.156C389.368 390.026 389.541 389.858 389.657 389.652C389.776 389.446 389.835 389.229 389.835 389.002V388.235C389.799 388.278 389.721 388.317 389.6 388.352C389.482 388.385 389.345 388.415 389.188 388.441C389.035 388.465 388.884 388.486 388.737 388.505C388.593 388.522 388.476 388.536 388.386 388.548C388.168 388.576 387.965 388.622 387.775 388.686C387.588 388.748 387.437 388.841 387.321 388.967C387.207 389.09 387.15 389.258 387.15 389.471C387.15 389.762 387.258 389.982 387.473 390.131C387.691 390.278 387.967 390.352 388.301 390.352ZM392.203 390.977V385.522H393.012V386.346H393.069C393.168 386.076 393.348 385.857 393.609 385.689C393.869 385.521 394.163 385.437 394.489 385.437C394.551 385.437 394.628 385.438 394.72 385.44C394.813 385.443 394.882 385.446 394.93 385.451V386.303C394.901 386.296 394.836 386.286 394.734 386.271C394.635 386.255 394.53 386.246 394.418 386.246C394.153 386.246 393.917 386.302 393.708 386.413C393.502 386.522 393.339 386.674 393.218 386.868C393.1 387.06 393.041 387.279 393.041 387.525V390.977H392.203Z" fill="#4F4F4F"/>
<path d="M491.066 390.977H490.142L492.813 383.704H493.722L496.392 390.977H495.469L493.296 384.854H493.239L491.066 390.977ZM491.407 388.136H495.128V388.917H491.407V388.136ZM497.412 393.022V385.522H498.221V386.388H498.321C498.382 386.294 498.467 386.173 498.576 386.026C498.688 385.877 498.846 385.745 499.052 385.629C499.26 385.51 499.542 385.451 499.897 385.451C500.357 385.451 500.761 385.566 501.112 385.795C501.462 386.025 501.736 386.351 501.932 386.772C502.129 387.193 502.227 387.691 502.227 388.263C502.227 388.841 502.129 389.342 501.932 389.766C501.736 390.187 501.463 390.514 501.115 390.746C500.767 390.975 500.366 391.09 499.912 391.09C499.561 391.09 499.281 391.032 499.07 390.916C498.859 390.798 498.697 390.664 498.583 390.515C498.47 390.363 498.382 390.238 498.321 390.138H498.25V393.022H497.412ZM498.235 388.249C498.235 388.661 498.296 389.025 498.416 389.339C498.537 389.652 498.714 389.897 498.946 390.075C499.178 390.25 499.462 390.337 499.798 390.337C500.148 390.337 500.441 390.245 500.675 390.06C500.912 389.873 501.089 389.622 501.208 389.308C501.328 388.99 501.389 388.638 501.389 388.249C501.389 387.866 501.33 387.52 501.211 387.212C501.095 386.902 500.919 386.657 500.682 386.477C500.448 386.295 500.153 386.204 499.798 386.204C499.457 386.204 499.171 386.29 498.938 386.463C498.706 386.634 498.531 386.873 498.413 387.18C498.295 387.486 498.235 387.842 498.235 388.249ZM503.505 390.977V385.522H504.315V386.346H504.372C504.471 386.076 504.651 385.857 504.912 385.689C505.172 385.521 505.465 385.437 505.792 385.437C505.854 385.437 505.931 385.438 506.023 385.44C506.115 385.443 506.185 385.446 506.233 385.451V386.303C506.204 386.296 506.139 386.286 506.037 386.271C505.938 386.255 505.832 386.246 505.721 386.246C505.456 386.246 505.219 386.302 505.011 386.413C504.805 386.522 504.642 386.674 504.521 386.868C504.403 387.06 504.343 387.279 504.343 387.525V390.977H503.505Z" fill="#4F4F4F"/>
<path d="M602.744 383.704H603.796L606.267 389.741H606.352L608.824 383.704H609.875V390.977H609.051V385.451H608.98L606.707 390.977H605.912L603.639 385.451H603.568V390.977H602.744V383.704ZM613.132 391.104C612.787 391.104 612.473 391.039 612.191 390.909C611.91 390.777 611.686 390.586 611.52 390.337C611.354 390.086 611.272 389.783 611.272 389.428C611.272 389.116 611.333 388.862 611.456 388.668C611.579 388.472 611.744 388.318 611.95 388.207C612.156 388.095 612.383 388.013 612.632 387.958C612.883 387.901 613.135 387.856 613.388 387.823C613.719 387.781 613.988 387.749 614.194 387.727C614.402 387.704 614.554 387.665 614.649 387.61C614.746 387.556 614.794 387.461 614.794 387.326V387.298C614.794 386.947 614.698 386.675 614.507 386.481C614.317 386.287 614.03 386.19 613.644 386.19C613.244 386.19 612.93 386.277 612.703 386.452C612.475 386.628 612.316 386.815 612.223 387.013L611.428 386.729C611.57 386.398 611.759 386.14 611.996 385.955C612.235 385.768 612.496 385.638 612.777 385.565C613.061 385.489 613.341 385.451 613.615 385.451C613.79 385.451 613.992 385.472 614.219 385.515C614.449 385.555 614.67 385.639 614.883 385.767C615.098 385.895 615.277 386.088 615.419 386.346C615.561 386.604 615.632 386.95 615.632 387.383V390.977H614.794V390.238H614.752C614.695 390.356 614.6 390.483 614.468 390.618C614.335 390.753 614.159 390.868 613.938 390.962C613.718 391.057 613.45 391.104 613.132 391.104ZM613.26 390.352C613.592 390.352 613.871 390.286 614.098 390.156C614.328 390.026 614.501 389.858 614.617 389.652C614.735 389.446 614.794 389.229 614.794 389.002V388.235C614.759 388.278 614.681 388.317 614.56 388.352C614.442 388.385 614.304 388.415 614.148 388.441C613.994 388.465 613.844 388.486 613.697 388.505C613.553 388.522 613.435 388.536 613.345 388.548C613.128 388.576 612.924 388.622 612.735 388.686C612.548 388.748 612.396 388.841 612.28 388.967C612.166 389.09 612.11 389.258 612.11 389.471C612.11 389.762 612.217 389.982 612.433 390.131C612.651 390.278 612.926 390.352 613.26 390.352ZM617.162 390.977V385.522H618V390.977H617.162ZM617.588 384.613C617.425 384.613 617.284 384.557 617.166 384.446C617.05 384.335 616.992 384.201 616.992 384.045C616.992 383.888 617.05 383.755 617.166 383.643C617.284 383.532 617.425 383.477 617.588 383.477C617.751 383.477 617.891 383.532 618.007 383.643C618.126 383.755 618.185 383.888 618.185 384.045C618.185 384.201 618.126 384.335 618.007 384.446C617.891 384.557 617.751 384.613 617.588 384.613Z" fill="#4F4F4F"/>
<path d="M721.892 383.704H722.773V388.903C722.773 389.367 722.688 389.761 722.517 390.085C722.347 390.41 722.106 390.656 721.796 390.824C721.486 390.992 721.12 391.076 720.699 391.076C720.301 391.076 719.947 391.004 719.637 390.859C719.327 390.713 719.083 390.504 718.906 390.234C718.728 389.964 718.639 389.644 718.639 389.272H719.506C719.506 389.478 719.557 389.658 719.659 389.812C719.763 389.963 719.905 390.082 720.085 390.167C720.265 390.252 720.469 390.295 720.699 390.295C720.952 390.295 721.168 390.241 721.345 390.135C721.523 390.028 721.658 389.872 721.75 389.666C721.845 389.458 721.892 389.203 721.892 388.903V383.704ZM727.862 388.746V385.522H728.7V390.977H727.862V390.053H727.805C727.677 390.33 727.478 390.566 727.208 390.76C726.938 390.952 726.597 391.048 726.186 391.048C725.845 391.048 725.542 390.973 725.276 390.824C725.011 390.672 724.803 390.445 724.651 390.142C724.5 389.837 724.424 389.452 724.424 388.988V385.522H725.262V388.931C725.262 389.329 725.374 389.646 725.596 389.883C725.821 390.12 726.107 390.238 726.455 390.238C726.664 390.238 726.876 390.185 727.091 390.078C727.309 389.972 727.491 389.808 727.638 389.588C727.787 389.368 727.862 389.087 727.862 388.746ZM731.073 387.695V390.977H730.235V385.522H731.044V386.374H731.115C731.243 386.097 731.437 385.875 731.698 385.707C731.958 385.536 732.294 385.451 732.706 385.451C733.076 385.451 733.399 385.527 733.676 385.678C733.953 385.827 734.168 386.055 734.322 386.36C734.476 386.663 734.553 387.047 734.553 387.511V390.977H733.715V387.567C733.715 387.139 733.604 386.805 733.381 386.566C733.159 386.325 732.853 386.204 732.465 386.204C732.197 386.204 731.958 386.262 731.748 386.378C731.539 386.494 731.375 386.663 731.254 386.886C731.133 387.108 731.073 387.378 731.073 387.695Z" fill="#4F4F4F"/>
<path d="M56.6346 374.588C55.9926 374.588 55.4457 374.413 54.994 374.064C54.5423 373.712 54.1971 373.202 53.9585 372.534C53.7198 371.864 53.6005 371.054 53.6005 370.105C53.6005 369.162 53.7198 368.357 53.9585 367.689C54.2 367.018 54.5466 366.507 54.9983 366.155C55.4528 365.8 55.9983 365.622 56.6346 365.622C57.271 365.622 57.815 365.8 58.2667 366.155C58.7213 366.507 59.0679 367.018 59.3065 367.689C59.548 368.357 59.6687 369.162 59.6687 370.105C59.6687 371.054 59.5494 371.864 59.3108 372.534C59.0721 373.202 58.727 373.712 58.2752 374.064C57.8235 374.413 57.2767 374.588 56.6346 374.588ZM56.6346 373.651C57.271 373.651 57.7653 373.344 58.1176 372.73C58.4698 372.116 58.646 371.241 58.646 370.105C58.646 369.349 58.565 368.706 58.4031 368.175C58.244 367.643 58.0139 367.239 57.7127 366.96C57.4145 366.682 57.0551 366.543 56.6346 366.543C56.0039 366.543 55.511 366.854 55.1559 367.476C54.8008 368.095 54.6233 368.972 54.6233 370.105C54.6233 370.861 54.7028 371.503 54.8619 372.031C55.021 372.56 55.2497 372.962 55.548 373.237C55.8491 373.513 56.2113 373.651 56.6346 373.651Z" fill="#4F4F4F"/>
<path d="M56.7145 310.44C56.2145 310.44 55.7642 310.34 55.3637 310.141C54.9631 309.942 54.6421 309.67 54.4006 309.323C54.1591 308.977 54.027 308.582 54.0043 308.138H55.027C55.0668 308.533 55.2458 308.86 55.564 309.119C55.885 309.374 56.2685 309.502 56.7145 309.502C57.0725 309.502 57.3907 309.418 57.6691 309.251C57.9503 309.083 58.1705 308.853 58.3296 308.56C58.4915 308.265 58.5725 307.931 58.5725 307.559C58.5725 307.178 58.4887 306.839 58.3211 306.54C58.1563 306.239 57.929 306.002 57.6392 305.829C57.3495 305.656 57.0185 305.567 56.6463 305.565C56.3793 305.562 56.1051 305.603 55.8239 305.688C55.5426 305.771 55.3111 305.877 55.1293 306.008L54.1407 305.888L54.6691 301.593H59.2032V302.531H55.5554L55.2486 305.104H55.2997C55.4787 304.962 55.7032 304.844 55.973 304.751C56.2429 304.657 56.5242 304.61 56.8168 304.61C57.3509 304.61 57.8267 304.738 58.2444 304.994C58.6648 305.246 58.9944 305.593 59.233 306.033C59.4745 306.474 59.5952 306.977 59.5952 307.542C59.5952 308.099 59.4702 308.596 59.2202 309.033C58.973 309.468 58.6321 309.812 58.1975 310.065C57.7628 310.315 57.2685 310.44 56.7145 310.44Z" fill="#4F4F4F"/>
<path d="M51.2781 245.999V254.727H50.2213V247.107H50.1701L48.0395 248.522V247.448L50.2213 245.999H51.2781ZM56.6346 254.846C55.9926 254.846 55.4457 254.671 54.994 254.322C54.5423 253.969 54.1971 253.46 53.9585 252.792C53.7198 252.121 53.6005 251.312 53.6005 250.363C53.6005 249.42 53.7198 248.614 53.9585 247.947C54.2 247.276 54.5466 246.765 54.9983 246.413C55.4528 246.058 55.9983 245.88 56.6346 245.88C57.271 245.88 57.815 246.058 58.2667 246.413C58.7213 246.765 59.0679 247.276 59.3065 247.947C59.548 248.614 59.6687 249.42 59.6687 250.363C59.6687 251.312 59.5494 252.121 59.3108 252.792C59.0721 253.46 58.727 253.969 58.2752 254.322C57.8235 254.671 57.2767 254.846 56.6346 254.846ZM56.6346 253.908C57.271 253.908 57.7653 253.602 58.1176 252.988C58.4698 252.374 58.646 251.499 58.646 250.363C58.646 249.607 58.565 248.964 58.4031 248.433C58.244 247.901 58.0139 247.496 57.7127 247.218C57.4145 246.94 57.0551 246.8 56.6346 246.8C56.0039 246.8 55.511 247.112 55.1559 247.734C54.8008 248.353 54.6233 249.229 54.6233 250.363C54.6233 251.119 54.7028 251.761 54.8619 252.289C55.021 252.817 55.2497 253.219 55.548 253.495C55.8491 253.771 56.2113 253.908 56.6346 253.908Z" fill="#4F4F4F"/>
<path d="M51.4773 187.195V195.922H50.4205V188.303H50.3694L48.2387 189.717V188.643L50.4205 187.195H51.4773ZM56.7145 196.041C56.2145 196.041 55.7642 195.942 55.3637 195.743C54.9631 195.544 54.6421 195.271 54.4006 194.925C54.1591 194.578 54.027 194.183 54.0043 193.74H55.027C55.0668 194.135 55.2458 194.462 55.564 194.72C55.885 194.976 56.2685 195.104 56.7145 195.104C57.0725 195.104 57.3907 195.02 57.6691 194.852C57.9503 194.685 58.1705 194.455 58.3296 194.162C58.4915 193.866 58.5725 193.533 58.5725 193.161C58.5725 192.78 58.4887 192.44 58.3211 192.142C58.1563 191.841 57.929 191.604 57.6392 191.43C57.3495 191.257 57.0185 191.169 56.6463 191.166C56.3793 191.163 56.1051 191.205 55.8239 191.29C55.5426 191.372 55.3111 191.479 55.1293 191.609L54.1407 191.49L54.6691 187.195H59.2032V188.132H55.5554L55.2486 190.706H55.2997C55.4787 190.564 55.7032 190.446 55.973 190.352C56.2429 190.259 56.5242 190.212 56.8168 190.212C57.3509 190.212 57.8267 190.339 58.2444 190.595C58.6648 190.848 58.9944 191.195 59.233 191.635C59.4745 192.075 59.5952 192.578 59.5952 193.143C59.5952 193.7 59.4702 194.197 59.2202 194.635C58.973 195.07 58.6321 195.413 58.1975 195.666C57.7628 195.916 57.2685 196.041 56.7145 196.041Z" fill="#4F4F4F"/>
<path d="M46.5224 142.461V141.694L49.4031 138.54C49.7412 138.171 50.0196 137.85 50.2383 137.577C50.4571 137.302 50.619 137.043 50.7241 136.802C50.8321 136.558 50.886 136.302 50.886 136.035C50.886 135.728 50.8122 135.462 50.6645 135.238C50.5196 135.013 50.3207 134.84 50.0679 134.718C49.815 134.596 49.5309 134.535 49.2156 134.535C48.8804 134.535 48.5877 134.604 48.3377 134.744C48.0906 134.88 47.8988 135.072 47.7625 135.319C47.6289 135.566 47.5622 135.856 47.5622 136.188H46.5565C46.5565 135.677 46.6744 135.228 46.9102 134.842C47.146 134.455 47.467 134.154 47.8733 133.938C48.2823 133.722 48.7412 133.614 49.2497 133.614C49.761 133.614 50.2142 133.722 50.6091 133.938C51.0039 134.154 51.3136 134.445 51.538 134.812C51.7625 135.178 51.8747 135.586 51.8747 136.035C51.8747 136.356 51.8164 136.67 51.7 136.977C51.5863 137.281 51.3875 137.62 51.1034 137.995C50.8221 138.367 50.4315 138.822 49.9315 139.359L47.9713 141.455V141.523H52.0281V142.461H46.5224ZM56.6346 142.58C55.9926 142.58 55.4457 142.406 54.994 142.056C54.5423 141.704 54.1971 141.194 53.9585 140.526C53.7198 139.856 53.6005 139.046 53.6005 138.097C53.6005 137.154 53.7198 136.349 53.9585 135.681C54.2 135.011 54.5466 134.499 54.9983 134.147C55.4528 133.792 55.9983 133.614 56.6346 133.614C57.271 133.614 57.815 133.792 58.2667 134.147C58.7213 134.499 59.0679 135.011 59.3065 135.681C59.548 136.349 59.6687 137.154 59.6687 138.097C59.6687 139.046 59.5494 139.856 59.3108 140.526C59.0721 141.194 58.727 141.704 58.2752 142.056C57.8235 142.406 57.2767 142.58 56.6346 142.58ZM56.6346 141.643C57.271 141.643 57.7653 141.336 58.1176 140.722C58.4698 140.109 58.646 139.234 58.646 138.097C58.646 137.342 58.565 136.698 58.4031 136.167C58.244 135.636 58.0139 135.231 57.7127 134.952C57.4145 134.674 57.0551 134.535 56.6346 134.535C56.0039 134.535 55.511 134.846 55.1559 135.468C54.8008 136.087 54.6233 136.964 54.6233 138.097C54.6233 138.853 54.7028 139.495 54.8619 140.023C55.021 140.552 55.2497 140.954 55.548 141.229C55.8491 141.505 56.2113 141.643 56.6346 141.643Z" fill="#4F4F4F"/>
<path d="M46.7216 83.6641V82.897L49.6023 79.7436C49.9404 79.3743 50.2188 79.0533 50.4375 78.7805C50.6563 78.505 50.8182 78.2464 50.9233 78.005C51.0313 77.7607 51.0853 77.505 51.0853 77.2379C51.0853 76.9311 51.0114 76.6655 50.8637 76.4411C50.7188 76.2166 50.5199 76.0433 50.2671 75.9212C50.0142 75.799 49.7301 75.7379 49.4148 75.7379C49.0796 75.7379 48.787 75.8075 48.537 75.9467C48.2898 76.0831 48.098 76.2749 47.9617 76.522C47.8282 76.7692 47.7614 77.0589 47.7614 77.3913H46.7557C46.7557 76.88 46.8736 76.4311 47.1094 76.0447C47.3452 75.6584 47.6662 75.3572 48.0725 75.1413C48.4816 74.9254 48.9404 74.8175 49.4489 74.8175C49.9603 74.8175 50.4134 74.9254 50.8083 75.1413C51.2032 75.3572 51.5128 75.6484 51.7372 76.0149C51.9617 76.3814 52.0739 76.7891 52.0739 77.2379C52.0739 77.5589 52.0157 77.8729 51.8992 78.1797C51.7855 78.4837 51.5867 78.8232 51.3026 79.1982C51.0213 79.5703 50.6307 80.0249 50.1307 80.5618L48.1705 82.6584V82.7266H52.2273V83.6641H46.7216ZM56.7145 83.7834C56.2145 83.7834 55.7642 83.6839 55.3637 83.4851C54.9631 83.2862 54.6421 83.0135 54.4006 82.6669C54.1591 82.3203 54.027 81.9254 54.0043 81.4822H55.027C55.0668 81.8771 55.2458 82.2038 55.564 82.4624C55.885 82.718 56.2685 82.8459 56.7145 82.8459C57.0725 82.8459 57.3907 82.7621 57.6691 82.5945C57.9503 82.4268 58.1705 82.1967 58.3296 81.9041C58.4915 81.6087 58.5725 81.2749 58.5725 80.9027C58.5725 80.522 58.4887 80.1825 58.3211 79.8842C58.1563 79.5831 57.929 79.3459 57.6392 79.1726C57.3495 78.9993 57.0185 78.9112 56.6463 78.9084C56.3793 78.9055 56.1051 78.9467 55.8239 79.032C55.5426 79.1143 55.3111 79.2209 55.1293 79.3516L54.1407 79.2322L54.6691 74.9368H59.2032V75.8743H55.5554L55.2486 78.4482H55.2997C55.4787 78.3061 55.7032 78.1882 55.973 78.0945C56.2429 78.0007 56.5242 77.9538 56.8168 77.9538C57.3509 77.9538 57.8267 78.0817 58.2444 78.3374C58.6648 78.5902 58.9944 78.9368 59.233 79.3771C59.4745 79.8175 59.5952 80.3203 59.5952 80.8857C59.5952 81.4425 59.4702 81.9396 59.2202 82.3771C58.973 82.8118 58.6321 83.1555 58.1975 83.4084C57.7628 83.6584 57.2685 83.7834 56.7145 83.7834Z" fill="#4F4F4F"/>
<path d="M49.0963 30.3224C48.5338 30.3224 48.0323 30.2259 47.592 30.0327C47.1545 29.8395 46.8065 29.571 46.548 29.2273C46.2923 28.8807 46.1531 28.4787 46.1304 28.0213H47.2042C47.227 28.3026 47.3235 28.5455 47.494 28.75C47.6645 28.9517 47.8875 29.108 48.163 29.2188C48.4386 29.3295 48.744 29.3849 49.0792 29.3849C49.4542 29.3849 49.7866 29.3196 50.0764 29.1889C50.3662 29.0582 50.5934 28.8764 50.7582 28.6435C50.923 28.4105 51.0054 28.1406 51.0054 27.8338C51.0054 27.5128 50.9258 27.2301 50.7667 26.9858C50.6076 26.7386 50.3747 26.5455 50.0679 26.4062C49.761 26.267 49.386 26.1974 48.9429 26.1974H48.244V25.2599H48.9429C49.2895 25.2599 49.5934 25.1974 49.8548 25.0724C50.119 24.9474 50.325 24.7713 50.4727 24.544C50.6233 24.3168 50.6985 24.0497 50.6985 23.7429C50.6985 23.4474 50.6332 23.1903 50.5025 22.9716C50.3718 22.7528 50.1872 22.5824 49.9485 22.4602C49.7127 22.3381 49.4343 22.277 49.1133 22.277C48.8122 22.277 48.5281 22.3324 48.261 22.4432C47.9968 22.5511 47.7809 22.7088 47.6133 22.9162C47.4457 23.1207 47.3548 23.3679 47.3406 23.6577H46.3179C46.3349 23.2003 46.4727 22.7997 46.7312 22.456C46.9897 22.1094 47.3278 21.8395 47.7454 21.6463C48.1659 21.4531 48.6275 21.3565 49.1304 21.3565C49.6701 21.3565 50.1332 21.4659 50.5196 21.6847C50.9059 21.9006 51.2028 22.1861 51.4102 22.5412C51.6176 22.8963 51.7213 23.2798 51.7213 23.6918C51.7213 24.1832 51.592 24.6023 51.3335 24.9489C51.0778 25.2955 50.7298 25.5355 50.2895 25.669V25.7372C50.8406 25.8281 51.271 26.0625 51.5806 26.4403C51.8903 26.8153 52.0451 27.2798 52.0451 27.8338C52.0451 28.3082 51.9159 28.7344 51.6573 29.1122C51.4017 29.4872 51.0522 29.7827 50.6091 29.9986C50.1659 30.2145 49.6616 30.3224 49.0963 30.3224ZM56.6346 30.3224C55.9926 30.3224 55.4457 30.1477 54.994 29.7983C54.5423 29.446 54.1971 28.9361 53.9585 28.2685C53.7198 27.598 53.6005 26.7884 53.6005 25.8395C53.6005 24.8963 53.7198 24.0909 53.9585 23.4233C54.2 22.7528 54.5466 22.2415 54.9983 21.8892C55.4528 21.5341 55.9983 21.3565 56.6346 21.3565C57.271 21.3565 57.815 21.5341 58.2667 21.8892C58.7213 22.2415 59.0679 22.7528 59.3065 23.4233C59.548 24.0909 59.6687 24.8963 59.6687 25.8395C59.6687 26.7884 59.5494 27.598 59.3108 28.2685C59.0721 28.9361 58.727 29.446 58.2752 29.7983C57.8235 30.1477 57.2767 30.3224 56.6346 30.3224ZM56.6346 29.3849C57.271 29.3849 57.7653 29.0781 58.1176 28.4645C58.4698 27.8509 58.646 26.9759 58.646 25.8395C58.646 25.0838 58.565 24.4403 58.4031 23.9091C58.244 23.3778 58.0139 22.973 57.7127 22.6946C57.4145 22.4162 57.0551 22.277 56.6346 22.277C56.0039 22.277 55.511 22.5881 55.1559 23.2102C54.8008 23.8295 54.6233 24.706 54.6233 25.8395C54.6233 26.5952 54.7028 27.2372 54.8619 27.7656C55.021 28.294 55.2497 28.696 55.548 28.9716C55.8491 29.2472 56.2113 29.3849 56.6346 29.3849Z" fill="#4F4F4F"/>
<path d="M566.751 14V7.8002H568.846C569.33 7.8002 569.728 7.88294 570.038 8.04843C570.349 8.2119 570.579 8.43693 570.729 8.72351C570.878 9.01009 570.953 9.33602 570.953 9.70131C570.953 10.0666 570.878 10.3905 570.729 10.6731C570.579 10.9556 570.35 11.1776 570.041 11.339C569.733 11.4985 569.338 11.5782 568.858 11.5782H567.162V10.9001H568.834C569.164 10.9001 569.431 10.8517 569.633 10.7548C569.837 10.6579 569.984 10.5207 570.075 10.3431C570.168 10.1635 570.214 9.94954 570.214 9.70131C570.214 9.45307 570.168 9.23612 570.075 9.05045C569.982 8.86478 569.834 8.72149 569.63 8.62058C569.426 8.51765 569.156 8.46619 568.821 8.46619H567.502V14H566.751ZM569.669 11.2149L571.195 14H570.323L568.821 11.2149H569.669ZM574.006 14.0969C573.558 14.0969 573.172 13.998 572.847 13.8002C572.524 13.6004 572.275 13.3219 572.099 12.9647C571.926 12.6054 571.839 12.1877 571.839 11.7114C571.839 11.2351 571.926 10.8153 572.099 10.4521C572.275 10.0868 572.519 9.80222 572.832 9.59838C573.147 9.39253 573.514 9.2896 573.934 9.2896C574.176 9.2896 574.415 9.32997 574.651 9.41069C574.887 9.49142 575.102 9.6226 575.296 9.80423C575.49 9.98385 575.644 10.222 575.759 10.5187C575.874 10.8153 575.932 11.1806 575.932 11.6145V11.9173H572.347V11.2997H575.205C575.205 11.0373 575.153 10.8032 575.048 10.5974C574.945 10.3915 574.797 10.2291 574.606 10.11C574.416 9.99091 574.192 9.93138 573.934 9.93138C573.649 9.93138 573.403 10.002 573.195 10.1433C572.989 10.2825 572.831 10.4642 572.72 10.6882C572.609 10.9122 572.553 11.1524 572.553 11.4087V11.8204C572.553 12.1715 572.614 12.4692 572.735 12.7134C572.858 12.9556 573.029 13.1403 573.246 13.2674C573.464 13.3925 573.718 13.4551 574.006 13.4551C574.194 13.4551 574.364 13.4289 574.515 13.3764C574.668 13.3219 574.8 13.2412 574.911 13.1342C575.022 13.0252 575.108 12.89 575.169 12.7286L575.859 12.9223C575.786 13.1564 575.664 13.3623 575.493 13.5399C575.321 13.7154 575.109 13.8527 574.857 13.9516C574.605 14.0484 574.321 14.0969 574.006 14.0969ZM578.907 14.0969C578.472 14.0969 578.096 13.9939 577.781 13.7881C577.466 13.5822 577.224 13.2987 577.055 12.9374C576.885 12.5762 576.8 12.1635 576.8 11.6993C576.8 11.227 576.887 10.8103 577.061 10.449C577.236 10.0858 577.481 9.80222 577.793 9.59838C578.108 9.39253 578.476 9.2896 578.895 9.2896C579.222 9.2896 579.517 9.35015 579.779 9.47124C580.042 9.59233 580.257 9.76185 580.424 9.97981C580.592 10.1978 580.696 10.4521 580.736 10.7427H580.021C579.967 10.5308 579.846 10.3431 579.658 10.1796C579.473 10.0141 579.222 9.93138 578.907 9.93138C578.629 9.93138 578.385 10.004 578.175 10.1493C577.967 10.2926 577.805 10.4955 577.687 10.7578C577.572 11.0182 577.515 11.3239 577.515 11.6751C577.515 12.0343 577.571 12.3471 577.684 12.6135C577.799 12.8799 577.961 13.0868 578.169 13.2341C578.379 13.3814 578.625 13.4551 578.907 13.4551C579.093 13.4551 579.262 13.4228 579.413 13.3582C579.564 13.2936 579.692 13.2008 579.797 13.0797C579.902 12.9586 579.977 12.8133 580.021 12.6438H580.736C580.696 12.9183 580.596 13.1655 580.436 13.3855C580.279 13.6034 580.07 13.777 579.81 13.9062C579.551 14.0333 579.251 14.0969 578.907 14.0969ZM583.73 14.0969C583.282 14.0969 582.895 13.998 582.57 13.8002C582.247 13.6004 581.998 13.3219 581.823 12.9647C581.649 12.6054 581.562 12.1877 581.562 11.7114C581.562 11.2351 581.649 10.8153 581.823 10.4521C581.998 10.0868 582.242 9.80222 582.555 9.59838C582.87 9.39253 583.237 9.2896 583.657 9.2896C583.899 9.2896 584.139 9.32997 584.375 9.41069C584.611 9.49142 584.826 9.6226 585.019 9.80423C585.213 9.98385 585.368 10.222 585.483 10.5187C585.598 10.8153 585.655 11.1806 585.655 11.6145V11.9173H582.071V11.2997H584.929C584.929 11.0373 584.876 10.8032 584.771 10.5974C584.668 10.3915 584.521 10.2291 584.329 10.11C584.14 9.99091 583.916 9.93138 583.657 9.93138C583.373 9.93138 583.126 10.002 582.919 10.1433C582.713 10.2825 582.554 10.4642 582.443 10.6882C582.332 10.9122 582.277 11.1524 582.277 11.4087V11.8204C582.277 12.1715 582.337 12.4692 582.458 12.7134C582.581 12.9556 582.752 13.1403 582.97 13.2674C583.188 13.3925 583.441 13.4551 583.73 13.4551C583.918 13.4551 584.087 13.4289 584.238 13.3764C584.392 13.3219 584.524 13.2412 584.635 13.1342C584.746 13.0252 584.832 12.89 584.892 12.7286L585.583 12.9223C585.51 13.1564 585.388 13.3623 585.216 13.5399C585.045 13.7154 584.833 13.8527 584.58 13.9516C584.328 14.0484 584.045 14.0969 583.73 14.0969ZM586.742 14V9.35015H587.456V14H586.742ZM587.105 8.57517C586.966 8.57517 586.846 8.52774 586.745 8.43289C586.646 8.33804 586.597 8.22401 586.597 8.09081C586.597 7.95761 586.646 7.84359 586.745 7.74873C586.846 7.65388 586.966 7.60645 587.105 7.60645C587.244 7.60645 587.364 7.65388 587.462 7.74873C587.563 7.84359 587.614 7.95761 587.614 8.09081C587.614 8.22401 587.563 8.33804 587.462 8.43289C587.364 8.52774 587.244 8.57517 587.105 8.57517ZM588.765 15.7437V9.35015H589.455V10.0888H589.54C589.592 10.0081 589.665 9.90514 589.758 9.78002C589.853 9.65287 589.988 9.53985 590.163 9.44096C590.341 9.34006 590.581 9.2896 590.884 9.2896C591.276 9.2896 591.621 9.38748 591.919 9.58324C592.218 9.77901 592.451 10.0565 592.619 10.4157C592.786 10.775 592.87 11.1988 592.87 11.6872C592.87 12.1796 592.786 12.6065 592.619 12.9677C592.451 13.3269 592.219 13.6054 591.922 13.8032C591.626 13.999 591.284 14.0969 590.896 14.0969C590.597 14.0969 590.358 14.0474 590.179 13.9485C589.999 13.8476 589.861 13.7336 589.764 13.6065C589.667 13.4773 589.592 13.3703 589.54 13.2856H589.479V15.7437H588.765ZM589.467 11.6751C589.467 12.0262 589.519 12.336 589.622 12.6044C589.725 12.8708 589.875 13.0797 590.073 13.2311C590.27 13.3804 590.513 13.4551 590.799 13.4551C591.098 13.4551 591.347 13.3764 591.547 13.219C591.749 13.0595 591.9 12.8456 592.001 12.5772C592.104 12.3068 592.155 12.0061 592.155 11.6751C592.155 11.3481 592.105 11.0535 592.004 10.7911C591.905 10.5267 591.755 10.3179 591.553 10.1645C591.353 10.0091 591.102 9.93138 590.799 9.93138C590.509 9.93138 590.264 10.005 590.067 10.1524C589.869 10.2977 589.719 10.5015 589.619 10.7639C589.518 11.0242 589.467 11.3279 589.467 11.6751ZM595.982 9.35015V9.9556H593.572V9.35015H595.982ZM594.274 8.23612H594.989V12.668C594.989 12.8698 595.018 13.0212 595.077 13.1221C595.137 13.221 595.214 13.2876 595.307 13.3219C595.402 13.3542 595.502 13.3703 595.606 13.3703C595.685 13.3703 595.75 13.3663 595.8 13.3582C595.851 13.3481 595.891 13.3401 595.921 13.334L596.067 13.9758C596.018 13.9939 595.951 14.0121 595.864 14.0303C595.777 14.0505 595.667 14.0605 595.534 14.0605C595.332 14.0605 595.134 14.0172 594.94 13.9304C594.749 13.8436 594.589 13.7114 594.462 13.5338C594.337 13.3562 594.274 13.1322 594.274 12.8618V8.23612ZM599.805 14H599.018L601.295 7.8002H602.07L604.346 14H603.559L601.706 8.78102H601.658L599.805 14ZM600.096 11.5782H603.268V12.2442H600.096V11.5782ZM607.104 14.0969C606.668 14.0969 606.293 13.9939 605.978 13.7881C605.663 13.5822 605.421 13.2987 605.251 12.9374C605.082 12.5762 604.997 12.1635 604.997 11.6993C604.997 11.227 605.084 10.8103 605.257 10.449C605.433 10.0858 605.677 9.80222 605.99 9.59838C606.305 9.39253 606.672 9.2896 607.092 9.2896C607.419 9.2896 607.713 9.35015 607.976 9.47124C608.238 9.59233 608.453 9.76185 608.621 9.97981C608.788 10.1978 608.892 10.4521 608.932 10.7427H608.218C608.164 10.5308 608.042 10.3431 607.855 10.1796C607.669 10.0141 607.419 9.93138 607.104 9.93138C606.825 9.93138 606.581 10.004 606.371 10.1493C606.164 10.2926 606.001 10.4955 605.884 10.7578C605.769 11.0182 605.711 11.3239 605.711 11.6751C605.711 12.0343 605.768 12.3471 605.881 12.6135C605.996 12.8799 606.157 13.0868 606.365 13.2341C606.575 13.3814 606.821 13.4551 607.104 13.4551C607.29 13.4551 607.458 13.4228 607.61 13.3582C607.761 13.2936 607.889 13.2008 607.994 13.0797C608.099 12.9586 608.174 12.8133 608.218 12.6438H608.932C608.892 12.9183 608.792 13.1655 608.633 13.3855C608.475 13.6034 608.266 13.777 608.006 13.9062C607.748 14.0333 607.447 14.0969 607.104 14.0969ZM611.999 9.35015V9.9556H609.589V9.35015H611.999ZM610.292 8.23612H611.006V12.668C611.006 12.8698 611.035 13.0212 611.094 13.1221C611.154 13.221 611.231 13.2876 611.324 13.3219C611.419 13.3542 611.519 13.3703 611.624 13.3703C611.702 13.3703 611.767 13.3663 611.817 13.3582C611.868 13.3481 611.908 13.3401 611.938 13.334L612.084 13.9758C612.035 13.9939 611.968 14.0121 611.881 14.0303C611.794 14.0505 611.684 14.0605 611.551 14.0605C611.349 14.0605 611.151 14.0172 610.958 13.9304C610.766 13.8436 610.607 13.7114 610.479 13.5338C610.354 13.3562 610.292 13.1322 610.292 12.8618V8.23612ZM613.074 14V9.35015H613.788V14H613.074ZM613.437 8.57517C613.298 8.57517 613.178 8.52774 613.077 8.43289C612.978 8.33804 612.928 8.22401 612.928 8.09081C612.928 7.95761 612.978 7.84359 613.077 7.74873C613.178 7.65388 613.298 7.60645 613.437 7.60645C613.576 7.60645 613.695 7.65388 613.794 7.74873C613.895 7.84359 613.946 7.95761 613.946 8.09081C613.946 8.22401 613.895 8.33804 613.794 8.43289C613.695 8.52774 613.576 8.57517 613.437 8.57517ZM618.899 9.35015L617.179 14H616.453L614.733 9.35015H615.508L616.792 13.0555H616.84L618.124 9.35015H618.899ZM621.069 14.109C620.774 14.109 620.507 14.0535 620.266 13.9425C620.026 13.8295 619.836 13.667 619.694 13.4551C619.553 13.2412 619.482 12.9828 619.482 12.6801C619.482 12.4137 619.535 12.1978 619.64 12.0323C619.745 11.8648 619.885 11.7336 620.061 11.6387C620.236 11.5439 620.43 11.4733 620.642 11.4268C620.856 11.3784 621.071 11.3401 621.287 11.3118C621.569 11.2755 621.798 11.2482 621.974 11.2301C622.151 11.2099 622.281 11.1766 622.361 11.1302C622.444 11.0838 622.485 11.003 622.485 10.888V10.8638C622.485 10.5651 622.404 10.333 622.24 10.1675C622.079 10.002 621.834 9.91927 621.505 9.91927C621.164 9.91927 620.896 9.99394 620.702 10.1433C620.509 10.2926 620.372 10.4521 620.294 10.6216L619.616 10.3794C619.737 10.0969 619.898 9.87689 620.1 9.71947C620.304 9.56004 620.526 9.44904 620.766 9.38647C621.008 9.32189 621.246 9.2896 621.48 9.2896C621.63 9.2896 621.801 9.30777 621.995 9.34409C622.191 9.3784 622.379 9.45005 622.561 9.55903C622.745 9.66801 622.897 9.83249 623.018 10.0525C623.139 10.2724 623.2 10.5671 623.2 10.9364V14H622.485V13.3703H622.449C622.401 13.4712 622.32 13.5792 622.207 13.6942C622.094 13.8093 621.944 13.9072 621.756 13.9879C621.568 14.0686 621.339 14.109 621.069 14.109ZM621.178 13.4672C621.46 13.4672 621.698 13.4117 621.892 13.3007C622.088 13.1897 622.235 13.0464 622.334 12.8708C622.435 12.6953 622.485 12.5106 622.485 12.3169V11.663C622.455 11.6993 622.389 11.7326 622.286 11.7629C622.185 11.7911 622.068 11.8163 621.934 11.8385C621.803 11.8587 621.675 11.8769 621.55 11.893C621.427 11.9072 621.327 11.9193 621.25 11.9294C621.065 11.9536 620.891 11.9929 620.73 12.0474C620.57 12.0999 620.441 12.1796 620.342 12.2866C620.245 12.3915 620.197 12.5348 620.197 12.7164C620.197 12.9647 620.289 13.1524 620.472 13.2795C620.658 13.4046 620.893 13.4672 621.178 13.4672ZM626.526 9.35015V9.9556H624.116V9.35015H626.526ZM624.819 8.23612H625.533V12.668C625.533 12.8698 625.562 13.0212 625.621 13.1221C625.681 13.221 625.758 13.2876 625.851 13.3219C625.946 13.3542 626.046 13.3703 626.151 13.3703C626.229 13.3703 626.294 13.3663 626.344 13.3582C626.395 13.3481 626.435 13.3401 626.465 13.334L626.611 13.9758C626.562 13.9939 626.495 14.0121 626.408 14.0303C626.321 14.0505 626.211 14.0605 626.078 14.0605C625.876 14.0605 625.678 14.0172 625.485 13.9304C625.293 13.8436 625.134 13.7114 625.006 13.5338C624.881 13.3562 624.819 13.1322 624.819 12.8618V8.23612ZM627.601 14V9.35015H628.315V14H627.601ZM627.964 8.57517C627.825 8.57517 627.705 8.52774 627.604 8.43289C627.505 8.33804 627.455 8.22401 627.455 8.09081C627.455 7.95761 627.505 7.84359 627.604 7.74873C627.705 7.65388 627.825 7.60645 627.964 7.60645C628.103 7.60645 628.222 7.65388 628.321 7.74873C628.422 7.84359 628.473 7.95761 628.473 8.09081C628.473 8.22401 628.422 8.33804 628.321 8.43289C628.222 8.52774 628.103 8.57517 627.964 8.57517ZM631.513 14.0969C631.093 14.0969 630.725 13.997 630.408 13.7972C630.093 13.5974 629.847 13.3179 629.669 12.9586C629.494 12.5994 629.406 12.1796 629.406 11.6993C629.406 11.2149 629.494 10.7921 629.669 10.4309C629.847 10.0696 630.093 9.7891 630.408 9.5893C630.725 9.3895 631.093 9.2896 631.513 9.2896C631.932 9.2896 632.3 9.3895 632.615 9.5893C632.931 9.7891 633.178 10.0696 633.353 10.4309C633.531 10.7921 633.62 11.2149 633.62 11.6993C633.62 12.1796 633.531 12.5994 633.353 12.9586C633.178 13.3179 632.931 13.5974 632.615 13.7972C632.3 13.997 631.932 14.0969 631.513 14.0969ZM631.513 13.4551C631.832 13.4551 632.094 13.3734 632.3 13.2099C632.506 13.0464 632.658 12.8315 632.757 12.5651C632.856 12.2987 632.905 12.0101 632.905 11.6993C632.905 11.3885 632.856 11.0989 632.757 10.8305C632.658 10.5621 632.506 10.3451 632.3 10.1796C632.094 10.0141 631.832 9.93138 631.513 9.93138C631.194 9.93138 630.931 10.0141 630.726 10.1796C630.52 10.3451 630.367 10.5621 630.268 10.8305C630.17 11.0989 630.12 11.3885 630.12 11.6993C630.12 12.0101 630.17 12.2987 630.268 12.5651C630.367 12.8315 630.52 13.0464 630.726 13.2099C630.931 13.3734 631.194 13.4551 631.513 13.4551ZM635.425 11.2028V14H634.71V9.35015H635.4V10.0767H635.461C635.57 9.84056 635.735 9.65085 635.957 9.50756C636.179 9.36226 636.466 9.2896 636.817 9.2896C637.132 9.2896 637.407 9.35418 637.644 9.48335C637.88 9.61049 638.063 9.80423 638.195 10.0646C638.326 10.3229 638.391 10.6498 638.391 11.0454V14H637.677V11.0938C637.677 10.7286 637.582 10.444 637.392 10.2402C637.203 10.0343 636.942 9.93138 636.611 9.93138C636.383 9.93138 636.179 9.98082 636 10.0797C635.822 10.1786 635.682 10.3229 635.579 10.5126C635.476 10.7023 635.425 10.9324 635.425 11.2028Z" fill="#4F4F4F"/>
<rect x="530" y="5.05469" width="24.6703" height="10.0482" fill="#165BAA"/>
<path d="M699.337 9.76888H698.586C698.542 9.55294 698.464 9.36323 698.353 9.19976C698.244 9.03629 698.111 8.89906 697.953 8.78806C697.798 8.67504 697.625 8.59028 697.436 8.53377C697.246 8.47726 697.048 8.449 696.842 8.449C696.467 8.449 696.127 8.54386 695.822 8.73357C695.519 8.92327 695.278 9.20279 695.099 9.57211C694.921 9.94144 694.832 10.3945 694.832 10.9313C694.832 11.4682 694.921 11.9213 695.099 12.2906C695.278 12.6599 695.519 12.9394 695.822 13.1291C696.127 13.3188 696.467 13.4137 696.842 13.4137C697.048 13.4137 697.246 13.3854 697.436 13.3289C697.625 13.2724 697.798 13.1887 697.953 13.0777C698.111 12.9646 698.244 12.8264 698.353 12.6629C698.464 12.4974 698.542 12.3077 698.586 12.0938H699.337C699.28 12.4107 699.177 12.6942 699.028 12.9445C698.879 13.1947 698.693 13.4076 698.471 13.5832C698.249 13.7568 698 13.889 697.723 13.9798C697.449 14.0706 697.155 14.116 696.842 14.116C696.314 14.116 695.843 13.9869 695.432 13.7285C695.02 13.4702 694.696 13.1029 694.46 12.6266C694.224 12.1503 694.106 11.5852 694.106 10.9313C694.106 10.2775 694.224 9.71238 694.46 9.23609C694.696 8.7598 695.02 8.3925 695.432 8.13417C695.843 7.87585 696.314 7.74668 696.842 7.74668C697.155 7.74668 697.449 7.79209 697.723 7.88291C698 7.97373 698.249 8.10693 698.471 8.28251C698.693 8.45607 698.879 8.66798 699.028 8.91823C699.177 9.16646 699.28 9.45001 699.337 9.76888ZM701.821 14.1402C701.527 14.1402 701.259 14.0847 701.019 13.9737C700.779 13.8607 700.588 13.6983 700.447 13.4863C700.306 13.2724 700.235 13.0141 700.235 12.7114C700.235 12.445 700.288 12.229 700.393 12.0635C700.498 11.896 700.638 11.7649 700.813 11.67C700.989 11.5751 701.183 11.5045 701.395 11.4581C701.609 11.4097 701.823 11.3713 702.039 11.3431C702.322 11.3067 702.551 11.2795 702.727 11.2613C702.904 11.2411 703.033 11.2078 703.114 11.1614C703.197 11.115 703.238 11.0343 703.238 10.9192V10.895C703.238 10.5963 703.156 10.3642 702.993 10.1988C702.832 10.0333 702.586 9.95052 702.257 9.95052C701.916 9.95052 701.649 10.0252 701.455 10.1745C701.261 10.3239 701.125 10.4833 701.046 10.6528L700.368 10.4107C700.489 10.1281 700.651 9.90814 700.853 9.75072C701.057 9.59129 701.279 9.48029 701.519 9.41772C701.761 9.35314 701.999 9.32085 702.233 9.32085C702.382 9.32085 702.554 9.33902 702.748 9.37534C702.944 9.40965 703.132 9.4813 703.314 9.59028C703.498 9.69926 703.65 9.86374 703.771 10.0837C703.892 10.3037 703.953 10.5984 703.953 10.9677V14.0312H703.238V13.4016H703.202C703.153 13.5025 703.073 13.6105 702.96 13.7255C702.847 13.8405 702.696 13.9384 702.509 14.0191C702.321 14.0999 702.092 14.1402 701.821 14.1402ZM701.93 13.4985C702.213 13.4985 702.451 13.443 702.645 13.332C702.841 13.221 702.988 13.0777 703.087 12.9021C703.188 12.7265 703.238 12.5418 703.238 12.3481V11.6942C703.208 11.7305 703.141 11.7638 703.038 11.7941C702.937 11.8224 702.82 11.8476 702.687 11.8698C702.556 11.89 702.428 11.9081 702.303 11.9243C702.18 11.9384 702.08 11.9505 702.003 11.9606C701.817 11.9848 701.644 12.0242 701.482 12.0787C701.323 12.1311 701.194 12.2109 701.095 12.3178C700.998 12.4228 700.95 12.5661 700.95 12.7477C700.95 12.9959 701.041 13.1836 701.225 13.3108C701.411 13.4359 701.646 13.4985 701.93 13.4985ZM705.971 11.2341V14.0312H705.257V9.3814H705.947V10.1079H706.007C706.116 9.87181 706.282 9.6821 706.504 9.53881C706.726 9.39351 707.012 9.32085 707.364 9.32085C707.678 9.32085 707.954 9.38543 708.19 9.5146C708.426 9.64174 708.61 9.83548 708.741 10.0958C708.872 10.3542 708.938 10.6811 708.938 11.0767V14.0312H708.223V11.1251C708.223 10.7598 708.128 10.4752 707.939 10.2714C707.749 10.0656 707.489 9.96263 707.158 9.96263C706.93 9.96263 706.726 10.0121 706.546 10.111C706.369 10.2099 706.228 10.3542 706.125 10.5439C706.023 10.7336 705.971 10.9636 705.971 11.2341ZM712.132 14.1281C711.696 14.1281 711.321 14.0252 711.006 13.8193C710.691 13.6135 710.449 13.3299 710.28 12.9687C710.11 12.6074 710.025 12.1947 710.025 11.7305C710.025 11.2583 710.112 10.8415 710.286 10.4803C710.461 10.117 710.705 9.83347 711.018 9.62963C711.333 9.42378 711.7 9.32085 712.12 9.32085C712.447 9.32085 712.742 9.3814 713.004 9.50249C713.266 9.62358 713.481 9.7931 713.649 10.0111C713.816 10.229 713.92 10.4833 713.961 10.7739H713.246C713.192 10.562 713.071 10.3743 712.883 10.2109C712.697 10.0454 712.447 9.96263 712.132 9.96263C711.854 9.96263 711.61 10.0353 711.4 10.1806C711.192 10.3239 711.029 10.5267 710.912 10.7891C710.797 11.0494 710.74 11.3552 710.74 11.7063C710.74 12.0656 710.796 12.3784 710.909 12.6448C711.024 12.9112 711.186 13.118 711.394 13.2654C711.603 13.4127 711.85 13.4863 712.132 13.4863C712.318 13.4863 712.486 13.4541 712.638 13.3895C712.789 13.3249 712.917 13.2321 713.022 13.111C713.127 12.9899 713.202 12.8446 713.246 12.675H713.961C713.92 12.9495 713.82 13.1967 713.661 13.4167C713.504 13.6347 713.295 13.8082 713.034 13.9374C712.776 14.0645 712.475 14.1281 712.132 14.1281ZM716.955 14.1281C716.507 14.1281 716.12 14.0292 715.795 13.8315C715.472 13.6317 715.223 13.3531 715.047 12.9959C714.874 12.6367 714.787 12.2189 714.787 11.7427C714.787 11.2664 714.874 10.8466 715.047 10.4833C715.223 10.118 715.467 9.83347 715.78 9.62963C716.095 9.42378 716.462 9.32085 716.882 9.32085C717.124 9.32085 717.363 9.36122 717.599 9.44194C717.836 9.52267 718.051 9.65385 718.244 9.83548C718.438 10.0151 718.592 10.2532 718.707 10.5499C718.822 10.8466 718.88 11.2119 718.88 11.6458V11.9485H715.296V11.3309H718.153C718.153 11.0686 718.101 10.8345 717.996 10.6286C717.893 10.4228 717.746 10.2603 717.554 10.1412C717.364 10.0222 717.14 9.96263 716.882 9.96263C716.597 9.96263 716.351 10.0333 716.143 10.1745C715.938 10.3138 715.779 10.4954 715.668 10.7194C715.557 10.9435 715.502 11.1836 715.502 11.4399V11.8516C715.502 12.2028 715.562 12.5005 715.683 12.7447C715.806 12.9868 715.977 13.1715 716.195 13.2987C716.413 13.4238 716.666 13.4863 716.955 13.4863C717.142 13.4863 717.312 13.4601 717.463 13.4076C717.617 13.3531 717.749 13.2724 717.86 13.1655C717.971 13.0565 718.057 12.9213 718.117 12.7598L718.807 12.9535C718.735 13.1877 718.613 13.3935 718.441 13.5711C718.269 13.7467 718.058 13.8839 717.805 13.9828C717.553 14.0797 717.269 14.1281 716.955 14.1281ZM720.681 7.83145V14.0312H719.967V7.83145H720.681ZM722.704 7.83145V14.0312H721.99V7.83145H722.704ZM725.962 14.1281C725.514 14.1281 725.128 14.0292 724.803 13.8315C724.48 13.6317 724.231 13.3531 724.055 12.9959C723.882 12.6367 723.795 12.2189 723.795 11.7427C723.795 11.2664 723.882 10.8466 724.055 10.4833C724.231 10.118 724.475 9.83347 724.788 9.62963C725.102 9.42378 725.47 9.32085 725.89 9.32085C726.132 9.32085 726.371 9.36122 726.607 9.44194C726.843 9.52267 727.058 9.65385 727.252 9.83548C727.446 10.0151 727.6 10.2532 727.715 10.5499C727.83 10.8466 727.888 11.2119 727.888 11.6458V11.9485H724.303V11.3309H727.161C727.161 11.0686 727.109 10.8345 727.004 10.6286C726.901 10.4228 726.753 10.2603 726.562 10.1412C726.372 10.0222 726.148 9.96263 725.89 9.96263C725.605 9.96263 725.359 10.0333 725.151 10.1745C724.945 10.3138 724.787 10.4954 724.676 10.7194C724.565 10.9435 724.509 11.1836 724.509 11.4399V11.8516C724.509 12.2028 724.57 12.5005 724.691 12.7447C724.814 12.9868 724.984 13.1715 725.202 13.2987C725.42 13.4238 725.674 13.4863 725.962 13.4863C726.15 13.4863 726.319 13.4601 726.471 13.4076C726.624 13.3531 726.756 13.2724 726.867 13.1655C726.978 13.0565 727.064 12.9213 727.125 12.7598L727.815 12.9535C727.742 13.1877 727.62 13.3935 727.449 13.5711C727.277 13.7467 727.065 13.8839 726.813 13.9828C726.561 14.0797 726.277 14.1281 725.962 14.1281ZM730.73 14.1281C730.343 14.1281 730.001 14.0302 729.704 13.8345C729.407 13.6367 729.175 13.3582 729.008 12.999C728.84 12.6377 728.756 12.2109 728.756 11.7184C728.756 11.23 728.84 10.8062 729.008 10.447C729.175 10.0878 729.408 9.81026 729.707 9.61449C730.006 9.41873 730.351 9.32085 730.742 9.32085C731.045 9.32085 731.284 9.37131 731.46 9.47221C731.637 9.5711 731.773 9.68412 731.865 9.81127C731.96 9.93639 732.034 10.0393 732.086 10.12H732.147V7.83145H732.861V14.0312H732.171V13.3168H732.086C732.034 13.4016 731.959 13.5085 731.862 13.6377C731.765 13.7649 731.627 13.8789 731.448 13.9798C731.268 14.0787 731.029 14.1281 730.73 14.1281ZM730.827 13.4863C731.114 13.4863 731.356 13.4117 731.554 13.2623C731.751 13.111 731.902 12.9021 732.005 12.6357C732.108 12.3673 732.159 12.0575 732.159 11.7063C732.159 11.3592 732.109 11.0555 732.008 10.7951C731.907 10.5328 731.757 10.3289 731.56 10.1836C731.362 10.0363 731.118 9.96263 730.827 9.96263C730.524 9.96263 730.272 10.0403 730.07 10.1957C729.87 10.3491 729.72 10.558 729.619 10.8224C729.52 11.0847 729.471 11.3794 729.471 11.7063C729.471 12.0373 729.521 12.338 729.622 12.6084C729.725 12.8769 729.876 13.0908 730.076 13.2502C730.278 13.4076 730.528 13.4863 730.827 13.4863Z" fill="#4F4F4F"/>
<rect x="658" y="5.05469" width="24.6703" height="10.0482" fill="#F765A3"/>
<path d="M94 311L115.015 303.273L126.023 311L141.034 303.273H157.046L168.054 290.909L190.07 280.091L198.076 272.364L208.083 261.545L215.588 255.879L232.601 266.182H244.109V261.545L251.614 255.879L259.12 250.727L271.629 234.242L291.143 246.091L304.153 234.242L322.166 229.606L331.172 216.727L340.679 198.182L352.187 181.697L363.696 164.182L375.704 181.697L385.712 192.515L401.223 207.97L408.728 217.009L426.241 227.827L432.746 217.009L443.253 210.312L457.764 207.97L465.269 198.182L476.277 187.879L488.286 207.97L503.297 223.424L519.809 229.606L529.816 250.727L550.832 266.182L569.345 280.091L590.36 255.879L600.367 250.727L617.38 241.97L629.389 229.606L650.904 223.424L665.915 207.97L689.432 187.879L718.453 170.364L734.965 164.182L765.988 159.03L783 141" stroke="#165BAA" stroke-width="2"/>
<path d="M94 342L115.015 331.818L126.023 342L141.034 331.818H157.046L168.054 315.527L190.07 301.273L198.076 291.091L208.083 276.836L215.588 269.37L232.601 282.945H244.109V276.836L251.614 269.37L259.12 262.582L271.629 240.861L291.143 256.473L304.153 240.861L322.166 234.752L331.172 217.782L340.679 193.345L352.187 171.624L363.696 148.545L375.704 171.624L385.712 185.879L401.223 206.242L408.728 218.153L426.241 232.408L432.746 218.153L443.253 209.329L457.764 206.242L465.269 193.345L476.277 179.77L488.286 206.242L503.297 226.606L519.809 234.752L529.816 262.582L550.832 282.945L569.345 301.273L590.36 269.37L600.367 262.582L617.38 251.042L629.389 234.752L650.904 226.606L665.915 206.242L689.432 179.77L718.453 156.691L734.965 148.545L765.988 141.758L783 118" stroke="#F765A3" stroke-width="2"/>
</svg>
