<svg width="29" height="29" viewBox="0 0 29 29" fill="none" xmlns="http://www.w3.org/2000/svg">
<path d="M14.4548 0L26.3981 5.5109H28.0062C28.2458 5.5109 28.4756 5.60609 28.6451 5.77551C28.8145 5.94494 28.9097 6.17473 28.9097 6.41433V10.028C28.9097 10.2676 28.8145 10.4974 28.6451 10.6669C28.4756 10.8363 28.2458 10.9315 28.0062 10.9315H27.1028V23.5794C27.3043 23.5795 27.5 23.6469 27.6588 23.771C27.8176 23.8951 27.9304 24.0687 27.9791 24.2642L28.8826 27.8779C28.9158 28.0111 28.9182 28.1501 28.8897 28.2843C28.8612 28.4185 28.8025 28.5445 28.718 28.6527C28.6335 28.7608 28.5255 28.8483 28.4022 28.9085C28.2789 28.9687 28.1435 29 28.0062 29H0.903427C0.766198 29 0.630782 28.9687 0.507456 28.9085C0.384129 28.8483 0.276134 28.7608 0.191667 28.6527C0.1072 28.5445 0.0484813 28.4185 0.0199673 28.2843C-0.00854671 28.1501 -0.00610647 28.0111 0.0271028 27.8779L0.93053 24.2642C0.979298 24.0687 1.09204 23.8951 1.25083 23.771C1.40962 23.6469 1.60533 23.5795 1.80685 23.5794V10.9315H0.903427C0.663823 10.9315 0.434033 10.8363 0.264608 10.6669C0.0951822 10.4974 0 10.2676 0 10.028V6.41433C0 6.17473 0.0951822 5.94494 0.264608 5.77551C0.434033 5.60609 0.663823 5.5109 0.903427 5.5109H2.51153L14.4548 0ZM6.82268 5.5109H22.0852L14.4548 1.98754L6.82268 5.5109ZM3.61371 10.9315V23.5794H5.42056V10.9315H3.61371ZM7.22741 10.9315V23.5794H11.7445V10.9315H7.22741ZM13.5514 10.9315V23.5794H15.3583V10.9315H13.5514ZM17.1651 10.9315V23.5794H21.6822V10.9315H17.1651ZM23.4891 10.9315V23.5794H25.296V10.9315H23.4891ZM27.1028 9.12461V7.31776H1.80685V9.12461H27.1028ZM26.3981 25.3863H2.51153L2.05981 27.1931H26.8498L26.3981 25.3863Z" fill="black"/>
</svg>
