<?xml version="1.0" encoding="utf-8"?>
<!-- Generator: Adobe Illustrator 26.0.3, SVG Export Plug-In . SVG Version: 6.00 Build 0)  -->
<svg version="1.1" id="Layer_1" xmlns="http://www.w3.org/2000/svg" xmlns:xlink="http://www.w3.org/1999/xlink" x="0px" y="0px"
	 viewBox="0 0 637.8 351" style="enable-background:new 0 0 637.8 351;" xml:space="preserve">
<style type="text/css">
	.st0{fill:#0D192E;}
	.st1{clip-path:url(#SVGID_00000168081440709817785170000004814147515618449340_);}
	.st2{opacity:0.4;}
	.st3{fill:#6C6A72;}
	.st4{fill:#1A191F;}
	.st5{fill:#772BC4;}
	.st6{fill:#D1E7DD;}
	.st7{fill:#14A38B;}
	.st8{fill:#FFFFFF;}
	.st9{fill:#19181A;}
	.st10{fill:none;stroke:#525252;stroke-width:2;}
</style>
<path class="st0" d="M115.8,97h-2.4v-9.4h-3.1v-2h8.6v2h-3.1V97z M128.5,88.3V97h-1.8l-0.3-1.1h-0.1c-0.2,0.3-0.4,0.5-0.7,0.7
	c-0.3,0.2-0.6,0.3-0.9,0.4c-0.3,0.1-0.7,0.1-1.1,0.1c-0.6,0-1.2-0.1-1.6-0.3c-0.5-0.2-0.8-0.6-1.1-1c-0.3-0.5-0.4-1.1-0.4-1.8v-5.7
	h2.4v5.1c0,0.6,0.1,1.1,0.3,1.4c0.2,0.3,0.6,0.5,1.1,0.5c0.5,0,0.9-0.1,1.1-0.3c0.3-0.2,0.5-0.5,0.6-1c0.1-0.4,0.2-1,0.2-1.6v-4.1
	H128.5z"/>
<g>
	<defs>
		<path id="SVGID_1_" d="M190,71h60.1c11,0,20,9,20,20l0,0c0,11-9,20-20,20H190c-11,0-20-9-20-20l0,0C170,80,179,71,190,71z"/>
	</defs>
	<clipPath id="SVGID_00000170273396055941990860000010433698653608322239_">
		<use xlink:href="#SVGID_1_"  style="overflow:visible;"/>
	</clipPath>
	<g style="clip-path:url(#SVGID_00000170273396055941990860000010433698653608322239_);">
		<path class="st0" d="M227.8,85.6L224.9,97h-2.8l-1.5-6c0-0.1-0.1-0.3-0.1-0.5c-0.1-0.2-0.1-0.5-0.2-0.8c-0.1-0.3-0.1-0.5-0.2-0.8
			c0-0.2-0.1-0.4-0.1-0.6c0,0.1,0,0.3-0.1,0.6c0,0.2-0.1,0.5-0.1,0.8c-0.1,0.3-0.1,0.5-0.2,0.8c-0.1,0.2-0.1,0.4-0.1,0.5l-1.5,6
			h-2.8l-2.9-11.4h2.4l1.5,6.2c0,0.2,0.1,0.4,0.1,0.7c0.1,0.3,0.1,0.5,0.2,0.8c0.1,0.3,0.1,0.6,0.1,0.8c0,0.3,0.1,0.5,0.1,0.7
			c0-0.2,0.1-0.4,0.1-0.7c0-0.3,0.1-0.5,0.1-0.8c0.1-0.3,0.1-0.5,0.2-0.8c0.1-0.2,0.1-0.4,0.1-0.6l1.7-6.4h2.3l1.7,6.4
			c0,0.1,0.1,0.3,0.1,0.6c0.1,0.2,0.1,0.5,0.2,0.8c0.1,0.3,0.1,0.5,0.1,0.8c0,0.3,0.1,0.5,0.1,0.7c0-0.3,0.1-0.6,0.1-0.9
			c0.1-0.4,0.1-0.7,0.2-1.1c0.1-0.4,0.1-0.7,0.2-0.9l1.5-6.2H227.8z M220.2,112.1c0.8,0,1.5,0.2,2.1,0.5c0.6,0.3,1,0.8,1.4,1.3
			c0.3,0.6,0.5,1.3,0.5,2.2v1.2h-5.6c0,0.7,0.2,1.2,0.6,1.6c0.4,0.4,0.9,0.6,1.6,0.6c0.6,0,1.1-0.1,1.5-0.2c0.5-0.1,0.9-0.3,1.4-0.5
			v1.8c-0.4,0.2-0.9,0.4-1.4,0.5c-0.5,0.1-1,0.1-1.7,0.1c-0.9,0-1.7-0.2-2.3-0.5c-0.7-0.3-1.2-0.8-1.6-1.5c-0.4-0.7-0.6-1.5-0.6-2.5
			c0-1,0.2-1.9,0.5-2.5c0.3-0.7,0.8-1.2,1.5-1.5C218.6,112.3,219.3,112.1,220.2,112.1z M220.2,113.8c-0.5,0-0.8,0.1-1.2,0.4
			c-0.3,0.3-0.5,0.8-0.5,1.4h3.3c0-0.4-0.1-0.7-0.2-0.9c-0.1-0.3-0.3-0.5-0.5-0.7C220.9,113.9,220.6,113.8,220.2,113.8z"/>
	</g>
</g>
<path class="st0" d="M316.1,97h-2.4v-9.4h-3.1v-2h8.6v2h-3.1V97z M323.2,84.8v2.5c0,0.4,0,0.8,0,1.2c0,0.4,0,0.7-0.1,0.8h0.1
	c0.2-0.3,0.4-0.5,0.7-0.7c0.3-0.2,0.5-0.3,0.9-0.4c0.3-0.1,0.6-0.1,1-0.1c0.6,0,1.2,0.1,1.6,0.3c0.5,0.2,0.8,0.6,1.1,1
	c0.3,0.5,0.4,1.1,0.4,1.8V97h-2.4v-5.1c0-0.6-0.1-1.1-0.3-1.4c-0.2-0.3-0.6-0.5-1.1-0.5s-0.9,0.1-1.1,0.3c-0.3,0.2-0.5,0.5-0.6,1
	c-0.1,0.4-0.2,1-0.2,1.6V97h-2.4V84.8H323.2z"/>
<path class="st0" d="M413.7,97h-2.4V85.6h6.5v2h-4.2v2.9h3.9v2h-3.9V97z M424.8,88.1c0.1,0,0.3,0,0.4,0c0.2,0,0.3,0,0.4,0l-0.2,2.2
	c-0.1,0-0.2,0-0.3-0.1c-0.1,0-0.3,0-0.4,0c-0.3,0-0.6,0-0.9,0.1c-0.3,0.1-0.5,0.2-0.8,0.4c-0.2,0.2-0.4,0.4-0.5,0.7
	c-0.1,0.3-0.2,0.6-0.2,1V97h-2.4v-8.7h1.8l0.4,1.5h0.1c0.2-0.3,0.4-0.6,0.6-0.8c0.3-0.2,0.6-0.4,0.9-0.6
	C424,88.2,424.4,88.1,424.8,88.1z M429.5,88.3V97h-2.4v-8.7H429.5z M428.3,84.8c0.4,0,0.7,0.1,0.9,0.2c0.3,0.2,0.4,0.5,0.4,0.9
	c0,0.4-0.1,0.8-0.4,0.9c-0.3,0.2-0.6,0.2-0.9,0.2c-0.4,0-0.7-0.1-0.9-0.2c-0.2-0.2-0.4-0.5-0.4-0.9c0-0.4,0.1-0.8,0.4-0.9
	C427.7,84.9,428,84.8,428.3,84.8z"/>
<path class="st0" d="M519.4,93.8c0,0.7-0.2,1.3-0.5,1.8c-0.3,0.5-0.8,0.9-1.4,1.2c-0.6,0.3-1.4,0.4-2.3,0.4c-0.4,0-0.8,0-1.2-0.1
	c-0.4-0.1-0.7-0.1-1.1-0.2c-0.3-0.1-0.7-0.2-1-0.4v-2.2c0.5,0.2,1.1,0.5,1.7,0.6c0.6,0.2,1.2,0.3,1.7,0.3c0.4,0,0.7-0.1,1-0.2
	c0.2-0.1,0.4-0.2,0.5-0.4c0.1-0.2,0.2-0.4,0.2-0.6c0-0.3-0.1-0.5-0.3-0.7c-0.2-0.2-0.5-0.4-0.8-0.6c-0.3-0.2-0.7-0.4-1.1-0.6
	c-0.3-0.1-0.6-0.3-0.9-0.5c-0.3-0.2-0.6-0.4-0.9-0.7s-0.5-0.6-0.7-0.9c-0.2-0.4-0.3-0.8-0.3-1.3c0-0.7,0.2-1.3,0.5-1.8
	c0.3-0.5,0.8-0.9,1.3-1.1c0.6-0.3,1.3-0.4,2.1-0.4c0.6,0,1.2,0.1,1.7,0.2c0.5,0.1,1.1,0.3,1.7,0.6l-0.8,1.9c-0.5-0.2-1-0.4-1.4-0.5
	c-0.4-0.1-0.8-0.2-1.3-0.2c-0.3,0-0.6,0-0.8,0.1c-0.2,0.1-0.4,0.2-0.5,0.4c-0.1,0.2-0.2,0.4-0.2,0.6c0,0.3,0.1,0.5,0.2,0.7
	c0.2,0.2,0.4,0.4,0.7,0.5c0.3,0.2,0.7,0.4,1.2,0.6c0.6,0.3,1.1,0.6,1.5,0.9c0.4,0.3,0.7,0.6,1,1.1C519.3,92.7,519.4,93.2,519.4,93.8
	z M524.9,88.1c1.2,0,2.1,0.3,2.7,0.8c0.6,0.5,0.9,1.3,0.9,2.3V97h-1.7l-0.5-1.2h-0.1c-0.2,0.3-0.5,0.6-0.8,0.8
	c-0.3,0.2-0.6,0.3-0.9,0.4c-0.3,0.1-0.8,0.1-1.2,0.1c-0.5,0-1-0.1-1.4-0.3c-0.4-0.2-0.7-0.5-1-0.9c-0.2-0.4-0.4-0.9-0.4-1.6
	c0-0.9,0.3-1.6,1-2c0.7-0.4,1.6-0.7,2.9-0.7l1.5,0v-0.4c0-0.5-0.1-0.8-0.4-1c-0.2-0.2-0.6-0.3-1-0.3c-0.4,0-0.8,0.1-1.2,0.2
	c-0.4,0.1-0.8,0.3-1.2,0.5l-0.8-1.6c0.5-0.2,1-0.4,1.6-0.6C523.7,88.2,524.2,88.1,524.9,88.1z M526.1,93l-0.9,0
	c-0.8,0-1.3,0.2-1.6,0.4c-0.3,0.3-0.4,0.6-0.4,1c0,0.4,0.1,0.6,0.3,0.8c0.2,0.2,0.5,0.2,0.8,0.2c0.5,0,0.9-0.2,1.3-0.5
	c0.4-0.3,0.5-0.7,0.5-1.3V93z"/>
<path class="st0" d="M619.1,93.8c0,0.7-0.2,1.3-0.5,1.8c-0.3,0.5-0.8,0.9-1.4,1.2c-0.6,0.3-1.4,0.4-2.3,0.4c-0.4,0-0.8,0-1.2-0.1
	c-0.4-0.1-0.7-0.1-1.1-0.2c-0.3-0.1-0.7-0.2-1-0.4v-2.2c0.5,0.2,1.1,0.5,1.7,0.6c0.6,0.2,1.2,0.3,1.7,0.3c0.4,0,0.7-0.1,1-0.2
	c0.2-0.1,0.4-0.2,0.5-0.4c0.1-0.2,0.2-0.4,0.2-0.6c0-0.3-0.1-0.5-0.3-0.7c-0.2-0.2-0.5-0.4-0.8-0.6c-0.3-0.2-0.7-0.4-1.1-0.6
	c-0.3-0.1-0.6-0.3-0.9-0.5c-0.3-0.2-0.6-0.4-0.9-0.7s-0.5-0.6-0.7-0.9c-0.2-0.4-0.3-0.8-0.3-1.3c0-0.7,0.2-1.3,0.5-1.8
	c0.3-0.5,0.8-0.9,1.3-1.1c0.6-0.3,1.3-0.4,2.1-0.4c0.6,0,1.2,0.1,1.7,0.2c0.5,0.1,1.1,0.3,1.7,0.6l-0.8,1.9c-0.5-0.2-1-0.4-1.4-0.5
	c-0.4-0.1-0.8-0.2-1.3-0.2c-0.3,0-0.6,0-0.8,0.1c-0.2,0.1-0.4,0.2-0.5,0.4c-0.1,0.2-0.2,0.4-0.2,0.6c0,0.3,0.1,0.5,0.2,0.7
	c0.2,0.2,0.4,0.4,0.7,0.5c0.3,0.2,0.7,0.4,1.2,0.6c0.6,0.3,1.1,0.6,1.5,0.9c0.4,0.3,0.7,0.6,1,1.1C619,92.7,619.1,93.2,619.1,93.8z
	 M629,88.3V97h-1.8l-0.3-1.1h-0.1c-0.2,0.3-0.4,0.5-0.7,0.7c-0.3,0.2-0.6,0.3-0.9,0.4c-0.3,0.1-0.7,0.1-1.1,0.1
	c-0.6,0-1.2-0.1-1.6-0.3c-0.5-0.2-0.8-0.6-1.1-1c-0.3-0.5-0.4-1.1-0.4-1.8v-5.7h2.4v5.1c0,0.6,0.1,1.1,0.3,1.4
	c0.2,0.3,0.6,0.5,1.1,0.5c0.5,0,0.9-0.1,1.1-0.3c0.3-0.2,0.5-0.5,0.6-1c0.1-0.4,0.2-1,0.2-1.6v-4.1H629z"/>
<g class="st2">
	<path class="st3" d="M19.4,136h-7.5v-1.1l3-3c0.9-0.9,1.5-1.6,1.8-2c0.3-0.4,0.5-0.8,0.7-1.2c0.1-0.4,0.2-0.8,0.2-1.2
		c0-0.6-0.2-1.1-0.6-1.4c-0.4-0.4-0.9-0.5-1.5-0.5c-0.5,0-0.9,0.1-1.4,0.2c-0.4,0.2-0.9,0.4-1.4,0.9l-0.7-0.9
		c1.1-0.9,2.2-1.3,3.4-1.3c1.1,0,1.9,0.3,2.5,0.8c0.6,0.5,0.9,1.3,0.9,2.2c0,0.7-0.2,1.4-0.6,2.1c-0.4,0.7-1.2,1.6-2.3,2.7l-2.5,2.4
		v0.1h5.9V136z M28.5,129.5c0,4.5-1.7,6.7-5.2,6.7c-0.6,0-1.1-0.1-1.4-0.2v-1.1c0.4,0.1,0.9,0.2,1.4,0.2c1.2,0,2.2-0.4,2.8-1.2
		c0.6-0.8,1-2,1-3.6h-0.1c-0.3,0.4-0.7,0.8-1.1,1c-0.5,0.2-1,0.3-1.6,0.3c-1,0-1.8-0.3-2.4-0.9c-0.6-0.6-0.9-1.4-0.9-2.5
		c0-1.2,0.3-2.1,1-2.8c0.7-0.7,1.5-1,2.6-1c0.8,0,1.5,0.2,2,0.6c0.6,0.4,1,1,1.3,1.7C28.4,127.5,28.5,128.4,28.5,129.5z M24.7,125.5
		c-0.7,0-1.3,0.2-1.7,0.7c-0.4,0.5-0.6,1.1-0.6,2c0,0.8,0.2,1.3,0.6,1.8c0.4,0.4,0.9,0.6,1.7,0.6c0.5,0,0.9-0.1,1.3-0.3
		c0.4-0.2,0.7-0.5,0.9-0.8c0.2-0.3,0.3-0.7,0.3-1c0-0.5-0.1-1.1-0.3-1.5c-0.2-0.5-0.5-0.8-0.9-1.1C25.6,125.7,25.2,125.5,24.7,125.5
		z"/>
</g>
<g class="st2">
	<path class="st3" d="M118.6,127.3c0,0.7-0.2,1.3-0.6,1.8c-0.4,0.5-1,0.8-1.7,0.9v0.1c0.9,0.1,1.6,0.4,2,0.9
		c0.4,0.5,0.7,1.1,0.7,1.8c0,1.1-0.4,1.9-1.1,2.5c-0.8,0.6-1.8,0.9-3.2,0.9c-0.6,0-1.2,0-1.7-0.1c-0.5-0.1-1-0.2-1.5-0.5v-1.2
		c0.5,0.2,1,0.4,1.6,0.6c0.6,0.1,1.1,0.2,1.6,0.2c2,0,3-0.8,3-2.3c0-1.4-1.1-2.1-3.3-2.1h-1.1v-1.1h1.1c0.9,0,1.6-0.2,2.1-0.6
		c0.5-0.4,0.8-0.9,0.8-1.6c0-0.6-0.2-1-0.6-1.3c-0.4-0.3-0.9-0.5-1.6-0.5c-0.5,0-1,0.1-1.4,0.2c-0.4,0.1-0.9,0.4-1.5,0.8l-0.7-0.9
		c0.5-0.4,1-0.7,1.6-0.9c0.6-0.2,1.3-0.3,1.9-0.3c1.1,0,2,0.3,2.6,0.8C118.3,125.7,118.6,126.4,118.6,127.3z M128.2,130.3
		c0,2-0.3,3.4-0.9,4.4c-0.6,1-1.6,1.5-2.9,1.5c-1.2,0-2.2-0.5-2.8-1.5c-0.6-1-1-2.5-1-4.4c0-2,0.3-3.5,0.9-4.4
		c0.6-1,1.6-1.4,2.8-1.4c1.2,0,2.2,0.5,2.8,1.5C127.9,126.9,128.2,128.4,128.2,130.3z M122,130.3c0,1.7,0.2,2.9,0.6,3.6
		c0.4,0.8,1,1.1,1.9,1.1c0.9,0,1.5-0.4,1.9-1.1c0.4-0.8,0.6-2,0.6-3.6c0-1.6-0.2-2.8-0.6-3.6c-0.4-0.8-1-1.1-1.9-1.1
		c-0.9,0-1.5,0.4-1.9,1.1C122.2,127.4,122,128.6,122,130.3z"/>
</g>
<g class="st2">
	<path class="st3" d="M218.7,127.3c0,0.7-0.2,1.3-0.6,1.8c-0.4,0.5-1,0.8-1.7,0.9v0.1c0.9,0.1,1.6,0.4,2,0.9
		c0.4,0.5,0.7,1.1,0.7,1.8c0,1.1-0.4,1.9-1.1,2.5c-0.8,0.6-1.8,0.9-3.2,0.9c-0.6,0-1.2,0-1.7-0.1c-0.5-0.1-1-0.2-1.5-0.5v-1.2
		c0.5,0.2,1,0.4,1.6,0.6c0.6,0.1,1.1,0.2,1.6,0.2c2,0,3-0.8,3-2.3c0-1.4-1.1-2.1-3.3-2.1h-1.1v-1.1h1.1c0.9,0,1.6-0.2,2.1-0.6
		c0.5-0.4,0.8-0.9,0.8-1.6c0-0.6-0.2-1-0.6-1.3c-0.4-0.3-0.9-0.5-1.6-0.5c-0.5,0-1,0.1-1.4,0.2c-0.4,0.1-0.9,0.4-1.5,0.8l-0.7-0.9
		c0.5-0.4,1-0.7,1.6-0.9c0.6-0.2,1.3-0.3,1.9-0.3c1.1,0,2,0.3,2.6,0.8C218.4,125.7,218.7,126.4,218.7,127.3z M225.6,136h-1.3v-8.1
		c0-0.7,0-1.3,0.1-1.9c-0.1,0.1-0.2,0.2-0.4,0.3c-0.1,0.1-0.8,0.6-1.9,1.5l-0.7-0.9l3-2.3h1.1V136z"/>
</g>
<path class="st4" d="M321.2,136H320v-8.1c0-0.3,0-0.6,0-0.8c0-0.2,0-0.4,0-0.6c0-0.2,0-0.4,0-0.6c-0.2,0.2-0.3,0.3-0.5,0.4
	c-0.1,0.1-0.3,0.3-0.5,0.4l-1.3,1L317,127l3.1-2.4h1.1V136z"/>
<path class="st5" d="M424,136h-7.5v-1.1l3.1-3.1c0.6-0.6,1-1.1,1.4-1.5c0.4-0.4,0.7-0.9,0.9-1.3c0.2-0.4,0.3-0.9,0.3-1.4
	c0-0.6-0.2-1.1-0.6-1.5c-0.4-0.3-0.9-0.5-1.5-0.5c-0.5,0-1,0.1-1.5,0.3c-0.4,0.2-0.9,0.5-1.3,0.8l-0.7-0.9c0.3-0.3,0.6-0.5,1-0.7
	c0.4-0.2,0.7-0.4,1.1-0.5c0.4-0.1,0.8-0.2,1.3-0.2c0.7,0,1.3,0.1,1.8,0.4c0.5,0.2,0.9,0.6,1.2,1c0.3,0.5,0.4,1,0.4,1.6
	c0,0.6-0.1,1.2-0.4,1.7c-0.2,0.5-0.6,1-1,1.5c-0.4,0.5-0.9,1-1.5,1.6l-2.5,2.5v0.1h5.8V136z"/>
<path class="st4" d="M520.5,136.1c-0.6,0-1.2-0.1-1.6-0.3c-0.5-0.2-0.9-0.5-1.1-0.9c-0.3-0.4-0.4-0.8-0.5-1.3h1.2
	c0,0.3,0.1,0.6,0.3,0.8c0.2,0.2,0.4,0.4,0.7,0.5c0.3,0.1,0.6,0.2,1,0.2c0.4,0,0.8-0.1,1.1-0.2c0.3-0.1,0.6-0.3,0.7-0.6
	c0.2-0.3,0.3-0.5,0.3-0.9c0-0.3-0.1-0.7-0.3-0.9c-0.2-0.3-0.4-0.5-0.8-0.6c-0.3-0.2-0.7-0.2-1.2-0.2h-0.8v-1h0.8
	c0.4,0,0.7-0.1,1-0.2c0.3-0.1,0.5-0.3,0.7-0.6c0.2-0.2,0.2-0.5,0.2-0.9c0-0.3-0.1-0.6-0.2-0.8c-0.1-0.2-0.3-0.4-0.6-0.6
	c-0.3-0.1-0.6-0.2-0.9-0.2c-0.3,0-0.6,0.1-0.9,0.2c-0.3,0.1-0.5,0.3-0.7,0.5c-0.2,0.2-0.3,0.5-0.3,0.8h-1.1c0-0.5,0.2-0.9,0.4-1.3
	c0.3-0.4,0.6-0.7,1.1-0.9c0.5-0.2,1-0.3,1.5-0.3c0.6,0,1.1,0.1,1.5,0.4c0.4,0.2,0.7,0.5,1,0.9c0.2,0.4,0.3,0.8,0.3,1.2
	c0,0.5-0.1,1-0.4,1.4c-0.3,0.4-0.7,0.6-1.1,0.8v0.1c0.6,0.1,1.1,0.4,1.4,0.8c0.3,0.4,0.5,0.9,0.5,1.5c0,0.5-0.1,1-0.4,1.4
	c-0.3,0.4-0.7,0.7-1.1,1C521.7,136,521.1,136.1,520.5,136.1z"/>
<path class="st4" d="M617.2,134.1v-0.9l4.2-6.6h0.7v1.5h-0.5l-3.1,5v0.1h5.6v1H617.2z M621.6,136v-2.2v-0.4v-6.8h1.1v9.5H621.6z"/>
<path d="M85.3,11.7c0,1.5-0.3,2.9-0.8,4c-0.6,1.1-1.3,2-2.3,2.6c-1,0.6-2.1,0.9-3.3,0.9c-1.2,0-2.3-0.3-3.3-0.9
	c-1-0.6-1.7-1.5-2.3-2.6c-0.6-1.1-0.8-2.4-0.8-4s0.3-2.9,0.8-4s1.3-2,2.3-2.6c1-0.6,2.1-0.9,3.3-0.9c1.2,0,2.3,0.3,3.3,0.9
	s1.7,1.5,2.3,2.6S85.3,10.2,85.3,11.7z M83.6,11.7c0-1.3-0.2-2.3-0.6-3.2c-0.4-0.9-1-1.5-1.7-2c-0.7-0.4-1.5-0.7-2.4-0.7
	c-0.9,0-1.7,0.2-2.4,0.7c-0.7,0.4-1.3,1.1-1.7,2c-0.4,0.9-0.6,1.9-0.6,3.2c0,1.3,0.2,2.3,0.6,3.2c0.4,0.9,1,1.5,1.7,2
	c0.7,0.4,1.5,0.7,2.4,0.7c0.9,0,1.7-0.2,2.4-0.7c0.7-0.4,1.3-1.1,1.7-2C83.3,14,83.6,13,83.6,11.7z M92.4,19.2c-1,0-1.9-0.2-2.6-0.7
	c-0.7-0.5-1.3-1.1-1.7-2c-0.4-0.8-0.6-1.8-0.6-2.9c0-1.1,0.2-2.1,0.6-2.9c0.4-0.9,1-1.5,1.7-2c0.7-0.5,1.6-0.7,2.6-0.7
	c0.8,0,1.5,0.1,2.1,0.4c0.6,0.3,1.1,0.7,1.5,1.2c0.4,0.5,0.6,1.1,0.7,1.8H95c-0.1-0.5-0.4-0.9-0.9-1.3c-0.4-0.4-1-0.6-1.8-0.6
	c-0.7,0-1.2,0.2-1.7,0.5c-0.5,0.3-0.9,0.8-1.1,1.4c-0.3,0.6-0.4,1.3-0.4,2.2c0,0.8,0.1,1.6,0.4,2.2c0.3,0.6,0.6,1.1,1.1,1.5
	c0.5,0.3,1.1,0.5,1.7,0.5c0.4,0,0.8-0.1,1.2-0.2c0.4-0.2,0.7-0.4,0.9-0.7c0.2-0.3,0.4-0.6,0.5-1h1.7c-0.1,0.6-0.3,1.2-0.7,1.7
	c-0.4,0.5-0.9,0.9-1.5,1.2C93.9,19.1,93.2,19.2,92.4,19.2z M103.9,8.1v1.4h-5.7V8.1H103.9z M99.9,5.5h1.7v10.4
	c0,0.5,0.1,0.8,0.2,1.1c0.1,0.2,0.3,0.4,0.5,0.5c0.2,0.1,0.5,0.1,0.7,0.1c0.2,0,0.3,0,0.5,0c0.1,0,0.2,0,0.3-0.1l0.3,1.5
	c-0.1,0-0.3,0.1-0.5,0.1c-0.2,0-0.5,0.1-0.8,0.1c-0.5,0-0.9-0.1-1.4-0.3c-0.4-0.2-0.8-0.5-1.1-0.9c-0.3-0.4-0.4-0.9-0.4-1.6V5.5z
	 M110.7,19.2c-1,0-1.8-0.2-2.6-0.7c-0.7-0.5-1.3-1.1-1.7-2c-0.4-0.8-0.6-1.8-0.6-3c0-1.1,0.2-2.1,0.6-3c0.4-0.8,1-1.5,1.7-2
	c0.7-0.5,1.6-0.7,2.6-0.7s1.8,0.2,2.6,0.7c0.7,0.5,1.3,1.1,1.7,2c0.4,0.8,0.6,1.8,0.6,3c0,1.1-0.2,2.1-0.6,3c-0.4,0.8-1,1.5-1.7,2
	C112.6,19,111.7,19.2,110.7,19.2z M110.7,17.7c0.7,0,1.4-0.2,1.8-0.6c0.5-0.4,0.8-0.9,1.1-1.5c0.2-0.6,0.3-1.3,0.3-2
	c0-0.7-0.1-1.4-0.3-2c-0.2-0.6-0.6-1.1-1.1-1.5c-0.5-0.4-1.1-0.6-1.8-0.6s-1.4,0.2-1.8,0.6c-0.5,0.4-0.8,0.9-1.1,1.5
	c-0.2,0.6-0.3,1.3-0.3,2c0,0.7,0.1,1.4,0.3,2c0.2,0.6,0.6,1.1,1.1,1.5C109.4,17.5,110,17.7,110.7,17.7z M118.5,19V4.5h1.7v5.4h0.1
	c0.1-0.2,0.3-0.4,0.5-0.7c0.2-0.3,0.5-0.6,1-0.8c0.4-0.2,1-0.4,1.7-0.4c0.9,0,1.7,0.2,2.4,0.7c0.7,0.5,1.2,1.1,1.6,2
	c0.4,0.8,0.6,1.8,0.6,3c0,1.2-0.2,2.2-0.6,3c-0.4,0.8-0.9,1.5-1.6,2c-0.7,0.5-1.5,0.7-2.4,0.7c-0.7,0-1.3-0.1-1.7-0.3
	c-0.4-0.2-0.7-0.5-1-0.8c-0.2-0.3-0.4-0.6-0.5-0.8h-0.2V19H118.5z M120.1,13.5c0,0.8,0.1,1.6,0.4,2.2c0.2,0.6,0.6,1.1,1.1,1.5
	c0.5,0.4,1,0.5,1.7,0.5c0.7,0,1.3-0.2,1.8-0.6c0.5-0.4,0.8-0.9,1.1-1.5c0.2-0.6,0.4-1.3,0.4-2.1c0-0.8-0.1-1.5-0.4-2.1
	c-0.2-0.6-0.6-1.1-1.1-1.5c-0.5-0.4-1.1-0.5-1.8-0.5c-0.7,0-1.3,0.2-1.7,0.5c-0.5,0.3-0.8,0.8-1.1,1.4
	C120.2,12,120.1,12.7,120.1,13.5z M135.2,19.2c-1.1,0-2-0.2-2.7-0.7c-0.8-0.5-1.3-1.1-1.8-2c-0.4-0.8-0.6-1.8-0.6-2.9s0.2-2.1,0.6-3
	c0.4-0.9,1-1.5,1.7-2c0.7-0.5,1.6-0.7,2.6-0.7c0.6,0,1.1,0.1,1.7,0.3c0.6,0.2,1.1,0.5,1.5,0.9c0.5,0.4,0.8,1,1.1,1.7
	s0.4,1.6,0.4,2.6v0.7h-8.4v-1.4h6.7c0-0.6-0.1-1.2-0.4-1.6c-0.2-0.5-0.6-0.9-1-1.1c-0.4-0.3-1-0.4-1.6-0.4c-0.7,0-1.2,0.2-1.7,0.5
	c-0.5,0.3-0.9,0.8-1.1,1.3c-0.3,0.5-0.4,1.1-0.4,1.7v1c0,0.8,0.1,1.5,0.4,2.1c0.3,0.6,0.7,1,1.2,1.3c0.5,0.3,1.1,0.4,1.8,0.4
	c0.4,0,0.8-0.1,1.2-0.2c0.4-0.1,0.7-0.3,0.9-0.6c0.3-0.3,0.5-0.6,0.6-1l1.6,0.5c-0.2,0.5-0.5,1-0.9,1.4c-0.4,0.4-0.9,0.7-1.5,1
	C136.6,19.1,136,19.2,135.2,19.2z M142.3,19V8.1h1.6v1.6h0.1c0.2-0.5,0.6-1,1.1-1.3c0.5-0.3,1.1-0.5,1.8-0.5c0.1,0,0.3,0,0.5,0
	c0.2,0,0.3,0,0.4,0v1.7c-0.1,0-0.2,0-0.4-0.1c-0.2,0-0.4,0-0.6,0c-0.5,0-1,0.1-1.4,0.3c-0.4,0.2-0.7,0.5-1,0.9
	c-0.2,0.4-0.4,0.8-0.4,1.3V19H142.3z M155.3,19v-1.3l4.8-5.3c0.6-0.6,1-1.2,1.4-1.6c0.4-0.5,0.6-0.9,0.8-1.3
	c0.2-0.4,0.3-0.8,0.3-1.3c0-0.5-0.1-1-0.4-1.3c-0.2-0.4-0.6-0.7-1-0.9c-0.4-0.2-0.9-0.3-1.4-0.3c-0.6,0-1,0.1-1.5,0.3
	c-0.4,0.2-0.7,0.5-1,1c-0.2,0.4-0.3,0.9-0.3,1.4h-1.7c0-0.9,0.2-1.6,0.6-2.2c0.4-0.6,0.9-1.1,1.6-1.5c0.7-0.4,1.4-0.5,2.3-0.5
	c0.9,0,1.6,0.2,2.3,0.5c0.7,0.4,1.2,0.8,1.5,1.5c0.4,0.6,0.6,1.3,0.6,2c0,0.5-0.1,1.1-0.3,1.6c-0.2,0.5-0.5,1.1-1,1.7
	c-0.5,0.6-1.1,1.4-2,2.3l-3.3,3.5v0.1h6.8V19H155.3z M172.2,19.2c-1.1,0-2-0.3-2.7-0.9c-0.8-0.6-1.3-1.4-1.7-2.5
	c-0.4-1.1-0.6-2.5-0.6-4c0-1.6,0.2-2.9,0.6-4c0.4-1.1,1-2,1.7-2.6c0.8-0.6,1.7-0.9,2.7-0.9c1.1,0,2,0.3,2.7,0.9
	c0.8,0.6,1.3,1.4,1.7,2.6c0.4,1.1,0.6,2.5,0.6,4c0,1.6-0.2,2.9-0.6,4c-0.4,1.1-1,2-1.7,2.5C174.2,18.9,173.3,19.2,172.2,19.2z
	 M172.2,17.6c1.1,0,1.9-0.5,2.5-1.5c0.6-1,0.9-2.5,0.9-4.4c0-1.3-0.1-2.3-0.4-3.2c-0.3-0.9-0.6-1.6-1.2-2c-0.5-0.5-1.1-0.7-1.8-0.7
	c-1.1,0-1.9,0.5-2.5,1.6c-0.6,1-0.9,2.5-0.9,4.4c0,1.3,0.1,2.3,0.4,3.2c0.3,0.9,0.6,1.6,1.1,2C170.9,17.4,171.5,17.6,172.2,17.6z
	 M180,19v-1.3l4.8-5.3c0.6-0.6,1-1.2,1.4-1.6c0.4-0.5,0.6-0.9,0.8-1.3c0.2-0.4,0.3-0.8,0.3-1.3c0-0.5-0.1-1-0.4-1.3
	c-0.2-0.4-0.6-0.7-1-0.9c-0.4-0.2-0.9-0.3-1.4-0.3c-0.6,0-1,0.1-1.5,0.3c-0.4,0.2-0.7,0.5-1,1c-0.2,0.4-0.3,0.9-0.3,1.4H180
	c0-0.9,0.2-1.6,0.6-2.2c0.4-0.6,0.9-1.1,1.6-1.5c0.7-0.4,1.4-0.5,2.3-0.5c0.9,0,1.6,0.2,2.3,0.5c0.7,0.4,1.2,0.8,1.5,1.5
	c0.4,0.6,0.6,1.3,0.6,2c0,0.5-0.1,1.1-0.3,1.6c-0.2,0.5-0.5,1.1-1,1.7c-0.5,0.6-1.1,1.4-2,2.3l-3.3,3.5v0.1h6.8V19H180z M192.1,19
	v-1.3l4.8-5.3c0.6-0.6,1-1.2,1.4-1.6c0.4-0.5,0.6-0.9,0.8-1.3c0.2-0.4,0.3-0.8,0.3-1.3c0-0.5-0.1-1-0.4-1.3c-0.2-0.4-0.6-0.7-1-0.9
	c-0.4-0.2-0.9-0.3-1.4-0.3c-0.6,0-1,0.1-1.5,0.3c-0.4,0.2-0.7,0.5-1,1c-0.2,0.4-0.3,0.9-0.3,1.4h-1.7c0-0.9,0.2-1.6,0.6-2.2
	c0.4-0.6,0.9-1.1,1.6-1.5c0.7-0.4,1.4-0.5,2.3-0.5c0.9,0,1.6,0.2,2.3,0.5c0.7,0.4,1.2,0.8,1.5,1.5s0.6,1.3,0.6,2
	c0,0.5-0.1,1.1-0.3,1.6c-0.2,0.5-0.5,1.1-1,1.7c-0.5,0.6-1.1,1.4-2,2.3l-3.3,3.5v0.1h6.8V19H192.1z"/>
<path class="st0" d="M18.5,97l-2.8-9h-0.1c0,0.2,0,0.5,0,1c0,0.4,0,0.9,0.1,1.4c0,0.5,0,0.9,0,1.3V97h-2.2V85.6h3.3l2.7,8.7h0
	l2.9-8.7h3.3V97h-2.3v-5.4c0-0.4,0-0.8,0-1.2c0-0.5,0-0.9,0.1-1.3c0-0.4,0-0.7,0-1h-0.1L20.7,97H18.5z M24,116.6
	c0,0.7-0.1,1.4-0.3,1.9c-0.2,0.6-0.5,1-0.9,1.4c-0.4,0.4-0.8,0.7-1.3,0.9c-0.5,0.2-1.1,0.3-1.8,0.3c-0.6,0-1.2-0.1-1.7-0.3
	c-0.5-0.2-1-0.5-1.3-0.9c-0.4-0.4-0.7-0.9-0.9-1.4c-0.2-0.6-0.3-1.2-0.3-1.9c0-1,0.2-1.8,0.5-2.5c0.3-0.7,0.8-1.2,1.5-1.5
	s1.4-0.5,2.3-0.5c0.8,0,1.5,0.2,2.2,0.5c0.6,0.3,1.1,0.9,1.5,1.5C23.8,114.8,24,115.6,24,116.6z M17.9,116.6c0,0.6,0.1,1.1,0.2,1.4
	c0.1,0.4,0.3,0.7,0.6,0.9c0.3,0.2,0.6,0.3,1,0.3c0.4,0,0.8-0.1,1-0.3c0.3-0.2,0.5-0.5,0.6-0.9c0.1-0.4,0.2-0.9,0.2-1.4
	c0-0.6-0.1-1.1-0.2-1.4c-0.1-0.4-0.3-0.7-0.6-0.9c-0.3-0.2-0.6-0.3-1-0.3c-0.6,0-1.1,0.2-1.4,0.6C18.1,115.1,17.9,115.8,17.9,116.6z
	"/>
<path class="st4" d="M25.5,169c1.2,0,2.1,0.3,2.8,0.9c0.7,0.6,1,1.4,1,2.4c0,1.2-0.4,2.1-1.1,2.8c-0.8,0.7-1.8,1-3.1,1
	c-1.3,0-2.3-0.2-2.9-0.6v-1.2c0.4,0.2,0.8,0.4,1.4,0.6c0.5,0.1,1.1,0.2,1.6,0.2c0.9,0,1.6-0.2,2.1-0.6c0.5-0.4,0.8-1.1,0.8-1.9
	c0-1.6-1-2.4-2.9-2.4c-0.5,0-1.2,0.1-2,0.2l-0.7-0.4l0.4-5.3h5.7v1.2H24l-0.3,3.4C24.3,169.1,24.9,169,25.5,169z"/>
<path class="st4" d="M116.9,171.1c0-2.2,0.4-3.9,1.3-5c0.9-1.1,2.2-1.7,3.9-1.7c0.6,0,1.1,0.1,1.4,0.1v1.1c-0.4-0.1-0.9-0.2-1.4-0.2
	c-1.2,0-2.2,0.4-2.8,1.1c-0.6,0.8-1,2-1.1,3.6h0.1c0.6-0.9,1.5-1.3,2.7-1.3c1,0,1.8,0.3,2.4,0.9c0.6,0.6,0.9,1.5,0.9,2.5
	c0,1.2-0.3,2.1-1,2.8c-0.6,0.7-1.5,1-2.6,1c-1.2,0-2.1-0.4-2.8-1.3C117.3,173.9,116.9,172.7,116.9,171.1z M120.8,175.1
	c0.7,0,1.3-0.2,1.7-0.7c0.4-0.5,0.6-1.1,0.6-2c0-0.8-0.2-1.3-0.6-1.8c-0.4-0.4-0.9-0.6-1.7-0.6c-0.5,0-0.9,0.1-1.3,0.3
	c-0.4,0.2-0.7,0.5-0.9,0.8c-0.2,0.3-0.3,0.7-0.3,1.1c0,0.5,0.1,1,0.3,1.5c0.2,0.5,0.5,0.8,0.9,1.1
	C119.8,174.9,120.3,175.1,120.8,175.1z"/>
<path class="st4" d="M217.1,176l4.7-10.2h-6.2v-1.2h7.6v1l-4.7,10.4H217.1z"/>
<path class="st4" d="M320.2,165.4c1,0,1.9,0.2,2.5,0.7c0.6,0.5,0.9,1.2,0.9,2c0,0.6-0.2,1.1-0.5,1.5c-0.3,0.5-0.9,0.9-1.7,1.3
	c0.9,0.4,1.6,0.9,2,1.4c0.4,0.5,0.6,1,0.6,1.7c0,0.9-0.3,1.7-1,2.3c-0.7,0.6-1.6,0.8-2.7,0.8c-1.2,0-2.2-0.3-2.8-0.8
	c-0.7-0.5-1-1.3-1-2.3c0-1.3,0.8-2.3,2.4-3.1c-0.7-0.4-1.2-0.8-1.5-1.3c-0.3-0.5-0.5-1-0.5-1.6c0-0.8,0.3-1.5,0.9-2
	C318.4,165.7,319.2,165.4,320.2,165.4z M317.8,174.1c0,0.6,0.2,1.1,0.6,1.5c0.4,0.3,1,0.5,1.8,0.5c0.8,0,1.4-0.2,1.8-0.5
	c0.4-0.4,0.6-0.9,0.6-1.5c0-0.5-0.2-1-0.6-1.3c-0.4-0.4-1.1-0.8-2.1-1.1c-0.8,0.3-1.3,0.7-1.7,1.1
	C317.9,173.1,317.8,173.6,317.8,174.1z M320.2,166.5c-0.7,0-1.2,0.2-1.5,0.5c-0.4,0.3-0.6,0.7-0.6,1.2c0,0.5,0.2,0.9,0.5,1.2
	c0.3,0.3,0.9,0.7,1.7,1c0.7-0.3,1.3-0.6,1.6-1c0.3-0.4,0.5-0.8,0.5-1.3c0-0.5-0.2-0.9-0.6-1.2C321.4,166.6,320.9,166.5,320.2,166.5z
	"/>
<path class="st4" d="M423,169.5c0,4.5-1.7,6.7-5.2,6.7c-0.6,0-1.1-0.1-1.4-0.2v-1.1c0.4,0.1,0.9,0.2,1.4,0.2c1.2,0,2.2-0.4,2.8-1.2
	c0.6-0.8,1-2,1-3.6h-0.1c-0.3,0.4-0.7,0.8-1.1,1c-0.5,0.2-1,0.3-1.6,0.3c-1,0-1.8-0.3-2.4-0.9c-0.6-0.6-0.9-1.4-0.9-2.5
	c0-1.2,0.3-2.1,1-2.8c0.7-0.7,1.5-1,2.6-1c0.8,0,1.5,0.2,2,0.6c0.6,0.4,1,1,1.3,1.7C422.8,167.5,423,168.4,423,169.5z M419.1,165.5
	c-0.7,0-1.3,0.2-1.7,0.7c-0.4,0.5-0.6,1.1-0.6,2c0,0.8,0.2,1.3,0.6,1.8c0.4,0.4,0.9,0.6,1.7,0.6c0.5,0,0.9-0.1,1.3-0.3
	c0.4-0.2,0.7-0.5,0.9-0.8c0.2-0.3,0.3-0.7,0.3-1c0-0.5-0.1-1.1-0.3-1.5c-0.2-0.5-0.5-0.8-0.9-1.1C420,165.7,419.6,165.5,419.1,165.5
	z"/>
<path class="st4" d="M515.2,176h-1v-6.6c0-0.6,0-1.1,0.1-1.6c-0.1,0.1-0.2,0.2-0.3,0.3c-0.1,0.1-0.6,0.5-1.5,1.2l-0.6-0.7l2.5-1.9
	h0.9V176z M524.9,171.3c0,1.6-0.3,2.8-0.8,3.6c-0.5,0.8-1.3,1.2-2.3,1.2c-1,0-1.8-0.4-2.3-1.2c-0.5-0.8-0.8-2-0.8-3.6
	c0-1.6,0.3-2.8,0.8-3.6c0.5-0.8,1.3-1.2,2.3-1.2c1,0,1.8,0.4,2.3,1.2C524.6,168.6,524.9,169.8,524.9,171.3z M519.8,171.3
	c0,1.4,0.2,2.3,0.5,3c0.3,0.6,0.8,0.9,1.5,0.9c0.7,0,1.2-0.3,1.5-0.9c0.3-0.6,0.5-1.6,0.5-2.9s-0.2-2.3-0.5-2.9
	c-0.3-0.6-0.8-0.9-1.5-0.9c-0.7,0-1.2,0.3-1.5,0.9C520,169,519.8,170,519.8,171.3z"/>
<path class="st4" d="M619,176h-1v-6.6c0-0.6,0-1.1,0.1-1.6c-0.1,0.1-0.2,0.2-0.3,0.3c-0.1,0.1-0.6,0.5-1.5,1.2l-0.6-0.7l2.5-1.9h0.9
	V176z M626.5,176h-1v-6.6c0-0.6,0-1.1,0.1-1.6c-0.1,0.1-0.2,0.2-0.3,0.3c-0.1,0.1-0.6,0.5-1.5,1.2l-0.6-0.7l2.5-1.9h0.9V176z"/>
<path class="st4" d="M16.2,216h-1.3v-8.1c0-0.7,0-1.3,0.1-1.9c-0.1,0.1-0.2,0.2-0.4,0.3c-0.1,0.1-0.8,0.6-1.9,1.5l-0.7-0.9l3-2.3
	h1.1V216z M28,216h-7.5v-1.1l3-3c0.9-0.9,1.5-1.6,1.8-2c0.3-0.4,0.5-0.8,0.7-1.2c0.1-0.4,0.2-0.8,0.2-1.2c0-0.6-0.2-1.1-0.6-1.4
	c-0.4-0.4-0.9-0.5-1.5-0.5c-0.5,0-0.9,0.1-1.4,0.2c-0.4,0.2-0.9,0.4-1.4,0.9l-0.7-0.9c1.1-0.9,2.2-1.3,3.4-1.3
	c1.1,0,1.9,0.3,2.5,0.8c0.6,0.5,0.9,1.3,0.9,2.2c0,0.7-0.2,1.4-0.6,2.1c-0.4,0.7-1.2,1.6-2.3,2.7l-2.5,2.4v0.1H28V216z"/>
<path class="st4" d="M116.3,216h-1.3v-8.1c0-0.7,0-1.3,0.1-1.9c-0.1,0.1-0.2,0.2-0.4,0.3c-0.1,0.1-0.8,0.6-1.9,1.5l-0.7-0.9l3-2.3
	h1.1V216z M127.8,207.3c0,0.7-0.2,1.3-0.6,1.8c-0.4,0.5-1,0.8-1.7,0.9v0.1c0.9,0.1,1.6,0.4,2,0.9c0.4,0.5,0.7,1.1,0.7,1.8
	c0,1.1-0.4,1.9-1.1,2.5c-0.8,0.6-1.8,0.9-3.2,0.9c-0.6,0-1.2,0-1.7-0.1c-0.5-0.1-1-0.2-1.5-0.5v-1.2c0.5,0.2,1,0.4,1.6,0.6
	c0.6,0.1,1.1,0.2,1.6,0.2c2,0,3-0.8,3-2.3c0-1.4-1.1-2.1-3.3-2.1h-1.1v-1.1h1.1c0.9,0,1.6-0.2,2.1-0.6c0.5-0.4,0.8-0.9,0.8-1.6
	c0-0.6-0.2-1-0.6-1.3c-0.4-0.3-0.9-0.5-1.6-0.5c-0.5,0-1,0.1-1.4,0.2c-0.4,0.1-0.9,0.4-1.5,0.8l-0.7-0.9c0.5-0.4,1-0.7,1.6-0.9
	c0.6-0.2,1.3-0.3,1.9-0.3c1.1,0,2,0.3,2.6,0.8C127.4,205.7,127.8,206.4,127.8,207.3z"/>
<path class="st4" d="M216.5,216h-1.3v-8.1c0-0.3,0-0.6,0-0.8c0-0.2,0-0.4,0-0.6c0-0.2,0-0.4,0-0.6c-0.2,0.2-0.3,0.3-0.5,0.4
	c-0.1,0.1-0.3,0.3-0.5,0.4l-1.3,1l-0.7-0.9l3.1-2.4h1.1V216z M228.9,213.4h-1.7v2.6h-1.3v-2.6h-5.5v-1.1l5.4-7.7h1.4v7.7h1.7V213.4z
	 M225.9,212.2v-3.7c0-0.3,0-0.5,0-0.8c0-0.2,0-0.5,0-0.6c0-0.2,0-0.4,0-0.6c0-0.2,0-0.4,0-0.5h-0.1c-0.1,0.2-0.2,0.4-0.3,0.7
	c-0.1,0.2-0.3,0.4-0.4,0.6l-3.5,5H225.9z"/>
<circle class="st6" cx="321.2" cy="210.5" r="16.5"/>
<path class="st7" d="M317.6,216h-2.4v-6.6c0-0.2,0-0.4,0-0.7c0-0.3,0-0.5,0-0.8c0-0.3,0-0.5,0-0.8c-0.1,0.1-0.2,0.2-0.4,0.4
	c-0.2,0.2-0.3,0.3-0.5,0.4l-1.3,1.1l-1.2-1.5l3.7-2.9h2V216z M325,208.7c0.7,0,1.3,0.1,1.9,0.4c0.5,0.3,1,0.7,1.3,1.2
	c0.3,0.5,0.5,1.2,0.5,1.9c0,0.8-0.2,1.5-0.5,2.1c-0.3,0.6-0.8,1.1-1.5,1.4c-0.7,0.3-1.5,0.5-2.5,0.5c-0.6,0-1.2-0.1-1.7-0.2
	c-0.5-0.1-1-0.3-1.4-0.5v-2.1c0.4,0.2,0.9,0.4,1.4,0.5c0.6,0.1,1.1,0.2,1.6,0.2c0.5,0,0.9-0.1,1.2-0.2c0.3-0.1,0.6-0.3,0.7-0.6
	c0.2-0.3,0.3-0.6,0.3-1c0-0.6-0.2-1-0.6-1.3c-0.4-0.3-1-0.4-1.7-0.4c-0.3,0-0.6,0-0.9,0.1c-0.3,0.1-0.6,0.1-0.8,0.2l-1-0.5l0.4-5.8
	h6.2v2h-4.1l-0.2,2.2c0.2,0,0.4-0.1,0.6-0.1C324.3,208.7,324.6,208.7,325,208.7z"/>
<circle class="st6" cx="421.2" cy="210.5" r="16.5"/>
<path class="st7" d="M417.8,216h-2.4v-6.6c0-0.2,0-0.4,0-0.7c0-0.3,0-0.5,0-0.8c0-0.3,0-0.5,0-0.8c-0.1,0.1-0.2,0.2-0.4,0.4
	c-0.2,0.2-0.3,0.3-0.5,0.4l-1.3,1.1l-1.2-1.5l3.7-2.9h2V216z M420.9,211.1c0-0.7,0-1.3,0.1-1.9c0.1-0.6,0.3-1.3,0.5-1.8
	c0.2-0.6,0.6-1.1,1-1.5c0.4-0.4,1-0.8,1.6-1c0.7-0.3,1.5-0.4,2.4-0.4c0.2,0,0.5,0,0.8,0c0.3,0,0.6,0,0.8,0.1v1.9
	c-0.2,0-0.4-0.1-0.7-0.1c-0.2,0-0.5,0-0.7,0c-0.9,0-1.7,0.2-2.2,0.5c-0.5,0.3-0.9,0.7-1.1,1.3c-0.2,0.5-0.3,1.2-0.4,1.9h0.1
	c0.1-0.3,0.3-0.5,0.5-0.7c0.2-0.2,0.5-0.4,0.8-0.5c0.3-0.1,0.7-0.2,1.1-0.2c0.7,0,1.2,0.1,1.7,0.4c0.5,0.3,0.9,0.7,1.1,1.2
	c0.3,0.5,0.4,1.2,0.4,2c0,0.8-0.2,1.5-0.5,2.1c-0.3,0.6-0.8,1-1.4,1.4c-0.6,0.3-1.3,0.5-2.1,0.5c-0.6,0-1.1-0.1-1.6-0.3
	c-0.5-0.2-0.9-0.5-1.3-0.9c-0.4-0.4-0.7-0.9-0.9-1.6C421,212.8,420.9,212,420.9,211.1z M425,214.2c0.5,0,0.9-0.2,1.2-0.5
	s0.4-0.8,0.4-1.5c0-0.6-0.1-1-0.4-1.3c-0.3-0.3-0.6-0.5-1.2-0.5c-0.4,0-0.7,0.1-0.9,0.2c-0.3,0.2-0.5,0.4-0.6,0.6
	c-0.1,0.2-0.2,0.5-0.2,0.7c0,0.3,0,0.5,0.1,0.8c0.1,0.3,0.2,0.5,0.3,0.7c0.1,0.2,0.3,0.4,0.5,0.5C424.5,214.2,424.7,214.2,425,214.2
	z"/>
<circle class="st6" cx="518.2" cy="210.5" r="16.5"/>
<path class="st7" d="M516.4,216h-2v-5.4c0-0.1,0-0.3,0-0.5c0-0.2,0-0.4,0-0.7c0-0.2,0-0.4,0-0.6c0,0.1-0.1,0.1-0.3,0.3
	c-0.1,0.1-0.3,0.2-0.4,0.4l-1.1,0.9l-0.9-1.2l3-2.4h1.6V216z M519.9,216l3.5-7.6h-4.6v-1.6h6.7v1.2l-3.5,8H519.9z"/>
<circle class="st6" cx="621.2" cy="211.5" r="16.5"/>
<path class="st7" d="M618.5,216h-2v-5.4c0-0.1,0-0.3,0-0.5c0-0.2,0-0.4,0-0.7c0-0.2,0-0.4,0-0.6c0,0.1-0.1,0.1-0.3,0.3
	c-0.1,0.1-0.3,0.2-0.4,0.4l-1.1,0.9l-0.9-1.2l3-2.4h1.6V216z M624.3,206.6c0.5,0,1,0.1,1.5,0.2c0.5,0.2,0.8,0.4,1.1,0.7
	c0.3,0.3,0.4,0.7,0.4,1.2c0,0.4-0.1,0.7-0.2,1c-0.1,0.3-0.3,0.5-0.6,0.7c-0.2,0.2-0.5,0.4-0.9,0.5c0.3,0.2,0.6,0.4,0.9,0.6
	c0.3,0.2,0.5,0.5,0.7,0.8c0.2,0.3,0.3,0.7,0.3,1.1c0,0.5-0.1,1-0.4,1.3c-0.3,0.4-0.7,0.7-1.1,0.9c-0.5,0.2-1.1,0.3-1.7,0.3
	c-0.7,0-1.3-0.1-1.8-0.3c-0.5-0.2-0.9-0.5-1.1-0.9c-0.3-0.4-0.4-0.8-0.4-1.3c0-0.4,0.1-0.8,0.2-1.1c0.2-0.3,0.4-0.6,0.6-0.8
	c0.3-0.2,0.6-0.4,0.9-0.6c-0.3-0.2-0.5-0.4-0.8-0.6c-0.2-0.2-0.4-0.5-0.5-0.8c-0.1-0.3-0.2-0.6-0.2-1c0-0.5,0.1-0.9,0.4-1.2
	c0.3-0.3,0.6-0.6,1.1-0.7C623.3,206.7,623.8,206.6,624.3,206.6z M622.9,213.5c0,0.3,0.1,0.6,0.4,0.8c0.2,0.2,0.6,0.3,1.1,0.3
	c0.5,0,0.8-0.1,1.1-0.3c0.2-0.2,0.4-0.5,0.4-0.8c0-0.2-0.1-0.4-0.2-0.6c-0.1-0.2-0.3-0.3-0.5-0.5c-0.2-0.1-0.4-0.3-0.6-0.4l-0.2-0.1
	c-0.3,0.1-0.5,0.3-0.7,0.4c-0.2,0.2-0.4,0.3-0.5,0.5C622.9,213.1,622.9,213.3,622.9,213.5z M624.3,208c-0.3,0-0.6,0.1-0.8,0.2
	c-0.2,0.2-0.3,0.4-0.3,0.7c0,0.2,0.1,0.4,0.2,0.6c0.1,0.2,0.2,0.3,0.4,0.4c0.2,0.1,0.4,0.2,0.6,0.3c0.2-0.1,0.4-0.2,0.5-0.3
	c0.2-0.1,0.3-0.3,0.4-0.4c0.1-0.2,0.2-0.4,0.2-0.6c0-0.3-0.1-0.5-0.3-0.7C624.9,208.1,624.6,208,624.3,208z"/>
<circle class="st6" cx="21.2" cy="250.5" r="16.5"/>
<path class="st7" d="M17.2,256h-2.4v-6.6c0-0.2,0-0.4,0-0.7c0-0.3,0-0.5,0-0.8c0-0.3,0-0.5,0-0.8c-0.1,0.1-0.2,0.2-0.4,0.4
	c-0.2,0.2-0.3,0.3-0.5,0.4l-1.3,1.1l-1.2-1.5l3.7-2.9h2V256z M28.3,249.5c0,0.7,0,1.3-0.1,2c-0.1,0.6-0.3,1.3-0.5,1.8
	c-0.2,0.6-0.6,1.1-1,1.5c-0.4,0.4-1,0.8-1.6,1c-0.7,0.2-1.5,0.4-2.4,0.4c-0.2,0-0.5,0-0.8,0c-0.3,0-0.6,0-0.8-0.1v-1.9
	c0.2,0.1,0.4,0.1,0.7,0.1c0.2,0,0.5,0,0.7,0c1,0,1.7-0.2,2.2-0.5c0.5-0.3,0.9-0.7,1.1-1.3c0.2-0.5,0.3-1.2,0.4-1.9H26
	c-0.2,0.2-0.3,0.5-0.5,0.7c-0.2,0.2-0.5,0.4-0.8,0.5c-0.3,0.1-0.7,0.2-1.2,0.2c-0.7,0-1.2-0.1-1.7-0.4c-0.5-0.3-0.9-0.7-1.1-1.2
	c-0.3-0.5-0.4-1.2-0.4-2c0-0.8,0.2-1.5,0.5-2.1c0.3-0.6,0.8-1,1.4-1.4c0.6-0.3,1.3-0.5,2.1-0.5c0.6,0,1.1,0.1,1.6,0.3
	c0.5,0.2,0.9,0.5,1.3,0.9c0.4,0.4,0.7,0.9,0.9,1.6C28.2,247.9,28.3,248.6,28.3,249.5z M24.2,246.4c-0.5,0-0.9,0.2-1.1,0.5
	c-0.3,0.3-0.4,0.8-0.4,1.5c0,0.6,0.1,1,0.4,1.3c0.3,0.3,0.6,0.5,1.2,0.5c0.4,0,0.7-0.1,0.9-0.2c0.3-0.2,0.5-0.4,0.6-0.6
	c0.2-0.2,0.2-0.5,0.2-0.8c0-0.3,0-0.5-0.1-0.8c-0.1-0.3-0.2-0.5-0.3-0.7c-0.1-0.2-0.3-0.4-0.5-0.5C24.7,246.4,24.5,246.4,24.2,246.4
	z"/>
<path class="st4" d="M119,256h-7.5v-1.1l3.1-3.1c0.6-0.6,1-1.1,1.4-1.5c0.4-0.4,0.7-0.9,0.9-1.3c0.2-0.4,0.3-0.9,0.3-1.4
	c0-0.6-0.2-1.1-0.6-1.5c-0.4-0.3-0.9-0.5-1.5-0.5c-0.5,0-1,0.1-1.5,0.3c-0.4,0.2-0.9,0.5-1.3,0.8l-0.7-0.9c0.3-0.3,0.6-0.5,1-0.7
	c0.4-0.2,0.7-0.4,1.1-0.5c0.4-0.1,0.8-0.2,1.3-0.2c0.7,0,1.3,0.1,1.8,0.4c0.5,0.2,0.9,0.6,1.2,1c0.3,0.5,0.4,1,0.4,1.6
	c0,0.6-0.1,1.2-0.4,1.7c-0.2,0.5-0.6,1-1,1.5c-0.4,0.5-0.9,1-1.5,1.6l-2.5,2.5v0.1h5.8V256z M128.2,250.3c0,0.9-0.1,1.8-0.2,2.5
	c-0.1,0.7-0.4,1.3-0.7,1.9c-0.3,0.5-0.7,0.9-1.2,1.2c-0.5,0.3-1.1,0.4-1.7,0.4c-0.8,0-1.6-0.2-2.1-0.7c-0.6-0.5-1-1.1-1.2-2
	c-0.3-0.9-0.4-1.9-0.4-3.2c0-1.2,0.1-2.3,0.4-3.1c0.2-0.9,0.7-1.6,1.2-2c0.6-0.5,1.3-0.7,2.2-0.7c0.9,0,1.6,0.2,2.1,0.7
	c0.6,0.5,1,1.1,1.2,2C128.1,248,128.2,249,128.2,250.3z M122,250.3c0,1.1,0.1,1.9,0.2,2.7c0.2,0.7,0.4,1.2,0.8,1.6
	c0.4,0.3,0.8,0.5,1.4,0.5c0.6,0,1.1-0.2,1.4-0.5c0.4-0.3,0.6-0.9,0.8-1.6c0.2-0.7,0.2-1.6,0.2-2.7c0-1-0.1-1.9-0.2-2.6
	c-0.2-0.7-0.4-1.2-0.8-1.6c-0.4-0.4-0.8-0.5-1.4-0.5s-1.1,0.2-1.4,0.5c-0.4,0.4-0.6,0.9-0.8,1.6C122.1,248.4,122,249.2,122,250.3z"
	/>
<path class="st4" d="M219.2,256h-7.5v-1.1l3-3c0.9-0.9,1.5-1.6,1.8-2c0.3-0.4,0.5-0.8,0.7-1.2s0.2-0.8,0.2-1.2
	c0-0.6-0.2-1.1-0.6-1.4c-0.4-0.4-0.9-0.5-1.5-0.5c-0.5,0-0.9,0.1-1.4,0.2c-0.4,0.2-0.9,0.4-1.4,0.9l-0.7-0.9
	c1.1-0.9,2.2-1.3,3.4-1.3c1.1,0,1.9,0.3,2.5,0.8c0.6,0.5,0.9,1.3,0.9,2.2c0,0.7-0.2,1.4-0.6,2.1c-0.4,0.7-1.2,1.6-2.3,2.7l-2.5,2.4
	v0.1h5.9V256z M225.6,256h-1.3v-8.1c0-0.7,0-1.3,0.1-1.9c-0.1,0.1-0.2,0.2-0.4,0.3c-0.1,0.1-0.8,0.6-1.9,1.5l-0.7-0.9l3-2.3h1.1V256
	z"/>
<path class="st4" d="M319.3,256h-7.5v-1.1l3-3c0.9-0.9,1.5-1.6,1.8-2s0.5-0.8,0.7-1.2s0.2-0.8,0.2-1.2c0-0.6-0.2-1.1-0.6-1.4
	c-0.4-0.4-0.9-0.5-1.5-0.5c-0.5,0-0.9,0.1-1.4,0.2c-0.4,0.2-0.9,0.4-1.4,0.9l-0.7-0.9c1.1-0.9,2.2-1.3,3.4-1.3
	c1.1,0,1.9,0.3,2.5,0.8c0.6,0.5,0.9,1.3,0.9,2.2c0,0.7-0.2,1.4-0.6,2.1c-0.4,0.7-1.2,1.6-2.3,2.7l-2.5,2.4v0.1h5.9V256z M328.5,256
	H321v-1.1l3-3c0.9-0.9,1.5-1.6,1.8-2s0.5-0.8,0.7-1.2c0.1-0.4,0.2-0.8,0.2-1.2c0-0.6-0.2-1.1-0.6-1.4c-0.4-0.4-0.9-0.5-1.5-0.5
	c-0.5,0-0.9,0.1-1.4,0.2c-0.4,0.2-0.9,0.4-1.4,0.9l-0.7-0.9c1.1-0.9,2.2-1.3,3.4-1.3c1.1,0,1.9,0.3,2.5,0.8c0.6,0.5,0.9,1.3,0.9,2.2
	c0,0.7-0.2,1.4-0.6,2.1c-0.4,0.7-1.2,1.6-2.3,2.7l-2.5,2.4v0.1h5.9V256z"/>
<path class="st4" d="M413.2,256v-0.8l3.1-3.4c0.4-0.4,0.7-0.7,0.9-1c0.2-0.3,0.4-0.6,0.5-0.8c0.1-0.3,0.2-0.5,0.2-0.8
	c0-0.3-0.1-0.6-0.2-0.9c-0.2-0.2-0.4-0.4-0.6-0.6c-0.3-0.1-0.6-0.2-0.9-0.2c-0.4,0-0.7,0.1-1,0.2c-0.3,0.1-0.5,0.4-0.6,0.6
	c-0.1,0.3-0.2,0.6-0.2,0.9h-1.1c0-0.6,0.1-1,0.4-1.5c0.3-0.4,0.6-0.7,1-1c0.4-0.2,0.9-0.4,1.5-0.4c0.6,0,1,0.1,1.5,0.4
	c0.4,0.2,0.8,0.5,1,0.9c0.2,0.4,0.4,0.8,0.4,1.3c0,0.3-0.1,0.7-0.2,1c-0.1,0.3-0.3,0.7-0.6,1.1c-0.3,0.4-0.7,0.9-1.3,1.5l-2.1,2.3
	v0.1h4.4v1H413.2z M424.3,256.1c-0.6,0-1.2-0.1-1.6-0.3c-0.5-0.2-0.9-0.5-1.1-0.9c-0.3-0.4-0.4-0.8-0.5-1.3h1.2
	c0,0.3,0.1,0.6,0.3,0.8c0.2,0.2,0.4,0.4,0.7,0.5c0.3,0.1,0.6,0.2,1,0.2c0.4,0,0.8-0.1,1.1-0.2c0.3-0.1,0.6-0.3,0.7-0.6
	c0.2-0.3,0.3-0.5,0.3-0.9c0-0.3-0.1-0.7-0.3-0.9c-0.2-0.3-0.4-0.5-0.8-0.6c-0.3-0.2-0.7-0.2-1.2-0.2h-0.8v-1h0.8
	c0.4,0,0.7-0.1,1-0.2c0.3-0.1,0.5-0.3,0.7-0.6c0.2-0.2,0.2-0.5,0.2-0.9c0-0.3-0.1-0.6-0.2-0.8s-0.3-0.4-0.6-0.6
	c-0.3-0.1-0.6-0.2-0.9-0.2c-0.3,0-0.6,0.1-0.9,0.2c-0.3,0.1-0.5,0.3-0.7,0.5c-0.2,0.2-0.3,0.5-0.3,0.8h-1.1c0-0.5,0.2-0.9,0.4-1.3
	c0.3-0.4,0.6-0.7,1.1-0.9c0.5-0.2,1-0.3,1.5-0.3c0.6,0,1.1,0.1,1.5,0.4c0.4,0.2,0.7,0.5,1,0.9c0.2,0.4,0.3,0.8,0.3,1.2
	c0,0.5-0.1,1-0.4,1.4c-0.3,0.4-0.7,0.6-1.1,0.8v0.1c0.6,0.1,1.1,0.4,1.4,0.8c0.3,0.4,0.5,0.9,0.5,1.5c0,0.5-0.1,1-0.4,1.4
	c-0.3,0.4-0.7,0.7-1.1,1C425.5,256,424.9,256.1,424.3,256.1z"/>
<path class="st4" d="M513.4,256v-0.8l3.1-3.4c0.4-0.4,0.7-0.7,0.9-1c0.2-0.3,0.4-0.6,0.5-0.8c0.1-0.3,0.2-0.5,0.2-0.8
	c0-0.3-0.1-0.6-0.2-0.9c-0.2-0.2-0.4-0.4-0.6-0.6c-0.3-0.1-0.6-0.2-0.9-0.2c-0.4,0-0.7,0.1-1,0.2c-0.3,0.1-0.5,0.4-0.6,0.6
	c-0.1,0.3-0.2,0.6-0.2,0.9h-1.1c0-0.6,0.1-1,0.4-1.5c0.3-0.4,0.6-0.7,1-1c0.4-0.2,0.9-0.4,1.5-0.4c0.6,0,1,0.1,1.5,0.4
	c0.4,0.2,0.8,0.5,1,0.9s0.4,0.8,0.4,1.3c0,0.3-0.1,0.7-0.2,1c-0.1,0.3-0.3,0.7-0.6,1.1c-0.3,0.4-0.7,0.9-1.3,1.5l-2.1,2.3v0.1h4.4v1
	H513.4z M520.9,254.1v-0.9l4.2-6.6h0.7v1.5h-0.5l-3.1,5v0.1h5.6v1H520.9z M525.3,256v-2.2v-0.4v-6.8h1.1v9.5H525.3z"/>
<path class="st4" d="M613.7,256v-0.8l3.1-3.4c0.4-0.4,0.7-0.7,0.9-1c0.2-0.3,0.4-0.6,0.5-0.8c0.1-0.3,0.2-0.5,0.2-0.8
	c0-0.3-0.1-0.6-0.2-0.9c-0.2-0.2-0.4-0.4-0.6-0.6s-0.6-0.2-0.9-0.2c-0.4,0-0.7,0.1-1,0.2c-0.3,0.1-0.5,0.4-0.6,0.6
	c-0.1,0.3-0.2,0.6-0.2,0.9h-1.1c0-0.6,0.1-1,0.4-1.5c0.3-0.4,0.6-0.7,1-1c0.4-0.2,0.9-0.4,1.5-0.4c0.6,0,1,0.1,1.5,0.4
	c0.4,0.2,0.8,0.5,1,0.9c0.2,0.4,0.4,0.8,0.4,1.3c0,0.3-0.1,0.7-0.2,1c-0.1,0.3-0.3,0.7-0.6,1.1c-0.3,0.4-0.7,0.9-1.3,1.5l-2.1,2.3
	v0.1h4.4v1H613.7z M624.5,256.1c-0.5,0-1-0.1-1.5-0.3c-0.4-0.2-0.8-0.5-1-0.9c-0.3-0.4-0.4-0.8-0.4-1.3h1.1c0,0.4,0.2,0.8,0.6,1.1
	c0.3,0.3,0.8,0.4,1.2,0.4c0.4,0,0.7-0.1,1-0.3c0.3-0.2,0.5-0.4,0.7-0.7c0.2-0.3,0.3-0.7,0.3-1.1c0-0.4-0.1-0.8-0.3-1.1
	c-0.2-0.3-0.4-0.6-0.7-0.8c-0.3-0.2-0.7-0.3-1.1-0.3c-0.3,0-0.6,0-0.9,0.1c-0.3,0.1-0.6,0.2-0.8,0.3l-1.1-0.1l0.6-4.7h4.9v1h-4
	l-0.3,2.8h0.1c0.2-0.2,0.4-0.3,0.7-0.4c0.3-0.1,0.6-0.2,0.9-0.2c0.6,0,1.1,0.1,1.5,0.4c0.5,0.3,0.8,0.6,1.1,1.1
	c0.3,0.5,0.4,1,0.4,1.6c0,0.6-0.1,1.1-0.4,1.6c-0.3,0.5-0.6,0.8-1.1,1.1C625.7,256,625.1,256.1,624.5,256.1z"/>
<path class="st4" d="M18.9,296h-7.5v-1.1l3-3c0.9-0.9,1.5-1.6,1.8-2c0.3-0.4,0.5-0.8,0.7-1.2c0.1-0.4,0.2-0.8,0.2-1.2
	c0-0.6-0.2-1.1-0.6-1.4c-0.4-0.4-0.9-0.5-1.5-0.5c-0.5,0-0.9,0.1-1.4,0.2c-0.4,0.2-0.9,0.4-1.4,0.9l-0.7-0.9
	c1.1-0.9,2.2-1.3,3.4-1.3c1.1,0,1.9,0.3,2.5,0.8c0.6,0.5,0.9,1.3,0.9,2.2c0,0.7-0.2,1.4-0.6,2.1c-0.4,0.7-1.2,1.6-2.3,2.7l-2.5,2.4
	v0.1h5.9V296z M20.7,291.1c0-2.2,0.4-3.9,1.3-5c0.9-1.1,2.2-1.7,3.9-1.7c0.6,0,1.1,0,1.4,0.1v1.1c-0.4-0.1-0.9-0.2-1.4-0.2
	c-1.2,0-2.2,0.4-2.8,1.1c-0.6,0.8-1,2-1.1,3.6h0.1c0.6-0.9,1.5-1.3,2.7-1.3c1,0,1.8,0.3,2.4,0.9c0.6,0.6,0.9,1.5,0.9,2.5
	c0,1.2-0.3,2.1-1,2.8c-0.6,0.7-1.5,1-2.6,1c-1.2,0-2.1-0.4-2.8-1.3C21,293.9,20.7,292.7,20.7,291.1z M24.5,295.1
	c0.7,0,1.3-0.2,1.7-0.7c0.4-0.5,0.6-1.1,0.6-2c0-0.8-0.2-1.3-0.6-1.8c-0.4-0.4-0.9-0.6-1.7-0.6c-0.5,0-0.9,0.1-1.3,0.3
	c-0.4,0.2-0.7,0.5-0.9,0.8c-0.2,0.3-0.3,0.7-0.3,1.1c0,0.5,0.1,1,0.3,1.5c0.2,0.5,0.5,0.8,0.9,1.1C23.6,294.9,24,295.1,24.5,295.1z"
	/>
<path class="st7" d="M89.9,271H150c11,0,20,9,20,20l0,0c0,11-9,20-20,20H89.9c-11,0-20-9-20-20l0,0C69.9,280,78.8,271,89.9,271z"/>
<path class="st8" d="M119,296h-7.5v-1.1l3-3c0.9-0.9,1.5-1.6,1.8-2c0.3-0.4,0.5-0.8,0.7-1.2c0.1-0.4,0.2-0.8,0.2-1.2
	c0-0.6-0.2-1.1-0.6-1.4c-0.4-0.4-0.9-0.5-1.5-0.5c-0.5,0-0.9,0.1-1.4,0.2c-0.4,0.2-0.9,0.4-1.4,0.9l-0.7-0.9
	c1.1-0.9,2.2-1.3,3.4-1.3c1.1,0,1.9,0.3,2.5,0.8c0.6,0.5,0.9,1.3,0.9,2.2c0,0.7-0.2,1.4-0.6,2.1c-0.4,0.7-1.2,1.6-2.3,2.7l-2.5,2.4
	v0.1h5.9V296z M122.1,296l4.7-10.2h-6.2v-1.2h7.6v1l-4.7,10.4H122.1z"/>
<path class="st4" d="M219.2,296h-7.5v-1.1l3-3c0.9-0.9,1.5-1.6,1.8-2c0.3-0.4,0.5-0.8,0.7-1.2s0.2-0.8,0.2-1.2
	c0-0.6-0.2-1.1-0.6-1.4c-0.4-0.4-0.9-0.5-1.5-0.5c-0.5,0-0.9,0.1-1.4,0.2c-0.4,0.2-0.9,0.4-1.4,0.9l-0.7-0.9
	c1.1-0.9,2.2-1.3,3.4-1.3c1.1,0,1.9,0.3,2.5,0.8c0.6,0.5,0.9,1.3,0.9,2.2c0,0.7-0.2,1.4-0.6,2.1c-0.4,0.7-1.2,1.6-2.3,2.7l-2.5,2.4
	v0.1h5.9V296z M224.6,284.4c1,0,1.9,0.2,2.5,0.7c0.6,0.5,0.9,1.2,0.9,2c0,0.6-0.2,1.1-0.5,1.5c-0.3,0.5-0.9,0.9-1.7,1.3
	c0.9,0.4,1.6,0.9,2,1.4c0.4,0.5,0.6,1,0.6,1.7c0,0.9-0.3,1.7-1,2.3c-0.7,0.6-1.6,0.8-2.7,0.8c-1.2,0-2.2-0.3-2.8-0.8
	c-0.7-0.5-1-1.3-1-2.3c0-1.3,0.8-2.3,2.4-3.1c-0.7-0.4-1.2-0.8-1.5-1.3c-0.3-0.5-0.5-1-0.5-1.6c0-0.8,0.3-1.5,0.9-2
	C222.8,284.7,223.6,284.4,224.6,284.4z M222.1,293.1c0,0.6,0.2,1.1,0.6,1.5c0.4,0.3,1,0.5,1.8,0.5c0.8,0,1.4-0.2,1.8-0.5
	c0.4-0.4,0.6-0.9,0.6-1.5c0-0.5-0.2-1-0.6-1.3c-0.4-0.4-1.1-0.8-2.1-1.1c-0.8,0.3-1.3,0.7-1.7,1.1
	C222.3,292.1,222.1,292.6,222.1,293.1z M224.6,285.5c-0.7,0-1.2,0.2-1.5,0.5c-0.4,0.3-0.6,0.7-0.6,1.2c0,0.5,0.2,0.9,0.5,1.2
	c0.3,0.3,0.9,0.7,1.7,1c0.7-0.3,1.3-0.6,1.6-1c0.3-0.4,0.5-0.8,0.5-1.3c0-0.5-0.2-0.9-0.6-1.2C225.8,285.6,225.2,285.5,224.6,285.5z
	"/>
<path class="st4" d="M319.3,296h-7.5v-1.1l3-3c0.9-0.9,1.5-1.6,1.8-2s0.5-0.8,0.7-1.2s0.2-0.8,0.2-1.2c0-0.6-0.2-1.1-0.6-1.4
	c-0.4-0.4-0.9-0.5-1.5-0.5c-0.5,0-0.9,0.1-1.4,0.2c-0.4,0.2-0.9,0.4-1.4,0.9l-0.7-0.9c1.1-0.9,2.2-1.3,3.4-1.3
	c1.1,0,1.9,0.3,2.5,0.8c0.6,0.5,0.9,1.3,0.9,2.2c0,0.7-0.2,1.4-0.6,2.1c-0.4,0.7-1.2,1.6-2.3,2.7l-2.5,2.4v0.1h5.9V296z
	 M328.5,289.5c0,4.5-1.7,6.7-5.2,6.7c-0.6,0-1.1-0.1-1.4-0.2v-1.1c0.4,0.1,0.9,0.2,1.4,0.2c1.2,0,2.2-0.4,2.8-1.2c0.6-0.8,1-2,1-3.6
	H327c-0.3,0.4-0.7,0.8-1.1,1c-0.5,0.2-1,0.3-1.6,0.3c-1,0-1.8-0.3-2.4-0.9c-0.6-0.6-0.9-1.4-0.9-2.5c0-1.2,0.3-2.1,1-2.8
	c0.7-0.7,1.5-1,2.6-1c0.8,0,1.5,0.2,2,0.6c0.6,0.4,1,1,1.3,1.7C328.3,287.5,328.5,288.4,328.5,289.5z M324.6,285.5
	c-0.7,0-1.3,0.2-1.7,0.7c-0.4,0.5-0.6,1.1-0.6,2c0,0.8,0.2,1.3,0.6,1.8c0.4,0.4,0.9,0.6,1.7,0.6c0.5,0,0.9-0.1,1.3-0.3
	c0.4-0.2,0.7-0.5,0.9-0.8c0.2-0.3,0.3-0.7,0.3-1c0-0.5-0.1-1.1-0.3-1.5c-0.2-0.5-0.5-0.8-0.9-1.1
	C325.6,285.7,325.1,285.5,324.6,285.5z"/>
<path class="st4" d="M419,287.3c0,0.7-0.2,1.3-0.6,1.8c-0.4,0.5-1,0.8-1.7,0.9v0.1c0.9,0.1,1.6,0.4,2,0.9s0.7,1.1,0.7,1.8
	c0,1.1-0.4,1.9-1.1,2.5c-0.8,0.6-1.8,0.9-3.2,0.9c-0.6,0-1.2,0-1.7-0.1c-0.5-0.1-1-0.2-1.5-0.5v-1.2c0.5,0.2,1,0.4,1.6,0.6
	c0.6,0.1,1.1,0.2,1.6,0.2c2,0,3-0.8,3-2.3c0-1.4-1.1-2.1-3.3-2.1h-1.1v-1.1h1.1c0.9,0,1.6-0.2,2.1-0.6c0.5-0.4,0.8-0.9,0.8-1.6
	c0-0.6-0.2-1-0.6-1.3c-0.4-0.3-0.9-0.5-1.6-0.5c-0.5,0-1,0.1-1.4,0.2c-0.4,0.1-0.9,0.4-1.5,0.8l-0.7-0.9c0.5-0.4,1-0.7,1.6-0.9
	c0.6-0.2,1.3-0.3,1.9-0.3c1.1,0,2,0.3,2.6,0.8C418.7,285.7,419,286.4,419,287.3z M428.7,290.3c0,2-0.3,3.4-0.9,4.4
	c-0.6,1-1.6,1.5-2.9,1.5c-1.2,0-2.2-0.5-2.8-1.5c-0.6-1-1-2.5-1-4.4c0-2,0.3-3.5,0.9-4.4c0.6-1,1.6-1.4,2.8-1.4
	c1.2,0,2.2,0.5,2.8,1.5C428.4,286.9,428.7,288.4,428.7,290.3z M422.4,290.3c0,1.7,0.2,2.9,0.6,3.6c0.4,0.8,1,1.1,1.9,1.1
	c0.9,0,1.5-0.4,1.9-1.1c0.4-0.8,0.6-2,0.6-3.6c0-1.6-0.2-2.8-0.6-3.6c-0.4-0.8-1-1.1-1.9-1.1c-0.9,0-1.5,0.4-1.9,1.1
	C422.6,287.4,422.4,288.6,422.4,290.3z"/>
<g class="st2">
	<path class="st3" d="M521.5,296h-1.3v-8.1c0-0.7,0-1.3,0.1-1.9c-0.1,0.1-0.2,0.2-0.4,0.3c-0.1,0.1-0.8,0.6-1.9,1.5l-0.7-0.9l3-2.3
		h1.1V296z"/>
</g>
<g class="st2">
	<path class="st3" d="M624.3,296h-7.5v-1.1l3-3c0.9-0.9,1.5-1.6,1.8-2c0.3-0.4,0.5-0.8,0.7-1.2s0.2-0.8,0.2-1.2
		c0-0.6-0.2-1.1-0.6-1.4c-0.4-0.4-0.9-0.5-1.5-0.5c-0.5,0-0.9,0.1-1.4,0.2c-0.4,0.2-0.9,0.4-1.4,0.9l-0.7-0.9
		c1.1-0.9,2.2-1.3,3.4-1.3c1.1,0,1.9,0.3,2.5,0.8c0.6,0.5,0.9,1.3,0.9,2.2c0,0.7-0.2,1.4-0.6,2.1c-0.4,0.7-1.2,1.6-2.3,2.7l-2.5,2.4
		v0.1h5.9V296z"/>
</g>
<g class="st2">
	<path class="st9" d="M23,327.3c0,0.7-0.2,1.3-0.6,1.8c-0.4,0.5-1,0.8-1.7,0.9v0.1c0.9,0.1,1.6,0.4,2,0.9c0.4,0.5,0.7,1.1,0.7,1.8
		c0,1.1-0.4,1.9-1.1,2.5c-0.8,0.6-1.8,0.9-3.2,0.9c-0.6,0-1.2,0-1.7-0.1c-0.5-0.1-1-0.2-1.5-0.5v-1.2c0.5,0.2,1,0.4,1.6,0.6
		c0.6,0.1,1.1,0.2,1.6,0.2c2,0,3-0.8,3-2.3c0-1.4-1.1-2.1-3.3-2.1h-1.1v-1.1h1.1c0.9,0,1.6-0.2,2.1-0.6c0.5-0.4,0.8-0.9,0.8-1.6
		c0-0.6-0.2-1-0.6-1.3c-0.4-0.3-0.9-0.5-1.6-0.5c-0.5,0-1,0.1-1.4,0.2c-0.4,0.1-0.9,0.4-1.5,0.8l-0.7-0.9c0.5-0.4,1-0.7,1.6-0.9
		c0.6-0.2,1.3-0.3,1.9-0.3c1.1,0,2,0.3,2.6,0.8C22.7,325.7,23,326.4,23,327.3z"/>
</g>
<g class="st2">
	<path class="st9" d="M124.1,333.4h-1.7v2.6h-1.2v-2.6h-5.6v-1.1l5.4-7.7h1.4v7.7h1.7V333.4z M121.2,332.2v-3.8c0-0.7,0-1.6,0.1-2.5
		h-0.1c-0.2,0.5-0.5,0.9-0.7,1.2l-3.6,5.1H121.2z"/>
</g>
<g class="st2">
	<path class="st9" d="M219.8,329c1.2,0,2.1,0.3,2.8,0.9c0.7,0.6,1,1.4,1,2.4c0,1.2-0.4,2.1-1.1,2.8c-0.8,0.7-1.8,1-3.1,1
		c-1.3,0-2.3-0.2-2.9-0.6v-1.2c0.4,0.2,0.8,0.4,1.4,0.6c0.5,0.1,1.1,0.2,1.6,0.2c0.9,0,1.6-0.2,2.1-0.6c0.5-0.4,0.8-1.1,0.8-1.9
		c0-1.6-1-2.4-2.9-2.4c-0.5,0-1.2,0.1-2,0.2l-0.7-0.4l0.4-5.3h5.7v1.2h-4.6l-0.3,3.4C218.6,329.1,219.2,329,219.8,329z"/>
</g>
<g class="st2">
	<path class="st9" d="M316.5,331.1c0-2.2,0.4-3.9,1.3-5c0.9-1.1,2.2-1.7,3.9-1.7c0.6,0,1.1,0,1.4,0.1v1.1c-0.4-0.1-0.9-0.2-1.4-0.2
		c-1.2,0-2.2,0.4-2.8,1.1c-0.6,0.8-1,2-1.1,3.6h0.1c0.6-0.9,1.5-1.3,2.7-1.3c1,0,1.8,0.3,2.4,0.9c0.6,0.6,0.9,1.5,0.9,2.5
		c0,1.2-0.3,2.1-1,2.8c-0.6,0.7-1.5,1-2.6,1c-1.2,0-2.1-0.4-2.8-1.3C316.9,333.9,316.5,332.7,316.5,331.1z M320.4,335.1
		c0.7,0,1.3-0.2,1.7-0.7c0.4-0.5,0.6-1.1,0.6-2c0-0.8-0.2-1.3-0.6-1.8c-0.4-0.4-0.9-0.6-1.7-0.6c-0.5,0-0.9,0.1-1.3,0.3
		c-0.4,0.2-0.7,0.5-0.9,0.8c-0.2,0.3-0.3,0.7-0.3,1.1c0,0.5,0.1,1,0.3,1.5c0.2,0.5,0.5,0.8,0.9,1.1
		C319.4,334.9,319.9,335.1,320.4,335.1z"/>
</g>
<g class="st2">
	<path class="st9" d="M418,336l4.7-10.2h-6.2v-1.2h7.6v1l-4.7,10.4H418z"/>
</g>
<g class="st2">
	<path class="st3" d="M520.4,324.4c1,0,1.9,0.2,2.5,0.7c0.6,0.5,0.9,1.2,0.9,2c0,0.6-0.2,1.1-0.5,1.5c-0.3,0.5-0.9,0.9-1.7,1.3
		c0.9,0.4,1.6,0.9,2,1.4c0.4,0.5,0.6,1,0.6,1.7c0,0.9-0.3,1.7-1,2.3c-0.7,0.6-1.6,0.8-2.7,0.8c-1.2,0-2.2-0.3-2.8-0.8
		c-0.7-0.5-1-1.3-1-2.3c0-1.3,0.8-2.3,2.4-3.1c-0.7-0.4-1.2-0.8-1.5-1.3c-0.3-0.5-0.5-1-0.5-1.6c0-0.8,0.3-1.5,0.9-2
		C518.6,324.7,519.4,324.4,520.4,324.4z M518,333.1c0,0.6,0.2,1.1,0.6,1.5c0.4,0.3,1,0.5,1.8,0.5c0.8,0,1.4-0.2,1.8-0.5
		c0.4-0.4,0.6-0.9,0.6-1.5c0-0.5-0.2-1-0.6-1.3c-0.4-0.4-1.1-0.8-2.1-1.1c-0.8,0.3-1.3,0.7-1.7,1.1C518.2,332.1,518,332.6,518,333.1
		z M520.4,325.5c-0.7,0-1.2,0.2-1.5,0.5c-0.4,0.3-0.6,0.7-0.6,1.2c0,0.5,0.2,0.9,0.5,1.2s0.9,0.7,1.7,1c0.7-0.3,1.3-0.6,1.6-1
		c0.3-0.4,0.5-0.8,0.5-1.3c0-0.5-0.2-0.9-0.6-1.2C521.6,325.6,521.1,325.5,520.4,325.5z"/>
</g>
<g class="st2">
	<path class="st3" d="M620.5,326.4c0.4,0,0.8,0.1,1.2,0.2c0.4,0.1,0.7,0.4,1.1,0.7c0.3,0.3,0.6,0.8,0.8,1.4c0.2,0.6,0.3,1.3,0.3,2.2
		c0,0.8-0.1,1.6-0.2,2.2c-0.2,0.6-0.4,1.2-0.7,1.6c-0.3,0.4-0.7,0.8-1.1,1c-0.4,0.2-0.9,0.3-1.4,0.3c-0.5,0-1-0.1-1.4-0.3
		c-0.4-0.2-0.8-0.5-1-0.9c-0.3-0.4-0.4-0.8-0.5-1.3h1.1c0.1,0.4,0.3,0.8,0.6,1.1c0.3,0.3,0.7,0.4,1.2,0.4c0.7,0,1.3-0.3,1.7-1
		c0.4-0.6,0.6-1.5,0.6-2.7h-0.1c-0.2,0.3-0.4,0.5-0.6,0.7c-0.2,0.2-0.5,0.3-0.8,0.4c-0.3,0.1-0.6,0.2-0.9,0.2c-0.5,0-1-0.1-1.5-0.4
		c-0.4-0.3-0.8-0.6-1.1-1.1c-0.3-0.5-0.4-1-0.4-1.6c0-0.6,0.1-1.1,0.4-1.6c0.3-0.5,0.6-0.9,1.1-1.2
		C619.3,326.5,619.9,326.4,620.5,326.4z M620.5,327.4c-0.4,0-0.7,0.1-1,0.3c-0.3,0.2-0.6,0.4-0.7,0.8c-0.2,0.3-0.3,0.7-0.3,1.1
		c0,0.4,0.1,0.8,0.3,1.1c0.2,0.3,0.4,0.6,0.7,0.8c0.3,0.2,0.7,0.3,1,0.3c0.3,0,0.6-0.1,0.8-0.2c0.3-0.1,0.5-0.3,0.7-0.5
		c0.2-0.2,0.3-0.4,0.4-0.7c0.1-0.3,0.2-0.5,0.2-0.8c0-0.4-0.1-0.7-0.3-1c-0.2-0.3-0.4-0.6-0.7-0.8
		C621.3,327.5,620.9,327.4,620.5,327.4z"/>
</g>
<path class="st10" d="M36.2,19l7.5-6.5L36.2,6"/>
<path class="st10" d="M14.7,6l-7.5,6.5l7.5,6.5"/>
</svg>
