<svg width="15" height="16" viewBox="0 0 15 16" fill="none" xmlns="http://www.w3.org/2000/svg">
<path fill-rule="evenodd" clip-rule="evenodd" d="M13.125 0.5H1.875C1.37772 0.5 0.900806 0.697544 0.549175 1.04917C0.197544 1.40081 0 1.87772 0 2.375L0 13.625C0 14.1223 0.197544 14.5992 0.549175 14.9508C0.900806 15.3025 1.37772 15.5 1.875 15.5H13.125C13.6223 15.5 14.0992 15.3025 14.4508 14.9508C14.8025 14.5992 15 14.1223 15 13.625V2.375C15 1.87772 14.8025 1.40081 14.4508 1.04917C14.0992 0.697544 13.6223 0.5 13.125 0.5V0.5ZM0.9375 4.11594C0.9375 3.6725 1.3575 3.3125 1.875 3.3125H13.125C13.6425 3.3125 14.0625 3.6725 14.0625 4.11594V13.7591C14.0625 14.2025 13.6425 14.5625 13.125 14.5625H1.875C1.3575 14.5625 0.9375 14.2025 0.9375 13.7591V4.11594Z" fill="#525252"/>
</svg>
