<svg width="29" height="23" viewBox="0 0 29 23" fill="none" xmlns="http://www.w3.org/2000/svg">
<path d="M5.75 14.7344C5.46406 14.7344 5.18984 14.848 4.98765 15.0502C4.78546 15.2523 4.67188 15.5266 4.67188 15.8125C4.67188 16.0984 4.78546 16.3727 4.98765 16.5748C5.18984 16.777 5.46406 16.8906 5.75 16.8906H14.375C14.6609 16.8906 14.9352 16.777 15.1373 16.5748C15.3395 16.3727 15.4531 16.0984 15.4531 15.8125C15.4531 15.5266 15.3395 15.2523 15.1373 15.0502C14.9352 14.848 14.6609 14.7344 14.375 14.7344H5.75Z" fill="#525252"/>
<path fill-rule="evenodd" clip-rule="evenodd" d="M4.3125 0C3.16875 0 2.07185 0.454352 1.2631 1.2631C0.454352 2.07185 0 3.16875 0 4.3125V18.6875C0 19.8312 0.454352 20.9281 1.2631 21.7369C2.07185 22.5456 3.16875 23 4.3125 23H24.4375C25.5812 23 26.6781 22.5456 27.4869 21.7369C28.2956 20.9281 28.75 19.8312 28.75 18.6875V4.3125C28.75 3.16875 28.2956 2.07185 27.4869 1.2631C26.6781 0.454352 25.5812 0 24.4375 0H4.3125ZM24.4375 2.15625H4.3125C3.74063 2.15625 3.19218 2.38343 2.7878 2.7878C2.38343 3.19218 2.15625 3.74063 2.15625 4.3125V6.10938H26.5938V4.3125C26.5938 3.74063 26.3666 3.19218 25.9622 2.7878C25.5578 2.38343 25.0094 2.15625 24.4375 2.15625V2.15625ZM2.15625 18.6875V8.26562H26.5938V18.6875C26.5938 19.2594 26.3666 19.8078 25.9622 20.2122C25.5578 20.6166 25.0094 20.8438 24.4375 20.8438H4.3125C3.74063 20.8438 3.19218 20.6166 2.7878 20.2122C2.38343 19.8078 2.15625 19.2594 2.15625 18.6875Z" fill="#525252"/>
</svg>
