<svg width="25" height="31" viewBox="0 0 25 31" fill="none" xmlns="http://www.w3.org/2000/svg">
<path fill-rule="evenodd" clip-rule="evenodd" d="M22.94 19.84V4.96C22.94 3.24793 21.5521 1.86 19.84 1.86H4.96C3.24793 1.86 1.86 3.24793 1.86 4.96V26.04C1.86 27.7521 3.24793 29.14 4.96 29.14H13.64C18.7763 29.14 22.94 24.9763 22.94 19.84ZM4.96 0C2.22065 0 0 2.22065 0 4.96V26.04C0 28.7793 2.22065 31 4.96 31H13.64C19.8035 31 24.8 26.0035 24.8 19.84V4.96C24.8 2.22065 22.5793 0 19.84 0H4.96Z" fill="#0D192E"/>
<path fill-rule="evenodd" clip-rule="evenodd" d="M15.1895 21.6998C15.0183 21.6998 14.8795 21.8387 14.8795 22.0098V30.0698H13.0195V22.0098C13.0195 20.8114 13.9911 19.8398 15.1895 19.8398H23.8695V21.6998H15.1895Z" fill="#0D192E"/>
<path fill-rule="evenodd" clip-rule="evenodd" d="M5.58008 8.36945C5.58008 7.85585 5.99647 7.43945 6.51008 7.43945H18.2901C18.8037 7.43945 19.2201 7.85585 19.2201 8.36945C19.2201 8.88306 18.8037 9.29945 18.2901 9.29945H6.51008C5.99647 9.29945 5.58008 8.88306 5.58008 8.36945Z" fill="#0D192E"/>
<path fill-rule="evenodd" clip-rule="evenodd" d="M5.58008 14.5706C5.58008 14.057 5.99647 13.6406 6.51008 13.6406H12.0901C12.6037 13.6406 13.0201 14.057 13.0201 14.5706C13.0201 15.0842 12.6037 15.5006 12.0901 15.5006H6.51008C5.99647 15.5006 5.58008 15.0842 5.58008 14.5706Z" fill="#0D192E"/>
</svg>
