<svg width="18" height="18" viewBox="0 0 18 18" fill="none" xmlns="http://www.w3.org/2000/svg">
<g clip-path="url(#clip0_107_557)">
<path d="M9.54541 3.35742H8.42041V9.61914L12.4849 11.5509L12.9679 10.5348L9.54541 8.90821V3.35742Z" fill="#525252"/>
<path d="M9 0.5625C4.34011 0.5625 0.5625 4.34011 0.5625 9C0.5625 13.6599 4.34011 17.4375 9 17.4375C13.6599 17.4375 17.4375 13.6599 17.4375 9C17.4375 4.34011 13.6599 0.5625 9 0.5625ZM9 16.3125C4.96143 16.3125 1.6875 13.0386 1.6875 9C1.6875 4.96143 4.96143 1.6875 9 1.6875C13.0386 1.6875 16.3125 4.96143 16.3125 9C16.3125 13.0386 13.0386 16.3125 9 16.3125Z" fill="#525252"/>
</g>
<defs>
<clipPath id="clip0_107_557">
<rect width="18" height="18" fill="white"/>
</clipPath>
</defs>
</svg>
