<svg width="23" height="22" viewBox="0 0 23 22" fill="none" xmlns="http://www.w3.org/2000/svg">
<path fill-rule="evenodd" clip-rule="evenodd" d="M10.7392 2.77199C10.7083 2.79085 10.683 2.81795 10.6662 2.85037L1.38907 18.8925C1.36596 18.9302 1.35348 18.9735 1.353 19.0179C1.35253 19.0623 1.36407 19.106 1.38636 19.1441C1.40801 19.1854 1.43642 19.2129 1.45942 19.2266C1.47971 19.2404 1.50542 19.25 1.54871 19.25H20.1016C20.133 19.2511 20.164 19.243 20.1909 19.2266C20.2222 19.206 20.2478 19.1776 20.2653 19.1441C20.2874 19.1058 20.2987 19.0621 20.298 19.0177C20.2973 18.9733 20.2846 18.93 20.2612 18.8925L10.9855 2.85037C10.9686 2.81795 10.9434 2.79085 10.9124 2.77199C10.8859 2.75722 10.8561 2.74964 10.8258 2.74999C10.7956 2.74964 10.7658 2.75722 10.7392 2.77199ZM12.1517 2.15324C12.0178 1.91615 11.8247 1.71916 11.5919 1.58217C11.3591 1.44518 11.0948 1.37305 10.8258 1.37305C10.5568 1.37305 10.2926 1.44518 10.0598 1.58217C9.82699 1.71916 9.63388 1.91615 9.49995 2.15324L0.222832 18.1954C-0.395462 19.2651 0.345949 20.625 1.54871 20.625H20.1016C21.3044 20.625 22.0471 19.2637 21.4275 18.1954L12.1517 2.15324Z" fill="#FF5050"/>
<path d="M9.47321 16.5C9.47321 16.3195 9.5082 16.1407 9.57619 15.9738C9.64418 15.807 9.74384 15.6554 9.86947 15.5278C9.99511 15.4001 10.1443 15.2988 10.3084 15.2297C10.4725 15.1606 10.6485 15.125 10.8261 15.125C11.0038 15.125 11.1797 15.1606 11.3439 15.2297C11.508 15.2988 11.6572 15.4001 11.7828 15.5278C11.9085 15.6554 12.0081 15.807 12.0761 15.9738C12.1441 16.1407 12.1791 16.3195 12.1791 16.5C12.1791 16.8647 12.0365 17.2144 11.7828 17.4723C11.5291 17.7302 11.185 17.875 10.8261 17.875C10.4673 17.875 10.1232 17.7302 9.86947 17.4723C9.61575 17.2144 9.47321 16.8647 9.47321 16.5ZM9.60579 8.24316C9.58778 8.0697 9.60585 7.89432 9.65883 7.7284C9.71181 7.56249 9.79853 7.40975 9.91334 7.2801C10.0282 7.15044 10.1685 7.04677 10.3253 6.9758C10.4821 6.90484 10.6518 6.86816 10.8234 6.86816C10.9951 6.86816 11.1648 6.90484 11.3216 6.9758C11.4784 7.04677 11.6187 7.15044 11.7335 7.2801C11.8484 7.40975 11.9351 7.56249 11.9881 7.7284C12.041 7.89432 12.0591 8.0697 12.0411 8.24316L11.5676 13.0653C11.5516 13.2547 11.4664 13.4312 11.3286 13.5598C11.1908 13.6884 11.0105 13.7597 10.8234 13.7597C10.6364 13.7597 10.4561 13.6884 10.3183 13.5598C10.1805 13.4312 10.0952 13.2547 10.0793 13.0653L9.60579 8.24316Z" fill="#FF5050"/>
</svg>
