<svg width="36" height="27" viewBox="0 0 36 27" fill="none" xmlns="http://www.w3.org/2000/svg">
<path d="M5.97217 8.9579C5.97217 8.56192 6.12947 8.18215 6.40947 7.90215C6.68948 7.62215 7.06924 7.46484 7.46522 7.46484H13.4374C13.8334 7.46484 14.2132 7.62215 14.4932 7.90215C14.7732 8.18215 14.9305 8.56192 14.9305 8.9579C14.9305 9.35388 14.7732 9.73365 14.4932 10.0136C14.2132 10.2937 13.8334 10.451 13.4374 10.451H7.46522C7.06924 10.451 6.68948 10.2937 6.40947 10.0136C6.12947 9.73365 5.97217 9.35388 5.97217 8.9579Z" fill="black"/>
<path fill-rule="evenodd" clip-rule="evenodd" d="M5.97222 0C4.38829 0 2.86923 0.629214 1.74922 1.74922C0.629215 2.86923 0 4.38829 0 5.97222L0 20.9028C0 22.4867 0.629215 24.0058 1.74922 25.1258C2.86923 26.2458 4.38829 26.875 5.97222 26.875H29.8611C31.445 26.875 32.9641 26.2458 34.0841 25.1258C35.2041 24.0058 35.8333 22.4867 35.8333 20.9028V5.97222C35.8333 4.38829 35.2041 2.86923 34.0841 1.74922C32.9641 0.629214 31.445 0 29.8611 0H5.97222ZM29.8611 2.98611H5.97222C5.18026 2.98611 4.42073 3.30072 3.86072 3.86072C3.30072 4.42073 2.98611 5.18026 2.98611 5.97222V16.4236H32.8472V5.97222C32.8472 5.18026 32.5326 4.42073 31.9726 3.86072C31.4126 3.30072 30.6531 2.98611 29.8611 2.98611ZM32.8472 19.4097H2.98611V20.9028C2.98611 21.6947 3.30072 22.4543 3.86072 23.0143C4.42073 23.5743 5.18026 23.8889 5.97222 23.8889H29.8611C30.6531 23.8889 31.4126 23.5743 31.9726 23.0143C32.5326 22.4543 32.8472 21.6947 32.8472 20.9028V19.4097Z" fill="black"/>
</svg>
