<svg width="23" height="23" viewBox="0 0 23 23" fill="none" xmlns="http://www.w3.org/2000/svg">
<path fill-rule="evenodd" clip-rule="evenodd" d="M22.1786 1.64286H19.7143V0H18.0714V1.64286H4.92857V0H3.28571V1.64286H0.821429L0 2.46429V22.1786L0.821429 23H22.1786L23 22.1786V2.46429L22.1786 1.64286ZM21.3571 21.3571H1.64286V6.57143H21.3571V21.3571ZM21.3571 4.92857H1.64286V3.28571H21.3571V4.92857ZM4.92857 11.5H3.28571V13.1429H4.92857V11.5ZM3.28571 14.7857H4.92857V16.4286H3.28571V14.7857ZM4.92857 18.0714H3.28571V19.7143H4.92857V18.0714ZM8.21429 11.5H9.85714V13.1429H8.21429V11.5ZM9.85714 14.7857H8.21429V16.4286H9.85714V14.7857ZM8.21429 18.0714H9.85714V19.7143H8.21429V18.0714ZM9.85714 8.21429H8.21429V9.85714H9.85714V8.21429ZM13.1429 11.5H14.7857V13.1429H13.1429V11.5ZM14.7857 14.7857H13.1429V16.4286H14.7857V14.7857ZM13.1429 18.0714H14.7857V19.7143H13.1429V18.0714ZM14.7857 8.21429H13.1429V9.85714H14.7857V8.21429ZM18.0714 11.5H19.7143V13.1429H18.0714V11.5ZM19.7143 14.7857H18.0714V16.4286H19.7143V14.7857ZM18.0714 8.21429H19.7143V9.85714H18.0714V8.21429Z" fill="black"/>
</svg>
