<svg width="14" height="14" viewBox="0 0 14 14" fill="none" xmlns="http://www.w3.org/2000/svg">
<path fill-rule="evenodd" clip-rule="evenodd" d="M12.5714 1.85714H11.2857V1H10.4286V1.85714H3.57143V1H2.71429V1.85714H1.42857L1 2.28571V12.5714L1.42857 13H12.5714L13 12.5714V2.28571L12.5714 1.85714ZM12.1429 12.1429H1.85714V4.42857H12.1429V12.1429ZM12.1429 3.57143H1.85714V2.71429H12.1429V3.57143ZM3.57143 7H2.71429V7.85714H3.57143V7ZM2.71429 8.71429H3.57143V9.57143H2.71429V8.71429ZM3.57143 10.4286H2.71429V11.2857H3.57143V10.4286ZM5.28571 7H6.14286V7.85714H5.28571V7ZM6.14286 8.71429H5.28571V9.57143H6.14286V8.71429ZM5.28571 10.4286H6.14286V11.2857H5.28571V10.4286ZM6.14286 5.28571H5.28571V6.14286H6.14286V5.28571ZM7.85714 7H8.71429V7.85714H7.85714V7ZM8.71429 8.71429H7.85714V9.57143H8.71429V8.71429ZM7.85714 10.4286H8.71429V11.2857H7.85714V10.4286ZM8.71429 5.28571H7.85714V6.14286H8.71429V5.28571ZM10.4286 7H11.2857V7.85714H10.4286V7ZM11.2857 8.71429H10.4286V9.57143H11.2857V8.71429ZM10.4286 5.28571H11.2857V6.14286H10.4286V5.28571Z" fill="black"/>
</svg>
