<svg width="14" height="15" viewBox="0 0 14 15" fill="none" xmlns="http://www.w3.org/2000/svg">
<path d="M3.0625 0.554688C3.17853 0.554688 3.28981 0.600781 3.37186 0.682828C3.45391 0.764875 3.5 0.876155 3.5 0.992188V1.42969H10.5V0.992188C10.5 0.876155 10.5461 0.764875 10.6281 0.682828C10.7102 0.600781 10.8215 0.554688 10.9375 0.554688C11.0535 0.554688 11.1648 0.600781 11.2469 0.682828C11.3289 0.764875 11.375 0.876155 11.375 0.992188V1.42969H12.25C12.7141 1.42969 13.1592 1.61406 13.4874 1.94225C13.8156 2.27044 14 2.71556 14 3.17969V12.8047C14 13.2688 13.8156 13.7139 13.4874 14.0421C13.1592 14.3703 12.7141 14.5547 12.25 14.5547H1.75C1.28587 14.5547 0.840752 14.3703 0.512563 14.0421C0.184374 13.7139 0 13.2688 0 12.8047V3.17969C0 2.71556 0.184374 2.27044 0.512563 1.94225C0.840752 1.61406 1.28587 1.42969 1.75 1.42969H2.625V0.992188C2.625 0.876155 2.67109 0.764875 2.75314 0.682828C2.83519 0.600781 2.94647 0.554688 3.0625 0.554688V0.554688ZM0.875 4.05469V12.8047C0.875 13.0368 0.967187 13.2593 1.13128 13.4234C1.29538 13.5875 1.51794 13.6797 1.75 13.6797H12.25C12.4821 13.6797 12.7046 13.5875 12.8687 13.4234C13.0328 13.2593 13.125 13.0368 13.125 12.8047V4.05469H0.875Z" fill="black"/>
</svg>
