<svg width="18" height="18" viewBox="0 0 18 18" fill="none" xmlns="http://www.w3.org/2000/svg">
<path d="M4.5 0H10.3438V1.125H4.5C4.21821 1.125 3.94796 1.24353 3.7487 1.4545C3.54944 1.66548 3.4375 1.95163 3.4375 2.25V15.75C3.4375 16.0484 3.54944 16.3345 3.7487 16.5455C3.94796 16.7565 4.21821 16.875 4.5 16.875H13C13.2818 16.875 13.552 16.7565 13.7513 16.5455C13.9506 16.3345 14.0625 16.0484 14.0625 15.75V5.0625H15.125V15.75C15.125 16.3467 14.9011 16.919 14.5026 17.341C14.1041 17.7629 13.5636 18 13 18H4.5C3.93641 18 3.39591 17.7629 2.9974 17.341C2.59888 16.919 2.375 16.3467 2.375 15.75V2.25C2.375 1.65326 2.59888 1.08097 2.9974 0.65901C3.39591 0.237053 3.93641 0 4.5 0V0Z" fill="#0D192E"/>
<path d="M10.3438 3.375V0L15.125 5.0625H11.9375C11.5148 5.0625 11.1094 4.88471 10.8105 4.56824C10.5117 4.25178 10.3438 3.82255 10.3438 3.375Z" fill="#0D192E"/>
<path fill-rule="evenodd" clip-rule="evenodd" d="M5.5625 12.9375C5.5625 12.7883 5.61847 12.6452 5.7181 12.5398C5.81773 12.4343 5.95285 12.375 6.09375 12.375H8.21875C8.35965 12.375 8.49477 12.4343 8.5944 12.5398C8.69403 12.6452 8.75 12.7883 8.75 12.9375C8.75 13.0867 8.69403 13.2298 8.5944 13.3352C8.49477 13.4407 8.35965 13.5 8.21875 13.5H6.09375C5.95285 13.5 5.81773 13.4407 5.7181 13.3352C5.61847 13.2298 5.5625 13.0867 5.5625 12.9375ZM5.5625 10.6875C5.5625 10.5383 5.61847 10.3952 5.7181 10.2898C5.81773 10.1843 5.95285 10.125 6.09375 10.125H11.4062C11.5471 10.125 11.6823 10.1843 11.7819 10.2898C11.8815 10.3952 11.9375 10.5383 11.9375 10.6875C11.9375 10.8367 11.8815 10.9798 11.7819 11.0852C11.6823 11.1907 11.5471 11.25 11.4062 11.25H6.09375C5.95285 11.25 5.81773 11.1907 5.7181 11.0852C5.61847 10.9798 5.5625 10.8367 5.5625 10.6875ZM5.5625 8.4375C5.5625 8.28832 5.61847 8.14524 5.7181 8.03975C5.81773 7.93426 5.95285 7.875 6.09375 7.875H11.4062C11.5471 7.875 11.6823 7.93426 11.7819 8.03975C11.8815 8.14524 11.9375 8.28832 11.9375 8.4375C11.9375 8.58668 11.8815 8.72976 11.7819 8.83525C11.6823 8.94074 11.5471 9 11.4062 9H6.09375C5.95285 9 5.81773 8.94074 5.7181 8.83525C5.61847 8.72976 5.5625 8.58668 5.5625 8.4375Z" fill="#0D192E"/>
</svg>
