<svg width="54" height="54" viewBox="0 0 54 54" fill="none" xmlns="http://www.w3.org/2000/svg">
<path fill-rule="evenodd" clip-rule="evenodd" d="M27 5.25C21.8141 5.25 17.3545 8.34596 15.3626 12.7841L15.1645 13.2255L15.1242 13.3153L15.1083 13.3507C15.1018 13.3653 15.0988 13.372 15.099 13.3715C14.869 13.8766 14.6977 14.0296 14.6021 14.0915C14.5065 14.1534 14.2968 14.247 13.7418 14.25C13.7423 14.25 13.7403 14.25 13.7352 14.25C13.7268 14.25 13.7101 14.25 13.6822 14.25L13.5 14.25C8.94365 14.25 5.25 17.9437 5.25 22.5C5.25 26.7409 8.44986 30.2344 12.5669 30.6978L15.5147 27.75H13.5C10.6005 27.75 8.25 25.3995 8.25 22.5C8.25 19.6005 10.6005 17.25 13.5 17.25L13.7579 17.2499C14.6153 17.2454 15.4702 17.1033 16.2323 16.6099C16.9944 16.1166 17.4741 15.3949 17.8294 14.6145L18.0996 14.0125C19.6254 10.6129 23.0384 8.25 27 8.25C30.9616 8.25 34.3746 10.6129 35.9004 14.0125L36.1706 14.6145C36.5259 15.3949 37.0056 16.1166 37.7677 16.6099C38.5299 17.1033 39.3847 17.2454 40.2421 17.2499L40.5 17.25C43.3995 17.25 45.75 19.6005 45.75 22.5C45.75 25.3995 43.3995 27.75 40.5 27.75H38.4853L41.4331 30.6978C45.5501 30.2344 48.75 26.7409 48.75 22.5C48.75 17.9437 45.0563 14.25 40.5 14.25L40.3178 14.25L40.2648 14.25L40.2582 14.25C39.7032 14.247 39.4935 14.1534 39.3979 14.0915C39.3023 14.0296 39.131 13.8766 38.901 13.3715C38.9015 13.3727 38.8817 13.3286 38.8355 13.2255L38.6374 12.7841C36.6455 8.34596 32.1859 5.25 27 5.25Z" fill="#9F9898"/>
<path d="M27 27L25.9393 25.9393L27 24.8787L28.0607 25.9393L27 27ZM28.5 47.25C28.5 48.0784 27.8284 48.75 27 48.75C26.1716 48.75 25.5 48.0784 25.5 47.25L28.5 47.25ZM16.9393 34.9393L25.9393 25.9393L28.0607 28.0607L19.0607 37.0607L16.9393 34.9393ZM28.0607 25.9393L37.0607 34.9393L34.9393 37.0607L25.9393 28.0607L28.0607 25.9393ZM28.5 27L28.5 47.25L25.5 47.25L25.5 27L28.5 27Z" fill="#9F9898"/>
</svg>
