<svg width="24" height="28" viewBox="0 0 24 28" fill="none" xmlns="http://www.w3.org/2000/svg">
<ellipse cx="12" cy="7" rx="7" ry="3" stroke="#333333" stroke-width="2"/>
<path d="M5 13C5 13 5 15.3431 5 17C5 18.6569 8.13401 20 12 20C15.866 20 19 18.6569 19 17C19 16.173 19 13 19 13" stroke="#333333" stroke-width="2" stroke-linecap="square"/>
<path d="M5 7C5 7 5 10.3431 5 12C5 13.6569 8.13401 15 12 15C15.866 15 19 13.6569 19 12C19 11.173 19 7 19 7" stroke="#333333" stroke-width="2"/>
<circle cx="12" cy="25" r="3" fill="#333333"/>
<circle cx="3" cy="25" r="1" fill="#333333"/>
<circle cx="21" cy="25" r="1" fill="#333333"/>
<rect x="11" y="19" width="2" height="4" fill="#333333"/>
<rect x="5" y="26" width="2" height="5" transform="rotate(-90 5 26)" fill="#333333"/>
<rect x="14" y="26" width="2" height="5" transform="rotate(-90 14 26)" fill="#333333"/>
</svg>
