<svg width="18" height="14" viewBox="0 0 18 14" fill="none" xmlns="http://www.w3.org/2000/svg">
<g clip-path="url(#clip0_2341_8944)">
<path d="M7.875 9.88021C7.875 10.2144 7.78271 10.4985 7.59814 10.7324C7.41357 10.9664 7.19238 11.0833 6.93457 11.0833H3.19043C2.93262 11.0833 2.71143 10.9664 2.52686 10.7324C2.34229 10.4985 2.25 10.2144 2.25 9.88021C2.25 9.55208 2.27197 9.24674 2.31592 8.96419C2.35986 8.68164 2.43164 8.4082 2.53125 8.14388C2.63086 7.87956 2.78027 7.67144 2.97949 7.51953C3.17871 7.36762 3.41602 7.29167 3.69141 7.29167C4.06641 7.68056 4.52344 7.875 5.0625 7.875C5.60156 7.875 6.05859 7.68056 6.43359 7.29167C6.70898 7.29167 6.94629 7.36762 7.14551 7.51953C7.34473 7.67144 7.49414 7.87956 7.59375 8.14388C7.69336 8.4082 7.76514 8.68164 7.80908 8.96419C7.85303 9.24674 7.875 9.55208 7.875 9.88021ZM6.75 5.83333C6.75 6.31944 6.58594 6.73264 6.25781 7.07292C5.92969 7.41319 5.53125 7.58333 5.0625 7.58333C4.59375 7.58333 4.19531 7.41319 3.86719 7.07292C3.53906 6.73264 3.375 6.31944 3.375 5.83333C3.375 5.34722 3.53906 4.93403 3.86719 4.59375C4.19531 4.25347 4.59375 4.08333 5.0625 4.08333C5.53125 4.08333 5.92969 4.25347 6.25781 4.59375C6.58594 4.93403 6.75 5.34722 6.75 5.83333ZM15.75 9.625V10.2083C15.75 10.2934 15.7236 10.3633 15.6709 10.418C15.6182 10.4727 15.5508 10.5 15.4688 10.5H9.28125C9.19922 10.5 9.13184 10.4727 9.0791 10.418C9.02637 10.3633 9 10.2934 9 10.2083V9.625C9 9.53993 9.02637 9.47005 9.0791 9.41536C9.13184 9.36068 9.19922 9.33333 9.28125 9.33333H15.4688C15.5508 9.33333 15.6182 9.36068 15.6709 9.41536C15.7236 9.47005 15.75 9.53993 15.75 9.625ZM12.375 7.29167V7.875C12.375 7.96007 12.3486 8.02995 12.2959 8.08463C12.2432 8.13932 12.1758 8.16667 12.0938 8.16667H9.28125C9.19922 8.16667 9.13184 8.13932 9.0791 8.08463C9.02637 8.02995 9 7.96007 9 7.875V7.29167C9 7.2066 9.02637 7.13672 9.0791 7.08203C9.13184 7.02734 9.19922 7 9.28125 7H12.0938C12.1758 7 12.2432 7.02734 12.2959 7.08203C12.3486 7.13672 12.375 7.2066 12.375 7.29167ZM15.75 7.29167V7.875C15.75 7.96007 15.7236 8.02995 15.6709 8.08463C15.6182 8.13932 15.5508 8.16667 15.4688 8.16667H13.7812C13.6992 8.16667 13.6318 8.13932 13.5791 8.08463C13.5264 8.02995 13.5 7.96007 13.5 7.875V7.29167C13.5 7.2066 13.5264 7.13672 13.5791 7.08203C13.6318 7.02734 13.6992 7 13.7812 7H15.4688C15.5508 7 15.6182 7.02734 15.6709 7.08203C15.7236 7.13672 15.75 7.2066 15.75 7.29167ZM15.75 4.95833V5.54167C15.75 5.62674 15.7236 5.69661 15.6709 5.7513C15.6182 5.80599 15.5508 5.83333 15.4688 5.83333H9.28125C9.19922 5.83333 9.13184 5.80599 9.0791 5.7513C9.02637 5.69661 9 5.62674 9 5.54167V4.95833C9 4.87326 9.02637 4.80339 9.0791 4.7487C9.13184 4.69401 9.19922 4.66667 9.28125 4.66667H15.4688C15.5508 4.66667 15.6182 4.69401 15.6709 4.7487C15.7236 4.80339 15.75 4.87326 15.75 4.95833ZM16.875 12.5417V2.33333H1.125V12.5417C1.125 12.6207 1.15283 12.689 1.2085 12.7467C1.26416 12.8045 1.33008 12.8333 1.40625 12.8333H16.5938C16.6699 12.8333 16.7358 12.8045 16.7915 12.7467C16.8472 12.689 16.875 12.6207 16.875 12.5417ZM18 1.45833V12.5417C18 12.9427 17.8623 13.286 17.5869 13.5716C17.3115 13.8572 16.9805 14 16.5938 14H1.40625C1.01953 14 0.688477 13.8572 0.413086 13.5716C0.137695 13.286 0 12.9427 0 12.5417V1.45833C0 1.05729 0.137695 0.713976 0.413086 0.428385C0.688477 0.142795 1.01953 0 1.40625 0H16.5938C16.9805 0 17.3115 0.142795 17.5869 0.428385C17.8623 0.713976 18 1.05729 18 1.45833Z" fill="black"/>
</g>
<defs>
<clipPath id="clip0_2341_8944">
<rect width="18" height="14" fill="white"/>
</clipPath>
</defs>
</svg>
