<svg width="163" height="30" viewBox="0 0 163 30" fill="none" xmlns="http://www.w3.org/2000/svg">
<path d="M153.667 11.8129L157.152 20.2288H157.193L160.595 11.8129H163L155.664 28.7059H153.382L156.113 22.7964L151.283 11.8129H153.667ZM145.761 11.4258C147.391 11.4258 148.674 11.8537 149.612 12.7299C150.549 13.6062 151.018 14.7881 151.018 16.3164V23.5504H148.919V21.9201H148.817C147.9 23.2651 146.698 23.9375 145.189 23.9375C143.906 23.9375 142.826 23.5504 141.95 22.7964C141.073 22.022 140.645 21.0643 140.645 19.9232C140.645 18.7209 141.094 17.7428 142.031 17.0295C142.949 16.3164 144.171 15.9495 145.699 15.9495C147.003 15.9495 148.083 16.1941 148.939 16.6628V16.1533C148.939 15.379 148.634 14.7473 148.022 14.1971C147.411 13.6672 146.698 13.4023 145.883 13.4023C144.66 13.4023 143.682 13.9118 142.968 14.9511L141.033 13.7284C142.092 12.2001 143.682 11.4258 145.761 11.4258ZM134.634 6.39258C136.122 6.39258 137.385 6.88164 138.424 7.88015C139.484 8.87864 139.993 10.0809 139.993 11.4869C139.993 12.9337 139.463 14.1564 138.424 15.1141C137.405 16.0923 136.142 16.5814 134.634 16.5814H131.007V23.53H128.806V6.39258H134.634ZM146.046 17.6816C145.149 17.6816 144.416 17.9058 143.804 18.3337C143.213 18.782 142.907 19.3118 142.907 19.9436C142.907 20.5141 143.152 21.0031 143.641 21.37C144.13 21.7571 144.7 21.9405 145.352 21.9405C146.269 21.9405 147.105 21.5941 147.839 20.9216C148.572 20.2288 148.919 19.4341 148.919 18.4968C148.226 17.9465 147.268 17.6816 146.046 17.6816ZM134.695 8.53222H131.007V14.5028H134.695C135.572 14.5028 136.305 14.2176 136.876 13.6266C137.467 13.0357 137.752 12.3428 137.752 11.5277C137.752 10.733 137.467 10.0401 136.876 9.44921C136.305 8.83788 135.572 8.53222 134.695 8.53222Z" fill="#5F6368"/>
<path d="M97.7099 11.446C99.1975 11.446 100.38 12.0981 100.991 12.8316H101.093V11.8128H103.701V23.0204C103.701 27.6257 100.991 29.5208 97.7716 29.5208C94.7554 29.5208 92.9418 27.4831 92.2487 25.8325L94.6335 24.834C95.0608 25.8529 96.1005 27.0552 97.7716 27.0552C99.8297 27.0552 101.093 25.7714 101.093 23.3872V22.4906H100.991C100.38 23.2446 99.1975 23.917 97.7099 23.917C94.5924 23.917 91.7398 21.2068 91.7398 17.7019C91.7398 14.1766 94.5924 11.446 97.7099 11.446ZM115.643 11.4664C118.883 11.4664 120.452 14.034 120.982 15.44L121.267 16.1533L112.933 19.597C113.564 20.8401 114.563 21.4922 115.948 21.4922C117.335 21.4514 118.313 20.7789 119.026 19.7397L121.145 21.1661C120.452 22.185 118.802 23.9375 115.948 23.9375C112.403 23.9375 109.774 21.2069 109.774 17.702C109.774 13.9932 112.444 11.4664 115.643 11.4664ZM54.6335 4.55859C57.5882 4.55859 59.6871 5.72011 61.2561 7.22803L59.3814 9.10276C58.2403 8.04318 56.7119 7.2077 54.6131 7.2077C50.7209 7.2077 47.6643 10.3458 47.6643 14.2379C47.6643 18.13 50.7006 21.2682 54.6131 21.2682C57.1399 21.2682 58.5867 20.2493 59.5037 19.3323C60.2576 18.5783 60.7467 17.4983 60.9505 16.0107H54.552V13.3617H63.518C63.6199 13.8304 63.6607 14.4009 63.6607 15.0123C63.6607 16.9889 63.1104 19.4545 61.3784 21.207C59.6667 22.9798 57.5067 23.9172 54.6335 23.9172C49.2945 23.9172 44.8115 19.5768 44.8115 14.2379C44.8115 8.89901 49.2945 4.55859 54.6335 4.55859ZM70.8344 11.446C74.2782 11.446 77.0904 14.0747 77.0904 17.6815C77.0904 21.2679 74.2782 23.917 70.8344 23.917C67.3906 23.917 64.5785 21.2679 64.5785 17.6815C64.5785 14.0747 67.3906 11.446 70.8344 11.446ZM84.446 11.446C87.8895 11.446 90.7016 14.0747 90.7016 17.6815C90.7016 21.2679 87.8895 23.917 84.446 23.917C81.0017 23.917 78.1895 21.2679 78.1895 17.6815C78.1895 14.0747 81.0017 11.446 84.446 11.446ZM108.409 5.21073V23.5301H105.679V5.21073H108.409ZM70.8548 13.9117C68.9801 13.9117 67.3498 15.44 67.3498 17.6815C67.3498 19.9026 68.9801 21.4514 70.8548 21.4514C72.7295 21.4514 74.3597 19.9026 74.3597 17.6815C74.3597 15.44 72.7295 13.9117 70.8548 13.9117ZM84.446 13.9117C82.5707 13.9117 80.9407 15.44 80.9407 17.6815C80.9407 19.9026 82.5707 21.4514 84.446 21.4514C86.3205 21.4514 87.9505 19.9026 87.9505 17.6815C87.9505 15.44 86.3205 13.9117 84.446 13.9117ZM97.975 13.8913C96.0799 13.8913 94.5109 15.5011 94.5109 17.7019C94.5109 19.8823 96.1005 21.4514 97.975 21.4514C99.8297 21.4514 101.297 19.8823 101.297 17.7019C101.297 15.5011 99.8297 13.8913 97.975 13.8913ZM115.724 13.8506C114.339 13.8506 112.403 15.0936 112.484 17.4982L118.048 15.1751C117.742 14.4008 116.825 13.8506 115.724 13.8506Z" fill="#5F6368"/>
<path d="M30.3602 5.50618C27.0631 3.60292 22.8471 4.73388 20.9417 8.03098L16.1388 16.351C14.749 18.7536 16.5381 19.5931 18.5331 20.7893L23.1547 23.4567C24.7197 24.3594 26.7188 23.8235 27.6215 22.2605L32.559 13.7101C34.2177 10.8369 33.2334 7.16495 30.3602 5.50618Z" fill="#EA4335"/>
<path d="M24.925 8.95054L20.3034 6.28316C17.7522 4.86693 16.3074 4.77319 15.26 6.43803L8.44374 18.2427C6.54046 21.5378 7.67346 25.7518 10.9685 27.651C13.8417 29.3097 17.5138 28.3255 19.1725 25.4523L26.1192 13.4193C27.0259 11.8544 26.49 9.85329 24.925 8.95054Z" fill="#FBBC04"/>
<path d="M25.8149 2.88167L22.5688 1.00695C18.9783 -1.06545 14.3873 0.163314 12.3149 3.75383L6.13438 14.4581C5.22147 16.0374 5.76351 18.0588 7.34279 18.9697L10.9781 21.0686C12.7734 22.1058 15.0678 21.4904 16.1051 19.6951L23.1659 7.46663C24.629 4.93368 27.867 4.0656 30.3999 5.52871L25.8149 2.88167Z" fill="#34A853"/>
<path d="M13.1927 6.81652L9.68368 4.79507C8.11865 3.89439 6.11965 4.42827 5.21693 5.98919L1.00695 13.264C-1.06545 16.8443 0.163315 21.4252 3.75383 23.4915L6.42531 25.0299L9.66532 26.8965L11.0714 27.7055C8.57513 26.0345 7.78245 22.6865 9.3087 20.0496L10.3989 18.1668L14.3909 11.269C15.2916 9.71219 14.7556 7.7172 13.1927 6.81652Z" fill="#4285F4"/>
</svg>
