<svg width="16" height="16" viewBox="0 0 16 16" fill="none" xmlns="http://www.w3.org/2000/svg">
<path d="M8 4.93343C8.91068 4.93343 9.77025 5.29146 10.4204 5.94161C11.0705 6.59171 11.4286 7.45132 11.4286 8.362C11.4286 8.99132 11.2706 9.57739 10.9591 10.1039C10.6613 10.6074 10.2293 11.0338 9.70968 11.337L9.14286 11.6678V14.8571H6.85714V11.6678L6.29032 11.337C5.23007 10.7183 4.57143 9.57829 4.57143 8.362C4.57143 7.45132 4.92946 6.59175 5.57961 5.94161C6.22975 5.29146 7.08932 4.93343 8 4.93343ZM8.76189 0H7.23811V2.28571H8.76189V0ZM13.3713 1.92371L12 3.29539L13.0666 4.362L14.4382 2.99071L13.3713 1.92371ZM2.62871 1.92371L1.56175 2.99068L2.93339 4.36196L4 3.29539L2.62871 1.92371ZM8 3.79057C5.48586 3.79057 3.42857 5.84786 3.42857 8.362C3.42857 10.0384 4.343 11.5238 5.71429 12.3241V16H10.2857V12.324C11.657 11.5238 12.5714 10.0763 12.5714 8.36197C12.5714 5.84782 10.5141 3.79057 8 3.79057ZM16 7.60007H13.7143V9.12389H16V7.60007ZM2.28571 7.60007H0V9.12389H2.28571V7.60007Z" fill="#06A345"/>
</svg>
