<svg width="330" height="198" viewBox="0 0 330 198" fill="none" xmlns="http://www.w3.org/2000/svg">
<rect x="55.1187" y="9.91406" width="273.716" height="141.905" stroke="#ECECEC"/>
<path d="M54.6187 56.4766H329.335" stroke="#ECECEC"/>
<path d="M54.6187 33.375H329.335" stroke="#ECECEC"/>
<path d="M54.6187 79.5859H329.335" stroke="#ECECEC"/>
<path d="M54.6187 102.688H329.335" stroke="#ECECEC"/>
<path d="M54.6187 125.789H329.335" stroke="#ECECEC"/>
<path d="M146.191 9.41406L146.191 152.32" stroke="#ECECEC"/>
<path d="M236.907 9.41406L236.907 152.32" stroke="#ECECEC"/>
<path d="M20.2128 153.119C19.5707 153.119 19.0239 152.945 18.5722 152.595C18.1205 152.243 17.7753 151.733 17.5367 151.065C17.298 150.395 17.1787 149.585 17.1787 148.636C17.1787 147.693 17.298 146.888 17.5367 146.22C17.7781 145.55 18.1247 145.038 18.5764 144.686C19.031 144.331 19.5764 144.153 20.2128 144.153C20.8492 144.153 21.3932 144.331 21.8449 144.686C22.2994 145.038 22.646 145.55 22.8847 146.22C23.1261 146.888 23.2469 147.693 23.2469 148.636C23.2469 149.585 23.1276 150.395 22.8889 151.065C22.6503 151.733 22.3051 152.243 21.8534 152.595C21.4017 152.945 20.8548 153.119 20.2128 153.119ZM20.2128 152.182C20.8492 152.182 21.3435 151.875 21.6957 151.261C22.048 150.648 22.2242 149.773 22.2242 148.636C22.2242 147.881 22.1432 147.237 21.9813 146.706C21.8222 146.175 21.5921 145.77 21.2909 145.491C20.9926 145.213 20.6332 145.074 20.2128 145.074C19.5821 145.074 19.0892 145.385 18.7341 146.007C18.379 146.626 18.2014 147.503 18.2014 148.636C18.2014 149.392 18.281 150.034 18.4401 150.562C18.5992 151.091 18.8278 151.493 19.1261 151.768C19.4273 152.044 19.7895 152.182 20.2128 152.182Z" fill="#4F4F4F"/>
<path d="M11.1006 132V131.233L13.9813 128.08C14.3193 127.71 14.5977 127.389 14.8165 127.116C15.0352 126.841 15.1972 126.582 15.3023 126.341C15.4102 126.097 15.4642 125.841 15.4642 125.574C15.4642 125.267 15.3903 125.001 15.2426 124.777C15.0977 124.553 14.8989 124.379 14.646 124.257C14.3932 124.135 14.1091 124.074 13.7938 124.074C13.4585 124.074 13.1659 124.143 12.9159 124.283C12.6688 124.419 12.477 124.611 12.3406 124.858C12.2071 125.105 12.1403 125.395 12.1403 125.727H11.1347C11.1347 125.216 11.2526 124.767 11.4884 124.381C11.7242 123.994 12.0452 123.693 12.4514 123.477C12.8605 123.261 13.3193 123.153 13.8278 123.153C14.3392 123.153 14.7923 123.261 15.1872 123.477C15.5821 123.693 15.8918 123.984 16.1162 124.351C16.3406 124.717 16.4528 125.125 16.4528 125.574C16.4528 125.895 16.3946 126.209 16.2781 126.516C16.1645 126.82 15.9656 127.159 15.6815 127.534C15.4003 127.906 15.0097 128.361 14.5097 128.898L12.5494 130.994V131.062H16.6063V132H11.1006ZM21.2128 132.119C20.5707 132.119 20.0239 131.945 19.5722 131.595C19.1205 131.243 18.7753 130.733 18.5367 130.065C18.298 129.395 18.1787 128.585 18.1787 127.636C18.1787 126.693 18.298 125.888 18.5367 125.22C18.7781 124.55 19.1247 124.038 19.5764 123.686C20.031 123.331 20.5764 123.153 21.2128 123.153C21.8492 123.153 22.3932 123.331 22.8449 123.686C23.2994 124.038 23.646 124.55 23.8847 125.22C24.1261 125.888 24.2469 126.693 24.2469 127.636C24.2469 128.585 24.1276 129.395 23.8889 130.065C23.6503 130.733 23.3051 131.243 22.8534 131.595C22.4017 131.945 21.8548 132.119 21.2128 132.119ZM21.2128 131.182C21.8492 131.182 22.3435 130.875 22.6957 130.261C23.048 129.648 23.2242 128.773 23.2242 127.636C23.2242 126.881 23.1432 126.237 22.9813 125.706C22.8222 125.175 22.5921 124.77 22.2909 124.491C21.9926 124.213 21.6332 124.074 21.2128 124.074C20.5821 124.074 20.0892 124.385 19.7341 125.007C19.379 125.626 19.2014 126.503 19.2014 127.636C19.2014 128.392 19.281 129.034 19.4401 129.562C19.5992 130.091 19.8278 130.493 20.1261 130.768C20.4273 131.044 20.7895 131.182 21.2128 131.182Z" fill="#4F4F4F"/>
<path d="M13.6744 107.119C13.1119 107.119 12.6105 107.023 12.1702 106.83C11.7327 106.636 11.3847 106.368 11.1261 106.024C10.8705 105.678 10.7313 105.276 10.7085 104.818H11.7824C11.8051 105.099 11.9017 105.342 12.0722 105.547C12.2426 105.749 12.4656 105.905 12.7412 106.016C13.0168 106.126 13.3222 106.182 13.6574 106.182C14.0324 106.182 14.3648 106.116 14.6546 105.986C14.9443 105.855 15.1716 105.673 15.3364 105.44C15.5011 105.207 15.5835 104.938 15.5835 104.631C15.5835 104.31 15.504 104.027 15.3449 103.783C15.1858 103.536 14.9528 103.342 14.646 103.203C14.3392 103.064 13.9642 102.994 13.521 102.994H12.8222V102.057H13.521C13.8676 102.057 14.1716 101.994 14.433 101.869C14.6972 101.744 14.9031 101.568 15.0509 101.341C15.2014 101.114 15.2767 100.847 15.2767 100.54C15.2767 100.244 15.2114 99.9872 15.0807 99.7685C14.95 99.5497 14.7653 99.3793 14.5267 99.2571C14.2909 99.1349 14.0125 99.0739 13.6915 99.0739C13.3903 99.0739 13.1063 99.1293 12.8392 99.2401C12.575 99.348 12.3591 99.5057 12.1915 99.7131C12.0239 99.9176 11.933 100.165 11.9188 100.455H10.896C10.9131 99.9972 11.0509 99.5966 11.3094 99.2528C11.5679 98.9062 11.906 98.6364 12.3236 98.4432C12.744 98.25 13.2057 98.1534 13.7085 98.1534C14.2483 98.1534 14.7114 98.2628 15.0977 98.4815C15.4841 98.6974 15.781 98.983 15.9884 99.3381C16.1957 99.6932 16.2994 100.077 16.2994 100.489C16.2994 100.98 16.1702 101.399 15.9117 101.746C15.656 102.092 15.308 102.332 14.8676 102.466V102.534C15.4188 102.625 15.8492 102.859 16.1588 103.237C16.4685 103.612 16.6233 104.077 16.6233 104.631C16.6233 105.105 16.494 105.531 16.2355 105.909C15.9798 106.284 15.6304 106.58 15.1872 106.795C14.744 107.011 14.2398 107.119 13.6744 107.119ZM21.2128 107.119C20.5707 107.119 20.0239 106.945 19.5722 106.595C19.1205 106.243 18.7753 105.733 18.5367 105.065C18.298 104.395 18.1787 103.585 18.1787 102.636C18.1787 101.693 18.298 100.888 18.5367 100.22C18.7781 99.5497 19.1247 99.0384 19.5764 98.6861C20.031 98.331 20.5764 98.1534 21.2128 98.1534C21.8492 98.1534 22.3932 98.331 22.8449 98.6861C23.2994 99.0384 23.646 99.5497 23.8847 100.22C24.1261 100.888 24.2469 101.693 24.2469 102.636C24.2469 103.585 24.1276 104.395 23.8889 105.065C23.6503 105.733 23.3051 106.243 22.8534 106.595C22.4017 106.945 21.8548 107.119 21.2128 107.119ZM21.2128 106.182C21.8492 106.182 22.3435 105.875 22.6957 105.261C23.048 104.648 23.2242 103.773 23.2242 102.636C23.2242 101.881 23.1432 101.237 22.9813 100.706C22.8222 100.175 22.5921 99.7699 22.2909 99.4915C21.9926 99.2131 21.6332 99.0739 21.2128 99.0739C20.5821 99.0739 20.0892 99.3849 19.7341 100.007C19.379 100.626 19.2014 101.503 19.2014 102.636C19.2014 103.392 19.281 104.034 19.4401 104.562C19.5992 105.091 19.8278 105.493 20.1261 105.768C20.4273 106.044 20.7895 106.182 21.2128 106.182Z" fill="#4F4F4F"/>
<path d="M10.4624 81.2102V80.3409L14.2977 74.2727H14.9283V75.6193H14.5022L11.6045 80.2045V80.2727H16.7693V81.2102H10.4624ZM14.5704 83V80.946V80.5412V74.2727H15.5761V83H14.5704ZM21.2128 83.1193C20.5707 83.1193 20.0239 82.9446 19.5722 82.5952C19.1205 82.2429 18.7753 81.733 18.5367 81.0653C18.298 80.3949 18.1787 79.5852 18.1787 78.6364C18.1787 77.6932 18.298 76.8878 18.5367 76.2202C18.7781 75.5497 19.1247 75.0384 19.5764 74.6861C20.031 74.331 20.5764 74.1534 21.2128 74.1534C21.8492 74.1534 22.3932 74.331 22.8449 74.6861C23.2994 75.0384 23.646 75.5497 23.8847 76.2202C24.1261 76.8878 24.2469 77.6932 24.2469 78.6364C24.2469 79.5852 24.1276 80.3949 23.8889 81.0653C23.6503 81.733 23.3051 82.2429 22.8534 82.5952C22.4017 82.9446 21.8548 83.1193 21.2128 83.1193ZM21.2128 82.1818C21.8492 82.1818 22.3435 81.875 22.6957 81.2614C23.048 80.6477 23.2242 79.7727 23.2242 78.6364C23.2242 77.8807 23.1432 77.2372 22.9813 76.706C22.8222 76.1747 22.5921 75.7699 22.2909 75.4915C21.9926 75.2131 21.6332 75.0739 21.2128 75.0739C20.5821 75.0739 20.0892 75.3849 19.7341 76.0071C19.379 76.6264 19.2014 77.5028 19.2014 78.6364C19.2014 79.392 19.281 80.0341 19.4401 80.5625C19.5992 81.0909 19.8278 81.4929 20.1261 81.7685C20.4273 82.044 20.7895 82.1818 21.2128 82.1818Z" fill="#4F4F4F"/>
<path d="M13.7927 62.1193C13.2927 62.1193 12.8424 62.0199 12.4418 61.821C12.0413 61.6222 11.7202 61.3494 11.4788 61.0028C11.2373 60.6562 11.1052 60.2614 11.0825 59.8182H12.1052C12.145 60.2131 12.3239 60.5398 12.6421 60.7983C12.9631 61.054 13.3467 61.1818 13.7927 61.1818C14.1506 61.1818 14.4688 61.098 14.7472 60.9304C15.0285 60.7628 15.2487 60.5327 15.4077 60.2401C15.5697 59.9446 15.6506 59.6108 15.6506 59.2386C15.6506 58.858 15.5668 58.5185 15.3992 58.2202C15.2345 57.919 15.0072 57.6818 14.7174 57.5085C14.4276 57.3352 14.0967 57.2472 13.7245 57.2443C13.4575 57.2415 13.1833 57.2827 12.9021 57.3679C12.6208 57.4503 12.3893 57.5568 12.2075 57.6875L11.2188 57.5682L11.7472 53.2727H16.2813V54.2102H12.6336L12.3268 56.7841H12.3779C12.5569 56.642 12.7813 56.5241 13.0512 56.4304C13.3211 56.3366 13.6023 56.2898 13.895 56.2898C14.4291 56.2898 14.9049 56.4176 15.3225 56.6733C15.743 56.9261 16.0725 57.2727 16.3112 57.7131C16.5526 58.1534 16.6734 58.6562 16.6734 59.2216C16.6734 59.7784 16.5484 60.2756 16.2984 60.7131C16.0512 61.1477 15.7103 61.4915 15.2756 61.7443C14.841 61.9943 14.3467 62.1193 13.7927 62.1193ZM21.2128 62.1193C20.5707 62.1193 20.0239 61.9446 19.5722 61.5952C19.1205 61.2429 18.7753 60.733 18.5367 60.0653C18.298 59.3949 18.1787 58.5852 18.1787 57.6364C18.1787 56.6932 18.298 55.8878 18.5367 55.2202C18.7781 54.5497 19.1247 54.0384 19.5764 53.6861C20.031 53.331 20.5764 53.1534 21.2128 53.1534C21.8492 53.1534 22.3932 53.331 22.8449 53.6861C23.2994 54.0384 23.646 54.5497 23.8847 55.2202C24.1261 55.8878 24.2469 56.6932 24.2469 57.6364C24.2469 58.5852 24.1276 59.3949 23.8889 60.0653C23.6503 60.733 23.3051 61.2429 22.8534 61.5952C22.4017 61.9446 21.8548 62.1193 21.2128 62.1193ZM21.2128 61.1818C21.8492 61.1818 22.3435 60.875 22.6957 60.2614C23.048 59.6477 23.2242 58.7727 23.2242 57.6364C23.2242 56.8807 23.1432 56.2372 22.9813 55.706C22.8222 55.1747 22.5921 54.7699 22.2909 54.4915C21.9926 54.2131 21.6332 54.0739 21.2128 54.0739C20.5821 54.0739 20.0892 54.3849 19.7341 55.0071C19.379 55.6264 19.2014 56.5028 19.2014 57.6364C19.2014 58.392 19.281 59.0341 19.4401 59.5625C19.5992 60.0909 19.8278 60.4929 20.1261 60.7685C20.4273 61.044 20.7895 61.1818 21.2128 61.1818Z" fill="#4F4F4F"/>
<path d="M13.7756 35.2209C13.4177 35.2152 13.0597 35.147 12.7018 35.0163C12.3438 34.8857 12.0171 34.6655 11.7217 34.3558C11.4262 34.0433 11.189 33.6214 11.01 33.0902C10.831 32.5561 10.7416 31.8857 10.7416 31.0788C10.7416 30.3061 10.814 29.6214 10.9589 29.0249C11.1038 28.4254 11.314 27.9212 11.5896 27.5121C11.8651 27.1001 12.1975 26.7876 12.5867 26.5746C12.9788 26.3615 13.4205 26.255 13.912 26.255C14.4006 26.255 14.8353 26.353 15.216 26.549C15.5995 26.7422 15.912 27.0121 16.1535 27.3587C16.395 27.7053 16.5512 28.1044 16.6222 28.5561H15.5825C15.4859 28.1641 15.2984 27.8388 15.02 27.5803C14.7416 27.3217 14.3722 27.1925 13.912 27.1925C13.2359 27.1925 12.7032 27.4865 12.314 28.0746C11.9276 28.6626 11.733 29.4879 11.7302 30.5504H11.7984C11.9575 30.3089 12.1464 30.103 12.3651 29.9325C12.5867 29.7592 12.831 29.6257 13.0981 29.532C13.3651 29.4382 13.6478 29.3913 13.9461 29.3913C14.4461 29.3913 14.9035 29.5163 15.3183 29.7663C15.733 30.0135 16.0654 30.3558 16.3154 30.7933C16.5654 31.228 16.6904 31.7266 16.6904 32.2891C16.6904 32.8288 16.5697 33.3232 16.3282 33.772C16.0867 34.218 15.7472 34.5732 15.3097 34.8374C14.8751 35.0987 14.3637 35.2266 13.7756 35.2209ZM13.7756 34.2834C14.1336 34.2834 14.4546 34.1939 14.7387 34.0149C15.0256 33.8359 15.2515 33.5959 15.4163 33.2947C15.5839 32.9936 15.6677 32.6584 15.6677 32.2891C15.6677 31.9283 15.5867 31.6001 15.4248 31.3047C15.2657 31.0064 15.0455 30.7692 14.7643 30.593C14.4859 30.4169 14.1677 30.3288 13.8097 30.3288C13.5398 30.3288 13.2884 30.3828 13.0555 30.4908C12.8225 30.5959 12.618 30.7408 12.4418 30.9254C12.2685 31.1101 12.1322 31.3217 12.0327 31.5604C11.9333 31.7962 11.8836 32.0447 11.8836 32.3061C11.8836 32.6527 11.9646 32.9766 12.1265 33.2777C12.2913 33.5788 12.5157 33.8217 12.7998 34.0064C13.0867 34.1911 13.412 34.2834 13.7756 34.2834ZM21.2128 35.2209C20.5707 35.2209 20.0239 35.0462 19.5722 34.6967C19.1205 34.3445 18.7753 33.8345 18.5367 33.1669C18.298 32.4964 18.1787 31.6868 18.1787 30.7379C18.1787 29.7947 18.298 28.9893 18.5367 28.3217C18.7781 27.6513 19.1247 27.1399 19.5764 26.7876C20.031 26.4325 20.5764 26.255 21.2128 26.255C21.8492 26.255 22.3932 26.4325 22.8449 26.7876C23.2994 27.1399 23.646 27.6513 23.8847 28.3217C24.1261 28.9893 24.2469 29.7947 24.2469 30.7379C24.2469 31.6868 24.1276 32.4964 23.8889 33.1669C23.6503 33.8345 23.3051 34.3445 22.8534 34.6967C22.4017 35.0462 21.8548 35.2209 21.2128 35.2209ZM21.2128 34.2834C21.8492 34.2834 22.3435 33.9766 22.6957 33.3629C23.048 32.7493 23.2242 31.8743 23.2242 30.7379C23.2242 29.9822 23.1432 29.3388 22.9813 28.8075C22.8222 28.2763 22.5921 27.8714 22.2909 27.593C21.9926 27.3146 21.6332 27.1754 21.2128 27.1754C20.5821 27.1754 20.0892 27.4865 19.7341 28.1087C19.379 28.728 19.2014 29.6044 19.2014 30.7379C19.2014 31.4936 19.281 32.1357 19.4401 32.6641C19.5992 33.1925 19.8278 33.5945 20.1261 33.87C20.4273 34.1456 20.7895 34.2834 21.2128 34.2834Z" fill="#4F4F4F"/>
<path d="M11.971 12L15.8744 4.27841V4.21023H11.3744V3.27273H16.9653V4.26136L13.0789 12H11.971ZM21.2128 12.1193C20.5707 12.1193 20.0239 11.9446 19.5722 11.5952C19.1205 11.2429 18.7753 10.733 18.5367 10.0653C18.298 9.39489 18.1787 8.58523 18.1787 7.63636C18.1787 6.69318 18.298 5.88778 18.5367 5.22017C18.7781 4.54972 19.1247 4.03835 19.5764 3.68608C20.031 3.33097 20.5764 3.15341 21.2128 3.15341C21.8492 3.15341 22.3932 3.33097 22.8449 3.68608C23.2994 4.03835 23.646 4.54972 23.8847 5.22017C24.1261 5.88778 24.2469 6.69318 24.2469 7.63636C24.2469 8.58523 24.1276 9.39489 23.8889 10.0653C23.6503 10.733 23.3051 11.2429 22.8534 11.5952C22.4017 11.9446 21.8548 12.1193 21.2128 12.1193ZM21.2128 11.1818C21.8492 11.1818 22.3435 10.875 22.6957 10.2614C23.048 9.64773 23.2242 8.77273 23.2242 7.63636C23.2242 6.88068 23.1432 6.23722 22.9813 5.70597C22.8222 5.17472 22.5921 4.76989 22.2909 4.49148C21.9926 4.21307 21.6332 4.07386 21.2128 4.07386C20.5821 4.07386 20.0892 4.38494 19.7341 5.0071C19.379 5.62642 19.2014 6.50284 19.2014 7.63636C19.2014 8.39205 19.281 9.03409 19.4401 9.5625C19.5992 10.0909 19.8278 10.4929 20.1261 10.7685C20.4273 11.044 20.7895 11.1818 21.2128 11.1818Z" fill="#4F4F4F"/>
<path d="M68.0568 195V186.273H71.108C71.7159 186.273 72.2173 186.378 72.6122 186.588C73.0071 186.795 73.3011 187.075 73.4943 187.428C73.6875 187.777 73.7841 188.165 73.7841 188.591C73.7841 188.966 73.7173 189.276 73.5838 189.52C73.4531 189.764 73.2798 189.957 73.0639 190.099C72.8509 190.241 72.6193 190.347 72.3693 190.415V190.5C72.6364 190.517 72.9048 190.611 73.1747 190.781C73.4446 190.952 73.6705 191.196 73.8523 191.514C74.0341 191.832 74.125 192.222 74.125 192.682C74.125 193.119 74.0256 193.513 73.8267 193.862C73.6278 194.212 73.3139 194.489 72.8849 194.693C72.456 194.898 71.8977 195 71.2102 195H68.0568ZM69.1136 194.062H71.2102C71.9006 194.062 72.3906 193.929 72.6804 193.662C72.973 193.392 73.1193 193.065 73.1193 192.682C73.1193 192.386 73.044 192.114 72.8935 191.864C72.7429 191.611 72.5284 191.409 72.25 191.259C71.9716 191.105 71.642 191.028 71.2614 191.028H69.1136V194.062ZM69.1136 190.108H71.0739C71.392 190.108 71.679 190.045 71.9347 189.92C72.1932 189.795 72.3977 189.619 72.5483 189.392C72.7017 189.165 72.7784 188.898 72.7784 188.591C72.7784 188.207 72.6449 187.882 72.3778 187.615C72.1108 187.345 71.6875 187.21 71.108 187.21H69.1136V190.108ZM79.8501 192.324V188.455H80.8558V195H79.8501V193.892H79.782C79.6286 194.224 79.3899 194.507 79.0661 194.74C78.7422 194.97 78.3331 195.085 77.8388 195.085C77.4297 195.085 77.0661 194.996 76.7479 194.817C76.4297 194.635 76.1797 194.362 75.9979 193.999C75.8161 193.632 75.7251 193.17 75.7251 192.614V188.455H76.7308V192.545C76.7308 193.023 76.8643 193.403 77.1314 193.688C77.4013 193.972 77.745 194.114 78.1626 194.114C78.4126 194.114 78.6669 194.05 78.9254 193.922C79.1868 193.794 79.4055 193.598 79.5817 193.334C79.7607 193.07 79.8501 192.733 79.8501 192.324ZM87.3342 189.92L86.4308 190.176C86.3739 190.026 86.2901 189.879 86.1793 189.737C86.0714 189.592 85.9237 189.473 85.7362 189.379C85.5487 189.286 85.3086 189.239 85.016 189.239C84.6154 189.239 84.2816 189.331 84.0146 189.516C83.7504 189.697 83.6183 189.929 83.6183 190.21C83.6183 190.46 83.7092 190.658 83.891 190.803C84.0728 190.947 84.3569 191.068 84.7433 191.165L85.7148 191.403C86.3001 191.545 86.7362 191.763 87.0231 192.055C87.31 192.345 87.4535 192.719 87.4535 193.176C87.4535 193.551 87.3455 193.886 87.1296 194.182C86.9165 194.477 86.6183 194.71 86.2347 194.881C85.8512 195.051 85.4052 195.136 84.8967 195.136C84.229 195.136 83.6765 194.991 83.239 194.702C82.8015 194.412 82.5245 193.989 82.408 193.432L83.3626 193.193C83.4535 193.545 83.6254 193.81 83.8782 193.986C84.1339 194.162 84.4677 194.25 84.8796 194.25C85.3484 194.25 85.7205 194.151 85.9961 193.952C86.2745 193.75 86.4137 193.509 86.4137 193.227C86.4137 193 86.3342 192.81 86.1751 192.656C86.016 192.5 85.7717 192.384 85.4421 192.307L84.3512 192.051C83.7518 191.909 83.3114 191.689 83.0302 191.391C82.7518 191.089 82.6126 190.713 82.6126 190.261C82.6126 189.892 82.7163 189.565 82.9237 189.281C83.1339 188.997 83.4194 188.774 83.7802 188.612C84.1438 188.45 84.5558 188.369 85.016 188.369C85.6637 188.369 86.1722 188.511 86.5415 188.795C86.9137 189.08 87.1779 189.455 87.3342 189.92ZM88.9673 195V188.455H89.973V195H88.9673ZM89.4787 187.364C89.2827 187.364 89.1136 187.297 88.9716 187.163C88.8324 187.03 88.7628 186.869 88.7628 186.682C88.7628 186.494 88.8324 186.334 88.9716 186.2C89.1136 186.067 89.2827 186 89.4787 186C89.6747 186 89.8423 186.067 89.9815 186.2C90.1236 186.334 90.1946 186.494 90.1946 186.682C90.1946 186.869 90.1236 187.03 89.9815 187.163C89.8423 187.297 89.6747 187.364 89.4787 187.364ZM92.8207 191.062V195H91.815V188.455H92.7866V189.477H92.8718C93.0252 189.145 93.2582 188.878 93.5707 188.676C93.8832 188.472 94.2866 188.369 94.7809 188.369C95.2241 188.369 95.6119 188.46 95.9442 188.642C96.2766 188.821 96.5352 189.094 96.7198 189.46C96.9045 189.824 96.9968 190.284 96.9968 190.841V195H95.9911V190.909C95.9911 190.395 95.8576 189.994 95.5906 189.707C95.3235 189.418 94.957 189.273 94.4911 189.273C94.1701 189.273 93.8832 189.342 93.6303 189.482C93.3803 189.621 93.1829 189.824 93.038 190.091C92.8931 190.358 92.8207 190.682 92.8207 191.062ZM101.579 195.136C100.948 195.136 100.404 194.997 99.9467 194.719C99.4922 194.438 99.1413 194.045 98.8942 193.543C98.6499 193.037 98.5277 192.449 98.5277 191.778C98.5277 191.108 98.6499 190.517 98.8942 190.006C99.1413 189.491 99.4851 189.091 99.9254 188.804C100.369 188.514 100.886 188.369 101.477 188.369C101.817 188.369 102.154 188.426 102.487 188.54C102.819 188.653 103.121 188.838 103.394 189.094C103.667 189.347 103.884 189.682 104.046 190.099C104.208 190.517 104.289 191.031 104.289 191.642V192.068H99.2436V191.199H103.266C103.266 190.83 103.192 190.5 103.045 190.21C102.9 189.92 102.692 189.692 102.423 189.524C102.156 189.357 101.84 189.273 101.477 189.273C101.076 189.273 100.729 189.372 100.437 189.571C100.147 189.767 99.924 190.023 99.7678 190.338C99.6115 190.653 99.5334 190.991 99.5334 191.352V191.932C99.5334 192.426 99.6186 192.845 99.7891 193.189C99.9624 193.53 100.202 193.79 100.509 193.969C100.816 194.145 101.173 194.233 101.579 194.233C101.843 194.233 102.082 194.196 102.295 194.122C102.511 194.045 102.697 193.932 102.853 193.781C103.009 193.628 103.13 193.437 103.215 193.21L104.187 193.483C104.085 193.812 103.913 194.102 103.671 194.352C103.43 194.599 103.131 194.793 102.776 194.932C102.421 195.068 102.022 195.136 101.579 195.136ZM110.455 189.92L109.552 190.176C109.495 190.026 109.411 189.879 109.3 189.737C109.192 189.592 109.045 189.473 108.857 189.379C108.67 189.286 108.43 189.239 108.137 189.239C107.737 189.239 107.403 189.331 107.136 189.516C106.871 189.697 106.739 189.929 106.739 190.21C106.739 190.46 106.83 190.658 107.012 190.803C107.194 190.947 107.478 191.068 107.864 191.165L108.836 191.403C109.421 191.545 109.857 191.763 110.144 192.055C110.431 192.345 110.575 192.719 110.575 193.176C110.575 193.551 110.467 193.886 110.251 194.182C110.038 194.477 109.739 194.71 109.356 194.881C108.972 195.051 108.526 195.136 108.018 195.136C107.35 195.136 106.798 194.991 106.36 194.702C105.923 194.412 105.646 193.989 105.529 193.432L106.484 193.193C106.575 193.545 106.746 193.81 106.999 193.986C107.255 194.162 107.589 194.25 108.001 194.25C108.469 194.25 108.842 194.151 109.117 193.952C109.396 193.75 109.535 193.509 109.535 193.227C109.535 193 109.455 192.81 109.296 192.656C109.137 192.5 108.893 192.384 108.563 192.307L107.472 192.051C106.873 191.909 106.433 191.689 106.151 191.391C105.873 191.089 105.734 190.713 105.734 190.261C105.734 189.892 105.837 189.565 106.045 189.281C106.255 188.997 106.54 188.774 106.901 188.612C107.265 188.45 107.677 188.369 108.137 188.369C108.785 188.369 109.293 188.511 109.663 188.795C110.035 189.08 110.299 189.455 110.455 189.92ZM116.725 189.92L115.821 190.176C115.765 190.026 115.681 189.879 115.57 189.737C115.462 189.592 115.314 189.473 115.127 189.379C114.939 189.286 114.699 189.239 114.407 189.239C114.006 189.239 113.672 189.331 113.405 189.516C113.141 189.697 113.009 189.929 113.009 190.21C113.009 190.46 113.1 190.658 113.282 190.803C113.463 190.947 113.748 191.068 114.134 191.165L115.105 191.403C115.691 191.545 116.127 191.763 116.414 192.055C116.701 192.345 116.844 192.719 116.844 193.176C116.844 193.551 116.736 193.886 116.52 194.182C116.307 194.477 116.009 194.71 115.625 194.881C115.242 195.051 114.796 195.136 114.287 195.136C113.62 195.136 113.067 194.991 112.63 194.702C112.192 194.412 111.915 193.989 111.799 193.432L112.753 193.193C112.844 193.545 113.016 193.81 113.269 193.986C113.525 194.162 113.858 194.25 114.27 194.25C114.739 194.25 115.111 194.151 115.387 193.952C115.665 193.75 115.804 193.509 115.804 193.227C115.804 193 115.725 192.81 115.566 192.656C115.407 192.5 115.162 192.384 114.833 192.307L113.742 192.051C113.142 191.909 112.702 191.689 112.421 191.391C112.142 191.089 112.003 190.713 112.003 190.261C112.003 189.892 112.107 189.565 112.314 189.281C112.525 188.997 112.81 188.774 113.171 188.612C113.534 188.45 113.946 188.369 114.407 188.369C115.054 188.369 115.563 188.511 115.932 188.795C116.304 189.08 116.569 189.455 116.725 189.92Z" fill="#4F4F4F"/>
<path d="M157.642 195L155.256 186.273H156.33L158.153 193.381H158.239L160.097 186.273H161.29L163.148 193.381H163.233L165.057 186.273H166.131L163.744 195H162.653L160.727 188.045H160.659L158.733 195H157.642ZM169.361 195.136C168.77 195.136 168.251 194.996 167.805 194.714C167.362 194.433 167.016 194.04 166.766 193.534C166.518 193.028 166.395 192.437 166.395 191.761C166.395 191.08 166.518 190.484 166.766 189.976C167.016 189.467 167.362 189.072 167.805 188.791C168.251 188.51 168.77 188.369 169.361 188.369C169.952 188.369 170.469 188.51 170.912 188.791C171.358 189.072 171.705 189.467 171.952 189.976C172.202 190.484 172.327 191.08 172.327 191.761C172.327 192.437 172.202 193.028 171.952 193.534C171.705 194.04 171.358 194.433 170.912 194.714C170.469 194.996 169.952 195.136 169.361 195.136ZM169.361 194.233C169.81 194.233 170.179 194.118 170.469 193.888C170.759 193.658 170.973 193.355 171.112 192.98C171.251 192.605 171.321 192.199 171.321 191.761C171.321 191.324 171.251 190.916 171.112 190.538C170.973 190.161 170.759 189.855 170.469 189.622C170.179 189.389 169.81 189.273 169.361 189.273C168.912 189.273 168.543 189.389 168.253 189.622C167.963 189.855 167.749 190.161 167.609 190.538C167.47 190.916 167.401 191.324 167.401 191.761C167.401 192.199 167.47 192.605 167.609 192.98C167.749 193.355 167.963 193.658 168.253 193.888C168.543 194.118 168.912 194.233 169.361 194.233ZM173.862 195V188.455H174.833V189.443H174.902C175.021 189.119 175.237 188.857 175.549 188.655C175.862 188.453 176.214 188.352 176.606 188.352C176.68 188.352 176.772 188.354 176.883 188.357C176.994 188.359 177.078 188.364 177.135 188.369V189.392C177.1 189.384 177.022 189.371 176.9 189.354C176.781 189.334 176.654 189.324 176.521 189.324C176.203 189.324 175.919 189.391 175.669 189.524C175.422 189.655 175.225 189.837 175.081 190.07C174.939 190.3 174.868 190.562 174.868 190.858V195H173.862ZM179.264 192.614L179.247 191.369H179.452L182.315 188.455H183.56L180.509 191.54H180.423L179.264 192.614ZM178.327 195V186.273H179.332V195H178.327ZM182.486 195L179.929 191.761L180.645 191.062L183.764 195H182.486Z" fill="#4F4F4F"/>
<path d="M231.58 187.21V186.273H238.125V187.21H235.381V195H234.324V187.21H231.58ZM241.33 195.136C240.739 195.136 240.22 194.996 239.774 194.714C239.331 194.433 238.984 194.04 238.734 193.534C238.487 193.028 238.364 192.437 238.364 191.761C238.364 191.08 238.487 190.484 238.734 189.976C238.984 189.467 239.331 189.072 239.774 188.791C240.22 188.51 240.739 188.369 241.33 188.369C241.92 188.369 242.438 188.51 242.881 188.791C243.327 189.072 243.673 189.467 243.92 189.976C244.17 190.484 244.295 191.08 244.295 191.761C244.295 192.437 244.17 193.028 243.92 193.534C243.673 194.04 243.327 194.433 242.881 194.714C242.438 194.996 241.92 195.136 241.33 195.136ZM241.33 194.233C241.778 194.233 242.148 194.118 242.438 193.888C242.727 193.658 242.942 193.355 243.081 192.98C243.22 192.605 243.29 192.199 243.29 191.761C243.29 191.324 243.22 190.916 243.081 190.538C242.942 190.161 242.727 189.855 242.438 189.622C242.148 189.389 241.778 189.273 241.33 189.273C240.881 189.273 240.511 189.389 240.222 189.622C239.932 189.855 239.717 190.161 239.578 190.538C239.439 190.916 239.369 191.324 239.369 191.761C239.369 192.199 239.439 192.605 239.578 192.98C239.717 193.355 239.932 193.658 240.222 193.888C240.511 194.118 240.881 194.233 241.33 194.233ZM249.956 192.324V188.455H250.961V195H249.956V193.892H249.887C249.734 194.224 249.495 194.507 249.172 194.74C248.848 194.97 248.439 195.085 247.944 195.085C247.535 195.085 247.172 194.996 246.853 194.817C246.535 194.635 246.285 194.362 246.103 193.999C245.922 193.632 245.831 193.17 245.831 192.614V188.455H246.836V192.545C246.836 193.023 246.97 193.403 247.237 193.688C247.507 193.972 247.85 194.114 248.268 194.114C248.518 194.114 248.772 194.05 249.031 193.922C249.292 193.794 249.511 193.598 249.687 193.334C249.866 193.07 249.956 192.733 249.956 192.324ZM252.803 195V188.455H253.775V189.443H253.843C253.962 189.119 254.178 188.857 254.491 188.655C254.803 188.453 255.156 188.352 255.548 188.352C255.621 188.352 255.714 188.354 255.825 188.357C255.935 188.359 256.019 188.364 256.076 188.369V189.392C256.042 189.384 255.964 189.371 255.842 189.354C255.722 189.334 255.596 189.324 255.462 189.324C255.144 189.324 254.86 189.391 254.61 189.524C254.363 189.655 254.167 189.837 254.022 190.07C253.88 190.3 253.809 190.562 253.809 190.858V195H252.803ZM257.268 195V188.455H258.274V195H257.268ZM257.779 187.364C257.583 187.364 257.414 187.297 257.272 187.163C257.133 187.03 257.064 186.869 257.064 186.682C257.064 186.494 257.133 186.334 257.272 186.2C257.414 186.067 257.583 186 257.779 186C257.975 186 258.143 186.067 258.282 186.2C258.424 186.334 258.495 186.494 258.495 186.682C258.495 186.869 258.424 187.03 258.282 187.163C258.143 187.297 257.975 187.364 257.779 187.364ZM264.752 189.92L263.849 190.176C263.792 190.026 263.708 189.879 263.597 189.737C263.489 189.592 263.342 189.473 263.154 189.379C262.967 189.286 262.727 189.239 262.434 189.239C262.033 189.239 261.7 189.331 261.433 189.516C261.168 189.697 261.036 189.929 261.036 190.21C261.036 190.46 261.127 190.658 261.309 190.803C261.491 190.947 261.775 191.068 262.161 191.165L263.133 191.403C263.718 191.545 264.154 191.763 264.441 192.055C264.728 192.345 264.871 192.719 264.871 193.176C264.871 193.551 264.763 193.886 264.548 194.182C264.335 194.477 264.036 194.71 263.653 194.881C263.269 195.051 262.823 195.136 262.315 195.136C261.647 195.136 261.094 194.991 260.657 194.702C260.219 194.412 259.942 193.989 259.826 193.432L260.781 193.193C260.871 193.545 261.043 193.81 261.296 193.986C261.552 194.162 261.886 194.25 262.298 194.25C262.766 194.25 263.138 194.151 263.414 193.952C263.692 193.75 263.832 193.509 263.832 193.227C263.832 193 263.752 192.81 263.593 192.656C263.434 192.5 263.19 192.384 262.86 192.307L261.769 192.051C261.17 191.909 260.729 191.689 260.448 191.391C260.17 191.089 260.031 190.713 260.031 190.261C260.031 189.892 260.134 189.565 260.342 189.281C260.552 188.997 260.837 188.774 261.198 188.612C261.562 188.45 261.974 188.369 262.434 188.369C263.082 188.369 263.59 188.511 263.96 188.795C264.332 189.08 264.596 189.455 264.752 189.92ZM269.232 188.455V189.307H265.84V188.455H269.232ZM266.828 186.886H267.834V193.125C267.834 193.409 267.875 193.622 267.958 193.764C268.043 193.903 268.151 193.997 268.282 194.045C268.415 194.091 268.556 194.114 268.703 194.114C268.814 194.114 268.905 194.108 268.976 194.097C269.047 194.082 269.104 194.071 269.147 194.062L269.351 194.966C269.283 194.991 269.188 195.017 269.066 195.043C268.944 195.071 268.789 195.085 268.601 195.085C268.317 195.085 268.039 195.024 267.766 194.902C267.496 194.78 267.272 194.594 267.093 194.344C266.917 194.094 266.828 193.778 266.828 193.398V186.886Z" fill="#4F4F4F"/>
<rect x="55" y="187" width="7" height="7" fill="#165BAA"/>
<rect x="143" y="187" width="7" height="7" fill="#A155B9"/>
<rect x="219" y="187" width="7" height="7" fill="#F765A3"/>
<path d="M85.8064 158.727H86.6871V163.926C86.6871 164.39 86.6018 164.784 86.4314 165.109C86.2609 165.433 86.0206 165.679 85.7105 165.847C85.4004 166.015 85.0346 166.099 84.6132 166.099C84.2155 166.099 83.8615 166.027 83.5514 165.883C83.2413 165.736 82.9974 165.528 82.8199 165.258C82.6423 164.988 82.5535 164.667 82.5535 164.295H83.42C83.42 164.501 83.4709 164.681 83.5727 164.835C83.6769 164.987 83.8189 165.105 83.9988 165.19C84.1788 165.276 84.3836 165.318 84.6132 165.318C84.8665 165.318 85.0819 165.265 85.2595 165.158C85.4371 165.052 85.572 164.896 85.6643 164.69C85.759 164.481 85.8064 164.227 85.8064 163.926V158.727ZM88.7503 166H87.827L90.4974 158.727H91.4065L94.077 166H93.1537L90.9804 159.878H90.9236L88.7503 166ZM89.0912 163.159H92.8128V163.94H89.0912V163.159ZM100.977 158.727V166H100.125L96.1615 160.29H96.0905V166H95.2098V158.727H96.0621L100.039 164.452H100.11V158.727H100.977Z" fill="#4F4F4F"/>
<path d="M186.706 166V158.727H191.067V159.509H187.587V161.966H190.74V162.747H187.587V166H186.706ZM192.575 166V158.727H196.964V159.509H193.456V161.966H196.737V162.747H193.456V165.219H197.021V166H192.575ZM198.552 166V158.727H201.094C201.601 158.727 202.019 158.815 202.348 158.99C202.677 159.163 202.922 159.396 203.083 159.69C203.244 159.981 203.324 160.304 203.324 160.659C203.324 160.972 203.269 161.23 203.157 161.433C203.049 161.637 202.904 161.798 202.724 161.916C202.547 162.035 202.354 162.122 202.145 162.179V162.25C202.368 162.264 202.592 162.342 202.816 162.484C203.041 162.626 203.23 162.83 203.381 163.095C203.533 163.36 203.608 163.685 203.608 164.068C203.608 164.433 203.526 164.761 203.36 165.052C203.194 165.343 202.932 165.574 202.575 165.744C202.218 165.915 201.752 166 201.179 166H198.552ZM199.432 165.219H201.179C201.755 165.219 202.163 165.107 202.405 164.885C202.648 164.66 202.77 164.388 202.77 164.068C202.77 163.822 202.708 163.595 202.582 163.386C202.457 163.176 202.278 163.008 202.046 162.882C201.814 162.754 201.539 162.69 201.222 162.69H199.432V165.219ZM199.432 161.923H201.066C201.331 161.923 201.57 161.871 201.783 161.767C201.999 161.663 202.169 161.516 202.294 161.327C202.422 161.137 202.486 160.915 202.486 160.659C202.486 160.339 202.375 160.068 202.152 159.846C201.93 159.621 201.577 159.509 201.094 159.509H199.432V161.923Z" fill="#4F4F4F"/>
<path d="M276.855 158.727H277.906L280.378 164.764H280.463L282.935 158.727H283.986V166H283.162V160.474H283.091L280.818 166H280.023L277.75 160.474H277.679V166H276.855V158.727ZM286.05 166H285.127L287.797 158.727H288.706L291.377 166H290.453L288.28 159.878H288.223L286.05 166ZM286.391 163.159H290.113V163.94H286.391V163.159ZM292.51 166V158.727H294.967C295.535 158.727 296.002 158.824 296.366 159.018C296.731 159.21 297.001 159.474 297.176 159.81C297.351 160.147 297.439 160.529 297.439 160.957C297.439 161.386 297.351 161.766 297.176 162.097C297.001 162.429 296.732 162.689 296.37 162.879C296.007 163.066 295.545 163.159 294.981 163.159H292.993V162.364H294.953C295.341 162.364 295.654 162.307 295.89 162.193C296.129 162.08 296.302 161.919 296.409 161.71C296.518 161.5 296.572 161.249 296.572 160.957C296.572 160.666 296.518 160.412 296.409 160.194C296.3 159.976 296.126 159.808 295.887 159.69C295.648 159.569 295.332 159.509 294.939 159.509H293.39V166H292.51ZM295.933 162.733L297.723 166H296.7L294.939 162.733H295.933Z" fill="#4F4F4F"/>
<rect x="82" y="35" width="23" height="92" fill="#165BAA"/>
<rect x="183" y="45" width="23" height="62" fill="#165BAA"/>
<rect x="275" y="35" width="23" height="68" fill="#165BAA"/>
<rect x="82" y="127" width="23" height="15" fill="#A155B9"/>
<rect x="183" y="107" width="23" height="34" fill="#A155B9"/>
<rect x="275" y="103" width="23" height="23" fill="#A155B9"/>
<rect x="82" y="142" width="23" height="10" fill="#F765A3"/>
<rect x="183" y="141" width="23" height="11" fill="#F765A3"/>
<rect x="275" y="126" width="23" height="26" fill="#F765A3"/>
</svg>
