<svg width="12" height="12" viewBox="0 0 12 12" fill="none" xmlns="http://www.w3.org/2000/svg">
<g clip-path="url(#clip0_675_3653)">
<path d="M6.36365 2.23828H5.61365V6.41276L8.32333 7.7006L8.64529 7.02321L6.36365 5.9388V2.23828Z" fill="#525252"/>
<path d="M6 0.375C2.89341 0.375 0.375 2.89341 0.375 6C0.375 9.10659 2.89341 11.625 6 11.625C9.10659 11.625 11.625 9.10659 11.625 6C11.625 2.89341 9.10659 0.375 6 0.375ZM6 10.875C3.30762 10.875 1.125 8.69238 1.125 6C1.125 3.30762 3.30762 1.125 6 1.125C8.69238 1.125 10.875 3.30762 10.875 6C10.875 8.69238 8.69238 10.875 6 10.875Z" fill="#525252"/>
</g>
<defs>
<clipPath id="clip0_675_3653">
<rect width="12" height="12" fill="white"/>
</clipPath>
</defs>
</svg>
