<svg width="331" height="53" viewBox="0 0 331 53" fill="none" xmlns="http://www.w3.org/2000/svg">
<g filter="url(#filter0_d_2286_8828)">
<path d="M8 42L30.2801 36.3145L51.7426 42L73.4095 20.0702L95.0763 30.832L116.743 25.4511L138.41 42L145.934 36.3145L153.457 39.3684L159.978 30.832L170.009 18.3158L173.52 23.1404L182.047 25.4511L185.558 29.2807L190.574 32.7895L196.593 39.3684L204.117 37.614L208.631 32.7895L216.656 29.2807L221.672 27.0877L226.186 30.832L230.199 32.7895L235.716 29.2807L242.237 36.3145L256.281 25.4511L262.3 18.3158L269.823 17L281.36 30.832L292.394 37.614L303.931 29.2807L313.461 20.0702L320.483 18.3158L326 27.0877" stroke="#165BAA" stroke-width="2"/>
<path d="M5 42L27.2801 32.9032L48.7426 42L70.4095 6.91228L92.0763 24.1313L113.743 15.5218L135.41 42L142.934 32.9032L150.457 37.7895L156.978 24.1313L167.009 4.10526L170.521 11.8246L179.047 15.5218L182.558 21.6491L187.574 27.2632L193.593 37.7895L201.117 34.9825L205.631 27.2632L213.656 21.6491L218.672 18.1404L223.186 24.1313L227.199 27.2632L232.716 21.6491L239.237 32.9032L253.281 15.5218L259.3 4.10526L266.823 2L278.36 24.1313L289.394 34.9825L300.931 21.6491L310.461 6.91228L317.483 4.10526L323 18.1404" stroke="black" stroke-width="2"/>
<path d="M8 43L30.2801 40.0435L51.7426 43L73.4095 31.5965L95.0763 37.1927L116.743 34.3946L138.41 43L145.934 40.0435L153.457 41.6316L159.978 37.1927L170.009 30.6842L173.52 33.193L182.047 34.3946L185.558 36.386L190.574 38.2105L196.593 41.6316L204.117 40.7193L208.631 38.2105L216.656 36.386L221.672 35.2456L226.186 37.1927L230.199 38.2105L235.716 36.386L242.237 40.0435L256.281 34.3946L262.3 30.6842L269.823 30L281.36 37.1927L292.394 40.7193L303.931 36.386L313.461 31.5965L320.483 30.6842L326 35.2456" stroke="#DA1A1A" stroke-width="2"/>
</g>
<defs>
<filter id="filter0_d_2286_8828" x="0.62207" y="0.820312" width="330.225" height="51.2578" filterUnits="userSpaceOnUse" color-interpolation-filters="sRGB">
<feFlood flood-opacity="0" result="BackgroundImageFix"/>
<feColorMatrix in="SourceAlpha" type="matrix" values="0 0 0 0 0 0 0 0 0 0 0 0 0 0 0 0 0 0 127 0" result="hardAlpha"/>
<feOffset dy="4"/>
<feGaussianBlur stdDeviation="2"/>
<feComposite in2="hardAlpha" operator="out"/>
<feColorMatrix type="matrix" values="0 0 0 0 0 0 0 0 0 0 0 0 0 0 0 0 0 0 0.25 0"/>
<feBlend mode="normal" in2="BackgroundImageFix" result="effect1_dropShadow_2286_8828"/>
<feBlend mode="normal" in="SourceGraphic" in2="effect1_dropShadow_2286_8828" result="shape"/>
</filter>
</defs>
</svg>
