<svg width="5" height="20" viewBox="0 0 5 20" fill="none" xmlns="http://www.w3.org/2000/svg">
<path d="M4.61538 17.6923C4.61538 18.3043 4.37225 18.8913 3.93948 19.3241C3.5067 19.7569 2.91973 20 2.30769 20C1.69565 20 1.10868 19.7569 0.675907 19.3241C0.243131 18.8913 0 18.3043 0 17.6923C0 17.0803 0.243131 16.4933 0.675907 16.0605C1.10868 15.6277 1.69565 15.3846 2.30769 15.3846C2.91973 15.3846 3.5067 15.6277 3.93948 16.0605C4.37225 16.4933 4.61538 17.0803 4.61538 17.6923ZM4.61538 10C4.61538 10.612 4.37225 11.199 3.93948 11.6318C3.5067 12.0646 2.91973 12.3077 2.30769 12.3077C1.69565 12.3077 1.10868 12.0646 0.675907 11.6318C0.243131 11.199 0 10.612 0 10C0 9.38796 0.243131 8.80099 0.675907 8.36821C1.10868 7.93544 1.69565 7.69231 2.30769 7.69231C2.91973 7.69231 3.5067 7.93544 3.93948 8.36821C4.37225 8.80099 4.61538 9.38796 4.61538 10V10ZM4.61538 2.30769C4.61538 2.91973 4.37225 3.5067 3.93948 3.93948C3.5067 4.37225 2.91973 4.61538 2.30769 4.61538C1.69565 4.61538 1.10868 4.37225 0.675907 3.93948C0.243131 3.5067 0 2.91973 0 2.30769C0 1.69565 0.243131 1.10868 0.675907 0.675908C1.10868 0.243131 1.69565 0 2.30769 0C2.91973 0 3.5067 0.243131 3.93948 0.675908C4.37225 1.10868 4.61538 1.69565 4.61538 2.30769V2.30769Z" fill="black"/>
</svg>
