<svg width="21" height="36" viewBox="0 0 21 36" fill="none" xmlns="http://www.w3.org/2000/svg">
<rect width="21" height="31.5" rx="8" fill="white"/>
<path d="M10.5 3.54375C8.64348 3.54375 6.86301 4.29047 5.55025 5.61963C4.2375 6.94879 3.5 8.75153 3.5 10.6313V24.8062C3.5 26.686 4.2375 28.4887 5.55025 29.8179C6.86301 31.147 8.64348 31.8938 10.5 31.8938C12.3565 31.8938 14.137 31.147 15.4497 29.8179C16.7625 28.4887 17.5 26.686 17.5 24.8062V10.6313C17.5 8.75153 16.7625 6.94879 15.4497 5.61963C14.137 4.29047 12.3565 3.54375 10.5 3.54375ZM10.5 0C13.2848 0 15.9555 1.12007 17.9246 3.11382C19.8938 5.10757 21 7.81167 21 10.6313V24.8062C21 27.6258 19.8938 30.3299 17.9246 32.3237C15.9555 34.3174 13.2848 35.4375 10.5 35.4375C7.71523 35.4375 5.04451 34.3174 3.07538 32.3237C1.10625 30.3299 0 27.6258 0 24.8062V10.6313C0 7.81167 1.10625 5.10757 3.07538 3.11382C5.04451 1.12007 7.71523 0 10.5 0ZM12.25 14.175C12.25 14.6449 12.0656 15.0956 11.7374 15.4279C11.4092 15.7602 10.9641 15.9469 10.5 15.9469C10.0359 15.9469 9.59075 15.7602 9.26256 15.4279C8.93437 15.0956 8.75 14.6449 8.75 14.175V8.85938C8.75 8.38944 8.93437 7.93876 9.26256 7.60647C9.59075 7.27418 10.0359 7.0875 10.5 7.0875C10.9641 7.0875 11.4092 7.27418 11.7374 7.60647C12.0656 7.93876 12.25 8.38944 12.25 8.85938V14.175Z" fill="black"/>
</svg>
