<svg width="40" height="38" viewBox="0 0 40 38" fill="none" xmlns="http://www.w3.org/2000/svg">
<path d="M9.5 38C6.9 38 4.66667 37.0667 2.8 35.2C0.933334 33.3333 0 31.1 0 28.5C0 25.9 0.933334 23.6667 2.8 21.8C4.66667 19.9333 6.9 19 9.5 19C12.1 19 14.3333 19.9333 16.2 21.8C18.0667 23.6667 19 25.9 19 28.5C19 31.1 18.0667 33.3333 16.2 35.2C14.3333 37.0667 12.1 38 9.5 38ZM37.8 36L24.65 22.85C24.1833 23.2167 23.6583 23.575 23.075 23.925C22.4917 24.275 21.9333 24.5667 21.4 24.8C21.2333 24.3333 21.05 23.8583 20.85 23.375C20.65 22.8917 20.4167 22.45 20.15 22.05C21.95 21.35 23.475 20.1917 24.725 18.575C25.975 16.9583 26.6 15.0333 26.6 12.8C26.6 10.1 25.65 7.79167 23.75 5.875C21.85 3.95833 19.55 3 16.85 3C14.1167 3 11.7917 3.95833 9.875 5.875C7.95833 7.79167 7 10.1 7 12.8C7 13.3667 7.05833 13.9583 7.175 14.575C7.29167 15.1917 7.43333 15.7167 7.6 16.15C7.16667 16.2167 6.68333 16.325 6.15 16.475C5.61667 16.625 5.13333 16.8 4.7 17C4.46667 16.4 4.29167 15.7333 4.175 15C4.05833 14.2667 4 13.5333 4 12.8C4 9.23333 5.25 6.20833 7.75 3.725C10.25 1.24167 13.2833 0 16.85 0C20.3833 0 23.3917 1.25 25.875 3.75C28.3583 6.25 29.6 9.26667 29.6 12.8C29.6 14.2333 29.35 15.65 28.85 17.05C28.35 18.45 27.6667 19.6667 26.8 20.7L40 33.8L37.8 36ZM6.05 33.2L9.5 29.75L12.9 33.15L14.05 32L10.6 28.55L14.15 25L13 23.85L9.5 27.35L6 23.85L4.85 25L8.35 28.5L4.85 32L6.05 33.2Z" fill="black"/>
</svg>
