<svg width="27" height="27" viewBox="0 0 27 27" fill="none" xmlns="http://www.w3.org/2000/svg">
<path fill-rule="evenodd" clip-rule="evenodd" d="M13.5 27C6.04395 27 0 20.9561 0 13.5C0 6.04395 6.04395 0 13.5 0C20.9561 0 27 6.04395 27 13.5C27 20.9561 20.9561 27 13.5 27ZM24.3 13.5C24.3 10.6357 23.1621 7.88864 21.1368 5.86325C19.1114 3.83785 16.3643 2.7 13.5 2.7C10.6357 2.7 7.88864 3.83785 5.86325 5.86325C3.83785 7.88864 2.7 10.6357 2.7 13.5C2.7 16.3643 3.83785 19.1114 5.86325 21.1368C7.88864 23.1621 10.6357 24.3 13.5 24.3C16.3643 24.3 19.1114 23.1621 21.1368 21.1368C23.1621 19.1114 24.3 16.3643 24.3 13.5ZM18.9 12.15C19.258 12.15 19.6014 12.2922 19.8546 12.5454C20.1078 12.7986 20.25 13.142 20.25 13.5C20.25 13.858 20.1078 14.2014 19.8546 14.4546C19.6014 14.7078 19.258 14.85 18.9 14.85H14.85C13.365 14.85 12.15 13.635 12.15 12.15V6.75C12.15 6.39196 12.2922 6.04858 12.5454 5.79541C12.7986 5.54223 13.142 5.4 13.5 5.4C13.858 5.4 14.2014 5.54223 14.4546 5.79541C14.7078 6.04858 14.85 6.39196 14.85 6.75V12.15H18.9Z" fill="#9F9898"/>
</svg>
