<svg width="83" height="26" viewBox="0 0 83 26" fill="none" xmlns="http://www.w3.org/2000/svg">
<path d="M82.6744 7.6689C81.9214 5.516 79.8694 3.97001 77.4591 3.97001H77.4087C75.8418 3.97001 74.4298 4.62214 73.4246 5.66901C72.4177 4.62214 71.0056 3.97001 69.4405 3.97001H69.3901C68.0128 3.97001 66.7538 4.4743 65.7869 5.30906V4.88473C65.7538 4.46212 65.406 4.13002 64.9764 4.13002H61.2793C60.8272 4.13002 60.462 4.4952 60.462 4.94906V25.026C60.462 25.4798 60.8272 25.8451 61.2793 25.8451H64.9764C65.3886 25.8451 65.7277 25.5373 65.7816 25.139L65.7799 10.7261C65.7795 10.6779 65.7818 10.6297 65.7868 10.5817C65.846 9.93829 66.3172 9.40966 67.0616 9.34355H67.7432C68.0545 9.37135 68.3171 9.48094 68.524 9.64612C68.8457 9.90177 69.0248 10.2948 69.0248 10.7261L69.0387 25.0677C69.0387 25.5216 69.4056 25.8885 69.8561 25.8885H73.5532C73.9897 25.8885 74.3444 25.5407 74.3653 25.1077L74.3636 10.7069C74.3618 10.2339 74.581 9.80613 74.9653 9.55222C75.1549 9.43046 75.3827 9.34878 75.6452 9.32442H76.3269C77.1269 9.39398 77.6103 10.0009 77.6086 10.7069L77.6225 25.0295C77.6225 25.4833 77.9895 25.8485 78.4398 25.8485H82.137C82.5874 25.8485 82.9543 25.4833 82.9543 25.0295V9.62527C82.9543 8.5749 82.8361 8.12799 82.6744 7.6689M57.6455 4.18233H55.5309V0.746029C55.5308 0.333874 55.1969 0 54.7848 0C54.7361 0 54.6891 0.00690128 54.6439 0.0156265C52.2997 0.659073 52.7693 3.90583 48.4896 4.18233H48.0739C48.0113 4.18233 47.9522 4.191 47.8948 4.20318H47.8914L47.8948 4.2049C47.5296 4.28668 47.2549 4.61011 47.2549 4.99969V8.6968C47.2549 9.14721 47.6218 9.51411 48.0739 9.51411H50.3051L50.3017 25.1914C50.3017 25.6383 50.6633 26 51.1102 26H54.7657C55.2108 26 55.5726 25.6383 55.5726 25.1914L55.5743 9.51411H57.6455C58.0959 9.51411 58.4628 9.14721 58.4628 8.6968V4.99969C58.4628 4.54928 58.0959 4.18238 57.6455 4.18238" fill="#00BAF2"/>
<path d="M44.3435 4.18253H40.6464C40.1959 4.18253 39.8307 4.54948 39.8307 4.99984V12.6446C39.822 13.1176 39.4395 13.4967 38.9647 13.4967H37.417C36.937 13.4967 36.5492 13.1106 36.5492 12.6306L36.5353 4.99989C36.5353 4.54948 36.1684 4.18258 35.718 4.18258H32.0208C31.5687 4.18258 31.2035 4.54948 31.2035 4.99989V13.3784C31.2035 16.5608 33.4729 18.8303 36.657 18.8303C36.657 18.8303 39.0464 18.8303 39.1195 18.8442C39.5508 18.8929 39.8864 19.2545 39.8864 19.6997C39.8864 20.1397 39.5577 20.4997 39.1317 20.5536C39.1108 20.5571 39.0917 20.5623 39.0691 20.5658L33.6624 20.5849C33.2103 20.5849 32.8451 20.9518 32.8451 21.4022V25.0977C32.8451 25.5498 33.2103 25.915 33.6624 25.915H39.7073C42.8931 25.915 45.1608 23.6473 45.1608 20.4632V4.99989C45.1608 4.54948 44.7956 4.18258 44.3435 4.18258M8.55769 10.9569V13.2385C8.55769 13.7167 8.16989 14.1062 7.69168 14.1062L5.34574 14.108V9.5361H7.69168C8.16989 9.5361 8.55769 9.92213 8.55769 10.4021V10.9569ZM8.88289 4.18164H0.801683C0.358226 4.18164 0 4.54164 0 4.98332V8.60571C0 8.61266 0.00172532 8.61961 0.00172532 8.62656C0.00172532 8.64396 0 8.66136 0 8.67699V25.0724C0 25.5176 0.333874 25.8811 0.747804 25.8915H4.51443C4.96483 25.8915 5.33174 25.5263 5.33174 25.0742L5.34569 19.4554H8.88284C11.8426 19.4554 13.9051 17.4016 13.9051 14.4297V9.2144C13.9051 6.24241 11.8426 4.18169 8.88284 4.18169L8.88289 4.18164ZM23.8977 19.6366V20.214C23.8977 20.2609 23.8908 20.3061 23.8838 20.3496C23.8751 20.3904 23.8635 20.4305 23.849 20.4696C23.7342 20.7931 23.4108 21.0278 23.0264 21.0278H21.4874C21.0075 21.0278 20.6162 20.6626 20.6162 20.214V19.5166C20.6162 19.508 20.6144 19.4992 20.6144 19.4906L20.6162 17.6351V17.0542L20.6179 17.049C20.6197 16.602 21.0075 16.2404 21.4874 16.2404H23.0264C23.5081 16.2404 23.8977 16.6038 23.8977 17.0542L23.8977 19.6366ZM23.31 4.20289H18.1799C17.726 4.20289 17.3591 4.54721 17.3591 4.96977V6.40795C17.3591 6.41662 17.3608 6.42707 17.3608 6.43575C17.3608 6.4462 17.359 6.4566 17.359 6.46705V8.43737C17.359 8.88432 17.7486 9.2495 18.2286 9.2495H23.1134C23.4995 9.31038 23.8056 9.5921 23.8491 10.0321V10.5085C23.8056 10.9276 23.503 11.2337 23.1343 11.2685H20.7154C17.4982 11.2685 15.2062 13.4058 15.2062 16.4073V20.7061C15.2062 23.6903 17.1765 25.8136 20.371 25.8136H27.0749C28.2783 25.8136 29.2539 24.9024 29.2539 23.7807V9.75206C29.2539 6.35057 27.501 4.20289 23.3099 4.20289H23.31Z" fill="#1F336B"/>
</svg>
