<svg width="139" height="29" viewBox="0 0 139 29" fill="none" xmlns="http://www.w3.org/2000/svg">
<g clip-path="url(#clip0_979_6223)">
<path fill-rule="evenodd" clip-rule="evenodd" d="M33.1311 10.9562C32.9119 11.763 32.487 12.3552 31.8565 12.7332C31.2252 13.1113 30.3398 13.3007 29.1977 13.3007H25.5694L26.8431 8.61214H30.4715C31.6126 8.61214 32.3961 8.80118 32.8218 9.17919C33.2466 9.55764 33.3503 10.1499 33.1311 10.9562ZM36.8885 10.8552C37.35 9.15865 37.1587 7.85611 36.315 6.94872C35.4712 6.04133 33.9927 5.58789 31.8811 5.58789H23.7816L18.9067 23.5332H22.8418L24.8072 16.2994H27.3878C27.9664 16.2994 28.4219 16.392 28.7551 16.5769C29.0889 16.7621 29.2844 17.0898 29.3447 17.5597L30.0466 23.5332H34.2629L33.5789 17.9633C33.4395 16.7198 32.8626 15.9888 31.8488 15.7705C33.1413 15.4012 34.2238 14.7873 35.0956 13.9302C35.9666 13.0736 36.5648 12.0488 36.8885 10.8552Z" fill="#072654"/>
<path fill-rule="evenodd" clip-rule="evenodd" d="M46.4521 17.1071C46.1233 18.3166 45.6168 19.2411 44.9328 19.8794C44.248 20.5181 43.4288 20.8371 42.4754 20.8371C41.5033 20.8371 40.8439 20.5223 40.4964 19.892C40.1471 19.2621 40.1352 18.351 40.4599 17.1573C40.7836 15.9646 41.3002 15.0321 42.0114 14.3594C42.7218 13.688 43.5537 13.3515 44.5079 13.3515C45.4613 13.3515 46.1071 13.6754 46.4418 14.3221C46.7767 14.9688 46.7809 15.8971 46.4521 17.1071ZM48.177 10.7555L47.6842 12.5703C47.4709 11.9148 47.0588 11.3942 46.4487 11.0078C45.8378 10.6214 45.0807 10.4277 44.1782 10.4277C43.071 10.4277 42.0063 10.7094 40.985 11.2723C39.9636 11.8355 39.0705 12.6293 38.3067 13.654C37.5428 14.6792 36.9828 15.8468 36.6267 17.1573C36.2707 18.4683 36.1993 19.6234 36.4135 20.6229C36.6276 21.623 37.0915 22.3916 37.8061 22.9293C38.5199 23.4674 39.4394 23.7356 40.5635 23.7356C41.4659 23.7356 42.3259 23.5508 43.1416 23.1812C43.9573 22.812 44.6498 22.299 45.22 21.6439L44.706 23.5341H48.5126L51.9838 10.7555H48.177Z" fill="#072654"/>
<path fill-rule="evenodd" clip-rule="evenodd" d="M65.672 10.7539H54.6086L53.8353 13.6022H60.2737L51.7612 20.8607L51.0347 23.5325H62.4558L63.2299 20.6846H56.3319L64.9736 13.3247L65.672 10.7539Z" fill="#072654"/>
<path fill-rule="evenodd" clip-rule="evenodd" d="M75.4127 17.0819C75.0702 18.3417 74.5629 19.2834 73.8917 19.905C73.2204 20.5265 72.408 20.8371 71.4547 20.8371C69.4612 20.8371 68.8052 19.586 69.485 17.0819C69.8232 15.8384 70.333 14.9017 71.0145 14.2718C71.6968 13.6415 72.5228 13.3263 73.494 13.3263C74.4474 13.3263 75.0906 13.6415 75.422 14.2718C75.7533 14.9017 75.7509 15.8384 75.4127 17.0819ZM77.6398 11.2341C76.7637 10.6968 75.6446 10.4277 74.2817 10.4277C72.9017 10.4277 71.6237 10.6968 70.4469 11.2341C69.2701 11.7722 68.2682 12.5451 67.4414 13.553C66.6137 14.5614 66.0173 15.7374 65.6519 17.0819C65.2865 18.4264 65.244 19.602 65.5245 20.6103C65.804 21.6187 66.3852 22.3916 67.2706 22.9293C68.1552 23.4674 69.287 23.7356 70.667 23.7356C72.0299 23.7356 73.2951 23.4674 74.4636 22.9293C75.6302 22.3916 76.6286 21.6187 77.4562 20.6103C78.283 19.602 78.8795 18.4264 79.2449 17.0819C79.6103 15.7374 79.6528 14.5614 79.3732 13.553C79.0928 12.5451 78.5149 11.7722 77.6398 11.2341Z" fill="#072654"/>
<path fill-rule="evenodd" clip-rule="evenodd" d="M117.456 17.1071C117.127 18.3166 116.621 19.2411 115.937 19.8794C115.253 20.5181 114.432 20.8371 113.479 20.8371C112.508 20.8371 111.848 20.5223 111.5 19.892C111.151 19.2621 111.139 18.351 111.464 17.1573C111.788 15.9646 112.304 15.0321 113.015 14.3594C113.726 13.688 114.558 13.3515 115.512 13.3515C116.465 13.3515 117.111 13.6754 117.446 14.3221C117.781 14.9688 117.785 15.8971 117.456 17.1071ZM119.181 10.7555L118.688 12.5703C118.475 11.9148 118.063 11.3942 117.453 11.0078C116.842 10.6214 116.085 10.4277 115.182 10.4277C114.075 10.4277 113.01 10.7094 111.989 11.2723C110.968 11.8355 110.075 12.6293 109.311 13.654C108.547 14.6792 107.987 15.8468 107.631 17.1573C107.275 18.4683 107.204 19.6234 107.418 20.6229C107.632 21.623 108.095 22.3916 108.81 22.9293C109.524 23.4674 110.443 23.7356 111.568 23.7356C112.47 23.7356 113.33 23.5508 114.146 23.1812C114.961 22.812 115.654 22.299 116.224 21.6439L115.71 23.5341H119.517L122.988 10.7555H119.181Z" fill="#072654"/>
<path fill-rule="evenodd" clip-rule="evenodd" d="M91.2124 14.1816L92.1828 10.7034C91.8531 10.5354 91.4163 10.4512 90.8717 10.4512C90.0024 10.4512 89.1654 10.6653 88.359 11.094C87.6665 11.4618 87.0768 11.9781 86.5789 12.625L87.0836 10.7519L85.9815 10.7538H83.2781L79.7803 23.5323H83.6396L85.4538 16.8534C85.7181 15.879 86.1922 15.1187 86.878 14.5726C87.562 14.0266 88.4159 13.7533 89.4382 13.7533C90.0686 13.7533 90.6592 13.8962 91.2124 14.1816Z" fill="#072654"/>
<path fill-rule="evenodd" clip-rule="evenodd" d="M101.955 17.1569C101.63 18.3505 101.127 19.2617 100.446 19.8916C99.7626 20.5219 98.9451 20.8366 97.9918 20.8366C97.0376 20.8366 96.3876 20.5177 96.0417 19.879C95.695 19.2407 95.6865 18.3165 96.0153 17.1066C96.3442 15.8967 96.8557 14.9683 97.5508 14.3216C98.2458 13.6749 99.0709 13.3509 100.025 13.3509C100.962 13.3509 101.598 13.6875 101.935 14.3594C102.272 15.0316 102.279 15.9645 101.955 17.1569ZM104.652 11.2718C103.936 10.7089 103.024 10.4277 101.918 10.4277C100.946 10.4277 100.022 10.6461 99.1465 11.0828C98.2688 11.5203 97.5576 12.1159 97.012 12.8723L97.0244 12.7885L97.6727 10.7532H96.9266V10.7551H93.9054L92.9461 14.2887C92.9351 14.3298 92.9258 14.3681 92.9146 14.4096L88.9575 28.9778H92.8162L94.8087 21.6439C95.0041 22.2985 95.4103 22.8115 96.0256 23.1807C96.6407 23.5503 97.3995 23.7352 98.3028 23.7352C99.427 23.7352 100.496 23.467 101.511 22.9288C102.526 22.3915 103.408 21.6225 104.156 20.6225C104.904 19.6233 105.457 18.4678 105.813 17.1569C106.169 15.8463 106.243 14.6787 106.036 13.6536C105.83 12.6288 105.367 11.8351 104.652 11.2718Z" fill="#072654"/>
<path fill-rule="evenodd" clip-rule="evenodd" d="M138.966 10.7574L138.968 10.7539H136.631C136.557 10.7539 136.491 10.756 136.422 10.7574H135.209L134.589 11.6099C134.539 11.6742 134.49 11.7388 134.436 11.8138L134.368 11.9125L129.439 18.6851L128.417 10.7539H124.379L126.424 22.8058L121.908 28.9767H122.036H124.342H125.931L127.025 27.4474C127.057 27.4019 127.085 27.3645 127.119 27.3164L128.397 25.5303L128.433 25.4792L134.147 17.4883L138.962 10.7627L138.968 10.7574H138.966Z" fill="#072654"/>
<path fill-rule="evenodd" clip-rule="evenodd" d="M8.99056 7.64371L7.83545 11.837L14.445 7.62014L10.1226 23.5292L14.512 23.5332L20.8973 0.0351562L8.99056 7.64371Z" fill="#3395FF"/>
<path fill-rule="evenodd" clip-rule="evenodd" d="M1.87627 16.8457L0.059082 23.5337H9.0564C9.0564 23.5337 12.7365 9.93164 12.7376 9.92773C12.7341 9.9299 1.87627 16.8457 1.87627 16.8457Z" fill="#072654"/>
</g>
<defs>
<clipPath id="clip0_979_6223">
<rect width="139" height="29" fill="white"/>
</clipPath>
</defs>
</svg>
