<svg width="17" height="13" viewBox="0 0 17 13" fill="none" xmlns="http://www.w3.org/2000/svg">
<path d="M12.1919 5.41626H16.4531C16.5046 5.41628 16.555 5.43097 16.5984 5.4586C16.6419 5.48624 16.6765 5.52567 16.6984 5.57229C16.7202 5.61892 16.7283 5.67079 16.7217 5.72185C16.7151 5.77291 16.6941 5.82104 16.6612 5.86059L14.5306 8.4182C14.5052 8.44869 14.4733 8.47322 14.4374 8.49006C14.4014 8.50689 14.3622 8.51561 14.3225 8.51561C14.2828 8.51561 14.2436 8.50689 14.2076 8.49006C14.1717 8.47322 14.1399 8.44869 14.1144 8.4182L11.9838 5.86059C11.9509 5.82104 11.9299 5.77291 11.9233 5.72185C11.9167 5.67079 11.9248 5.61892 11.9466 5.57229C11.9685 5.52567 12.0031 5.48624 12.0466 5.4586C12.09 5.43097 12.1404 5.41628 12.1919 5.41626ZM0.270832 7.58373H4.53207C4.58355 7.58371 4.63396 7.56902 4.67739 7.54139C4.72083 7.51375 4.7555 7.47432 4.77733 7.4277C4.79916 7.38107 4.80726 7.3292 4.80067 7.27814C4.79409 7.22708 4.77309 7.17895 4.74014 7.1394L2.60953 4.58179C2.5841 4.5513 2.55228 4.52677 2.51632 4.50993C2.48037 4.4931 2.44115 4.48438 2.40145 4.48438C2.36175 4.48438 2.32253 4.4931 2.28657 4.50993C2.25062 4.52677 2.2188 4.5513 2.19337 4.58179L0.0627551 7.1394C0.0298071 7.17895 0.00881122 7.22708 0.00222591 7.27814C-0.0043594 7.3292 0.00373848 7.38107 0.0255713 7.4277C0.0474042 7.47432 0.0820683 7.51375 0.125504 7.54139C0.16894 7.56902 0.219351 7.58371 0.270832 7.58373Z" fill="#525252"/>
<path fill-rule="evenodd" clip-rule="evenodd" d="M8.36191 1.08134C6.67995 1.08134 5.17573 1.84754 4.18195 3.05156C4.13758 3.10908 4.08209 3.15709 4.01879 3.19273C3.95548 3.22837 3.88566 3.25092 3.81347 3.25904C3.74128 3.26716 3.66819 3.26067 3.59856 3.23998C3.52892 3.21928 3.46416 3.18479 3.40812 3.13857C3.35208 3.09234 3.30591 3.03532 3.27235 2.97089C3.23879 2.90646 3.21853 2.83594 3.21277 2.76352C3.20701 2.6911 3.21587 2.61826 3.23883 2.54934C3.26178 2.48042 3.29836 2.41681 3.34639 2.36231C4.13989 1.40161 5.19263 0.68904 6.3794 0.309348C7.56616 -0.0703433 8.83702 -0.101176 10.0408 0.220518C11.2446 0.542212 12.3306 1.20289 13.1698 2.12398C14.0089 3.04507 14.5659 4.18781 14.7744 5.41627H13.6722C13.422 4.19253 12.7568 3.09274 11.7892 2.30286C10.8216 1.51299 9.61097 1.08149 8.36191 1.08134ZM3.05162 7.58373C3.25678 8.58578 3.74125 9.50933 4.44907 10.2477C5.15688 10.9861 6.05915 11.5091 7.05163 11.7564C8.04412 12.0037 9.08632 11.9652 10.0578 11.6452C11.0293 11.3253 11.8905 10.7371 12.5419 9.94844C12.5862 9.89092 12.6417 9.84291 12.705 9.80727C12.7683 9.77163 12.8382 9.74908 12.9103 9.74096C12.9825 9.73284 13.0556 9.73933 13.1253 9.76002C13.1949 9.78072 13.2597 9.81521 13.3157 9.86143C13.3717 9.90766 13.4179 9.96468 13.4515 10.0291C13.485 10.0935 13.5053 10.1641 13.511 10.2365C13.5168 10.3089 13.5079 10.3817 13.485 10.4507C13.462 10.5196 13.4254 10.5832 13.3774 10.6377C12.5839 11.5984 11.5312 12.311 10.3444 12.6907C9.15765 13.0703 7.8868 13.1012 6.68302 12.7795C5.47923 12.4578 4.39318 11.7971 3.55402 10.876C2.71487 9.95493 2.15794 8.81219 1.94946 7.58373H3.05162Z" fill="#525252"/>
</svg>
