<svg width="444" height="86" viewBox="0 0 444 86" fill="none" xmlns="http://www.w3.org/2000/svg">
<g filter="url(#filter0_d_1_375)">
<rect x="5" y="5" width="434" height="76" rx="3" fill="#F9F9F9"/>
<rect x="5.5" y="5.5" width="433" height="75" rx="2.5" stroke="#D3D3D3"/>
</g>
<path d="M375.237 56.5273C375.101 56.5046 374.952 56.4932 374.793 56.4932C374.201 56.4932 373.799 56.7454 373.587 57.25V61H372.684V55.7168H373.562L373.577 56.3271C373.873 55.8551 374.293 55.6191 374.837 55.6191C375.013 55.6191 375.146 55.6419 375.237 55.6875V56.5273Z" fill="#555555"/>
<path d="M378.167 61.0977C377.451 61.0977 376.868 60.8633 376.419 60.3945C375.97 59.9225 375.745 59.2926 375.745 58.5049V58.3389C375.745 57.8148 375.844 57.3477 376.043 56.9375C376.245 56.5241 376.525 56.2018 376.883 55.9707C377.244 55.7363 377.635 55.6191 378.055 55.6191C378.742 55.6191 379.275 55.8454 379.656 56.2979C380.037 56.7503 380.228 57.3981 380.228 58.2412V58.6172H376.648C376.661 59.138 376.813 59.5596 377.103 59.8818C377.396 60.2008 377.767 60.3604 378.216 60.3604C378.535 60.3604 378.805 60.2952 379.026 60.165C379.248 60.0348 379.441 59.8623 379.607 59.6475L380.159 60.0771C379.716 60.7575 379.052 61.0977 378.167 61.0977ZM378.055 56.3613C377.69 56.3613 377.384 56.4948 377.137 56.7617C376.889 57.0254 376.736 57.3965 376.678 57.875H379.324V57.8066C379.298 57.3477 379.174 56.9928 378.953 56.7422C378.732 56.4883 378.432 56.3613 378.055 56.3613Z" fill="#555555"/>
<path d="M386.648 58.7441C386.561 59.4961 386.282 60.0771 385.813 60.4873C385.348 60.8942 384.728 61.0977 383.953 61.0977C383.113 61.0977 382.439 60.7965 381.932 60.1943C381.427 59.5921 381.175 58.7865 381.175 57.7773V57.0938C381.175 56.4329 381.292 55.8519 381.526 55.3506C381.764 54.8493 382.099 54.4652 382.532 54.1982C382.965 53.9281 383.466 53.793 384.036 53.793C384.791 53.793 385.397 54.0046 385.853 54.4277C386.308 54.8477 386.574 55.4303 386.648 56.1758H385.706C385.625 55.6094 385.447 55.1992 385.174 54.9453C384.904 54.6914 384.524 54.5645 384.036 54.5645C383.437 54.5645 382.967 54.7858 382.625 55.2285C382.286 55.6712 382.117 56.3011 382.117 57.1182V57.8066C382.117 58.5781 382.278 59.1917 382.601 59.6475C382.923 60.1032 383.374 60.3311 383.953 60.3311C384.474 60.3311 384.873 60.2139 385.149 59.9795C385.429 59.7419 385.615 59.3301 385.706 58.7441H386.648Z" fill="#555555"/>
<path d="M391.858 59.1445H388.88L388.211 61H387.244L389.959 53.8906H390.779L393.499 61H392.537L391.858 59.1445ZM389.163 58.373H391.58L390.369 55.0479L389.163 58.373Z" fill="#555555"/>
<path d="M395.394 58.2168V61H394.456V53.8906H397.078C397.856 53.8906 398.465 54.0892 398.904 54.4863C399.347 54.8835 399.568 55.4092 399.568 56.0635C399.568 56.7536 399.352 57.2858 398.919 57.6602C398.489 58.0312 397.872 58.2168 397.068 58.2168H395.394ZM395.394 57.4502H397.078C397.579 57.4502 397.964 57.333 398.23 57.0986C398.497 56.861 398.631 56.5192 398.631 56.0732C398.631 55.6501 398.497 55.3115 398.23 55.0576C397.964 54.8037 397.597 54.6719 397.132 54.6621H395.394V57.4502Z" fill="#555555"/>
<path d="M405.677 54.6621H403.392V61H402.459V54.6621H400.179V53.8906H405.677V54.6621Z" fill="#555555"/>
<path d="M411.824 58.7441C411.736 59.4961 411.458 60.0771 410.989 60.4873C410.524 60.8942 409.904 61.0977 409.129 61.0977C408.289 61.0977 407.615 60.7965 407.107 60.1943C406.603 59.5921 406.351 58.7865 406.351 57.7773V57.0938C406.351 56.4329 406.468 55.8519 406.702 55.3506C406.94 54.8493 407.275 54.4652 407.708 54.1982C408.141 53.9281 408.642 53.793 409.212 53.793C409.967 53.793 410.573 54.0046 411.028 54.4277C411.484 54.8477 411.749 55.4303 411.824 56.1758H410.882C410.8 55.6094 410.623 55.1992 410.35 54.9453C410.079 54.6914 409.7 54.5645 409.212 54.5645C408.613 54.5645 408.143 54.7858 407.801 55.2285C407.462 55.6712 407.293 56.3011 407.293 57.1182V57.8066C407.293 58.5781 407.454 59.1917 407.776 59.6475C408.099 60.1032 408.549 60.3311 409.129 60.3311C409.65 60.3311 410.049 60.2139 410.325 59.9795C410.605 59.7419 410.791 59.3301 410.882 58.7441H411.824Z" fill="#555555"/>
<path d="M418.572 61H417.63V57.7139H414.046V61H413.108V53.8906H414.046V56.9473H417.63V53.8906H418.572V61Z" fill="#555555"/>
<path d="M424.251 59.1445H421.272L420.604 61H419.637L422.352 53.8906H423.172L425.892 61H424.93L424.251 59.1445ZM421.556 58.373H423.973L422.762 55.0479L421.556 58.373Z" fill="#555555"/>
<path d="M371.75 69.5391V71.7656H371V66.0781H373.098C373.72 66.0781 374.207 66.237 374.559 66.5547C374.913 66.8724 375.09 67.293 375.09 67.8164C375.09 68.3685 374.917 68.7943 374.57 69.0938C374.227 69.3906 373.733 69.5391 373.09 69.5391H371.75ZM371.75 68.9258H373.098C373.499 68.9258 373.806 68.832 374.02 68.6445C374.233 68.4544 374.34 68.181 374.34 67.8242C374.34 67.4857 374.233 67.2148 374.02 67.0117C373.806 66.8086 373.513 66.7031 373.141 66.6953H371.75V68.9258Z" fill="#555555"/>
<path d="M377.977 68.1875C377.867 68.1693 377.749 68.1602 377.621 68.1602C377.147 68.1602 376.826 68.362 376.656 68.7656V71.7656H375.934V67.5391H376.637L376.648 68.0273C376.885 67.6497 377.221 67.4609 377.656 67.4609C377.797 67.4609 377.904 67.4792 377.977 67.5156V68.1875Z" fill="#555555"/>
<path d="M379.43 71.7656H378.707V67.5391H379.43V71.7656ZM378.648 66.418C378.648 66.3008 378.684 66.2018 378.754 66.1211C378.827 66.0404 378.934 66 379.074 66C379.215 66 379.322 66.0404 379.395 66.1211C379.467 66.2018 379.504 66.3008 379.504 66.418C379.504 66.5352 379.467 66.6328 379.395 66.7109C379.322 66.7891 379.215 66.8281 379.074 66.8281C378.934 66.8281 378.827 66.7891 378.754 66.7109C378.684 66.6328 378.648 66.5352 378.648 66.418Z" fill="#555555"/>
<path d="M381.984 70.7852L383.031 67.5391H383.77L382.254 71.7656H381.703L380.172 67.5391H380.91L381.984 70.7852Z" fill="#555555"/>
<path d="M387.012 71.7656C386.97 71.6823 386.936 71.5339 386.91 71.3203C386.574 71.6693 386.173 71.8438 385.707 71.8438C385.29 71.8438 384.948 71.7266 384.68 71.4922C384.414 71.2552 384.281 70.9557 384.281 70.5938C384.281 70.1536 384.448 69.8125 384.781 69.5703C385.117 69.3255 385.589 69.2031 386.195 69.2031H386.898V68.8711C386.898 68.6185 386.823 68.418 386.672 68.2695C386.521 68.1185 386.298 68.043 386.004 68.043C385.746 68.043 385.53 68.1081 385.355 68.2383C385.181 68.3685 385.094 68.526 385.094 68.7109H384.367C384.367 68.5 384.441 68.2969 384.59 68.1016C384.741 67.9036 384.944 67.7474 385.199 67.6328C385.457 67.5182 385.74 67.4609 386.047 67.4609C386.534 67.4609 386.915 67.5833 387.191 67.8281C387.467 68.0703 387.611 68.4049 387.621 68.832V70.7773C387.621 71.1654 387.671 71.474 387.77 71.7031V71.7656H387.012ZM385.812 71.2148C386.039 71.2148 386.254 71.1562 386.457 71.0391C386.66 70.9219 386.807 70.7695 386.898 70.582V69.7148H386.332C385.447 69.7148 385.004 69.974 385.004 70.4922C385.004 70.7188 385.079 70.8958 385.23 71.0234C385.382 71.151 385.576 71.2148 385.812 71.2148Z" fill="#555555"/>
<path d="M390.449 71.2539C390.707 71.2539 390.932 71.1758 391.125 71.0195C391.318 70.8633 391.424 70.668 391.445 70.4336H392.129C392.116 70.6758 392.033 70.9062 391.879 71.125C391.725 71.3438 391.52 71.5182 391.262 71.6484C391.007 71.7786 390.736 71.8438 390.449 71.8438C389.874 71.8438 389.415 71.6523 389.074 71.2695C388.736 70.8841 388.566 70.3581 388.566 69.6914V69.5703C388.566 69.1589 388.642 68.793 388.793 68.4727C388.944 68.1523 389.16 67.9036 389.441 67.7266C389.725 67.5495 390.06 67.4609 390.445 67.4609C390.919 67.4609 391.312 67.6029 391.625 67.8867C391.94 68.1706 392.108 68.5391 392.129 68.9922H391.445C391.424 68.7188 391.32 68.4948 391.133 68.3203C390.948 68.1432 390.719 68.0547 390.445 68.0547C390.078 68.0547 389.793 68.1875 389.59 68.4531C389.389 68.7161 389.289 69.0977 389.289 69.5977V69.7344C389.289 70.2214 389.389 70.5964 389.59 70.8594C389.79 71.1224 390.077 71.2539 390.449 71.2539Z" fill="#555555"/>
<path d="M394.324 70.707L395.309 67.5391H396.082L394.383 72.418C394.12 73.1211 393.702 73.4727 393.129 73.4727L392.992 73.4609L392.723 73.4102V72.8242L392.918 72.8398C393.163 72.8398 393.353 72.7904 393.488 72.6914C393.626 72.5924 393.74 72.4115 393.828 72.1484L393.988 71.7188L392.48 67.5391H393.27L394.324 70.707Z" fill="#555555"/>
<path d="M408.93 66.6953H407.102V71.7656H406.355V66.6953H404.531V66.0781H408.93V66.6953Z" fill="#555555"/>
<path d="M411.023 71.8438C410.451 71.8438 409.984 71.6562 409.625 71.2812C409.266 70.9036 409.086 70.3997 409.086 69.7695V69.6367C409.086 69.2174 409.165 68.8438 409.324 68.5156C409.486 68.1849 409.71 67.9271 409.996 67.7422C410.285 67.5547 410.598 67.4609 410.934 67.4609C411.483 67.4609 411.91 67.6419 412.215 68.0039C412.52 68.3659 412.672 68.8841 412.672 69.5586V69.8594H409.809C409.819 70.276 409.94 70.6133 410.172 70.8711C410.406 71.1263 410.703 71.2539 411.062 71.2539C411.318 71.2539 411.534 71.2018 411.711 71.0977C411.888 70.9935 412.043 70.8555 412.176 70.6836L412.617 71.0273C412.263 71.5716 411.732 71.8438 411.023 71.8438ZM410.934 68.0547C410.642 68.0547 410.397 68.1615 410.199 68.375C410.001 68.5859 409.879 68.8828 409.832 69.2656H411.949V69.2109C411.928 68.8438 411.829 68.5599 411.652 68.3594C411.475 68.1562 411.236 68.0547 410.934 68.0547Z" fill="#555555"/>
<path d="M415.555 68.1875C415.445 68.1693 415.327 68.1602 415.199 68.1602C414.725 68.1602 414.404 68.362 414.234 68.7656V71.7656H413.512V67.5391H414.215L414.227 68.0273C414.464 67.6497 414.799 67.4609 415.234 67.4609C415.375 67.4609 415.482 67.4792 415.555 67.5156V68.1875Z" fill="#555555"/>
<path d="M416.902 67.5391L416.922 68.0078C417.232 67.6432 417.65 67.4609 418.176 67.4609C418.767 67.4609 419.169 67.6875 419.383 68.1406C419.523 67.9375 419.706 67.7734 419.93 67.6484C420.156 67.5234 420.423 67.4609 420.73 67.4609C421.658 67.4609 422.129 67.9518 422.145 68.9336V71.7656H421.422V68.9766C421.422 68.6745 421.353 68.4492 421.215 68.3008C421.077 68.1497 420.845 68.0742 420.52 68.0742C420.251 68.0742 420.029 68.1549 419.852 68.3164C419.674 68.4753 419.572 68.6901 419.543 68.9609V71.7656H418.816V68.9961C418.816 68.3815 418.516 68.0742 417.914 68.0742C417.44 68.0742 417.116 68.276 416.941 68.6797V71.7656H416.219V67.5391H416.902Z" fill="#555555"/>
<path d="M425.699 70.6445C425.699 70.4492 425.625 70.2982 425.477 70.1914C425.331 70.082 425.074 69.9883 424.707 69.9102C424.342 69.832 424.052 69.7383 423.836 69.6289C423.622 69.5195 423.464 69.3893 423.359 69.2383C423.258 69.0872 423.207 68.9076 423.207 68.6992C423.207 68.3529 423.353 68.0599 423.645 67.8203C423.939 67.5807 424.314 67.4609 424.77 67.4609C425.249 67.4609 425.637 67.5846 425.934 67.832C426.233 68.0794 426.383 68.3958 426.383 68.7812H425.656C425.656 68.5833 425.572 68.4128 425.402 68.2695C425.236 68.1263 425.025 68.0547 424.77 68.0547C424.507 68.0547 424.301 68.112 424.152 68.2266C424.004 68.3411 423.93 68.4909 423.93 68.6758C423.93 68.8503 423.999 68.9818 424.137 69.0703C424.275 69.1589 424.523 69.2435 424.883 69.3242C425.245 69.4049 425.538 69.5013 425.762 69.6133C425.986 69.7253 426.151 69.8607 426.258 70.0195C426.367 70.1758 426.422 70.3672 426.422 70.5938C426.422 70.9714 426.271 71.2747 425.969 71.5039C425.667 71.7305 425.275 71.8438 424.793 71.8438C424.454 71.8438 424.155 71.7839 423.895 71.6641C423.634 71.5443 423.43 71.3776 423.281 71.1641C423.135 70.9479 423.062 70.7148 423.062 70.4648H423.785C423.798 70.707 423.895 70.8997 424.074 71.043C424.257 71.1836 424.496 71.2539 424.793 71.2539C425.066 71.2539 425.285 71.1992 425.449 71.0898C425.616 70.9779 425.699 70.8294 425.699 70.6445Z" fill="#555555"/>
<path d="M401.328 69.9648H399.277V69.1992H401.328V69.9648Z" fill="#0D192E"/>
<g filter="url(#filter1_d_1_375)">
<path d="M410.401 23.3378C410.266 23.1691 410.126 23.0031 409.983 22.84C407.688 20.234 404.522 18.554 401.077 18.1147C397.633 17.6754 394.146 18.507 391.271 20.4537L395.387 26.5341C396.783 25.589 398.476 25.1853 400.148 25.3985C401.821 25.6118 403.358 26.4275 404.472 27.6927C404.722 27.9763 404.946 28.2781 405.144 28.5947L401.501 32.2385H413.61V20.1292L410.401 23.3378Z" fill="#1C3AA9"/>
</g>
<g filter="url(#filter2_d_1_375)">
<path d="M399.238 18.0006H387.129L390.301 21.1724C387.931 23.0879 386.227 25.72 385.457 28.6903C384.585 32.0516 384.969 35.6152 386.536 38.7138L393.089 35.3996C392.328 33.8953 392.142 32.1651 392.565 30.5333C392.988 28.9014 393.991 27.4797 395.387 26.5346C395.442 26.4974 395.498 26.4609 395.554 26.4253L399.238 30.1099V18.0006Z" fill="#4285F4"/>
</g>
<g filter="url(#filter3_d_1_375)">
<path d="M385 32.3716H397.109L393.451 36.0302C394.227 37.2318 395.359 38.1693 396.698 38.705C398.263 39.3312 400.003 39.3652 401.592 38.8007C403.18 38.2363 404.509 37.112 405.328 35.6385L410.624 40.9213C408.954 43.1132 406.674 44.7873 404.05 45.7197C400.778 46.8824 397.195 46.8123 393.971 45.5225C391.703 44.6153 389.722 43.1482 388.202 41.2793L385 44.4809V32.3716Z" fill="#ABABAB"/>
</g>
<path d="M60.5635 47H59.251V37.0469H60.5635V47Z" fill="#0D192E"/>
<path d="M62.8604 39.8496L62.1426 39.3574C62.5664 38.765 62.7852 38.1406 62.7988 37.4844V36.5H64.0498V37.3887C64.0452 37.8444 63.9313 38.3001 63.708 38.7559C63.4893 39.207 63.2067 39.5716 62.8604 39.8496Z" fill="#0D192E"/>
<path d="M66.627 39.6035L66.6611 40.4238C67.2035 39.7858 67.9349 39.4668 68.8555 39.4668C69.89 39.4668 70.5941 39.8633 70.9678 40.6562C71.2139 40.3008 71.5329 40.0137 71.9248 39.7949C72.3213 39.5762 72.7884 39.4668 73.3262 39.4668C74.9486 39.4668 75.7734 40.3258 75.8008 42.0439V47H74.5361V42.1191C74.5361 41.5905 74.4154 41.1963 74.1738 40.9365C73.9323 40.6722 73.5267 40.54 72.957 40.54C72.4876 40.54 72.098 40.6813 71.7881 40.9639C71.4782 41.2419 71.2982 41.6178 71.248 42.0918V47H69.9766V42.1533C69.9766 41.0778 69.4502 40.54 68.3975 40.54C67.568 40.54 67.0007 40.8932 66.6953 41.5996V47H65.4307V39.6035H66.627Z" fill="#0D192E"/>
<path d="M82.3838 39.6035L82.4248 40.5332C82.9899 39.8223 83.7282 39.4668 84.6396 39.4668C86.2028 39.4668 86.9912 40.3486 87.0049 42.1123V47H85.7402V42.1055C85.7357 41.5723 85.6126 41.1781 85.3711 40.9229C85.1341 40.6676 84.7627 40.54 84.2568 40.54C83.8467 40.54 83.4867 40.6494 83.1768 40.8682C82.8669 41.0869 82.6253 41.374 82.4521 41.7295V47H81.1875V39.6035H82.3838Z" fill="#0D192E"/>
<path d="M88.5771 43.2334C88.5771 42.5088 88.7184 41.8571 89.001 41.2783C89.2881 40.6995 89.6846 40.2529 90.1904 39.9385C90.7008 39.624 91.2819 39.4668 91.9336 39.4668C92.9408 39.4668 93.7542 39.8154 94.374 40.5127C94.9984 41.21 95.3105 42.1374 95.3105 43.2949V43.3838C95.3105 44.1038 95.1716 44.751 94.8936 45.3252C94.6201 45.8949 94.2259 46.3392 93.7109 46.6582C93.2005 46.9772 92.6126 47.1367 91.9473 47.1367C90.9447 47.1367 90.1312 46.7881 89.5068 46.0908C88.887 45.3936 88.5771 44.4707 88.5771 43.3223V43.2334ZM89.8486 43.3838C89.8486 44.2041 90.0378 44.8626 90.416 45.3594C90.7988 45.8561 91.3092 46.1045 91.9473 46.1045C92.5898 46.1045 93.1003 45.8538 93.4785 45.3525C93.8568 44.8467 94.0459 44.1403 94.0459 43.2334C94.0459 42.4222 93.8522 41.766 93.4648 41.2646C93.082 40.7588 92.5716 40.5059 91.9336 40.5059C91.3092 40.5059 90.8057 40.7542 90.4229 41.251C90.04 41.7477 89.8486 42.4587 89.8486 43.3838Z" fill="#0D192E"/>
<path d="M98.6123 37.8125V39.6035H99.9932V40.5811H98.6123V45.168C98.6123 45.4642 98.6738 45.6875 98.7969 45.8379C98.9199 45.9837 99.1296 46.0566 99.4258 46.0566C99.5716 46.0566 99.7721 46.0293 100.027 45.9746V47C99.6947 47.0911 99.3711 47.1367 99.0566 47.1367C98.4915 47.1367 98.0654 46.9658 97.7783 46.624C97.4912 46.2822 97.3477 45.7969 97.3477 45.168V40.5811H96.001V39.6035H97.3477V37.8125H98.6123Z" fill="#0D192E"/>
<path d="M109.516 47C109.443 46.8542 109.383 46.5944 109.338 46.2207C108.75 46.8314 108.048 47.1367 107.232 47.1367C106.503 47.1367 105.904 46.9316 105.435 46.5215C104.97 46.1068 104.737 45.5827 104.737 44.9492C104.737 44.179 105.029 43.582 105.612 43.1582C106.2 42.7298 107.025 42.5156 108.087 42.5156H109.317V41.9346C109.317 41.4925 109.185 41.1416 108.921 40.8818C108.657 40.6175 108.267 40.4854 107.752 40.4854C107.301 40.4854 106.923 40.5993 106.617 40.8271C106.312 41.055 106.159 41.3307 106.159 41.6543H104.888C104.888 41.2852 105.018 40.9297 105.277 40.5879C105.542 40.2415 105.897 39.9681 106.344 39.7676C106.795 39.5671 107.289 39.4668 107.827 39.4668C108.679 39.4668 109.347 39.681 109.83 40.1094C110.313 40.5332 110.564 41.1188 110.582 41.8662V45.2705C110.582 45.9495 110.669 46.4896 110.842 46.8906V47H109.516ZM107.417 46.0361C107.813 46.0361 108.189 45.9336 108.545 45.7285C108.9 45.5234 109.158 45.2568 109.317 44.9287V43.4111H108.326C106.777 43.4111 106.002 43.8646 106.002 44.7715C106.002 45.168 106.134 45.4779 106.398 45.7012C106.663 45.9245 107.002 46.0361 107.417 46.0361Z" fill="#0D192E"/>
<path d="M119.612 40.7383C119.421 40.7064 119.214 40.6904 118.99 40.6904C118.161 40.6904 117.598 41.0436 117.302 41.75V47H116.037V39.6035H117.268L117.288 40.458C117.703 39.7972 118.291 39.4668 119.052 39.4668C119.298 39.4668 119.485 39.4987 119.612 39.5625V40.7383Z" fill="#0D192E"/>
<path d="M120.31 43.2334C120.31 42.5088 120.451 41.8571 120.733 41.2783C121.021 40.6995 121.417 40.2529 121.923 39.9385C122.433 39.624 123.014 39.4668 123.666 39.4668C124.673 39.4668 125.487 39.8154 126.106 40.5127C126.731 41.21 127.043 42.1374 127.043 43.2949V43.3838C127.043 44.1038 126.904 44.751 126.626 45.3252C126.353 45.8949 125.958 46.3392 125.443 46.6582C124.933 46.9772 124.345 47.1367 123.68 47.1367C122.677 47.1367 121.864 46.7881 121.239 46.0908C120.619 45.3936 120.31 44.4707 120.31 43.3223V43.2334ZM121.581 43.3838C121.581 44.2041 121.77 44.8626 122.148 45.3594C122.531 45.8561 123.042 46.1045 123.68 46.1045C124.322 46.1045 124.833 45.8538 125.211 45.3525C125.589 44.8467 125.778 44.1403 125.778 43.2334C125.778 42.4222 125.585 41.766 125.197 41.2646C124.814 40.7588 124.304 40.5059 123.666 40.5059C123.042 40.5059 122.538 40.7542 122.155 41.251C121.772 41.7477 121.581 42.4587 121.581 43.3838Z" fill="#0D192E"/>
<path d="M134.891 43.3838C134.891 44.514 134.631 45.4232 134.111 46.1113C133.592 46.7949 132.895 47.1367 132.02 47.1367C131.085 47.1367 130.363 46.8063 129.853 46.1455L129.791 47H128.629V36.5H129.894V40.417C130.404 39.7835 131.108 39.4668 132.006 39.4668C132.904 39.4668 133.608 39.8063 134.118 40.4854C134.633 41.1644 134.891 42.0941 134.891 43.2744V43.3838ZM133.626 43.2402C133.626 42.3789 133.46 41.7135 133.127 41.2441C132.794 40.7747 132.316 40.54 131.691 40.54C130.857 40.54 130.258 40.9274 129.894 41.7021V44.9014C130.281 45.6761 130.885 46.0635 131.705 46.0635C132.311 46.0635 132.783 45.8288 133.12 45.3594C133.457 44.89 133.626 44.1836 133.626 43.2402Z" fill="#0D192E"/>
<path d="M136.155 43.2334C136.155 42.5088 136.297 41.8571 136.579 41.2783C136.866 40.6995 137.263 40.2529 137.769 39.9385C138.279 39.624 138.86 39.4668 139.512 39.4668C140.519 39.4668 141.332 39.8154 141.952 40.5127C142.576 41.21 142.889 42.1374 142.889 43.2949V43.3838C142.889 44.1038 142.75 44.751 142.472 45.3252C142.198 45.8949 141.804 46.3392 141.289 46.6582C140.779 46.9772 140.191 47.1367 139.525 47.1367C138.523 47.1367 137.709 46.7881 137.085 46.0908C136.465 45.3936 136.155 44.4707 136.155 43.3223V43.2334ZM137.427 43.3838C137.427 44.2041 137.616 44.8626 137.994 45.3594C138.377 45.8561 138.887 46.1045 139.525 46.1045C140.168 46.1045 140.678 45.8538 141.057 45.3525C141.435 44.8467 141.624 44.1403 141.624 43.2334C141.624 42.4222 141.43 41.766 141.043 41.2646C140.66 40.7588 140.15 40.5059 139.512 40.5059C138.887 40.5059 138.384 40.7542 138.001 41.251C137.618 41.7477 137.427 42.4587 137.427 43.3838Z" fill="#0D192E"/>
<path d="M146.19 37.8125V39.6035H147.571V40.5811H146.19V45.168C146.19 45.4642 146.252 45.6875 146.375 45.8379C146.498 45.9837 146.708 46.0566 147.004 46.0566C147.15 46.0566 147.35 46.0293 147.605 45.9746V47C147.273 47.0911 146.949 47.1367 146.635 47.1367C146.07 47.1367 145.644 46.9658 145.356 46.624C145.069 46.2822 144.926 45.7969 144.926 45.168V40.5811H143.579V39.6035H144.926V37.8125H146.19Z" fill="#0D192E"/>
<path fill-rule="evenodd" clip-rule="evenodd" d="M43.9259 30H20.0741C20.0332 30 20 30.0332 20 30.0741V53.9259C20 53.9668 20.0332 54 20.0741 54H43.9259C43.9668 54 44 53.9668 44 53.9259V30.0741C44 30.0332 43.9668 30 43.9259 30ZM43.9259 28H20.0741C18.9286 28 18 28.9286 18 30.0741V53.9259C18 55.0714 18.9286 56 20.0741 56H43.9259C45.0714 56 46 55.0714 46 53.9259V30.0741C46 28.9286 45.0714 28 43.9259 28Z" fill="#C1C1C1"/>
<rect x="20" y="30" width="24" height="24" fill="white"/>
<defs>
<filter id="filter0_d_1_375" x="0" y="0" width="444" height="86" filterUnits="userSpaceOnUse" color-interpolation-filters="sRGB">
<feFlood flood-opacity="0" result="BackgroundImageFix"/>
<feColorMatrix in="SourceAlpha" type="matrix" values="0 0 0 0 0 0 0 0 0 0 0 0 0 0 0 0 0 0 127 0" result="hardAlpha"/>
<feMorphology radius="1" operator="dilate" in="SourceAlpha" result="effect1_dropShadow_1_375"/>
<feOffset/>
<feGaussianBlur stdDeviation="2"/>
<feColorMatrix type="matrix" values="0 0 0 0 0 0 0 0 0 0 0 0 0 0 0 0 0 0 0.08 0"/>
<feBlend mode="normal" in2="BackgroundImageFix" result="effect1_dropShadow_1_375"/>
<feBlend mode="normal" in="SourceGraphic" in2="effect1_dropShadow_1_375" result="shape"/>
</filter>
<filter id="filter1_d_1_375" x="390.271" y="17" width="24.3391" height="16.2385" filterUnits="userSpaceOnUse" color-interpolation-filters="sRGB">
<feFlood flood-opacity="0" result="BackgroundImageFix"/>
<feColorMatrix in="SourceAlpha" type="matrix" values="0 0 0 0 0 0 0 0 0 0 0 0 0 0 0 0 0 0 127 0" result="hardAlpha"/>
<feOffset/>
<feGaussianBlur stdDeviation="0.5"/>
<feColorMatrix type="matrix" values="0 0 0 0 0 0 0 0 0 0 0 0 0 0 0 0 0 0 0.38 0"/>
<feBlend mode="normal" in2="BackgroundImageFix" result="effect1_dropShadow_1_375"/>
<feBlend mode="normal" in="SourceGraphic" in2="effect1_dropShadow_1_375" result="shape"/>
</filter>
<filter id="filter2_d_1_375" x="384" y="17.0006" width="16.2385" height="22.7132" filterUnits="userSpaceOnUse" color-interpolation-filters="sRGB">
<feFlood flood-opacity="0" result="BackgroundImageFix"/>
<feColorMatrix in="SourceAlpha" type="matrix" values="0 0 0 0 0 0 0 0 0 0 0 0 0 0 0 0 0 0 127 0" result="hardAlpha"/>
<feOffset/>
<feGaussianBlur stdDeviation="0.5"/>
<feColorMatrix type="matrix" values="0 0 0 0 0 0 0 0 0 0 0 0 0 0 0 0 0 0 0.38 0"/>
<feBlend mode="normal" in2="BackgroundImageFix" result="effect1_dropShadow_1_375"/>
<feBlend mode="normal" in="SourceGraphic" in2="effect1_dropShadow_1_375" result="shape"/>
</filter>
<filter id="filter3_d_1_375" x="384" y="31.3716" width="27.6238" height="16.1719" filterUnits="userSpaceOnUse" color-interpolation-filters="sRGB">
<feFlood flood-opacity="0" result="BackgroundImageFix"/>
<feColorMatrix in="SourceAlpha" type="matrix" values="0 0 0 0 0 0 0 0 0 0 0 0 0 0 0 0 0 0 127 0" result="hardAlpha"/>
<feOffset/>
<feGaussianBlur stdDeviation="0.5"/>
<feColorMatrix type="matrix" values="0 0 0 0 0 0 0 0 0 0 0 0 0 0 0 0 0 0 0.38 0"/>
<feBlend mode="normal" in2="BackgroundImageFix" result="effect1_dropShadow_1_375"/>
<feBlend mode="normal" in="SourceGraphic" in2="effect1_dropShadow_1_375" result="shape"/>
</filter>
</defs>
</svg>
