<svg width="15" height="17" viewBox="0 0 15 17" fill="none" xmlns="http://www.w3.org/2000/svg">
<path d="M0.607143 17C0.446119 17 0.29169 16.936 0.177828 16.8222C0.0639668 16.7083 0 16.5539 0 16.3929C0 16.2318 0.0639668 16.0774 0.177828 15.9635C0.29169 15.8497 0.446119 15.7857 0.607143 15.7857H1.82143V14.5714C1.82118 13.5405 2.1126 12.5305 2.66202 11.6581C3.21144 10.7857 3.99645 10.0866 4.92636 9.64143C5.2785 9.47264 5.46429 9.18364 5.46429 8.925V8.075C5.46429 7.81636 5.27729 7.52736 4.92636 7.35857C3.99645 6.91342 3.21144 6.21428 2.66202 5.34191C2.1126 4.46954 1.82118 3.45954 1.82143 2.42857V1.21429H0.607143C0.446119 1.21429 0.29169 1.15032 0.177828 1.03646C0.0639668 0.922596 0 0.768167 0 0.607143C0 0.446119 0.0639668 0.291689 0.177828 0.177828C0.29169 0.0639666 0.446119 0 0.607143 0H13.9643C14.1253 0 14.2797 0.0639666 14.3936 0.177828C14.5075 0.291689 14.5714 0.446119 14.5714 0.607143C14.5714 0.768167 14.5075 0.922596 14.3936 1.03646C14.2797 1.15032 14.1253 1.21429 13.9643 1.21429H12.75V2.42857C12.7502 3.45954 12.4588 4.46954 11.9094 5.34191C11.36 6.21428 10.575 6.91342 9.64507 7.35857C9.29293 7.52736 9.10714 7.81636 9.10714 8.075V8.925C9.10714 9.18364 9.29414 9.47264 9.64507 9.64143C10.575 10.0866 11.36 10.7857 11.9094 11.6581C12.4588 12.5305 12.7502 13.5405 12.75 14.5714V15.7857H13.9643C14.1253 15.7857 14.2797 15.8497 14.3936 15.9635C14.5075 16.0774 14.5714 16.2318 14.5714 16.3929C14.5714 16.5539 14.5075 16.7083 14.3936 16.8222C14.2797 16.936 14.1253 17 13.9643 17H0.607143ZM3.03571 1.21429V2.42857C3.03571 3.08064 3.18143 3.6975 3.44493 4.25H11.1265C11.3888 3.6975 11.5357 3.08064 11.5357 2.42857V1.21429H3.03571ZM6.67857 8.925C6.67857 9.77621 6.09814 10.4259 5.45093 10.7367C4.72757 11.0829 4.11693 11.6267 3.68955 12.3053C3.26217 12.9839 3.03549 13.7695 3.03571 14.5714C3.03571 14.5714 4.08729 12.9941 6.67857 12.7743V8.925ZM7.89286 8.925V12.7743C10.4841 12.9941 11.5357 14.5714 11.5357 14.5714C11.5359 13.7695 11.3093 12.9839 10.8819 12.3053C10.4545 11.6267 9.84386 11.0829 9.1205 10.7367C8.47329 10.4259 7.89286 9.77743 7.89286 8.92621V8.925Z" fill="#9F9898"/>
</svg>
