<svg width="275" height="245" viewBox="0 0 275 245" fill="none" xmlns="http://www.w3.org/2000/svg">
<path d="M23.8239 8.90909C23.8239 9.98295 23.63 10.911 23.2422 11.6932C22.8544 12.4754 22.3224 13.0786 21.6463 13.5028C20.9702 13.9271 20.1979 14.1392 19.3295 14.1392C18.4612 14.1392 17.6889 13.9271 17.0128 13.5028C16.3366 13.0786 15.8047 12.4754 15.4169 11.6932C15.0291 10.911 14.8352 9.98295 14.8352 8.90909C14.8352 7.83523 15.0291 6.9072 15.4169 6.125C15.8047 5.3428 16.3366 4.73958 17.0128 4.31534C17.6889 3.8911 18.4612 3.67898 19.3295 3.67898C20.1979 3.67898 20.9702 3.8911 21.6463 4.31534C22.3224 4.73958 22.8544 5.3428 23.2422 6.125C23.63 6.9072 23.8239 7.83523 23.8239 8.90909ZM22.6307 8.90909C22.6307 8.02746 22.4832 7.28338 22.1882 6.67685C21.8965 6.07031 21.5005 5.61127 21 5.29972C20.5028 4.98816 19.946 4.83239 19.3295 4.83239C18.7131 4.83239 18.1546 4.98816 17.6541 5.29972C17.157 5.61127 16.7609 6.07031 16.4659 6.67685C16.1742 7.28338 16.0284 8.02746 16.0284 8.90909C16.0284 9.79072 16.1742 10.5348 16.4659 11.1413C16.7609 11.7479 17.157 12.2069 17.6541 12.5185C18.1546 12.83 18.7131 12.9858 19.3295 12.9858C19.946 12.9858 20.5028 12.83 21 12.5185C21.5005 12.2069 21.8965 11.7479 22.1882 11.1413C22.4832 10.5348 22.6307 9.79072 22.6307 8.90909ZM28.8402 14.1591C28.1243 14.1591 27.5078 13.9901 26.9908 13.652C26.4737 13.3139 26.076 12.8482 25.7976 12.255C25.5192 11.6617 25.38 10.9839 25.38 10.2216C25.38 9.44602 25.5225 8.7616 25.8075 8.16832C26.0959 7.57173 26.4969 7.10606 27.0107 6.77131C27.5277 6.43324 28.1309 6.2642 28.8203 6.2642C29.3572 6.2642 29.8411 6.36364 30.272 6.5625C30.7029 6.76136 31.0559 7.03977 31.331 7.39773C31.6061 7.75568 31.7768 8.1733 31.843 8.65057H30.6697C30.5803 8.30256 30.3814 7.99432 30.0732 7.72585C29.7682 7.45407 29.3572 7.31818 28.8402 7.31818C28.3828 7.31818 27.9818 7.4375 27.6371 7.67614C27.2957 7.91146 27.0289 8.24455 26.8366 8.67543C26.6477 9.10298 26.5533 9.60511 26.5533 10.1818C26.5533 10.7718 26.6461 11.2855 26.8317 11.723C27.0206 12.1605 27.2857 12.5002 27.6271 12.7422C27.9718 12.9841 28.3762 13.1051 28.8402 13.1051C29.1451 13.1051 29.4219 13.0521 29.6705 12.946C29.919 12.84 30.1295 12.6875 30.3018 12.4886C30.4742 12.2898 30.5968 12.0511 30.6697 11.7727H31.843C31.7768 12.2235 31.6127 12.6295 31.3509 12.9908C31.0923 13.3487 30.7493 13.6338 30.3217 13.8459C29.8975 14.0547 29.4036 14.1591 28.8402 14.1591ZM36.8793 6.36364V7.35795H32.9219V6.36364H36.8793ZM34.0753 4.53409H35.2486V11.8125C35.2486 12.1439 35.2966 12.3925 35.3928 12.5582C35.4922 12.7206 35.6181 12.83 35.7706 12.8864C35.9264 12.9394 36.0904 12.9659 36.2628 12.9659C36.392 12.9659 36.4981 12.9593 36.581 12.946C36.6638 12.9295 36.7301 12.9162 36.7798 12.9062L37.0185 13.9602C36.9389 13.9901 36.8279 14.0199 36.6854 14.0497C36.5429 14.0829 36.3622 14.0994 36.1435 14.0994C35.812 14.0994 35.4872 14.0282 35.169 13.8857C34.8542 13.7431 34.5923 13.526 34.3835 13.2344C34.178 12.9427 34.0753 12.5748 34.0753 12.1307V4.53409ZM41.6644 14.1591C40.975 14.1591 40.3701 13.995 39.8498 13.6669C39.3327 13.3388 38.9284 12.8797 38.6367 12.2898C38.3484 11.6998 38.2042 11.0104 38.2042 10.2216C38.2042 9.42614 38.3484 8.73177 38.6367 8.13849C38.9284 7.54522 39.3327 7.08452 39.8498 6.75639C40.3701 6.42827 40.975 6.2642 41.6644 6.2642C42.3538 6.2642 42.957 6.42827 43.4741 6.75639C43.9944 7.08452 44.3988 7.54522 44.6871 8.13849C44.9788 8.73177 45.1246 9.42614 45.1246 10.2216C45.1246 11.0104 44.9788 11.6998 44.6871 12.2898C44.3988 12.8797 43.9944 13.3388 43.4741 13.6669C42.957 13.995 42.3538 14.1591 41.6644 14.1591ZM41.6644 13.1051C42.1881 13.1051 42.619 12.9709 42.957 12.7024C43.2951 12.4339 43.5453 12.081 43.7077 11.6435C43.8701 11.206 43.9513 10.732 43.9513 10.2216C43.9513 9.71117 43.8701 9.23556 43.7077 8.79474C43.5453 8.35393 43.2951 7.99763 42.957 7.72585C42.619 7.45407 42.1881 7.31818 41.6644 7.31818C41.1407 7.31818 40.7099 7.45407 40.3718 7.72585C40.0337 7.99763 39.7835 8.35393 39.6211 8.79474C39.4587 9.23556 39.3775 9.71117 39.3775 10.2216C39.3775 10.732 39.4587 11.206 39.6211 11.6435C39.7835 12.081 40.0337 12.4339 40.3718 12.7024C40.7099 12.9709 41.1407 13.1051 41.6644 13.1051ZM47.0748 14V3.81818H48.248V7.5767H48.3475C48.4337 7.44413 48.553 7.27509 48.7054 7.0696C48.8612 6.8608 49.0833 6.67519 49.3716 6.51278C49.6633 6.34706 50.0577 6.2642 50.5549 6.2642C51.1979 6.2642 51.7646 6.42495 52.2551 6.74645C52.7457 7.06794 53.1285 7.52367 53.4036 8.11364C53.6787 8.7036 53.8162 9.39962 53.8162 10.2017C53.8162 11.0104 53.6787 11.7114 53.4036 12.3047C53.1285 12.8946 52.7473 13.352 52.2601 13.6768C51.7729 13.9983 51.2111 14.1591 50.5748 14.1591C50.0842 14.1591 49.6915 14.0779 49.3965 13.9155C49.1015 13.7498 48.8745 13.5625 48.7154 13.3537C48.5563 13.1416 48.4337 12.9659 48.3475 12.8267H48.2083V14H47.0748ZM48.2282 10.1818C48.2282 10.7585 48.3127 11.2673 48.4817 11.7081C48.6507 12.1456 48.8977 12.4886 49.2225 12.7372C49.5473 12.9825 49.945 13.1051 50.4157 13.1051C50.9062 13.1051 51.3155 12.9759 51.6436 12.7173C51.9751 12.4555 52.2237 12.1042 52.3894 11.6634C52.5584 11.2192 52.6429 10.7254 52.6429 10.1818C52.6429 9.64489 52.5601 9.16098 52.3944 8.73011C52.2319 8.29593 51.985 7.95289 51.6536 7.70099C51.3255 7.44579 50.9128 7.31818 50.4157 7.31818C49.9384 7.31818 49.5373 7.43916 49.2125 7.68111C48.8877 7.91974 48.6425 8.2545 48.4767 8.68537C48.311 9.11293 48.2282 9.61174 48.2282 10.1818ZM58.8127 14.1591C58.0769 14.1591 57.4422 13.9967 56.9086 13.6719C56.3783 13.3438 55.9689 12.8864 55.6806 12.2997C55.3955 11.7098 55.253 11.0237 55.253 10.2415C55.253 9.45928 55.3955 8.76989 55.6806 8.1733C55.9689 7.57339 56.37 7.10606 56.8837 6.77131C57.4007 6.43324 58.004 6.2642 58.6934 6.2642C59.0911 6.2642 59.4838 6.33049 59.8716 6.46307C60.2594 6.59564 60.6124 6.81108 60.9306 7.10938C61.2488 7.40436 61.5023 7.79545 61.6912 8.28267C61.8801 8.76989 61.9746 9.36979 61.9746 10.0824V10.5795H56.0882V9.56534H60.7814C60.7814 9.13447 60.6953 8.75 60.5229 8.41193C60.3539 8.07386 60.1119 7.80705 59.7971 7.61151C59.4855 7.41596 59.1176 7.31818 58.6934 7.31818C58.226 7.31818 57.8217 7.43419 57.4803 7.66619C57.1422 7.89489 56.882 8.19318 56.6998 8.56108C56.5175 8.92898 56.4263 9.32339 56.4263 9.74432V10.4205C56.4263 10.9972 56.5257 11.486 56.7246 11.8871C56.9268 12.2848 57.2069 12.5881 57.5648 12.7969C57.9228 13.0024 58.3387 13.1051 58.8127 13.1051C59.1209 13.1051 59.3993 13.062 59.6479 12.9759C59.8998 12.8864 60.1169 12.7538 60.2992 12.5781C60.4815 12.3991 60.6223 12.1771 60.7218 11.9119L61.8553 12.2301C61.736 12.6146 61.5355 12.9527 61.2537 13.2443C60.972 13.5327 60.624 13.758 60.2097 13.9205C59.7954 14.0795 59.3297 14.1591 58.8127 14.1591ZM63.7594 14V6.36364H64.8929V7.51705H64.9725C65.1117 7.1392 65.3636 6.83262 65.7282 6.5973C66.0927 6.36198 66.5037 6.24432 66.9611 6.24432C67.0473 6.24432 67.155 6.24597 67.2843 6.24929C67.4135 6.2526 67.5113 6.25758 67.5776 6.2642V7.45739C67.5378 7.44744 67.4467 7.43253 67.3042 7.41264C67.165 7.38944 67.0175 7.37784 66.8617 7.37784C66.4905 7.37784 66.159 7.45573 65.8674 7.61151C65.579 7.76397 65.3503 7.97609 65.1813 8.24787C65.0156 8.51634 64.9327 8.82292 64.9327 9.16761V14H63.7594ZM72.886 14V13.1051L76.2468 9.42614C76.6412 8.99526 76.966 8.62074 77.2212 8.30256C77.4764 7.98106 77.6654 7.67945 77.788 7.39773C77.9139 7.11269 77.9769 6.81439 77.9769 6.50284C77.9769 6.14489 77.8907 5.83499 77.7184 5.57315C77.5494 5.31132 77.3174 5.10914 77.0224 4.96662C76.7274 4.8241 76.396 4.75284 76.0281 4.75284C75.637 4.75284 75.2956 4.83404 75.0039 4.99645C74.7156 5.15554 74.4918 5.37926 74.3327 5.66761C74.177 5.95597 74.0991 6.29403 74.0991 6.68182H72.9258C72.9258 6.08523 73.0633 5.56155 73.3384 5.1108C73.6135 4.66004 73.988 4.30871 74.462 4.05682C74.9393 3.80492 75.4746 3.67898 76.0678 3.67898C76.6644 3.67898 77.1931 3.80492 77.6538 4.05682C78.1145 4.30871 78.4757 4.64844 78.7376 5.07599C78.9994 5.50355 79.1303 5.97917 79.1303 6.50284C79.1303 6.87737 79.0624 7.24361 78.9265 7.60156C78.7939 7.9562 78.5619 8.35227 78.2305 8.78977C77.9023 9.22396 77.4466 9.75426 76.8633 10.3807L74.5763 12.8267V12.9062H79.3093V14H72.886ZM84.6836 14.1392C83.9345 14.1392 83.2965 13.9354 82.7695 13.5277C82.2425 13.1167 81.8398 12.5218 81.5614 11.7429C81.283 10.9607 81.1438 10.0161 81.1438 8.90909C81.1438 7.80871 81.283 6.86908 81.5614 6.0902C81.8432 5.308 82.2475 4.71141 82.7745 4.30043C83.3048 3.88613 83.9412 3.67898 84.6836 3.67898C85.426 3.67898 86.0607 3.88613 86.5877 4.30043C87.118 4.71141 87.5224 5.308 87.8008 6.0902C88.0825 6.86908 88.2234 7.80871 88.2234 8.90909C88.2234 10.0161 88.0842 10.9607 87.8058 11.7429C87.5273 12.5218 87.1246 13.1167 86.5977 13.5277C86.0707 13.9354 85.4326 14.1392 84.6836 14.1392ZM84.6836 13.0455C85.426 13.0455 86.0027 12.6875 86.4137 11.9716C86.8247 11.2557 87.0302 10.2348 87.0302 8.90909C87.0302 8.02746 86.9357 7.27675 86.7468 6.65696C86.5612 6.03717 86.2927 5.56487 85.9414 5.24006C85.5934 4.91525 85.1741 4.75284 84.6836 4.75284C83.9478 4.75284 83.3728 5.11577 82.9585 5.84162C82.5442 6.56416 82.337 7.58665 82.337 8.90909C82.337 9.79072 82.4298 10.5398 82.6154 11.1562C82.801 11.7727 83.0678 12.2417 83.4158 12.5632C83.7672 12.8847 84.1897 13.0455 84.6836 13.0455ZM90.1126 14V13.1051L93.4734 9.42614C93.8678 8.99526 94.1926 8.62074 94.4478 8.30256C94.703 7.98106 94.8919 7.67945 95.0146 7.39773C95.1405 7.11269 95.2035 6.81439 95.2035 6.50284C95.2035 6.14489 95.1173 5.83499 94.945 5.57315C94.7759 5.31132 94.5439 5.10914 94.2489 4.96662C93.954 4.8241 93.6225 4.75284 93.2546 4.75284C92.8635 4.75284 92.5221 4.83404 92.2305 4.99645C91.9421 5.15554 91.7184 5.37926 91.5593 5.66761C91.4035 5.95597 91.3256 6.29403 91.3256 6.68182H90.1523C90.1523 6.08523 90.2899 5.56155 90.565 5.1108C90.8401 4.66004 91.2146 4.30871 91.6886 4.05682C92.1658 3.80492 92.7011 3.67898 93.2944 3.67898C93.891 3.67898 94.4196 3.80492 94.8803 4.05682C95.341 4.30871 95.7023 4.64844 95.9641 5.07599C96.226 5.50355 96.3569 5.97917 96.3569 6.50284C96.3569 6.87737 96.2889 7.24361 96.1531 7.60156C96.0205 7.9562 95.7885 8.35227 95.457 8.78977C95.1289 9.22396 94.6732 9.75426 94.0898 10.3807L91.8029 12.8267V12.9062H96.5359V14H90.1126ZM98.5891 14V13.1051L101.95 9.42614C102.344 8.99526 102.669 8.62074 102.924 8.30256C103.18 7.98106 103.368 7.67945 103.491 7.39773C103.617 7.11269 103.68 6.81439 103.68 6.50284C103.68 6.14489 103.594 5.83499 103.422 5.57315C103.252 5.31132 103.02 5.10914 102.725 4.96662C102.431 4.8241 102.099 4.75284 101.731 4.75284C101.34 4.75284 100.999 4.83404 100.707 4.99645C100.419 5.15554 100.195 5.37926 100.036 5.66761C99.8801 5.95597 99.8022 6.29403 99.8022 6.68182H98.6289C98.6289 6.08523 98.7665 5.56155 99.0415 5.1108C99.3166 4.66004 99.6912 4.30871 100.165 4.05682C100.642 3.80492 101.178 3.67898 101.771 3.67898C102.368 3.67898 102.896 3.80492 103.357 4.05682C103.818 4.30871 104.179 4.64844 104.441 5.07599C104.703 5.50355 104.833 5.97917 104.833 6.50284C104.833 6.87737 104.766 7.24361 104.63 7.60156C104.497 7.9562 104.265 8.35227 103.934 8.78977C103.605 9.22396 103.15 9.75426 102.566 10.3807L100.279 12.8267V12.9062H105.012V14H98.5891Z" fill="black"/>
<path d="M23.4922 72.03V83H22.1638V73.4227H22.0995L19.4213 75.201V73.8512L22.1638 72.03H23.4922Z" fill="black"/>
<path d="M10.424 41.2003H11.6132L14.4092 48.0297H14.5056L17.3017 41.2003H18.4908V49.4277H17.5588V43.1768H17.4784L14.9074 49.4277H14.0075L11.4364 43.1768H11.356V49.4277H10.424V41.2003ZM22.8667 49.5563C22.3096 49.5563 21.8208 49.4237 21.4004 49.1586C20.9826 48.8934 20.6558 48.5225 20.4201 48.0458C20.1871 47.5691 20.0706 47.012 20.0706 46.3746C20.0706 45.7318 20.1871 45.1707 20.4201 44.6913C20.6558 44.2119 20.9826 43.8396 21.4004 43.5745C21.8208 43.3094 22.3096 43.1768 22.8667 43.1768C23.4237 43.1768 23.9112 43.3094 24.329 43.5745C24.7495 43.8396 25.0762 44.2119 25.3092 44.6913C25.5449 45.1707 25.6627 45.7318 25.6627 46.3746C25.6627 47.012 25.5449 47.5691 25.3092 48.0458C25.0762 48.5225 24.7495 48.8934 24.329 49.1586C23.9112 49.4237 23.4237 49.5563 22.8667 49.5563ZM22.8667 48.7046C23.2898 48.7046 23.638 48.5961 23.9112 48.3792C24.1844 48.1623 24.3866 47.877 24.5178 47.5235C24.649 47.17 24.7146 46.787 24.7146 46.3746C24.7146 45.9621 24.649 45.5778 24.5178 45.2216C24.3866 44.8654 24.1844 44.5775 23.9112 44.3579C23.638 44.1383 23.2898 44.0285 22.8667 44.0285C22.4435 44.0285 22.0954 44.1383 21.8222 44.3579C21.549 44.5775 21.3468 44.8654 21.2156 45.2216C21.0843 45.5778 21.0187 45.9621 21.0187 46.3746C21.0187 46.787 21.0843 47.17 21.2156 47.5235C21.3468 47.877 21.549 48.1623 21.8222 48.3792C22.0954 48.5961 22.4435 48.7046 22.8667 48.7046ZM28.0581 45.7157V49.4277H27.11V43.2571H28.0259V44.2213H28.1063C28.2509 43.9079 28.4705 43.6562 28.7651 43.466C29.0597 43.2732 29.44 43.1768 29.906 43.1768C30.3238 43.1768 30.6894 43.2625 31.0028 43.4339C31.3161 43.6026 31.5598 43.8597 31.7339 44.2052C31.908 44.548 31.995 44.9819 31.995 45.5068V49.4277H31.0469V45.5711C31.0469 45.0863 30.9211 44.7087 30.6693 44.4382C30.4176 44.165 30.0721 44.0285 29.6328 44.0285C29.3302 44.0285 29.0597 44.0941 28.8213 44.2253C28.5857 44.3565 28.3995 44.548 28.2629 44.7998C28.1264 45.0515 28.0581 45.3568 28.0581 45.7157Z" fill="black"/>
<path d="M48.6255 42.0841V41.2003H54.7961V42.0841H52.2089V49.4277H51.2126V42.0841H48.6255ZM59.2543 46.9049V43.2571H60.2024V49.4277H59.2543V48.3832H59.19C59.0454 48.6966 58.8204 48.9631 58.5151 49.1827C58.2098 49.3996 57.8241 49.5081 57.3581 49.5081C56.9724 49.5081 56.6296 49.4237 56.3297 49.255C56.0297 49.0836 55.794 48.8265 55.6226 48.4837C55.4512 48.1382 55.3655 47.703 55.3655 47.178V43.2571H56.3136V47.1138C56.3136 47.5637 56.4395 47.9226 56.6912 48.1904C56.9457 48.4582 57.2697 48.5921 57.6634 48.5921C57.8991 48.5921 58.1388 48.5319 58.3825 48.4114C58.6289 48.2908 58.8351 48.106 59.0012 47.857C59.1699 47.6079 59.2543 47.2905 59.2543 46.9049ZM64.526 49.5563C63.9314 49.5563 63.4186 49.4251 62.9874 49.1626C62.5589 48.8974 62.2281 48.5279 61.9951 48.0538C61.7648 47.5771 61.6496 47.0227 61.6496 46.3906C61.6496 45.7586 61.7648 45.2015 61.9951 44.7194C62.2281 44.2347 62.5522 43.857 62.9673 43.5866C63.3851 43.3134 63.8725 43.1768 64.4296 43.1768C64.751 43.1768 65.0684 43.2303 65.3817 43.3375C65.6951 43.4446 65.9803 43.6187 66.2374 43.8597C66.4945 44.0981 66.6994 44.4141 66.852 44.8078C67.0047 45.2015 67.081 45.6863 67.081 46.2621V46.6638H62.3245V45.8443H66.1169C66.1169 45.4961 66.0472 45.1854 65.908 44.9123C65.7714 44.6391 65.5759 44.4235 65.3214 44.2655C65.0697 44.1075 64.7724 44.0285 64.4296 44.0285C64.052 44.0285 63.7252 44.1222 63.4494 44.3097C63.1762 44.4945 62.966 44.7355 62.8187 45.0328C62.6713 45.3301 62.5977 45.6488 62.5977 45.9889V46.5353C62.5977 47.0013 62.678 47.3963 62.8387 47.7204C63.0021 48.0418 63.2284 48.2868 63.5177 48.4555C63.8069 48.6216 64.143 48.7046 64.526 48.7046C64.7751 48.7046 65.0001 48.6698 65.2009 48.6002C65.4045 48.5279 65.5799 48.4207 65.7272 48.2788C65.8745 48.1342 65.9883 47.9547 66.0687 47.7405L66.9846 47.9976C66.8882 48.3082 66.7262 48.5814 66.4985 48.8171C66.2709 49.0501 65.9897 49.2322 65.6549 49.3635C65.3201 49.492 64.9438 49.5563 64.526 49.5563Z" fill="black"/>
<path d="M89.2222 49.4277L86.9725 41.2003H87.9848L89.7043 47.9012H89.7846L91.5362 41.2003H92.661L94.4126 47.9012H94.4929L96.2123 41.2003H97.2247L94.975 49.4277H93.9466L92.1307 42.8715H92.0664L90.2506 49.4277H89.2222ZM100.35 49.5563C99.7556 49.5563 99.2427 49.4251 98.8115 49.1626C98.383 48.8974 98.0523 48.5279 97.8193 48.0538C97.5889 47.5771 97.4738 47.0227 97.4738 46.3906C97.4738 45.7586 97.5889 45.2015 97.8193 44.7194C98.0523 44.2347 98.3763 43.857 98.7914 43.5866C99.2092 43.3134 99.6967 43.1768 100.254 43.1768C100.575 43.1768 100.893 43.2303 101.206 43.3375C101.519 43.4446 101.804 43.6187 102.062 43.8597C102.319 44.0981 102.524 44.4141 102.676 44.8078C102.829 45.2015 102.905 45.6863 102.905 46.2621V46.6638H98.1487V45.8443H101.941C101.941 45.4961 101.871 45.1854 101.732 44.9123C101.596 44.6391 101.4 44.4235 101.146 44.2655C100.894 44.1075 100.597 44.0285 100.254 44.0285C99.8761 44.0285 99.5494 44.1222 99.2735 44.3097C99.0003 44.4945 98.7901 44.7355 98.6428 45.0328C98.4955 45.3301 98.4218 45.6488 98.4218 45.9889V46.5353C98.4218 47.0013 98.5022 47.3963 98.6629 47.7204C98.8263 48.0418 99.0526 48.2868 99.3418 48.4555C99.6311 48.6216 99.9672 48.7046 100.35 48.7046C100.599 48.7046 100.824 48.6698 101.025 48.6002C101.229 48.5279 101.404 48.4207 101.551 48.2788C101.699 48.1342 101.812 47.9547 101.893 47.7405L102.809 47.9976C102.712 48.3082 102.55 48.5814 102.323 48.8171C102.095 49.0501 101.814 49.2322 101.479 49.3635C101.144 49.492 100.768 49.5563 100.35 49.5563ZM106.677 49.5563C106.163 49.5563 105.709 49.4264 105.316 49.1666C104.922 48.9041 104.614 48.5346 104.392 48.0578C104.169 47.5784 104.058 47.012 104.058 46.3585C104.058 45.7104 104.169 45.1479 104.392 44.6712C104.614 44.1945 104.923 43.8263 105.32 43.5665C105.716 43.3067 106.174 43.1768 106.694 43.1768C107.095 43.1768 107.413 43.2437 107.646 43.3776C107.881 43.5089 108.061 43.6589 108.184 43.8276C108.31 43.9936 108.408 44.1302 108.477 44.2374H108.558V41.2003H109.506V49.4277H108.59V48.4796H108.477C108.408 48.5921 108.308 48.7341 108.18 48.9055C108.051 49.0742 107.868 49.2255 107.63 49.3594C107.391 49.4907 107.074 49.5563 106.677 49.5563ZM106.806 48.7046C107.186 48.7046 107.508 48.6055 107.77 48.4073C108.033 48.2065 108.232 47.9293 108.369 47.5757C108.505 47.2195 108.574 46.8084 108.574 46.3424C108.574 45.8818 108.507 45.4787 108.373 45.1332C108.239 44.7851 108.041 44.5146 107.778 44.3217C107.516 44.1262 107.192 44.0285 106.806 44.0285C106.404 44.0285 106.069 44.1316 105.802 44.3378C105.537 44.5413 105.337 44.8185 105.203 45.1694C105.072 45.5175 105.006 45.9086 105.006 46.3424C105.006 46.7817 105.073 47.1807 105.207 47.5396C105.344 47.8958 105.545 48.1797 105.81 48.3913C106.078 48.6002 106.41 48.7046 106.806 48.7046Z" fill="black"/>
<path d="M125.929 42.0841V41.2003H132.1V42.0841H129.513V49.4277H128.516V42.0841H125.929ZM134.457 45.7157V49.4277H133.509V41.2003H134.457V44.2213H134.537C134.682 43.9026 134.899 43.6495 135.188 43.462C135.48 43.2719 135.868 43.1768 136.353 43.1768C136.774 43.1768 137.142 43.2611 137.458 43.4299C137.774 43.5959 138.019 43.8517 138.193 44.1972C138.37 44.54 138.458 44.9765 138.458 45.5068V49.4277H137.51V45.5711C137.51 45.081 137.383 44.702 137.128 44.4342C136.877 44.1637 136.527 44.0285 136.08 44.0285C135.769 44.0285 135.491 44.0941 135.244 44.2253C135.001 44.3565 134.808 44.548 134.666 44.7998C134.527 45.0515 134.457 45.3568 134.457 45.7157ZM144.081 46.9049V43.2571H145.03V49.4277H144.081V48.3832H144.017C143.873 48.6966 143.648 48.9631 143.342 49.1827C143.037 49.3996 142.651 49.5081 142.185 49.5081C141.8 49.5081 141.457 49.4237 141.157 49.255C140.857 49.0836 140.621 48.8265 140.45 48.4837C140.278 48.1382 140.193 47.703 140.193 47.178V43.2571H141.141V47.1138C141.141 47.5637 141.267 47.9226 141.518 48.1904C141.773 48.4582 142.097 48.5921 142.491 48.5921C142.726 48.5921 142.966 48.5319 143.21 48.4114C143.456 48.2908 143.662 48.106 143.828 47.857C143.997 47.6079 144.081 47.2905 144.081 46.9049Z" fill="black"/>
<path d="M165.032 49.4277V41.2003H169.966V42.0841H166.029V44.8641H169.596V45.7479H166.029V49.4277H165.032ZM171.477 49.4277V43.2571H172.393V44.1891H172.457C172.57 43.8838 172.773 43.6361 173.068 43.4459C173.363 43.2558 173.695 43.1607 174.064 43.1607C174.134 43.1607 174.221 43.1621 174.325 43.1647C174.43 43.1674 174.509 43.1714 174.563 43.1768V44.1409C174.53 44.1329 174.457 44.1209 174.342 44.1048C174.229 44.086 174.11 44.0767 173.984 44.0767C173.684 44.0767 173.416 44.1396 173.181 44.2655C172.948 44.3887 172.763 44.5601 172.626 44.7797C172.492 44.9966 172.425 45.2444 172.425 45.5229V49.4277H171.477ZM175.686 49.4277V43.2571H176.634V49.4277H175.686ZM176.168 42.2287C175.984 42.2287 175.824 42.1658 175.69 42.0399C175.559 41.914 175.494 41.7627 175.494 41.5859C175.494 41.4092 175.559 41.2578 175.69 41.132C175.824 41.0061 175.984 40.9432 176.168 40.9432C176.353 40.9432 176.511 41.0061 176.642 41.132C176.776 41.2578 176.843 41.4092 176.843 41.5859C176.843 41.7627 176.776 41.914 176.642 42.0399C176.511 42.1658 176.353 42.2287 176.168 42.2287Z" fill="black"/>
<path d="M208.182 43.2571C208.134 42.85 207.939 42.534 207.596 42.309C207.253 42.0841 206.832 41.9716 206.334 41.9716C205.97 41.9716 205.651 42.0305 205.378 42.1483C205.108 42.2662 204.896 42.4282 204.743 42.6344C204.593 42.8407 204.518 43.075 204.518 43.3375C204.518 43.5571 204.571 43.7459 204.675 43.9039C204.782 44.0593 204.919 44.1891 205.085 44.2936C205.251 44.3954 205.425 44.4797 205.607 44.5467C205.789 44.611 205.957 44.6632 206.109 44.7034L206.945 44.9283C207.159 44.9846 207.398 45.0622 207.66 45.1613C207.925 45.2604 208.178 45.3957 208.419 45.5671C208.663 45.7358 208.864 45.9528 209.022 46.2179C209.18 46.483 209.259 46.8084 209.259 47.1941C209.259 47.6387 209.142 48.0404 208.909 48.3993C208.679 48.7582 208.342 49.0434 207.897 49.255C207.455 49.4666 206.918 49.5724 206.286 49.5724C205.697 49.5724 205.187 49.4773 204.755 49.2871C204.327 49.097 203.989 48.8318 203.743 48.4917C203.499 48.1516 203.361 47.7565 203.329 47.3066H204.358C204.385 47.6173 204.489 47.8744 204.671 48.0779C204.856 48.2788 205.089 48.4288 205.37 48.5279C205.654 48.6243 205.959 48.6725 206.286 48.6725C206.666 48.6725 207.008 48.6109 207.31 48.4877C207.613 48.3618 207.853 48.1877 208.03 47.9654C208.206 47.7405 208.295 47.478 208.295 47.178C208.295 46.9049 208.218 46.6826 208.066 46.5112C207.913 46.3398 207.712 46.2005 207.463 46.0934C207.214 45.9862 206.945 45.8925 206.656 45.8121L205.643 45.5229C205.001 45.3381 204.492 45.0743 204.117 44.7315C203.742 44.3887 203.554 43.9401 203.554 43.3857C203.554 42.925 203.679 42.5233 203.928 42.1805C204.18 41.835 204.517 41.5672 204.94 41.377C205.366 41.1842 205.841 41.0878 206.366 41.0878C206.897 41.0878 207.368 41.1829 207.78 41.373C208.193 41.5605 208.52 41.8176 208.761 42.1443C209.004 42.4711 209.133 42.842 209.146 43.2571H208.182ZM212.584 49.5724C212.193 49.5724 211.838 49.4987 211.52 49.3514C211.201 49.2014 210.948 48.9858 210.76 48.7046C210.573 48.4207 210.479 48.0779 210.479 47.6762C210.479 47.3227 210.549 47.0361 210.688 46.8165C210.827 46.5942 211.013 46.4201 211.246 46.2942C211.479 46.1683 211.737 46.0746 212.018 46.013C212.302 45.9487 212.587 45.8978 212.873 45.8604C213.248 45.8121 213.552 45.776 213.785 45.7519C214.021 45.7251 214.192 45.6809 214.3 45.6193C214.409 45.5577 214.464 45.4506 214.464 45.2979V45.2658C214.464 44.8694 214.356 44.5614 214.139 44.3418C213.925 44.1222 213.599 44.0124 213.163 44.0124C212.71 44.0124 212.355 44.1115 212.098 44.3097C211.841 44.5079 211.66 44.7194 211.556 44.9444L210.656 44.623C210.817 44.2481 211.031 43.9561 211.299 43.7472C211.569 43.5357 211.864 43.3884 212.182 43.3053C212.504 43.2196 212.82 43.1768 213.131 43.1768C213.329 43.1768 213.556 43.2009 213.813 43.2491C214.073 43.2946 214.324 43.3897 214.565 43.5343C214.808 43.6789 215.011 43.8972 215.171 44.1891C215.332 44.4811 215.412 44.8721 215.412 45.3622V49.4277H214.464V48.5921H214.416C214.352 48.726 214.245 48.8693 214.095 49.022C213.945 49.1746 213.745 49.3045 213.496 49.4117C213.247 49.5188 212.943 49.5724 212.584 49.5724ZM212.729 48.7207C213.104 48.7207 213.42 48.647 213.677 48.4997C213.937 48.3524 214.132 48.1623 214.263 47.9293C214.397 47.6963 214.464 47.4512 214.464 47.1941V46.3264C214.424 46.3746 214.336 46.4188 214.199 46.4589C214.065 46.4964 213.91 46.5299 213.733 46.5594C213.559 46.5861 213.389 46.6103 213.223 46.6317C213.06 46.6504 212.927 46.6665 212.825 46.6799C212.579 46.712 212.349 46.7643 212.134 46.8366C211.923 46.9062 211.751 47.012 211.62 47.1539C211.491 47.2932 211.427 47.4834 211.427 47.7244C211.427 48.0538 211.549 48.3029 211.793 48.4716C212.039 48.6377 212.351 48.7207 212.729 48.7207ZM219.826 43.2571V44.0606H216.629V43.2571H219.826ZM217.561 41.7788H218.509V47.6601C218.509 47.9279 218.548 48.1288 218.625 48.2627C218.706 48.3939 218.807 48.4823 218.931 48.5279C219.056 48.5707 219.189 48.5921 219.328 48.5921C219.433 48.5921 219.518 48.5868 219.585 48.5761C219.652 48.5627 219.706 48.552 219.746 48.5439L219.939 49.3956C219.875 49.4197 219.785 49.4438 219.67 49.4679C219.555 49.4947 219.409 49.5081 219.232 49.5081C218.964 49.5081 218.702 49.4505 218.444 49.3353C218.19 49.2202 217.978 49.0447 217.81 48.8091C217.644 48.5734 217.561 48.2761 217.561 47.9172V41.7788Z" fill="black"/>
<path d="M246.836 43.2571C246.787 42.85 246.592 42.534 246.249 42.309C245.906 42.0841 245.486 41.9716 244.988 41.9716C244.623 41.9716 244.305 42.0305 244.031 42.1483C243.761 42.2662 243.549 42.4282 243.397 42.6344C243.247 42.8407 243.172 43.075 243.172 43.3375C243.172 43.5571 243.224 43.7459 243.328 43.9039C243.436 44.0593 243.572 44.1891 243.738 44.2936C243.904 44.3954 244.078 44.4797 244.26 44.5467C244.443 44.611 244.61 44.6632 244.763 44.7034L245.598 44.9283C245.812 44.9846 246.051 45.0622 246.313 45.1613C246.578 45.2604 246.832 45.3957 247.073 45.5671C247.316 45.7358 247.517 45.9528 247.675 46.2179C247.833 46.483 247.912 46.8084 247.912 47.1941C247.912 47.6387 247.796 48.0404 247.563 48.3993C247.332 48.7582 246.995 49.0434 246.55 49.255C246.108 49.4666 245.571 49.5724 244.939 49.5724C244.35 49.5724 243.84 49.4773 243.409 49.2871C242.98 49.097 242.643 48.8318 242.396 48.4917C242.153 48.1516 242.015 47.7565 241.983 47.3066H243.011C243.038 47.6173 243.142 47.8744 243.324 48.0779C243.509 48.2788 243.742 48.4288 244.023 48.5279C244.307 48.6243 244.613 48.6725 244.939 48.6725C245.32 48.6725 245.661 48.6109 245.964 48.4877C246.266 48.3618 246.506 48.1877 246.683 47.9654C246.86 47.7405 246.948 47.478 246.948 47.178C246.948 46.9049 246.872 46.6826 246.719 46.5112C246.566 46.3398 246.366 46.2005 246.116 46.0934C245.867 45.9862 245.598 45.8925 245.309 45.8121L244.297 45.5229C243.654 45.3381 243.145 45.0743 242.77 44.7315C242.395 44.3887 242.208 43.9401 242.208 43.3857C242.208 42.925 242.332 42.5233 242.581 42.1805C242.833 41.835 243.17 41.5672 243.594 41.377C244.019 41.1842 244.495 41.0878 245.02 41.0878C245.55 41.0878 246.021 41.1829 246.434 41.373C246.846 41.5605 247.173 41.8176 247.414 42.1443C247.658 42.4711 247.786 42.842 247.8 43.2571H246.836ZM253.31 46.9049V43.2571H254.259V49.4277H253.31V48.3832H253.246C253.102 48.6966 252.877 48.9631 252.571 49.1827C252.266 49.3996 251.88 49.5081 251.414 49.5081C251.029 49.5081 250.686 49.4237 250.386 49.255C250.086 49.0836 249.85 48.8265 249.679 48.4837C249.507 48.1382 249.422 47.703 249.422 47.178V43.2571H250.37V47.1138C250.37 47.5637 250.496 47.9226 250.747 48.1904C251.002 48.4582 251.326 48.5921 251.72 48.5921C251.955 48.5921 252.195 48.5319 252.439 48.4114C252.685 48.2908 252.891 48.106 253.057 47.857C253.226 47.6079 253.31 47.2905 253.31 46.9049ZM256.943 45.7157V49.4277H255.995V43.2571H256.911V44.2213H256.991C257.136 43.9079 257.356 43.6562 257.65 43.466C257.945 43.2732 258.325 43.1768 258.791 43.1768C259.209 43.1768 259.574 43.2625 259.888 43.4339C260.201 43.6026 260.445 43.8597 260.619 44.2052C260.793 44.548 260.88 44.9819 260.88 45.5068V49.4277H259.932V45.5711C259.932 45.0863 259.806 44.7087 259.554 44.4382C259.303 44.165 258.957 44.0285 258.518 44.0285C258.215 44.0285 257.945 44.0941 257.706 44.2253C257.471 44.3565 257.285 44.548 257.148 44.7998C257.011 45.0515 256.943 45.3568 256.943 45.7157Z" fill="#FF0000"/>
<path d="M22.0899 119.511C21.3543 119.511 20.7044 119.381 20.1402 119.12C19.5795 118.856 19.1421 118.494 18.8278 118.033C18.5136 117.569 18.3583 117.04 18.3618 116.447C18.3583 115.983 18.4493 115.555 18.635 115.162C18.8207 114.766 19.0742 114.435 19.3956 114.171C19.7206 113.903 20.083 113.734 20.483 113.662V113.598C19.9581 113.462 19.5403 113.168 19.2296 112.714C18.9189 112.257 18.7654 111.737 18.7689 111.155C18.7654 110.598 18.9064 110.1 19.1921 109.661C19.4778 109.222 19.8706 108.875 20.3705 108.622C20.874 108.368 21.4471 108.241 22.0899 108.241C22.7255 108.241 23.2933 108.368 23.7933 108.622C24.2932 108.875 24.686 109.222 24.9717 109.661C25.2609 110.1 25.4073 110.598 25.4109 111.155C25.4073 111.737 25.2484 112.257 24.9342 112.714C24.6235 113.168 24.2111 113.462 23.6968 113.598V113.662C24.0932 113.734 24.4503 113.903 24.7681 114.171C25.0859 114.435 25.3395 114.766 25.5287 115.162C25.718 115.555 25.8144 115.983 25.818 116.447C25.8144 117.04 25.6537 117.569 25.3359 118.033C25.0217 118.494 24.5842 118.856 24.0236 119.12C23.4665 119.381 22.822 119.511 22.0899 119.511ZM22.0899 118.333C22.5863 118.333 23.0148 118.253 23.3755 118.092C23.7361 117.931 24.0147 117.704 24.2111 117.412C24.4075 117.119 24.5074 116.776 24.511 116.383C24.5074 115.969 24.4003 115.603 24.1896 115.285C23.9789 114.967 23.6915 114.717 23.3272 114.535C22.9666 114.353 22.5541 114.262 22.0899 114.262C21.6221 114.262 21.2043 114.353 20.8365 114.535C20.4723 114.717 20.1848 114.967 19.9741 115.285C19.767 115.603 19.6652 115.969 19.6688 116.383C19.6652 116.776 19.7599 117.119 19.9527 117.412C20.1491 117.704 20.4294 117.931 20.7937 118.092C21.1579 118.253 21.59 118.333 22.0899 118.333ZM22.0899 113.126C22.4827 113.126 22.8309 113.048 23.1344 112.891C23.4415 112.734 23.6826 112.514 23.8575 112.232C24.0325 111.95 24.1218 111.62 24.1254 111.241C24.1218 110.87 24.0343 110.546 23.8629 110.271C23.6915 109.993 23.454 109.779 23.1505 109.629C22.847 109.475 22.4934 109.398 22.0899 109.398C21.6793 109.398 21.3204 109.475 21.0133 109.629C20.7062 109.779 20.4687 109.993 20.3009 110.271C20.133 110.546 20.0509 110.87 20.0545 111.241C20.0509 111.62 20.1348 111.95 20.3062 112.232C20.4812 112.514 20.7222 112.734 21.0293 112.891C21.3364 113.048 21.69 113.126 22.0899 113.126Z" fill="black"/>
<path d="M18.1904 145.158V156.128H16.862V146.551H16.7978L14.1195 148.329V146.979L16.862 145.158H18.1904ZM24.7735 156.278C24.145 156.278 23.579 156.153 23.0755 155.903C22.572 155.653 22.1685 155.31 21.8649 154.875C21.5614 154.439 21.3954 153.943 21.3668 153.385H22.6523C22.7023 153.882 22.9273 154.292 23.3272 154.617C23.7308 154.939 24.2128 155.099 24.7735 155.099C25.2234 155.099 25.6234 154.994 25.9733 154.783C26.3268 154.573 26.6036 154.284 26.8036 153.916C27.0071 153.544 27.1089 153.125 27.1089 152.657C27.1089 152.178 27.0035 151.752 26.7929 151.377C26.5857 150.998 26.3001 150.7 25.9358 150.482C25.5716 150.264 25.1556 150.154 24.6878 150.15C24.3521 150.147 24.0075 150.198 23.654 150.305C23.3005 150.409 23.0094 150.543 22.7809 150.707L21.5382 150.557L22.2024 145.158H27.9016V146.336H23.3165L22.9309 149.572H22.9951C23.2201 149.393 23.5022 149.245 23.8415 149.127C24.1807 149.009 24.5342 148.95 24.902 148.95C25.5734 148.95 26.1715 149.111 26.6964 149.432C27.2249 149.75 27.6392 150.186 27.9391 150.739C28.2427 151.293 28.3944 151.925 28.3944 152.636C28.3944 153.335 28.2373 153.96 27.9231 154.51C27.6124 155.057 27.1839 155.489 26.6375 155.807C26.0912 156.121 25.4698 156.278 24.7735 156.278Z" fill="black"/>
<path d="M14.3338 192.895V191.93L17.9547 187.967C18.3797 187.502 18.7296 187.099 19.0046 186.756C19.2796 186.41 19.4831 186.085 19.6152 185.781C19.7509 185.474 19.8188 185.153 19.8188 184.817C19.8188 184.431 19.7259 184.097 19.5403 183.815C19.3581 183.533 19.1082 183.315 18.7904 183.162C18.4725 183.008 18.1154 182.932 17.7191 182.932C17.2977 182.932 16.9299 183.019 16.6156 183.194C16.305 183.365 16.0639 183.606 15.8925 183.917C15.7247 184.228 15.6408 184.592 15.6408 185.01H14.3767C14.3767 184.367 14.5249 183.803 14.8212 183.317C15.1176 182.832 15.5211 182.453 16.0318 182.182C16.546 181.91 17.1227 181.775 17.7619 181.775C18.4047 181.775 18.9743 181.91 19.4706 182.182C19.967 182.453 20.3562 182.819 20.6383 183.28C20.9204 183.74 21.0615 184.253 21.0615 184.817C21.0615 185.221 20.9883 185.615 20.8419 186.001C20.699 186.383 20.4491 186.81 20.092 187.281C19.7384 187.749 19.2474 188.32 18.6189 188.995L16.155 191.63V191.716H21.2543V192.895H14.3338ZM23.4665 192.895V191.93L27.0875 187.967C27.5124 187.502 27.8624 187.099 28.1373 186.756C28.4123 186.41 28.6158 186.085 28.748 185.781C28.8836 185.474 28.9515 185.153 28.9515 184.817C28.9515 184.431 28.8587 184.097 28.673 183.815C28.4908 183.533 28.2409 183.315 27.9231 183.162C27.6052 183.008 27.2482 182.932 26.8518 182.932C26.4304 182.932 26.0626 183.019 25.7484 183.194C25.4377 183.365 25.1966 183.606 25.0252 183.917C24.8574 184.228 24.7735 184.592 24.7735 185.01H23.5094C23.5094 184.367 23.6576 183.803 23.9539 183.317C24.2503 182.832 24.6539 182.453 25.1645 182.182C25.6787 181.91 26.2554 181.775 26.8946 181.775C27.5374 181.775 28.107 181.91 28.6033 182.182C29.0997 182.453 29.4889 182.819 29.771 183.28C30.0531 183.74 30.1942 184.253 30.1942 184.817C30.1942 185.221 30.121 185.615 29.9746 186.001C29.8317 186.383 29.5818 186.81 29.2247 187.281C28.8711 187.749 28.3801 188.32 27.7517 188.995L25.2877 191.63V191.716H30.387V192.895H23.4665Z" fill="black"/>
<path d="M14.3338 229.661V228.697L17.9547 224.733C18.3797 224.269 18.7296 223.865 19.0046 223.523C19.2796 223.176 19.4831 222.851 19.6152 222.548C19.7509 222.241 19.8188 221.919 19.8188 221.584C19.8188 221.198 19.7259 220.864 19.5403 220.582C19.3581 220.3 19.1082 220.082 18.7904 219.929C18.4725 219.775 18.1154 219.698 17.7191 219.698C17.2977 219.698 16.9299 219.786 16.6156 219.961C16.305 220.132 16.0639 220.373 15.8925 220.684C15.7247 220.994 15.6408 221.359 15.6408 221.776H14.3767C14.3767 221.134 14.5249 220.569 14.8212 220.084C15.1176 219.598 15.5211 219.22 16.0318 218.948C16.546 218.677 17.1227 218.541 17.7619 218.541C18.4047 218.541 18.9743 218.677 19.4706 218.948C19.967 219.22 20.3562 219.586 20.6383 220.046C20.9204 220.507 21.0615 221.019 21.0615 221.584C21.0615 221.987 20.9883 222.382 20.8419 222.767C20.699 223.15 20.4491 223.576 20.092 224.048C19.7384 224.515 19.2474 225.087 18.6189 225.762L16.155 228.397V228.483H21.2543V229.661H14.3338ZM26.9589 218.541C27.4088 218.545 27.8588 218.63 28.3087 218.798C28.7587 218.966 29.1693 219.245 29.5407 219.634C29.9121 220.02 30.2103 220.546 30.4352 221.214C30.6602 221.882 30.7727 222.719 30.7727 223.726C30.7727 224.701 30.6798 225.567 30.4941 226.324C30.312 227.078 30.0478 227.713 29.7014 228.231C29.3586 228.749 28.9408 229.142 28.448 229.409C27.9588 229.677 27.4053 229.811 26.7875 229.811C26.1733 229.811 25.6252 229.69 25.1431 229.447C24.6646 229.2 24.2718 228.859 23.9647 228.424C23.6611 227.985 23.4665 227.476 23.3808 226.897H24.6878C24.8056 227.401 25.0395 227.817 25.3895 228.145C25.743 228.47 26.209 228.633 26.7875 228.633C27.6338 228.633 28.3016 228.263 28.7908 227.524C29.2836 226.785 29.53 225.74 29.53 224.39H29.4443C29.2443 224.69 29.0068 224.949 28.7319 225.167C28.4569 225.385 28.1516 225.553 27.8159 225.671C27.4803 225.788 27.1232 225.847 26.7446 225.847C26.1162 225.847 25.5395 225.692 25.0145 225.381C24.4932 225.067 24.0754 224.637 23.7611 224.09C23.4504 223.541 23.2951 222.912 23.2951 222.205C23.2951 221.534 23.4451 220.919 23.745 220.362C24.0486 219.802 24.4735 219.355 25.0199 219.023C25.5698 218.691 26.2161 218.53 26.9589 218.541ZM26.9589 219.72C26.509 219.72 26.1037 219.832 25.743 220.057C25.3859 220.278 25.102 220.578 24.8913 220.957C24.6842 221.332 24.5807 221.748 24.5807 222.205C24.5807 222.662 24.6806 223.078 24.8806 223.453C25.0842 223.824 25.3609 224.121 25.7109 224.342C26.0644 224.56 26.4661 224.669 26.9161 224.669C27.2553 224.669 27.5713 224.603 27.8641 224.471C28.157 224.335 28.4123 224.151 28.6301 223.919C28.8515 223.683 29.0247 223.417 29.1497 223.121C29.2747 222.821 29.3372 222.509 29.3372 222.184C29.3372 221.755 29.2336 221.353 29.0265 220.978C28.8229 220.603 28.5408 220.3 28.1802 220.068C27.8231 219.836 27.416 219.72 26.9589 219.72Z" fill="black"/>
<path d="M56.9412 83.167V82.2028L60.5622 78.2391C60.9871 77.7749 61.3371 77.3713 61.612 77.0285C61.887 76.6821 62.0905 76.3572 62.2227 76.0537C62.3584 75.7466 62.4262 75.4252 62.4262 75.0895C62.4262 74.7038 62.3334 74.37 62.1477 74.0878C61.9656 73.8057 61.7156 73.5879 61.3978 73.4344C61.08 73.2808 60.7229 73.204 60.3265 73.204C59.9051 73.204 59.5373 73.2915 59.2231 73.4665C58.9124 73.6379 58.6714 73.8789 58.4999 74.1896C58.3321 74.5003 58.2482 74.8645 58.2482 75.2823H56.9841C56.9841 74.6396 57.1323 74.0753 57.4287 73.5897C57.7251 73.104 58.1286 72.7255 58.6392 72.4541C59.1534 72.1827 59.7301 72.047 60.3693 72.047C61.0121 72.047 61.5817 72.1827 62.078 72.4541C62.5744 72.7255 62.9636 73.0916 63.2457 73.5522C63.5278 74.0129 63.6689 74.5253 63.6689 75.0895C63.6689 75.493 63.5957 75.8876 63.4493 76.2733C63.3064 76.6554 63.0565 77.0821 62.6994 77.5535C62.3459 78.0213 61.8549 78.5926 61.2264 79.2675L58.7624 81.9029V81.9886H63.8617V83.167H56.9412Z" fill="black"/>
<path d="M60.4336 108.814C60.8836 108.817 61.3335 108.903 61.7834 109.071C62.2334 109.239 62.644 109.517 63.0154 109.906C63.3868 110.292 63.685 110.819 63.9099 111.487C64.1349 112.154 64.2474 112.992 64.2474 113.999C64.2474 114.974 64.1545 115.839 63.9689 116.597C63.7867 117.35 63.5225 117.986 63.1761 118.503C62.8333 119.021 62.4155 119.414 61.9227 119.682C61.4335 119.95 60.88 120.084 60.2622 120.084C59.648 120.084 59.0999 119.962 58.6178 119.719C58.1393 119.473 57.7465 119.132 57.4394 118.696C57.1358 118.257 56.9412 117.748 56.8555 117.17H58.1625C58.2803 117.673 58.5142 118.089 58.8642 118.418C59.2177 118.743 59.6837 118.905 60.2622 118.905C61.1085 118.905 61.7763 118.536 62.2655 117.796C62.7583 117.057 63.0047 116.013 63.0047 114.663H62.919C62.719 114.963 62.4816 115.222 62.2066 115.44C61.9316 115.657 61.6263 115.825 61.2906 115.943C60.955 116.061 60.5979 116.12 60.2194 116.12C59.5909 116.12 59.0142 115.964 58.4892 115.654C57.9679 115.34 57.5501 114.909 57.2358 114.363C56.9252 113.813 56.7698 113.184 56.7698 112.477C56.7698 111.806 56.9198 111.192 57.2198 110.635C57.5233 110.074 57.9482 109.628 58.4946 109.296C59.0445 108.964 59.6909 108.803 60.4336 108.814ZM60.4336 109.992C59.9837 109.992 59.5784 110.105 59.2177 110.33C58.8606 110.551 58.5767 110.851 58.366 111.229C58.1589 111.604 58.0554 112.02 58.0554 112.477C58.0554 112.935 58.1554 113.351 58.3553 113.725C58.5589 114.097 58.8356 114.393 59.1856 114.615C59.5391 114.832 59.9408 114.941 60.3908 114.941C60.73 114.941 61.046 114.875 61.3389 114.743C61.6317 114.608 61.887 114.424 62.1048 114.192C62.3262 113.956 62.4994 113.69 62.6244 113.393C62.7494 113.093 62.8119 112.781 62.8119 112.456C62.8119 112.028 62.7083 111.626 62.5012 111.251C62.2977 110.876 62.0155 110.572 61.6549 110.34C61.2978 110.108 60.8907 109.992 60.4336 109.992Z" fill="black"/>
<path d="M57.415 145.73V156.7H56.0866V147.123H56.0224L53.3442 148.901V147.551L56.0866 145.73H57.415ZM64.2123 156.85C63.7624 156.843 63.3125 156.757 62.8625 156.593C62.4126 156.429 62.0019 156.152 61.6306 155.763C61.2592 155.37 60.961 154.84 60.736 154.172C60.5111 153.501 60.3986 152.658 60.3986 151.644C60.3986 150.672 60.4896 149.812 60.6718 149.062C60.8539 148.308 61.1181 147.675 61.4645 147.16C61.8109 146.643 62.2287 146.25 62.7179 145.982C63.2107 145.714 63.766 145.58 64.3838 145.58C64.998 145.58 65.5443 145.703 66.0228 145.95C66.5049 146.193 66.8977 146.532 67.2012 146.968C67.5048 147.403 67.7012 147.905 67.7904 148.473H66.4835C66.3621 147.98 66.1264 147.571 65.7764 147.246C65.4265 146.921 64.9622 146.759 64.3838 146.759C63.5339 146.759 62.8643 147.128 62.3751 147.867C61.8894 148.607 61.6448 149.644 61.6413 150.98H61.727C61.9269 150.676 62.1644 150.417 62.4394 150.203C62.7179 149.985 63.025 149.817 63.3607 149.699C63.6963 149.582 64.0517 149.523 64.4266 149.523C65.0551 149.523 65.63 149.68 66.1514 149.994C66.6727 150.305 67.0905 150.735 67.4048 151.285C67.719 151.831 67.8761 152.458 67.8761 153.165C67.8761 153.843 67.7244 154.465 67.4208 155.029C67.1173 155.59 66.6906 156.036 66.1407 156.368C65.5943 156.697 64.9515 156.857 64.2123 156.85ZM64.2123 155.672C64.6623 155.672 65.0658 155.559 65.4229 155.334C65.7836 155.109 66.0675 154.808 66.2746 154.429C66.4853 154.051 66.5906 153.629 66.5906 153.165C66.5906 152.711 66.4888 152.299 66.2853 151.928C66.0853 151.553 65.8086 151.254 65.455 151.033C65.1051 150.812 64.7051 150.701 64.2552 150.701C63.916 150.701 63.5999 150.769 63.3071 150.905C63.0143 151.037 62.7572 151.219 62.5358 151.451C62.318 151.683 62.1466 151.949 62.0216 152.249C61.8966 152.545 61.8341 152.858 61.8341 153.186C61.8341 153.622 61.9359 154.029 62.1394 154.408C62.3465 154.786 62.6286 155.091 62.9857 155.324C63.3464 155.556 63.7553 155.672 64.2123 155.672Z" fill="black"/>
<path d="M52.9861 192.895V191.93L56.6071 187.967C57.032 187.502 57.382 187.099 57.657 186.756C57.9319 186.41 58.1355 186.085 58.2676 185.781C58.4033 185.474 58.4711 185.153 58.4711 184.817C58.4711 184.431 58.3783 184.097 58.1926 183.815C58.0105 183.533 57.7605 183.315 57.4427 183.162C57.1249 183.008 56.7678 182.932 56.3714 182.932C55.95 182.932 55.5822 183.019 55.268 183.194C54.9573 183.365 54.7163 183.606 54.5449 183.917C54.377 184.228 54.2931 184.592 54.2931 185.01H53.029C53.029 184.367 53.1772 183.803 53.4736 183.317C53.77 182.832 54.1735 182.453 54.6841 182.182C55.1984 181.91 55.7751 181.775 56.4143 181.775C57.057 181.775 57.6266 181.91 58.123 182.182C58.6193 182.453 59.0086 182.819 59.2907 183.28C59.5728 183.74 59.7138 184.253 59.7138 184.817C59.7138 185.221 59.6406 185.615 59.4942 186.001C59.3514 186.383 59.1014 186.81 58.7443 187.281C58.3908 187.749 57.8998 188.32 57.2713 188.995L54.8073 191.63V191.716H59.9067V192.895H52.9861ZM65.8255 193.045C65.1185 193.045 64.4882 192.923 63.9347 192.68C63.3848 192.437 62.9473 192.1 62.6224 191.668C62.301 191.232 62.126 190.727 62.0974 190.152H63.4473C63.4758 190.506 63.5972 190.811 63.8115 191.068C64.0257 191.322 64.3061 191.518 64.6524 191.657C64.9988 191.796 65.3827 191.866 65.8041 191.866C66.2754 191.866 66.6932 191.784 67.0575 191.62C67.4217 191.455 67.7074 191.227 67.9145 190.934C68.1216 190.641 68.2252 190.302 68.2252 189.916C68.2252 189.513 68.1252 189.158 67.9252 188.85C67.7253 188.54 67.4324 188.297 67.0468 188.122C66.6611 187.947 66.1897 187.859 65.6327 187.859H64.7542V186.681H65.6327C66.0683 186.681 66.4504 186.603 66.779 186.445C67.111 186.288 67.3699 186.067 67.5556 185.781C67.7449 185.496 67.8395 185.16 67.8395 184.774C67.8395 184.403 67.7574 184.08 67.5931 183.805C67.4289 183.53 67.1968 183.315 66.8968 183.162C66.6004 183.008 66.2504 182.932 65.8469 182.932C65.4684 182.932 65.1113 183.001 64.7756 183.14C64.4435 183.276 64.1722 183.474 63.9615 183.735C63.7508 183.992 63.6365 184.303 63.6187 184.667H62.3331C62.3545 184.092 62.5277 183.589 62.8527 183.157C63.1776 182.721 63.6026 182.382 64.1275 182.139C64.656 181.896 65.2363 181.775 65.8684 181.775C66.5468 181.775 67.1289 181.912 67.6146 182.187C68.1002 182.458 68.4734 182.817 68.734 183.264C68.9947 183.71 69.1251 184.192 69.1251 184.71C69.1251 185.328 68.9626 185.854 68.6376 186.29C68.3162 186.726 67.8788 187.027 67.3253 187.195V187.281C68.0181 187.395 68.5591 187.69 68.9483 188.165C69.3375 188.636 69.5322 189.22 69.5322 189.916C69.5322 190.513 69.3697 191.048 69.0447 191.523C68.7233 191.995 68.2841 192.366 67.727 192.637C67.17 192.909 66.5361 193.045 65.8255 193.045Z" fill="black"/>
<path d="M55.6479 230.383C54.9408 230.383 54.3106 230.262 53.7571 230.019C53.2071 229.776 52.7697 229.439 52.4447 229.007C52.1233 228.571 51.9484 228.066 51.9198 227.491H53.2696C53.2982 227.844 53.4196 228.15 53.6339 228.407C53.8481 228.66 54.1284 228.857 54.4748 228.996C54.8212 229.135 55.2051 229.205 55.6264 229.205C56.0978 229.205 56.5156 229.123 56.8799 228.959C57.2441 228.794 57.5298 228.566 57.7369 228.273C57.944 227.98 58.0476 227.641 58.0476 227.255C58.0476 226.852 57.9476 226.496 57.7476 226.189C57.5476 225.879 57.2548 225.636 56.8691 225.461C56.4835 225.286 56.0121 225.198 55.455 225.198H54.5766V224.02H55.455C55.8907 224.02 56.2728 223.941 56.6013 223.784C56.9334 223.627 57.1923 223.406 57.378 223.12C57.5673 222.834 57.6619 222.499 57.6619 222.113C57.6619 221.742 57.5798 221.419 57.4155 221.144C57.2512 220.869 57.0191 220.654 56.7192 220.501C56.4228 220.347 56.0728 220.27 55.6693 220.27C55.2908 220.27 54.9337 220.34 54.598 220.479C54.2659 220.615 53.9945 220.813 53.7838 221.074C53.5732 221.331 53.4589 221.642 53.441 222.006H52.1555C52.1769 221.431 52.3501 220.927 52.6751 220.495C53 220.06 53.425 219.721 53.9499 219.478C54.4784 219.235 55.0587 219.113 55.6907 219.113C56.3692 219.113 56.9513 219.251 57.4369 219.526C57.9226 219.797 58.2957 220.156 58.5564 220.603C58.8171 221.049 58.9474 221.531 58.9474 222.049C58.9474 222.667 58.785 223.193 58.46 223.629C58.1386 224.065 57.7012 224.366 57.1477 224.534V224.62C57.8404 224.734 58.3814 225.029 58.7707 225.504C59.1599 225.975 59.3545 226.559 59.3545 227.255C59.3545 227.852 59.192 228.387 58.8671 228.862C58.5457 229.334 58.1065 229.705 57.5494 229.976C56.9923 230.248 56.3585 230.383 55.6479 230.383ZM65.1234 230.383C64.3164 230.383 63.629 230.164 63.0612 229.725C62.4934 229.282 62.0595 228.641 61.7596 227.802C61.4596 226.959 61.3096 225.941 61.3096 224.748C61.3096 223.563 61.4596 222.55 61.7596 221.711C62.0631 220.869 62.4987 220.226 63.0665 219.783C63.6379 219.337 64.3235 219.113 65.1234 219.113C65.9233 219.113 66.6071 219.337 67.1749 219.783C67.7463 220.226 68.1819 220.869 68.4819 221.711C68.7854 222.55 68.9372 223.563 68.9372 224.748C68.9372 225.941 68.7872 226.959 68.4872 227.802C68.1873 228.641 67.7534 229.282 67.1856 229.725C66.6178 230.164 65.9304 230.383 65.1234 230.383ZM65.1234 229.205C65.9233 229.205 66.5446 228.819 66.9874 228.048C67.4302 227.277 67.6516 226.177 67.6516 224.748C67.6516 223.799 67.5499 222.99 67.3463 222.322C67.1463 221.654 66.8571 221.145 66.4786 220.795C66.1036 220.445 65.6519 220.27 65.1234 220.27C64.3306 220.27 63.7111 220.661 63.2647 221.444C62.8183 222.222 62.5952 223.324 62.5952 224.748C62.5952 225.698 62.6951 226.505 62.8951 227.17C63.0951 227.834 63.3826 228.339 63.7575 228.685C64.136 229.032 64.5913 229.205 65.1234 229.205Z" fill="black"/>
<path d="M95.8002 230.383C95.0932 230.383 94.4629 230.262 93.9094 230.019C93.3595 229.776 92.922 229.439 92.5971 229.007C92.2757 228.571 92.1007 228.066 92.0721 227.491H93.422C93.4505 227.844 93.5719 228.15 93.7862 228.407C94.0005 228.66 94.2808 228.857 94.6272 228.996C94.9735 229.135 95.3574 229.205 95.7788 229.205C96.2502 229.205 96.668 229.123 97.0322 228.959C97.3964 228.794 97.6821 228.566 97.8892 228.273C98.0963 227.98 98.1999 227.641 98.1999 227.255C98.1999 226.852 98.0999 226.496 97.8999 226.189C97.7 225.879 97.4071 225.636 97.0215 225.461C96.6358 225.286 96.1645 225.198 95.6074 225.198H94.7289V224.02H95.6074C96.043 224.02 96.4251 223.941 96.7537 223.784C97.0858 223.627 97.3447 223.406 97.5303 223.12C97.7196 222.834 97.8142 222.499 97.8142 222.113C97.8142 221.742 97.7321 221.419 97.5678 221.144C97.4036 220.869 97.1715 220.654 96.8715 220.501C96.5751 220.347 96.2252 220.27 95.8216 220.27C95.4431 220.27 95.086 220.34 94.7504 220.479C94.4183 220.615 94.1469 220.813 93.9362 221.074C93.7255 221.331 93.6112 221.642 93.5934 222.006H92.3078C92.3293 221.431 92.5024 220.927 92.8274 220.495C93.1524 220.06 93.5773 219.721 94.1022 219.478C94.6307 219.235 95.211 219.113 95.8431 219.113C96.5216 219.113 97.1036 219.251 97.5893 219.526C98.0749 219.797 98.4481 220.156 98.7088 220.603C98.9694 221.049 99.0998 221.531 99.0998 222.049C99.0998 222.667 98.9373 223.193 98.6123 223.629C98.291 224.065 97.8535 224.366 97.3 224.534V224.62C97.9928 224.734 98.5338 225.029 98.923 225.504C99.3122 225.975 99.5069 226.559 99.5069 227.255C99.5069 227.852 99.3444 228.387 99.0194 228.862C98.698 229.334 98.2588 229.705 97.7018 229.976C97.1447 230.248 96.5108 230.383 95.8002 230.383ZM105.554 219.263V230.233H104.226V220.656H104.162L101.483 222.434V221.085L104.226 219.263H105.554Z" fill="black"/>
<path d="M99.3002 83.317C98.5932 83.317 97.9629 83.1956 97.4094 82.9527C96.8595 82.7099 96.422 82.3725 96.0971 81.9404C95.7757 81.5047 95.6007 80.9994 95.5721 80.4245H96.922C96.9505 80.778 97.0719 81.0833 97.2862 81.3405C97.5005 81.594 97.7808 81.7904 98.1272 81.9297C98.4735 82.0689 98.8574 82.1386 99.2788 82.1386C99.7502 82.1386 100.168 82.0564 100.532 81.8922C100.896 81.7279 101.182 81.4994 101.389 81.2065C101.596 80.9137 101.7 80.5745 101.7 80.1888C101.7 79.7853 101.6 79.43 101.4 79.1229C101.2 78.8122 100.907 78.5694 100.521 78.3944C100.136 78.2194 99.6645 78.1319 99.1074 78.1319H98.2289V76.9535H99.1074C99.543 76.9535 99.9251 76.875 100.254 76.7179C100.586 76.5607 100.845 76.3393 101.03 76.0537C101.22 75.768 101.314 75.4323 101.314 75.0466C101.314 74.6753 101.232 74.3521 101.068 74.0771C100.904 73.8022 100.671 73.5879 100.372 73.4344C100.075 73.2808 99.7252 73.204 99.3216 73.204C98.9431 73.204 98.586 73.2737 98.2504 73.4129C97.9183 73.5486 97.6469 73.7468 97.4362 74.0075C97.2255 74.2646 97.1112 74.5753 97.0934 74.9395H95.8078C95.8293 74.3646 96.0024 73.8611 96.3274 73.429C96.6524 72.9934 97.0773 72.6541 97.6022 72.4113C98.1307 72.1685 98.711 72.047 99.3431 72.047C100.022 72.047 100.604 72.1845 101.089 72.4595C101.575 72.7309 101.948 73.0898 102.209 73.5361C102.469 73.9825 102.6 74.4646 102.6 74.9824C102.6 75.6001 102.437 76.1269 102.112 76.5625C101.791 76.9982 101.354 77.2999 100.8 77.4678V77.5535C101.493 77.6677 102.034 77.9623 102.423 78.4373C102.812 78.9086 103.007 79.4925 103.007 80.1888C103.007 80.7852 102.844 81.3208 102.519 81.7957C102.198 82.2671 101.759 82.6385 101.202 82.9099C100.645 83.1813 100.011 83.317 99.3002 83.317Z" fill="black"/>
<path d="M95.4951 108.391V119.361H94.1667V109.784H94.1024L91.4242 111.562V110.213L94.1667 108.391H95.4951ZM102.228 119.511C101.421 119.511 100.734 119.292 100.166 118.852C99.5981 118.41 99.1643 117.769 98.8643 116.93C98.5644 116.087 98.4144 115.069 98.4144 113.876C98.4144 112.691 98.5644 111.678 98.8643 110.839C99.1678 109.997 99.6035 109.354 100.171 108.911C100.743 108.465 101.428 108.241 102.228 108.241C103.028 108.241 103.712 108.465 104.28 108.911C104.851 109.354 105.287 109.997 105.587 110.839C105.89 111.678 106.042 112.691 106.042 113.876C106.042 115.069 105.892 116.087 105.592 116.93C105.292 117.769 104.858 118.41 104.29 118.852C103.723 119.292 103.035 119.511 102.228 119.511ZM102.228 118.333C103.028 118.333 103.649 117.947 104.092 117.176C104.535 116.405 104.756 115.305 104.756 113.876C104.756 112.926 104.655 112.118 104.451 111.45C104.251 110.782 103.962 110.273 103.583 109.923C103.208 109.573 102.757 109.398 102.228 109.398C101.435 109.398 100.816 109.789 100.369 110.571C99.9231 111.35 99.6999 112.452 99.6999 113.876C99.6999 114.826 99.7999 115.633 99.9999 116.297C100.2 116.962 100.487 117.467 100.862 117.813C101.241 118.16 101.696 118.333 102.228 118.333Z" fill="black"/>
<path d="M96.4502 145.73V156.7H95.1218V147.123H95.0575L92.3793 148.901V147.551L95.1218 145.73H96.4502ZM99.9479 156.7L104.854 146.994V146.909H99.198V145.73H106.226V146.973L101.341 156.7H99.9479Z" fill="black"/>
<path d="M91.0936 193.467V192.503L94.7145 188.539C95.1395 188.075 95.4894 187.671 95.7644 187.328C96.0393 186.982 96.2429 186.657 96.375 186.353C96.5107 186.046 96.5786 185.725 96.5786 185.389C96.5786 185.004 96.4857 184.67 96.3 184.388C96.1179 184.106 95.8679 183.888 95.5501 183.734C95.2323 183.581 94.8752 183.504 94.4788 183.504C94.0575 183.504 93.6897 183.591 93.3754 183.766C93.0647 183.938 92.8237 184.179 92.6523 184.489C92.4845 184.8 92.4005 185.164 92.4005 185.582H91.1364C91.1364 184.939 91.2846 184.375 91.581 183.89C91.8774 183.404 92.2809 183.025 92.7916 182.754C93.3058 182.483 93.8825 182.347 94.5217 182.347C95.1645 182.347 95.734 182.483 96.2304 182.754C96.7267 183.025 97.116 183.391 97.3981 183.852C97.6802 184.313 97.8212 184.825 97.8212 185.389C97.8212 185.793 97.748 186.187 97.6016 186.573C97.4588 186.955 97.2088 187.382 96.8517 187.853C96.4982 188.321 96.0072 188.892 95.3787 189.567L92.9148 192.203V192.288H98.0141V193.467H91.0936ZM99.7335 191.217V190.124L104.554 182.497H105.347V184.189H104.811L101.169 189.953V190.039H107.661V191.217H99.7335ZM104.897 193.467V190.885V190.376V182.497H106.161V193.467H104.897Z" fill="black"/>
<path d="M133.988 80.9173V79.8246L138.809 72.197H139.601V73.8897H139.066L135.423 79.6532V79.7389H141.915V80.9173H133.988ZM139.151 83.167V80.5852V80.0763V72.197H140.416V83.167H139.151Z" fill="black"/>
<path d="M135.602 108.964V119.934H134.273V110.356H134.209L131.531 112.135V110.785L134.273 108.964H135.602ZM142.613 108.964V119.934H141.285V110.356H141.22L138.542 112.135V110.785L141.285 108.964H142.613Z" fill="black"/>
<path d="M134.602 145.73V156.7H133.273V147.123H133.209L130.531 148.901V147.551L133.273 145.73H134.602ZM141.27 156.85C140.535 156.85 139.885 156.72 139.321 156.459C138.76 156.195 138.322 155.832 138.008 155.372C137.694 154.908 137.539 154.379 137.542 153.786C137.539 153.322 137.63 152.894 137.815 152.501C138.001 152.104 138.255 151.774 138.576 151.51C138.901 151.242 139.263 151.072 139.663 151.001V150.937C139.138 150.801 138.721 150.506 138.41 150.053C138.099 149.596 137.946 149.076 137.949 148.494C137.946 147.937 138.087 147.439 138.372 147C138.658 146.56 139.051 146.214 139.551 145.961C140.054 145.707 140.628 145.58 141.27 145.58C141.906 145.58 142.474 145.707 142.974 145.961C143.474 146.214 143.866 146.56 144.152 147C144.441 147.439 144.588 147.937 144.591 148.494C144.588 149.076 144.429 149.596 144.115 150.053C143.804 150.506 143.391 150.801 142.877 150.937V151.001C143.274 151.072 143.631 151.242 143.949 151.51C144.266 151.774 144.52 152.104 144.709 152.501C144.898 152.894 144.995 153.322 144.998 153.786C144.995 154.379 144.834 154.908 144.516 155.372C144.202 155.832 143.765 156.195 143.204 156.459C142.647 156.72 142.002 156.85 141.27 156.85ZM141.27 155.672C141.767 155.672 142.195 155.591 142.556 155.431C142.917 155.27 143.195 155.043 143.391 154.75C143.588 154.458 143.688 154.115 143.691 153.722C143.688 153.308 143.581 152.942 143.37 152.624C143.159 152.306 142.872 152.056 142.508 151.874C142.147 151.692 141.735 151.601 141.27 151.601C140.803 151.601 140.385 151.692 140.017 151.874C139.653 152.056 139.365 152.306 139.155 152.624C138.947 152.942 138.846 153.308 138.849 153.722C138.846 154.115 138.94 154.458 139.133 154.75C139.33 155.043 139.61 155.27 139.974 155.431C140.338 155.591 140.77 155.672 141.27 155.672ZM141.27 150.465C141.663 150.465 142.011 150.387 142.315 150.23C142.622 150.073 142.863 149.853 143.038 149.571C143.213 149.289 143.302 148.958 143.306 148.58C143.302 148.208 143.215 147.885 143.043 147.61C142.872 147.332 142.634 147.118 142.331 146.968C142.027 146.814 141.674 146.737 141.27 146.737C140.86 146.737 140.501 146.814 140.194 146.968C139.887 147.118 139.649 147.332 139.481 147.61C139.313 147.885 139.231 148.208 139.235 148.58C139.231 148.958 139.315 149.289 139.487 149.571C139.662 149.853 139.903 150.073 140.21 150.23C140.517 150.387 140.87 150.465 141.27 150.465Z" fill="black"/>
<path d="M129.745 193.467V192.503L133.366 188.539C133.791 188.075 134.141 187.671 134.416 187.328C134.691 186.982 134.894 186.657 135.026 186.353C135.162 186.046 135.23 185.725 135.23 185.389C135.23 185.004 135.137 184.67 134.951 184.388C134.769 184.106 134.519 183.888 134.201 183.734C133.884 183.581 133.527 183.504 133.13 183.504C132.709 183.504 132.341 183.591 132.027 183.766C131.716 183.938 131.475 184.179 131.304 184.489C131.136 184.8 131.052 185.164 131.052 185.582H129.788C129.788 184.939 129.936 184.375 130.232 183.89C130.529 183.404 130.932 183.025 131.443 182.754C131.957 182.483 132.534 182.347 133.173 182.347C133.816 182.347 134.385 182.483 134.882 182.754C135.378 183.025 135.767 183.391 136.049 183.852C136.332 184.313 136.473 184.825 136.473 185.389C136.473 185.793 136.399 186.187 136.253 186.573C136.11 186.955 135.86 187.382 135.503 187.853C135.15 188.321 134.659 188.892 134.03 189.567L131.566 192.203V192.288H136.665V193.467H129.745ZM142.306 193.617C141.677 193.617 141.111 193.492 140.608 193.242C140.104 192.992 139.701 192.649 139.397 192.213C139.094 191.778 138.928 191.281 138.899 190.724H140.185C140.235 191.221 140.46 191.631 140.86 191.956C141.263 192.278 141.745 192.438 142.306 192.438C142.756 192.438 143.156 192.333 143.506 192.122C143.859 191.912 144.136 191.622 144.336 191.255C144.539 190.883 144.641 190.464 144.641 189.996C144.641 189.517 144.536 189.091 144.325 188.716C144.118 188.337 143.832 188.039 143.468 187.821C143.104 187.603 142.688 187.493 142.22 187.489C141.884 187.485 141.54 187.537 141.186 187.644C140.833 187.748 140.542 187.882 140.313 188.046L139.07 187.896L139.735 182.497H145.434V183.675H140.849L140.463 186.911H140.527C140.752 186.732 141.035 186.584 141.374 186.466C141.713 186.348 142.067 186.289 142.434 186.289C143.106 186.289 143.704 186.45 144.229 186.771C144.757 187.089 145.171 187.525 145.471 188.078C145.775 188.632 145.927 189.264 145.927 189.974C145.927 190.674 145.77 191.299 145.455 191.849C145.145 192.396 144.716 192.828 144.17 193.145C143.623 193.46 143.002 193.617 142.306 193.617Z" fill="black"/>
<path d="M176.737 82.6998C176.108 82.6998 175.542 82.5748 175.039 82.3248C174.535 82.0749 174.132 81.7321 173.828 81.2964C173.525 80.8607 173.359 80.3644 173.33 79.8073H174.616C174.666 80.3037 174.891 80.7143 175.291 81.0393C175.694 81.3607 176.176 81.5214 176.737 81.5214C177.187 81.5214 177.587 81.416 177.937 81.2053C178.29 80.9947 178.567 80.7054 178.767 80.3376C178.971 79.9662 179.072 79.5466 179.072 79.0788C179.072 78.6003 178.967 78.1736 178.756 77.7987C178.549 77.4201 178.264 77.122 177.899 76.9041C177.535 76.6863 177.119 76.5756 176.651 76.572C176.316 76.5685 175.971 76.6202 175.617 76.7274C175.264 76.8309 174.973 76.9648 174.744 77.1291L173.502 76.9791L174.166 71.5798H179.865V72.7583H175.28L174.894 75.9935H174.959C175.184 75.815 175.466 75.6668 175.805 75.549C176.144 75.4311 176.498 75.3722 176.865 75.3722C177.537 75.3722 178.135 75.5329 178.66 75.8543C179.188 76.1721 179.603 76.6077 179.903 77.1612C180.206 77.7147 180.358 78.3468 180.358 79.0574C180.358 79.7573 180.201 80.3822 179.887 80.9322C179.576 81.4785 179.147 81.9106 178.601 82.2284C178.055 82.5427 177.433 82.6998 176.737 82.6998Z" fill="black"/>
<path d="M173.227 108.391V119.361H171.898V109.784H171.834L169.156 111.562V110.213L171.898 108.391H173.227ZM176.382 119.361V118.397L180.003 114.433C180.428 113.969 180.777 113.566 181.052 113.223C181.327 112.876 181.531 112.552 181.663 112.248C181.799 111.941 181.867 111.62 181.867 111.284C181.867 110.898 181.774 110.564 181.588 110.282C181.406 110 181.156 109.782 180.838 109.629C180.52 109.475 180.163 109.398 179.767 109.398C179.346 109.398 178.978 109.486 178.663 109.661C178.353 109.832 178.112 110.073 177.94 110.384C177.773 110.695 177.689 111.059 177.689 111.477H176.424C176.424 110.834 176.573 110.27 176.869 109.784C177.165 109.298 177.569 108.92 178.08 108.648C178.594 108.377 179.171 108.241 179.81 108.241C180.453 108.241 181.022 108.377 181.518 108.648C182.015 108.92 182.404 109.286 182.686 109.747C182.968 110.207 183.109 110.72 183.109 111.284C183.109 111.687 183.036 112.082 182.89 112.468C182.747 112.85 182.497 113.276 182.14 113.748C181.786 114.216 181.295 114.787 180.667 115.462L178.203 118.097V118.183H183.302V119.361H176.382Z" fill="black"/>
<path d="M172.799 145.158V156.128H171.47V146.551H171.406L168.728 148.329V146.979L171.47 145.158H172.799ZM179.446 145.008C179.896 145.012 180.346 145.097 180.796 145.265C181.246 145.433 181.657 145.711 182.028 146.101C182.399 146.486 182.698 147.013 182.922 147.681C183.147 148.349 183.26 149.186 183.26 150.193C183.26 151.168 183.167 152.034 182.981 152.791C182.799 153.544 182.535 154.18 182.189 154.698C181.846 155.216 181.428 155.608 180.935 155.876C180.446 156.144 179.893 156.278 179.275 156.278C178.661 156.278 178.112 156.156 177.63 155.914C177.152 155.667 176.759 155.326 176.452 154.891C176.148 154.451 175.954 153.943 175.868 153.364H177.175C177.293 153.868 177.527 154.284 177.877 154.612C178.23 154.937 178.696 155.099 179.275 155.099C180.121 155.099 180.789 154.73 181.278 153.991C181.771 153.252 182.017 152.207 182.017 150.857H181.932C181.732 151.157 181.494 151.416 181.219 151.634C180.944 151.852 180.639 152.02 180.303 152.137C179.968 152.255 179.61 152.314 179.232 152.314C178.603 152.314 178.027 152.159 177.502 151.848C176.98 151.534 176.563 151.104 176.248 150.557C175.938 150.007 175.782 149.379 175.782 148.672C175.782 148 175.932 147.386 176.232 146.829C176.536 146.269 176.961 145.822 177.507 145.49C178.057 145.158 178.703 144.997 179.446 145.008ZM179.446 146.186C178.996 146.186 178.591 146.299 178.23 146.524C177.873 146.745 177.589 147.045 177.379 147.424C177.171 147.799 177.068 148.215 177.068 148.672C177.068 149.129 177.168 149.545 177.368 149.92C177.571 150.291 177.848 150.588 178.198 150.809C178.552 151.027 178.953 151.136 179.403 151.136C179.743 151.136 180.059 151.07 180.351 150.938C180.644 150.802 180.9 150.618 181.117 150.386C181.339 150.15 181.512 149.884 181.637 149.588C181.762 149.288 181.824 148.975 181.824 148.65C181.824 148.222 181.721 147.82 181.514 147.445C181.31 147.07 181.028 146.767 180.667 146.535C180.31 146.302 179.903 146.186 179.446 146.186Z" fill="black"/>
<path d="M168.942 192.895V191.93L172.563 187.967C172.988 187.502 173.338 187.099 173.613 186.756C173.888 186.41 174.092 186.085 174.224 185.781C174.359 185.474 174.427 185.153 174.427 184.817C174.427 184.431 174.334 184.097 174.149 183.815C173.967 183.533 173.717 183.315 173.399 183.162C173.081 183.008 172.724 182.932 172.327 182.932C171.906 182.932 171.538 183.019 171.224 183.194C170.913 183.365 170.672 183.606 170.501 183.917C170.333 184.228 170.249 184.592 170.249 185.01H168.985C168.985 184.367 169.133 183.803 169.43 183.317C169.726 182.832 170.13 182.453 170.64 182.182C171.154 181.91 171.731 181.775 172.37 181.775C173.013 181.775 173.583 181.91 174.079 182.182C174.575 182.453 174.965 182.819 175.247 183.28C175.529 183.74 175.67 184.253 175.67 184.817C175.67 185.221 175.597 185.615 175.45 186.001C175.307 186.383 175.057 186.81 174.7 187.281C174.347 187.749 173.856 188.32 173.227 188.995L170.763 191.63V191.716H175.863V192.895H168.942ZM181.717 193.045C181.267 193.037 180.817 192.952 180.367 192.787C179.918 192.623 179.507 192.346 179.135 191.957C178.764 191.564 178.466 191.034 178.241 190.366C178.016 189.695 177.904 188.852 177.904 187.838C177.904 186.867 177.995 186.006 178.177 185.256C178.359 184.503 178.623 183.869 178.969 183.355C179.316 182.837 179.734 182.444 180.223 182.176C180.716 181.908 181.271 181.775 181.889 181.775C182.503 181.775 183.049 181.898 183.528 182.144C184.01 182.387 184.403 182.726 184.706 183.162C185.01 183.598 185.206 184.099 185.295 184.667H183.988C183.867 184.174 183.631 183.765 183.281 183.44C182.931 183.115 182.467 182.953 181.889 182.953C181.039 182.953 180.369 183.323 179.88 184.062C179.394 184.801 179.15 185.838 179.146 187.174H179.232C179.432 186.87 179.669 186.611 179.944 186.397C180.223 186.179 180.53 186.012 180.866 185.894C181.201 185.776 181.557 185.717 181.932 185.717C182.56 185.717 183.135 185.874 183.656 186.188C184.178 186.499 184.595 186.929 184.91 187.479C185.224 188.026 185.381 188.652 185.381 189.359C185.381 190.038 185.229 190.659 184.926 191.223C184.622 191.784 184.196 192.23 183.646 192.562C183.099 192.891 182.456 193.052 181.717 193.045ZM181.717 191.866C182.167 191.866 182.571 191.754 182.928 191.529C183.289 191.304 183.572 191.002 183.78 190.623C183.99 190.245 184.096 189.824 184.096 189.359C184.096 188.906 183.994 188.493 183.79 188.122C183.59 187.747 183.313 187.449 182.96 187.227C182.61 187.006 182.21 186.895 181.76 186.895C181.421 186.895 181.105 186.963 180.812 187.099C180.519 187.231 180.262 187.413 180.041 187.645C179.823 187.877 179.651 188.143 179.527 188.443C179.402 188.74 179.339 189.052 179.339 189.381C179.339 189.816 179.441 190.223 179.644 190.602C179.851 190.981 180.134 191.286 180.491 191.518C180.851 191.75 181.26 191.866 181.717 191.866Z" fill="black"/>
<path d="M215.192 83.317C214.742 83.3098 214.292 83.2241 213.842 83.0599C213.392 82.8956 212.982 82.6189 212.61 82.2296C212.239 81.8368 211.941 81.3065 211.716 80.6388C211.491 79.9674 211.378 79.1247 211.378 78.1105C211.378 77.1392 211.469 76.2786 211.651 75.5287C211.834 74.7753 212.098 74.1414 212.444 73.6272C212.791 73.1094 213.208 72.7166 213.698 72.4488C214.19 72.181 214.746 72.047 215.363 72.047C215.978 72.047 216.524 72.1702 217.002 72.4166C217.485 72.6595 217.877 72.9987 218.181 73.4344C218.484 73.87 218.681 74.3717 218.77 74.9395H217.463C217.342 74.4467 217.106 74.0379 216.756 73.7129C216.406 73.3879 215.942 73.2255 215.363 73.2255C214.514 73.2255 213.844 73.5951 213.355 74.3342C212.869 75.0734 212.624 76.1108 212.621 77.4463H212.707C212.907 77.1428 213.144 76.8839 213.419 76.6696C213.698 76.4518 214.005 76.284 214.34 76.1661C214.676 76.0483 215.031 75.9894 215.406 75.9894C216.035 75.9894 216.61 76.1465 217.131 76.4607C217.652 76.7714 218.07 77.2017 218.384 77.7516C218.699 78.298 218.856 78.9247 218.856 79.6317C218.856 80.3102 218.704 80.9316 218.4 81.4958C218.097 82.0564 217.67 82.5028 217.12 82.8349C216.574 83.1634 215.931 83.3241 215.192 83.317ZM215.192 82.1386C215.642 82.1386 216.045 82.0261 216.403 81.8011C216.763 81.5761 217.047 81.2744 217.254 80.8959C217.465 80.5173 217.57 80.096 217.57 79.6317C217.57 79.1782 217.468 78.7658 217.265 78.3944C217.065 78.0195 216.788 77.7213 216.435 77.4999C216.085 77.2785 215.685 77.1678 215.235 77.1678C214.896 77.1678 214.58 77.2356 214.287 77.3713C213.994 77.5035 213.737 77.6856 213.515 77.9177C213.298 78.1498 213.126 78.4158 213.001 78.7158C212.876 79.0122 212.814 79.3246 212.814 79.6532C212.814 80.0888 212.916 80.4959 213.119 80.8744C213.326 81.253 213.608 81.5583 213.965 81.7904C214.326 82.0225 214.735 82.1386 215.192 82.1386Z" fill="black"/>
<path d="M211.906 108.964V119.934H210.578V110.356H210.514L207.835 112.135V110.785L210.578 108.964H211.906ZM218.768 120.084C218.061 120.084 217.431 119.962 216.877 119.719C216.327 119.477 215.89 119.139 215.565 118.707C215.243 118.271 215.068 117.766 215.04 117.191H216.39C216.418 117.545 216.54 117.85 216.754 118.107C216.968 118.361 217.248 118.557 217.595 118.696C217.941 118.836 218.325 118.905 218.746 118.905C219.218 118.905 219.636 118.823 220 118.659C220.364 118.495 220.65 118.266 220.857 117.973C221.064 117.68 221.168 117.341 221.168 116.955C221.168 116.552 221.068 116.197 220.868 115.889C220.668 115.579 220.375 115.336 219.989 115.161C219.603 114.986 219.132 114.899 218.575 114.899H217.697V113.72H218.575C219.011 113.72 219.393 113.642 219.721 113.484C220.053 113.327 220.312 113.106 220.498 112.82C220.687 112.535 220.782 112.199 220.782 111.813C220.782 111.442 220.7 111.119 220.535 110.844C220.371 110.569 220.139 110.355 219.839 110.201C219.543 110.047 219.193 109.971 218.789 109.971C218.411 109.971 218.054 110.04 217.718 110.18C217.386 110.315 217.114 110.513 216.904 110.774C216.693 111.031 216.579 111.342 216.561 111.706H215.275C215.297 111.131 215.47 110.628 215.795 110.196C216.12 109.76 216.545 109.421 217.07 109.178C217.598 108.935 218.179 108.814 218.811 108.814C219.489 108.814 220.071 108.951 220.557 109.226C221.043 109.497 221.416 109.856 221.676 110.303C221.937 110.749 222.067 111.231 222.067 111.749C222.067 112.367 221.905 112.893 221.58 113.329C221.259 113.765 220.821 114.067 220.268 114.234V114.32C220.96 114.434 221.501 114.729 221.891 115.204C222.28 115.675 222.474 116.259 222.474 116.955C222.474 117.552 222.312 118.087 221.987 118.562C221.666 119.034 221.226 119.405 220.669 119.676C220.112 119.948 219.478 120.084 218.768 120.084Z" fill="black"/>
<path d="M207.05 156.7V155.736L210.671 151.772C211.096 151.308 211.445 150.905 211.72 150.562C211.995 150.215 212.199 149.89 212.331 149.587C212.467 149.28 212.535 148.958 212.535 148.623C212.535 148.237 212.442 147.903 212.256 147.621C212.074 147.339 211.824 147.121 211.506 146.968C211.188 146.814 210.831 146.737 210.435 146.737C210.014 146.737 209.646 146.825 209.331 147C209.021 147.171 208.78 147.412 208.608 147.723C208.441 148.033 208.357 148.398 208.357 148.816H207.092C207.092 148.173 207.241 147.609 207.537 147.123C207.833 146.637 208.237 146.259 208.748 145.987C209.262 145.716 209.839 145.58 210.478 145.58C211.121 145.58 211.69 145.716 212.186 145.987C212.683 146.259 213.072 146.625 213.354 147.085C213.636 147.546 213.777 148.058 213.777 148.623C213.777 149.026 213.704 149.421 213.558 149.806C213.415 150.189 213.165 150.615 212.808 151.087C212.454 151.554 211.963 152.126 211.335 152.801L208.871 155.436V155.522H213.97V156.7H207.05ZM219.76 156.85C218.953 156.85 218.266 156.631 217.698 156.191C217.13 155.749 216.697 155.108 216.397 154.268C216.097 153.426 215.947 152.408 215.947 151.215C215.947 150.03 216.097 149.017 216.397 148.178C216.7 147.335 217.136 146.693 217.704 146.25C218.275 145.803 218.961 145.58 219.76 145.58C220.56 145.58 221.244 145.803 221.812 146.25C222.383 146.693 222.819 147.335 223.119 148.178C223.422 149.017 223.574 150.03 223.574 151.215C223.574 152.408 223.424 153.426 223.124 154.268C222.824 155.108 222.39 155.749 221.823 156.191C221.255 156.631 220.567 156.85 219.76 156.85ZM219.76 155.672C220.56 155.672 221.182 155.286 221.624 154.515C222.067 153.743 222.289 152.644 222.289 151.215C222.289 150.265 222.187 149.457 221.983 148.789C221.783 148.121 221.494 147.612 221.116 147.262C220.741 146.912 220.289 146.737 219.76 146.737C218.968 146.737 218.348 147.128 217.902 147.91C217.455 148.689 217.232 149.79 217.232 151.215C217.232 152.165 217.332 152.972 217.532 153.636C217.732 154.301 218.02 154.806 218.395 155.152C218.773 155.499 219.228 155.672 219.76 155.672Z" fill="black"/>
<path d="M207.55 193.467V192.503L211.171 188.539C211.596 188.075 211.945 187.671 212.22 187.328C212.495 186.982 212.699 186.657 212.831 186.353C212.967 186.046 213.035 185.725 213.035 185.389C213.035 185.004 212.942 184.67 212.756 184.388C212.574 184.106 212.324 183.888 212.006 183.734C211.688 183.581 211.331 183.504 210.935 183.504C210.514 183.504 210.146 183.591 209.831 183.766C209.521 183.938 209.28 184.179 209.108 184.489C208.941 184.8 208.857 185.164 208.857 185.582H207.592C207.592 184.939 207.741 184.375 208.037 183.89C208.333 183.404 208.737 183.025 209.248 182.754C209.762 182.483 210.339 182.347 210.978 182.347C211.621 182.347 212.19 182.483 212.686 182.754C213.183 183.025 213.572 183.391 213.854 183.852C214.136 184.313 214.277 184.825 214.277 185.389C214.277 185.793 214.204 186.187 214.058 186.573C213.915 186.955 213.665 187.382 213.308 187.853C212.954 188.321 212.463 188.892 211.835 189.567L209.371 192.203V192.288H214.47V193.467H207.55ZM217.025 193.467L221.932 183.761V183.675H216.275V182.497H223.303V183.74L218.418 193.467H217.025Z" fill="black"/>
<path d="M251.044 83.167L255.95 73.4611V73.3754H250.294V72.197H257.322V73.4397L252.436 83.167H251.044Z" fill="#FF0000"/>
<path d="M250.558 108.964V119.934H249.229V110.356H249.165L246.487 112.135V110.785L249.229 108.964H250.558ZM253.455 117.684V116.591L258.276 108.964H259.069V110.656H258.533L254.891 116.42V116.505H261.383V117.684H253.455ZM258.619 119.934V117.352V116.843V108.964H259.883V119.934H258.619Z" fill="#FF0000"/>
<path d="M246.701 156.7V155.736L250.322 151.772C250.747 151.308 251.097 150.905 251.372 150.562C251.647 150.215 251.85 149.89 251.982 149.587C252.118 149.28 252.186 148.958 252.186 148.623C252.186 148.237 252.093 147.903 251.907 147.621C251.725 147.339 251.475 147.121 251.158 146.968C250.84 146.814 250.483 146.737 250.086 146.737C249.665 146.737 249.297 146.825 248.983 147C248.672 147.171 248.431 147.412 248.26 147.723C248.092 148.033 248.008 148.398 248.008 148.816H246.744C246.744 148.173 246.892 147.609 247.188 147.123C247.485 146.637 247.888 146.259 248.399 145.987C248.913 145.716 249.49 145.58 250.129 145.58C250.772 145.58 251.341 145.716 251.838 145.987C252.334 146.259 252.723 146.625 253.006 147.085C253.288 147.546 253.429 148.058 253.429 148.623C253.429 149.026 253.355 149.421 253.209 149.806C253.066 150.189 252.816 150.615 252.459 151.087C252.106 151.554 251.615 152.126 250.986 152.801L248.522 155.436V155.522H253.621V156.7H246.701ZM259.69 145.73V156.7H258.362V147.123H258.298L255.619 148.901V147.551L258.362 145.73H259.69Z" fill="#FF0000"/>
<path d="M245.701 193.467V192.503L249.322 188.539C249.747 188.075 250.097 187.671 250.372 187.328C250.647 186.982 250.85 186.657 250.982 186.353C251.118 186.046 251.186 185.725 251.186 185.389C251.186 185.004 251.093 184.67 250.907 184.388C250.725 184.106 250.475 183.888 250.158 183.734C249.84 183.581 249.483 183.504 249.086 183.504C248.665 183.504 248.297 183.591 247.983 183.766C247.672 183.938 247.431 184.179 247.26 184.489C247.092 184.8 247.008 185.164 247.008 185.582H245.744C245.744 184.939 245.892 184.375 246.188 183.89C246.485 183.404 246.888 183.025 247.399 182.754C247.913 182.483 248.49 182.347 249.129 182.347C249.772 182.347 250.341 182.483 250.838 182.754C251.334 183.025 251.723 183.391 252.006 183.852C252.288 184.313 252.429 184.825 252.429 185.389C252.429 185.793 252.355 186.187 252.209 186.573C252.066 186.955 251.816 187.382 251.459 187.853C251.106 188.321 250.615 188.892 249.986 189.567L247.522 192.203V192.288H252.621V193.467H245.701ZM258.348 193.617C257.612 193.617 256.962 193.486 256.398 193.226C255.837 192.962 255.4 192.599 255.085 192.138C254.771 191.674 254.616 191.146 254.619 190.553C254.616 190.089 254.707 189.66 254.893 189.267C255.078 188.871 255.332 188.541 255.653 188.276C255.978 188.009 256.341 187.839 256.741 187.768V187.703C256.216 187.568 255.798 187.273 255.487 186.819C255.177 186.362 255.023 185.843 255.027 185.261C255.023 184.704 255.164 184.206 255.45 183.766C255.735 183.327 256.128 182.981 256.628 182.727C257.132 182.474 257.705 182.347 258.348 182.347C258.983 182.347 259.551 182.474 260.051 182.727C260.551 182.981 260.944 183.327 261.229 183.766C261.519 184.206 261.665 184.704 261.669 185.261C261.665 185.843 261.506 186.362 261.192 186.819C260.881 187.273 260.469 187.568 259.954 187.703V187.768C260.351 187.839 260.708 188.009 261.026 188.276C261.344 188.541 261.597 188.871 261.786 189.267C261.976 189.66 262.072 190.089 262.076 190.553C262.072 191.146 261.911 191.674 261.594 192.138C261.279 192.599 260.842 192.962 260.281 193.226C259.724 193.486 259.08 193.617 258.348 193.617ZM258.348 192.438C258.844 192.438 259.272 192.358 259.633 192.197C259.994 192.037 260.272 191.81 260.469 191.517C260.665 191.224 260.765 190.881 260.769 190.489C260.765 190.074 260.658 189.708 260.447 189.391C260.237 189.073 259.949 188.823 259.585 188.641C259.224 188.459 258.812 188.367 258.348 188.367C257.88 188.367 257.462 188.459 257.094 188.641C256.73 188.823 256.442 189.073 256.232 189.391C256.025 189.708 255.923 190.074 255.926 190.489C255.923 190.881 256.017 191.224 256.21 191.517C256.407 191.81 256.687 192.037 257.051 192.197C257.416 192.358 257.848 192.438 258.348 192.438ZM258.348 187.232C258.74 187.232 259.088 187.153 259.392 186.996C259.699 186.839 259.94 186.619 260.115 186.337C260.29 186.055 260.379 185.725 260.383 185.346C260.379 184.975 260.292 184.652 260.12 184.377C259.949 184.098 259.712 183.884 259.408 183.734C259.105 183.581 258.751 183.504 258.348 183.504C257.937 183.504 257.578 183.581 257.271 183.734C256.964 183.884 256.726 184.098 256.558 184.377C256.391 184.652 256.309 184.975 256.312 185.346C256.309 185.725 256.392 186.055 256.564 186.337C256.739 186.619 256.98 186.839 257.287 186.996C257.594 187.153 257.948 187.232 258.348 187.232Z" fill="#FF0000"/>
</svg>
