<svg width="48" height="45" viewBox="0 0 48 45" fill="none" xmlns="http://www.w3.org/2000/svg">
<path d="M2.66675 34.668V26.668C2.66675 20.3028 4.91436 14.1983 8.91514 9.6974C12.9159 5.19653 18.3421 2.66797 24.0001 2.66797C29.658 2.66797 35.0843 5.19653 39.085 9.69741C43.0858 14.1983 45.3334 20.3028 45.3334 26.668V34.668M40.0001 42.668C37.0546 42.668 34.6667 40.2802 34.6667 37.3346V29.3346C34.6667 26.3891 37.0546 24.0013 40.0001 24.0013C42.9456 24.0013 45.3334 26.3891 45.3334 29.3346V37.3346C45.3334 40.2802 42.9456 42.668 40.0001 42.668ZM8.00008 42.668C5.05456 42.668 2.66675 40.2802 2.66675 37.3346V29.3346C2.66675 26.3891 5.05456 24.0013 8.00008 24.0013C10.9456 24.0013 13.3334 26.3891 13.3334 29.3346V37.3346C13.3334 40.2802 10.9456 42.668 8.00008 42.668Z" stroke="black" stroke-width="4" stroke-linecap="round" stroke-linejoin="round"/>
</svg>
