<svg width="23" height="17" viewBox="0 0 23 17" fill="none" xmlns="http://www.w3.org/2000/svg">
<path d="M16.5 4.75C16.9017 4.75 17.2945 4.87829 17.6285 5.11866C17.9625 5.35903 18.2229 5.70067 18.3766 6.10038C18.5304 6.50009 18.5706 6.93993 18.4922 7.36426C18.4138 7.78859 18.2204 8.17837 17.9363 8.4843C17.6522 8.79022 17.2903 8.99856 16.8963 9.08297C16.5023 9.16737 16.0938 9.12405 15.7227 8.95849C15.3515 8.79292 15.0343 8.51254 14.8111 8.15281C14.5879 7.79308 14.4688 7.37015 14.4688 6.9375C14.4688 6.35734 14.6828 5.80094 15.0637 5.3907C15.4446 4.98047 15.9613 4.75 16.5 4.75ZM16.5 3.875C15.9376 3.875 15.3878 4.05461 14.9201 4.39112C14.4524 4.72764 14.088 5.20593 13.8727 5.76553C13.6575 6.32513 13.6012 6.9409 13.7109 7.53496C13.8206 8.12903 14.0915 8.67472 14.4892 9.10301C14.8869 9.53131 15.3936 9.82299 15.9452 9.94115C16.4968 10.0593 17.0686 9.99867 17.5883 9.76688C18.1079 9.53509 18.552 9.14256 18.8645 8.63893C19.177 8.13531 19.3438 7.54321 19.3438 6.9375C19.3438 6.12527 19.0441 5.34632 18.5108 4.77199C17.9775 4.19766 17.2542 3.875 16.5 3.875Z" fill="#525252"/>
<path d="M20.5625 16.125H19.75V13.9375C19.75 13.6502 19.6975 13.3658 19.5954 13.1004C19.4933 12.835 19.3437 12.5938 19.1551 12.3907C18.9664 12.1876 18.7425 12.0264 18.4961 11.9165C18.2496 11.8066 17.9855 11.75 17.7188 11.75H15.2812C14.7425 11.75 14.2259 11.9805 13.8449 12.3907C13.464 12.8009 13.25 13.3573 13.25 13.9375V16.125H12.4375V13.9375C12.4375 13.1253 12.7371 12.3463 13.2704 11.772C13.8037 11.1977 14.527 10.875 15.2812 10.875H17.7188C18.473 10.875 19.1963 11.1977 19.7296 11.772C20.2629 12.3463 20.5625 13.1253 20.5625 13.9375V16.125Z" fill="#525252"/>
<path d="M8 2.125C8.49445 2.125 8.9778 2.28079 9.38893 2.57266C9.80005 2.86453 10.1205 3.27938 10.3097 3.76475C10.4989 4.25011 10.5484 4.7842 10.452 5.29946C10.3555 5.81472 10.1174 6.28802 9.76777 6.6595C9.41814 7.03099 8.97268 7.28397 8.48773 7.38646C8.00278 7.48895 7.50011 7.43635 7.04329 7.23531C6.58648 7.03426 6.19603 6.6938 5.92133 6.25698C5.64662 5.82017 5.5 5.30661 5.5 4.78125C5.5 4.07677 5.76339 3.40114 6.23223 2.903C6.70108 2.40485 7.33696 2.125 8 2.125ZM8 1.0625C7.30777 1.0625 6.63108 1.2806 6.05551 1.68922C5.47993 2.09784 5.03133 2.67863 4.76642 3.35815C4.50152 4.03766 4.4322 4.78538 4.56725 5.50674C4.7023 6.22811 5.03564 6.89073 5.52513 7.4108C6.01461 7.93088 6.63825 8.28506 7.31719 8.42854C7.99612 8.57203 8.69985 8.49839 9.33939 8.21693C9.97893 7.93546 10.5256 7.45882 10.9101 6.84728C11.2947 6.23573 11.5 5.51675 11.5 4.78125C11.5 3.79498 11.1313 2.8491 10.4749 2.1517C9.8185 1.4543 8.92826 1.0625 8 1.0625Z" fill="#525252"/>
<path d="M13 15.9375H12V13.2812C12 12.9324 11.9353 12.587 11.8097 12.2647C11.6841 11.9425 11.4999 11.6497 11.2678 11.403C11.0356 11.1563 10.76 10.9607 10.4567 10.8272C10.1534 10.6937 9.8283 10.625 9.5 10.625H6.5C5.83696 10.625 5.20107 10.9049 4.73223 11.403C4.26339 11.9011 4 12.5768 4 13.2812V15.9375H3V13.2812C3 12.295 3.36875 11.3491 4.02513 10.6517C4.6815 9.9543 5.57174 9.5625 6.5 9.5625H9.5C10.4283 9.5625 11.3185 9.9543 11.9749 10.6517C12.6313 11.3491 13 12.295 13 13.2812V15.9375Z" fill="#525252"/>
</svg>
