<svg width="22" height="16" viewBox="0 0 22 16" fill="none" xmlns="http://www.w3.org/2000/svg">
<path d="M17.4166 9.70075V6.56472H14.2805V5.11732H17.4166V1.98129H18.864V5.11732H22V6.56472H18.864V9.70075H17.4166ZM8.49094 7.74676C7.42952 7.74676 6.56108 7.40903 5.88563 6.73358C5.21017 6.05813 4.87245 5.18969 4.87245 4.12826C4.87245 3.06684 5.21017 2.1984 5.88563 1.52295C6.56108 0.847492 7.42952 0.509766 8.49094 0.509766C9.55237 0.509766 10.4208 0.847492 11.0963 1.52295C11.7717 2.1984 12.1094 3.06684 12.1094 4.12826C12.1094 5.18969 11.7717 6.05813 11.0963 6.73358C10.4208 7.40903 9.55237 7.74676 8.49094 7.74676V7.74676ZM0.771484 15.4903V13.2228C0.771484 12.6599 0.912204 12.1493 1.19364 11.6909C1.47508 11.2326 1.88116 10.8908 2.41187 10.6657C3.61804 10.135 4.69152 9.76106 5.63233 9.54395C6.57314 9.32684 7.52601 9.21828 8.49094 9.21828C9.45588 9.21828 10.4047 9.32684 11.3375 9.54395C12.2703 9.76106 13.3397 10.135 14.5459 10.6657C15.0766 10.9069 15.4867 11.2527 15.7762 11.703C16.0657 12.1533 16.2104 12.6599 16.2104 13.2228V15.4903H0.771484ZM2.21888 14.0429H14.763V13.2228C14.763 12.9654 14.6906 12.7202 14.5459 12.487C14.4012 12.2538 14.2082 12.0809 13.9669 11.9683C12.8251 11.4376 11.8602 11.0878 11.0721 10.919C10.2841 10.7501 9.42371 10.6657 8.49094 10.6657C7.55818 10.6657 6.69376 10.7501 5.89769 10.919C5.10162 11.0878 4.13267 11.4376 2.99083 11.9683C2.7496 12.0809 2.56063 12.2538 2.42393 12.487C2.28723 12.7202 2.21888 12.9654 2.21888 13.2228V14.0429ZM8.49094 6.29936C9.11815 6.29936 9.6368 6.09431 10.0469 5.68422C10.457 5.27412 10.662 4.75547 10.662 4.12826C10.662 3.50106 10.457 2.98241 10.0469 2.57231C9.6368 2.16221 9.11815 1.95716 8.49094 1.95716C7.86374 1.95716 7.34509 2.16221 6.93499 2.57231C6.52489 2.98241 6.31985 3.50106 6.31985 4.12826C6.31985 4.75547 6.52489 5.27412 6.93499 5.68422C7.34509 6.09431 7.86374 6.29936 8.49094 6.29936Z" fill="#0D192E"/>
</svg>
