<svg width="16" height="17" viewBox="0 0 16 17" fill="none" xmlns="http://www.w3.org/2000/svg">
<path fill-rule="evenodd" clip-rule="evenodd" d="M8.00008 2.33331C6.71142 2.33331 5.66675 3.37798 5.66675 4.66665C5.66675 5.95531 6.71142 6.99998 8.00008 6.99998C9.28874 6.99998 10.3334 5.95531 10.3334 4.66665C10.3334 3.37798 9.28874 2.33331 8.00008 2.33331ZM3.66675 4.66665C3.66675 2.27341 5.60685 0.333313 8.00008 0.333313C10.3933 0.333313 12.3334 2.27341 12.3334 4.66665C12.3334 7.05988 10.3933 8.99998 8.00008 8.99998C5.60685 8.99998 3.66675 7.05988 3.66675 4.66665ZM3.44288 11.4998C4.77272 10.7345 6.37411 10.3333 8.00008 10.3333C9.62605 10.3333 11.2274 10.7345 12.5573 11.4998C13.8865 12.2648 14.9069 13.375 15.3813 14.7028C15.5671 15.2229 15.2961 15.7951 14.776 15.9809C14.2559 16.1667 13.6837 15.8957 13.4979 15.3757C13.2126 14.5771 12.559 13.8084 11.5597 13.2333C10.5609 12.6585 9.30924 12.3333 8.00008 12.3333C6.69093 12.3333 5.43922 12.6585 4.44047 13.2333C3.44114 13.8084 2.78758 14.5771 2.50228 15.3757C2.31647 15.8957 1.74423 16.1667 1.22414 15.9809C0.704047 15.7951 0.43306 15.2229 0.61887 14.7028C1.09324 13.375 2.11362 12.2648 3.44288 11.4998Z" fill="black"/>
</svg>
