<svg width="20" height="18" viewBox="0 0 20 18" fill="none" xmlns="http://www.w3.org/2000/svg">
<path fill-rule="evenodd" clip-rule="evenodd" d="M19.4316 8.50189C19.4316 8.82395 19.3037 9.13282 19.076 9.36056C18.8482 9.58829 18.5394 9.71623 18.2173 9.71623L4.148 9.71623L9.36236 14.9282C9.59038 15.1562 9.71848 15.4654 9.71848 15.7879C9.71848 16.1104 9.59038 16.4196 9.36236 16.6477C9.13434 16.8757 8.82508 17.0038 8.50261 17.0038C8.18014 17.0038 7.87088 16.8757 7.64286 16.6477L0.356837 9.36164C0.24375 9.24884 0.154029 9.11484 0.0928103 8.96731C0.0315921 8.81978 8.0763e-05 8.66162 8.07755e-05 8.50189C8.0788e-05 8.34216 0.0315921 8.184 0.0928104 8.03648C0.154029 7.88894 0.24375 7.75494 0.356837 7.64214L7.64286 0.356118C7.87088 0.128098 8.18014 -1.09633e-06 8.50261 -1.06491e-06C8.82508 -1.03348e-06 9.13434 0.128098 9.36236 0.356118C9.59038 0.584138 9.71848 0.893401 9.71848 1.21587C9.71848 1.53834 9.59038 1.8476 9.36236 2.07562L4.148 7.28755L18.2173 7.28755C18.5394 7.28755 18.8482 7.41549 19.076 7.64322C19.3037 7.87096 19.4316 8.17983 19.4316 8.50189Z" fill="#0D192E"/>
</svg>
