<svg width="22" height="21" viewBox="0 0 22 21" fill="none" xmlns="http://www.w3.org/2000/svg">
<path d="M14.7129 9.7033C14.772 9.76233 14.819 9.83245 14.851 9.90966C14.883 9.98686 14.8995 10.0696 14.8995 10.1532C14.8995 10.2368 14.883 10.3196 14.851 10.3968C14.819 10.474 14.772 10.5441 14.7129 10.6031L10.9021 14.416C10.8431 14.4752 10.773 14.5222 10.6959 14.5542C10.6187 14.5862 10.536 14.6027 10.4524 14.6027C10.3689 14.6027 10.2862 14.5862 10.209 14.5542C10.1319 14.5222 10.0618 14.4752 10.0028 14.416L8.09739 12.5096C8.03834 12.4505 7.9915 12.3804 7.95954 12.3032C7.92758 12.226 7.91113 12.1432 7.91113 12.0597C7.91113 11.9761 7.92758 11.8934 7.95954 11.8162C7.9915 11.739 8.03834 11.6688 8.09739 11.6097C8.21665 11.4904 8.3784 11.4234 8.54706 11.4234C8.63057 11.4234 8.71327 11.4398 8.79042 11.4718C8.86758 11.5038 8.93768 11.5507 8.99673 11.6097L10.4524 13.0675L13.8135 9.7033C13.8725 9.64412 13.9426 9.59716 14.0198 9.56513C14.0969 9.53309 14.1797 9.5166 14.2632 9.5166C14.3467 9.5166 14.4295 9.53309 14.5066 9.56513C14.5838 9.59716 14.6539 9.64412 14.7129 9.7033Z" fill="#505050"/>
<path d="M5.37167 0.621094C5.54012 0.621094 5.70167 0.688046 5.82078 0.807222C5.93988 0.926398 6.0068 1.08804 6.0068 1.25658V1.89206H16.1688V1.25658C16.1688 1.08804 16.2358 0.926398 16.3549 0.807222C16.474 0.688046 16.6355 0.621094 16.804 0.621094C16.9724 0.621094 17.134 0.688046 17.2531 0.807222C17.3722 0.926398 17.4391 1.08804 17.4391 1.25658V1.89206H18.7093C19.3831 1.89206 20.0293 2.15987 20.5058 2.63657C20.9822 3.11328 21.2499 3.75983 21.2499 4.43399V18.4146C21.2499 19.0888 20.9822 19.7353 20.5058 20.212C20.0293 20.6887 19.3831 20.9565 18.7093 20.9565H3.46629C2.79251 20.9565 2.14632 20.6887 1.66988 20.212C1.19344 19.7353 0.925781 19.0888 0.925781 18.4146V4.43399C0.925781 3.75983 1.19344 3.11328 1.66988 2.63657C2.14632 2.15987 2.79251 1.89206 3.46629 1.89206H4.73655V1.25658C4.73655 1.08804 4.80346 0.926398 4.92257 0.807222C5.04168 0.688046 5.20323 0.621094 5.37167 0.621094V0.621094ZM2.19604 5.70495V18.4146C2.19604 18.7517 2.32987 19.075 2.56808 19.3133C2.8063 19.5517 3.1294 19.6856 3.46629 19.6856H18.7093C19.0462 19.6856 19.3693 19.5517 19.6076 19.3133C19.8458 19.075 19.9796 18.7517 19.9796 18.4146V5.70495H2.19604Z" fill="#505050"/>
</svg>
