<svg width="19" height="16" viewBox="0 0 19 16" fill="none" xmlns="http://www.w3.org/2000/svg">
<path d="M16.205 6.35186C15.7372 5.30564 15.0068 4.38478 14.078 3.67009C13.1492 2.95541 12.0504 2.46877 10.878 2.25288L11.9371 0.639276L10.8629 0L9.46544 2.12921C8.04194 2.1355 6.65156 2.53878 5.46609 3.28923C4.28062 4.03968 3.352 5.1044 2.79498 6.35186C2.04886 6.36537 1.33808 6.65709 0.815436 7.16433C0.292791 7.67157 0 8.35383 0 9.06445C0 9.77507 0.292791 10.4573 0.815436 10.9646C1.33808 11.4718 2.04886 11.7635 2.79498 11.777C3.35437 13.0296 4.28832 14.0979 5.48055 14.8487C6.67277 15.5996 8.0706 16 9.5 16C10.9294 16 12.3272 15.5996 13.5195 14.8487C14.7117 14.0979 15.6456 13.0296 16.205 11.777C16.9511 11.7635 17.6619 11.4718 18.1846 10.9646C18.7072 10.4573 19 9.77507 19 9.06445C19 8.35383 18.7072 7.67157 18.1846 7.16433C17.6619 6.65709 16.9511 6.36537 16.205 6.35186ZM17.2798 10.1202C16.9901 10.4024 16.5953 10.5644 16.181 10.5711L15.3606 10.5859L15.0394 11.3049C14.5774 12.3398 13.8058 13.2225 12.8208 13.8429C11.8359 14.4633 10.681 14.7941 9.50002 14.7941C8.31905 14.7941 7.16417 14.4633 6.17919 13.8429C5.19421 13.2225 4.42265 12.3398 3.96059 11.3049L3.63941 10.5859L2.81905 10.5711C2.40455 10.5637 2.00966 10.4017 1.71927 10.12C1.42888 9.83823 1.2662 9.45922 1.2662 9.06445C1.2662 8.66968 1.42888 8.29067 1.71927 8.00893C2.00966 7.72719 2.40455 7.5652 2.81905 7.55782L3.63941 7.54297L3.96059 6.82401C4.42267 5.7891 5.19423 4.90648 6.17921 4.28606C7.16419 3.66565 8.31906 3.33485 9.50002 3.33485C10.681 3.33485 11.8359 3.66565 12.8208 4.28606C13.8058 4.90648 14.5774 5.7891 15.0394 6.82401L15.3606 7.54297L16.181 7.55782C16.4901 7.56338 16.7908 7.65508 17.0458 7.82158C17.3008 7.98808 17.499 8.22209 17.6159 8.49468C17.7328 8.76727 17.7633 9.0665 17.7035 9.3554C17.6438 9.6443 17.4965 9.9102 17.2798 10.1202Z" fill="black"/>
<path d="M8.5 0H7L7.5 2.5H9L8.5 0Z" fill="black"/>
</svg>
