<svg width="16" height="20" viewBox="0 0 16 20" fill="none" xmlns="http://www.w3.org/2000/svg">
<path fill-rule="evenodd" clip-rule="evenodd" d="M0.982233 0.982233C1.45107 0.513392 2.08696 0.25 2.75 0.25H9.75C9.94891 0.25 10.1397 0.329018 10.2803 0.46967L15.5303 5.71967C15.671 5.86032 15.75 6.05109 15.75 6.25V16.75C15.75 17.413 15.4866 18.0489 15.0178 18.5178C14.5489 18.9866 13.913 19.25 13.25 19.25H2.75C2.08696 19.25 1.45107 18.9866 0.982233 18.5178C0.513392 18.0489 0.25 17.413 0.25 16.75V2.75C0.25 2.08696 0.513392 1.45107 0.982233 0.982233ZM2.75 1.75C2.48478 1.75 2.23043 1.85536 2.04289 2.04289C1.85536 2.23043 1.75 2.48478 1.75 2.75V16.75C1.75 17.0152 1.85536 17.2696 2.04289 17.4571C2.23043 17.6446 2.48478 17.75 2.75 17.75H13.25C13.5152 17.75 13.7696 17.6446 13.9571 17.4571C14.1446 17.2696 14.25 17.0152 14.25 16.75V6.56066L9.43934 1.75H2.75Z" fill="black"/>
<path fill-rule="evenodd" clip-rule="evenodd" d="M9.75 0.25C10.1642 0.25 10.5 0.585786 10.5 1V5.5H15C15.4142 5.5 15.75 5.83579 15.75 6.25C15.75 6.66421 15.4142 7 15 7H9.75C9.33579 7 9 6.66421 9 6.25V1C9 0.585786 9.33579 0.25 9.75 0.25Z" fill="black"/>
<path fill-rule="evenodd" clip-rule="evenodd" d="M3.75 10.625C3.75 10.2108 4.08579 9.875 4.5 9.875H11.5C11.9142 9.875 12.25 10.2108 12.25 10.625C12.25 11.0392 11.9142 11.375 11.5 11.375H4.5C4.08579 11.375 3.75 11.0392 3.75 10.625Z" fill="black"/>
<path fill-rule="evenodd" clip-rule="evenodd" d="M3.75 14.125C3.75 13.7108 4.08579 13.375 4.5 13.375H11.5C11.9142 13.375 12.25 13.7108 12.25 14.125C12.25 14.5392 11.9142 14.875 11.5 14.875H4.5C4.08579 14.875 3.75 14.5392 3.75 14.125Z" fill="black"/>
<path fill-rule="evenodd" clip-rule="evenodd" d="M3.75 7.125C3.75 6.71079 4.08579 6.375 4.5 6.375H6.25C6.66421 6.375 7 6.71079 7 7.125C7 7.53921 6.66421 7.875 6.25 7.875H4.5C4.08579 7.875 3.75 7.53921 3.75 7.125Z" fill="black"/>
</svg>
