<svg width="19" height="21" viewBox="0 0 19 21" fill="none" xmlns="http://www.w3.org/2000/svg">
<path d="M18.2795 8.84131V8.50706C18.2795 3.81624 14.2855 0 9.37607 0C4.46663 0 0.472689 3.81624 0.472689 8.50706V9.27274C0.13268 9.97224 -0.0290057 10.748 0.00426998 11.5233C0.0392521 12.3317 0.285834 13.1237 0.717991 13.8132C1.14972 14.5026 1.7585 15.0756 2.47776 15.471C3.19703 15.866 4.01314 16.0755 4.83735 16.0763H4.88727L4.88812 16.0738C5.01269 16.0621 5.13171 16.0076 5.22045 15.9205C5.32284 15.82 5.37915 15.6863 5.37915 15.5443V7.09969C5.37915 6.9577 5.32284 6.82408 5.22045 6.72355C5.11977 6.6247 4.98027 6.56774 4.83735 6.56774H4.8365C3.62876 6.56774 2.48416 7.00293 1.59468 7.79709C1.77428 5.99138 2.63988 4.31762 4.04343 3.06899C5.49689 1.77597 7.39105 1.06349 9.3765 1.06349C11.3619 1.06349 13.1806 1.74958 14.6234 2.99485C16.0167 4.1974 16.9045 5.82049 17.1353 7.57887C16.2885 6.92544 15.2373 6.5669 14.1575 6.5669H14.1545C13.8559 6.5669 13.6128 6.80565 13.6128 7.09885V15.5431C13.6128 15.6851 13.6691 15.8187 13.7715 15.9192C13.8721 16.0185 14.0116 16.075 14.1545 16.075C14.6776 16.0734 15.1929 15.9892 15.6869 15.8241C15.5372 16.5027 15.1596 17.1172 14.6161 17.5637C14.0445 18.034 13.3184 18.2933 12.5727 18.295H11.9933C11.914 17.4967 11.4464 16.7879 10.7331 16.3909C10.0028 15.9841 9.11883 15.9624 8.36842 16.3322C7.61801 16.7021 7.10778 17.4112 7.00369 18.2292C6.89959 19.0473 7.21614 19.8578 7.85094 20.3977C8.31338 20.7914 8.89699 21 9.49339 21C9.7148 21 9.93835 20.9711 10.1576 20.912C10.9524 20.6984 11.5863 20.1196 11.8607 19.3589H12.5727C13.6985 19.3572 14.7608 18.9296 15.5636 18.1547C16.3584 17.3877 16.8111 16.3653 16.8405 15.2725C17.8874 14.5914 18.6131 13.5548 18.8848 12.3497C19.1574 11.1396 18.9424 9.89391 18.2795 8.84006V8.84131ZM14.6959 7.66934C15.6963 7.81385 16.6029 8.35334 17.1959 9.15881V9.2719H17.2735C17.9889 10.322 18.1058 11.6854 17.5773 12.8385C17.0542 13.9799 15.9544 14.7933 14.6955 14.9751V7.66892L14.6959 7.66934ZM1.50594 13.0337C0.935563 11.9627 0.935563 10.6839 1.50594 9.61327C2.06523 8.56361 3.10403 7.84191 4.29556 7.67185V14.9755C3.10446 14.8055 2.06523 14.0838 1.50594 13.0341V13.0337ZM8.48531 19.5269C8.21526 19.2617 8.0668 18.9095 8.0668 18.5346C8.0668 18.1597 8.21526 17.8074 8.48531 17.5423C8.75535 17.2772 9.11413 17.1314 9.49595 17.1314C9.87777 17.1314 10.2365 17.2772 10.5066 17.5423C10.7766 17.8074 10.9251 18.1597 10.9251 18.5346C10.9247 18.9095 10.7754 19.2613 10.5057 19.526C10.2361 19.7908 9.87734 19.9374 9.49595 19.9378C9.11413 19.9378 8.75535 19.7916 8.48531 19.5269Z" fill="black"/>
</svg>
