<svg width="18" height="18" viewBox="0 0 18 18" fill="none" xmlns="http://www.w3.org/2000/svg">
<path fill-rule="evenodd" clip-rule="evenodd" d="M0.25 1C0.25 0.585786 0.585786 0.25 1 0.25H7.22222C7.63644 0.25 7.97222 0.585786 7.97222 1V7.22222C7.97222 7.63644 7.63644 7.97222 7.22222 7.97222H1C0.585786 7.97222 0.25 7.63644 0.25 7.22222V1ZM1.75 1.75V6.47222H6.47222V1.75H1.75Z" fill="black"/>
<path fill-rule="evenodd" clip-rule="evenodd" d="M10.0278 1C10.0278 0.585786 10.3636 0.25 10.7778 0.25H17.0001C17.4143 0.25 17.7501 0.585786 17.7501 1V7.22222C17.7501 7.63644 17.4143 7.97222 17.0001 7.97222H10.7778C10.3636 7.97222 10.0278 7.63644 10.0278 7.22222V1ZM11.5278 1.75V6.47222H16.2501V1.75H11.5278Z" fill="black"/>
<path fill-rule="evenodd" clip-rule="evenodd" d="M10.0278 10.7778C10.0278 10.3636 10.3636 10.0278 10.7778 10.0278H17.0001C17.4143 10.0278 17.7501 10.3636 17.7501 10.7778V17.0001C17.7501 17.4143 17.4143 17.7501 17.0001 17.7501H10.7778C10.3636 17.7501 10.0278 17.4143 10.0278 17.0001V10.7778ZM11.5278 11.5278V16.2501H16.2501V11.5278H11.5278Z" fill="black"/>
<path fill-rule="evenodd" clip-rule="evenodd" d="M0.25 10.7778C0.25 10.3636 0.585786 10.0278 1 10.0278H7.22222C7.63644 10.0278 7.97222 10.3636 7.97222 10.7778V17.0001C7.97222 17.4143 7.63644 17.7501 7.22222 17.7501H1C0.585786 17.7501 0.25 17.4143 0.25 17.0001V10.7778ZM1.75 11.5278V16.2501H6.47222V11.5278H1.75Z" fill="black"/>
</svg>
