<svg width="18" height="18" viewBox="0 0 18 18" fill="none" xmlns="http://www.w3.org/2000/svg">
<path fill-rule="evenodd" clip-rule="evenodd" d="M2.77778 1.75C2.50519 1.75 2.24377 1.85828 2.05103 2.05103C1.85828 2.24377 1.75 2.50519 1.75 2.77778V15.2222C1.75 15.4948 1.85828 15.7562 2.05103 15.949C2.24378 16.1417 2.50519 16.25 2.77778 16.25H6.33333C6.74755 16.25 7.08333 16.5858 7.08333 17C7.08333 17.4142 6.74755 17.75 6.33333 17.75H2.77778C2.10737 17.75 1.46442 17.4837 0.990369 17.0096C0.516319 16.5356 0.25 15.8926 0.25 15.2222V2.77778C0.25 2.10737 0.516319 1.46442 0.990369 0.990369C1.46442 0.516319 2.10737 0.25 2.77778 0.25H6.33333C6.74755 0.25 7.08333 0.585786 7.08333 1C7.08333 1.41421 6.74755 1.75 6.33333 1.75H2.77778Z" fill="black"/>
<path fill-rule="evenodd" clip-rule="evenodd" d="M12.0253 4.02521C12.3182 3.73232 12.7931 3.73232 13.086 4.02521L17.5304 8.46966C17.8233 8.76255 17.8233 9.23742 17.5304 9.53032L13.086 13.9748C12.7931 14.2677 12.3182 14.2677 12.0253 13.9748C11.7324 13.6819 11.7324 13.207 12.0253 12.9141L15.9394 8.99999L12.0253 5.08587C11.7324 4.79298 11.7324 4.31811 12.0253 4.02521Z" fill="black"/>
<path fill-rule="evenodd" clip-rule="evenodd" d="M5.5835 9C5.5835 8.58579 5.91928 8.25 6.3335 8.25H17.0002C17.4144 8.25 17.7502 8.58579 17.7502 9C17.7502 9.41421 17.4144 9.75 17.0002 9.75H6.3335C5.91928 9.75 5.5835 9.41421 5.5835 9Z" fill="black"/>
</svg>
