<svg width="20" height="20" viewBox="0 0 20 20" fill="none" xmlns="http://www.w3.org/2000/svg">
<path fill-rule="evenodd" clip-rule="evenodd" d="M10 1.75C5.44365 1.75 1.75 5.44365 1.75 10C1.75 14.5563 5.44365 18.25 10 18.25C14.5563 18.25 18.25 14.5563 18.25 10C18.25 5.44365 14.5563 1.75 10 1.75ZM0.25 10C0.25 4.61522 4.61522 0.25 10 0.25C15.3848 0.25 19.75 4.61522 19.75 10C19.75 15.3848 15.3848 19.75 10 19.75C4.61522 19.75 0.25 15.3848 0.25 10Z" fill="black"/>
<path fill-rule="evenodd" clip-rule="evenodd" d="M10.2577 6.27405C9.80385 6.19619 9.33706 6.28149 8.94004 6.51482C8.54301 6.74815 8.24138 7.11447 8.08856 7.54888C7.95111 7.93963 7.52292 8.14496 7.13218 8.0075C6.74144 7.87005 6.53611 7.44186 6.67356 7.05112C6.94393 6.28254 7.47759 5.63444 8.18001 5.22162C8.88243 4.8088 9.70829 4.6579 10.5113 4.79564C11.3143 4.93338 12.0427 5.35087 12.5674 5.97418C13.092 6.59731 13.3791 7.38595 13.3781 8.20046C13.3778 9.49836 12.4143 10.3689 11.6941 10.849C11.3111 11.1044 10.9335 11.2926 10.6545 11.4166C10.514 11.4791 10.3959 11.5264 10.3111 11.5587C10.2686 11.5749 10.2344 11.5873 10.2096 11.5961L10.1798 11.6066L10.1706 11.6097L10.1674 11.6108L10.1662 11.6112C10.166 11.6113 10.1652 11.6115 9.93689 10.9265L10.1652 11.6115C9.77228 11.7425 9.34754 11.5301 9.21655 11.1372C9.08572 10.7447 9.29745 10.3205 9.68954 10.1889C9.68999 10.1888 9.69044 10.1886 9.69089 10.1885L9.92806 10.9C9.69089 10.1885 9.69108 10.1884 9.69089 10.1885L9.70713 10.1828C9.72196 10.1775 9.74571 10.1689 9.77708 10.1569C9.83996 10.133 9.93274 10.0959 10.0453 10.0459C10.2726 9.94486 10.57 9.79565 10.862 9.60096C11.4917 9.18116 11.8781 8.70185 11.8781 8.2L11.8781 8.19888C11.8788 7.73837 11.7164 7.29248 11.4199 6.94018C11.1233 6.58787 10.7116 6.3519 10.2577 6.27405Z" fill="black"/>
<path fill-rule="evenodd" clip-rule="evenodd" d="M9.25 14.5C9.25 14.0858 9.58579 13.75 10 13.75H10.009C10.4232 13.75 10.759 14.0858 10.759 14.5C10.759 14.9142 10.4232 15.25 10.009 15.25H10C9.58579 15.25 9.25 14.9142 9.25 14.5Z" fill="black"/>
</svg>
