<svg width="20" height="20" viewBox="0 0 20 20" fill="none" xmlns="http://www.w3.org/2000/svg">
<g clip-path="url(#clip0_23_746)">
<path fill-rule="evenodd" clip-rule="evenodd" d="M18.1354 12.3416H12.6493C12.3835 10.6506 12.148 8.71224 12.1034 6.95118C13.0518 6.26086 13.6724 5.11556 13.6724 3.82075C13.6728 1.71231 12.0275 0 10.0002 0C7.97288 0 6.32755 1.71231 6.32755 3.82035C6.32755 5.11515 6.9478 6.26045 7.89656 6.95077C7.8524 8.71265 7.61608 10.6506 7.3507 12.3412H1.86421C0.834479 12.3412 0 13.21 0 14.2804V15.5736C0 16.6447 0.834479 17.5127 1.86421 17.5127H2.17918C2.01685 18.0866 2.11758 18.7084 2.45579 19.1952C2.80639 19.7002 3.36852 19.9992 3.96707 19.9992H16.0325C16.6311 19.9992 17.1932 19.7002 17.5438 19.1952C17.882 18.7084 17.9828 18.0866 17.8204 17.5127H18.1354C19.1651 17.5127 19.9996 16.6447 19.9996 15.5736V14.2804C19.9996 13.2096 19.1651 12.3412 18.1354 12.3412V12.3416ZM8.66673 6.20927C7.8768 5.73052 7.34489 4.83991 7.34489 3.82075C7.34489 2.29584 8.53462 1.05825 10.0006 1.05825C11.4665 1.05825 12.6563 2.29584 12.6563 3.82075C12.6563 4.83991 12.124 5.73052 11.3344 6.20927C11.1756 6.30518 11.0795 6.4829 11.0822 6.67352C11.1059 8.50309 11.3433 10.5491 11.6203 12.3416H8.38121C8.6586 10.5487 8.89569 8.5035 8.91932 6.67352C8.92203 6.4829 8.82557 6.30518 8.66712 6.20927H8.66673ZM16.8376 17.7836C16.9232 18.0523 16.8798 18.3469 16.7202 18.577C16.561 18.8063 16.3053 18.9426 16.0325 18.9426H3.96784C3.69511 18.9426 3.43981 18.8063 3.28019 18.577C3.12097 18.3473 3.07758 18.0523 3.16281 17.7836L3.24881 17.5135H6.97995H13.0208H16.7516L16.8376 17.7836ZM18.983 15.5744C18.983 16.0608 18.6034 16.4561 18.1354 16.4561H17.1235C17.1235 16.4561 17.1204 16.4561 17.1185 16.4561H2.88155C2.88155 16.4561 2.87845 16.4561 2.87651 16.4561H1.86421C1.39661 16.4561 1.01656 16.0612 1.01656 15.5744V14.2812C1.01656 13.7948 1.39622 13.3994 1.86421 13.3994H7.77608C7.77608 13.3994 7.77956 13.3994 7.78111 13.3994H12.2189C12.2189 13.3994 12.2224 13.3994 12.2239 13.3994H18.1354C18.603 13.3994 18.983 13.7944 18.983 14.2812V15.5744Z" fill="black"/>
</g>
<defs>
<clipPath id="clip0_23_746">
<rect width="20" height="20" fill="white"/>
</clipPath>
</defs>
</svg>
