<svg width="15" height="20" viewBox="0 0 15 20" fill="none" xmlns="http://www.w3.org/2000/svg">
<g clip-path="url(#clip0_155_143)">
<path d="M15 4.99317V19.5222C15 19.7849 14.7978 20 14.5464 20H0.453556C0.203193 20 0 19.7849 0 19.5222V0.477803C0 0.214056 0.203193 0 0.453556 0H9.8813C9.90566 0 9.93106 0.00218424 9.95542 0.00600666C10.0487 0.0223885 10.1332 0.0693496 10.198 0.135969L14.8424 4.62076C14.8797 4.65516 14.9114 4.69557 14.9368 4.73926L14.944 4.75236C14.9803 4.82117 15.0005 4.8998 15.0005 4.98335V4.99317H15ZM9.42774 0.955605H0.907112V19.0444H14.0929V5.46115H9.8813C9.63093 5.46115 9.42774 5.24709 9.42774 4.98335V0.955605ZM12.9385 16.9H2.06199C1.81163 16.9 1.60844 16.686 1.60844 16.4222C1.60844 16.1585 1.81163 15.9444 2.06199 15.9444H12.9385C13.1889 15.9444 13.3921 16.1585 13.3921 16.4222C13.3921 16.686 13.1889 16.9 12.9385 16.9ZM12.9385 14.6726H2.06199C1.81163 14.6726 1.60844 14.4586 1.60844 14.1948C1.60844 13.9311 1.81163 13.717 2.06199 13.717H12.9385C13.1889 13.717 13.3921 13.9311 13.3921 14.1948C13.3921 14.4586 13.1889 14.6726 12.9385 14.6726ZM5.64897 12.4463H2.06199C1.81163 12.4463 1.60844 12.2323 1.60844 11.9685C1.60844 11.7048 1.81163 11.4907 2.06199 11.4907H5.64897C5.89934 11.4907 6.10253 11.7048 6.10253 11.9685C6.10253 12.2323 5.89934 12.4463 5.64897 12.4463ZM3.32055 6.6592C3.05101 6.38617 2.88358 6.00284 2.88358 5.57855C2.88358 4.754 3.52115 4.0818 4.30386 4.0818C5.08656 4.0818 5.72465 4.75345 5.72465 5.57855C5.72465 6.00284 5.55619 6.38617 5.28665 6.6592C6.2881 7.07366 6.99824 8.10244 6.99824 9.30268C6.99824 9.56643 6.79504 9.78048 6.54468 9.78048H2.06199C1.81059 9.78048 1.60844 9.56643 1.60844 9.30268C1.60844 8.10244 2.31961 7.07312 3.32003 6.6592H3.32055ZM2.57412 8.82488H6.03255C5.83143 8.01671 5.13166 7.41932 4.30282 7.41932C3.47398 7.41932 2.77524 8.01671 2.57412 8.82488ZM4.30386 5.03741C4.02084 5.03741 3.79069 5.2804 3.79069 5.57855C3.79069 5.8767 4.02136 6.12024 4.30386 6.12024C4.58636 6.12024 4.81754 5.87725 4.81754 5.57855C4.81754 5.27986 4.58687 5.03741 4.30386 5.03741ZM10.3354 4.50609H13.3817L10.3354 1.56392V4.50609Z" fill="black"/>
</g>
<defs>
<clipPath id="clip0_155_143">
<rect width="15" height="20" fill="white"/>
</clipPath>
</defs>
</svg>
