<svg width="19" height="22" viewBox="0 0 19 22" fill="none" xmlns="http://www.w3.org/2000/svg">
<path d="M17.8791 15.0443C17.4816 13.8373 17.2784 12.5748 17.2772 11.304V8.16399C17.3062 6.17437 16.5961 4.24473 15.2845 2.74839C13.9774 1.24969 12.1631 0.28606 10.1895 0.0421658C9.09884 -0.0709865 7.98932 0.0421658 6.93638 0.39891C5.88343 0.736795 4.92478 1.30099 4.117 2.05376C3.30519 2.78712 2.65814 3.68432 2.21855 4.68613C1.77678 5.68755 1.5462 6.76929 1.54121 7.86382V11.3213C1.53891 12.5868 1.33574 13.844 0.939305 15.0458L-0.000488281 17.8259L0.752289 18.86H6.26061C6.26061 19.6867 6.59849 20.4944 7.18154 21.0791C7.76302 21.6605 8.57237 22 9.40058 22C10.2272 22 11.035 21.6621 11.6181 21.0791C12.2011 20.496 12.5406 19.6867 12.5406 18.86H18.0489L18.8001 17.8259L17.8791 15.0443ZM10.5085 19.99C10.3639 20.1375 10.1916 20.2549 10.0015 20.3355C9.81133 20.4162 9.60712 20.4584 9.40058 20.4599C9.19367 20.4584 8.9891 20.416 8.79866 20.3351C8.60823 20.2542 8.43571 20.1364 8.29106 19.9884C8.14329 19.8439 8.02556 19.6717 7.94465 19.4815C7.86373 19.2914 7.82123 19.0871 7.81959 18.8805H10.9611C10.9677 19.0866 10.9309 19.2919 10.8532 19.483C10.7756 19.6741 10.6587 19.8468 10.5101 19.99H10.5085ZM1.84138 17.3026L2.42443 15.5519C2.8791 14.188 3.1141 12.7605 3.12063 11.3228V7.86382C3.12063 6.97903 3.30922 6.11467 3.66596 5.32418C4.02271 4.5164 4.53032 3.80134 5.1888 3.21829C5.84729 2.61795 6.61892 2.16534 7.44556 1.90289C8.29106 1.62001 9.17428 1.52572 10.0386 1.62001C11.6228 1.82831 13.0752 2.6113 14.12 3.8202C15.165 5.0306 15.7268 6.58398 15.6978 8.18285V11.3417C15.6978 12.7702 15.9241 14.1988 16.394 15.5707L16.9771 17.3199H1.84295V17.301L1.84138 17.3026Z" fill="black"/>
</svg>
