<svg width="15" height="18" viewBox="0 0 15 18" fill="none" xmlns="http://www.w3.org/2000/svg">
<path d="M4.64786 1.73951C3.62742 2.02667 2.61391 2.33893 1.60822 2.676C1.51639 2.70637 1.43475 2.76247 1.37262 2.83791C1.31049 2.91334 1.27036 3.00508 1.25679 3.10267C0.66322 7.65055 2.03465 10.9687 3.67072 13.1546C4.36341 14.0893 5.18937 14.9128 6.12107 15.5976C6.49179 15.8645 6.81964 16.0571 7.07786 16.1807C7.20643 16.2431 7.31143 16.2846 7.39179 16.3098C7.42693 16.3224 7.46316 16.3315 7.5 16.3371C7.5364 16.3311 7.57224 16.322 7.60714 16.3098C7.68857 16.2846 7.79357 16.2431 7.92214 16.1807C8.17928 16.0571 8.50821 15.8634 8.87893 15.5976C9.81062 14.9128 10.6366 14.0893 11.3293 13.1546C12.9654 10.9698 14.3368 7.65055 13.7432 3.10267C13.7298 3.00503 13.6897 2.91324 13.6275 2.83778C13.5654 2.76232 13.4837 2.70626 13.3918 2.676C12.6943 2.44297 11.5168 2.06334 10.3521 1.7406C9.16286 1.4113 8.06893 1.16733 7.5 1.16733C6.93214 1.16733 5.83714 1.4113 4.64786 1.7406V1.73951ZM4.36286 0.612657C5.52536 0.289918 6.76071 0 7.5 0C8.23929 0 9.47464 0.289918 10.6371 0.612657C11.8264 0.940865 13.0254 1.32925 13.7304 1.56446C14.0251 1.66386 14.2864 1.84614 14.4843 2.09036C14.6822 2.33459 14.8085 2.63086 14.8489 2.94513C15.4875 7.8431 14.0057 11.4731 12.2079 13.8745C11.4455 14.9018 10.5364 15.8064 9.51107 16.5581C9.15652 16.8183 8.78087 17.047 8.38821 17.2419C8.08821 17.3863 7.76571 17.5045 7.5 17.5045C7.23429 17.5045 6.91286 17.3863 6.61179 17.2419C6.21912 17.047 5.84347 16.8183 5.48893 16.5581C4.4636 15.8064 3.55455 14.9017 2.79215 13.8745C0.99429 11.4731 -0.487494 7.8431 0.151077 2.94513C0.191456 2.63086 0.317837 2.33459 0.515702 2.09036C0.713567 1.84614 0.974888 1.66386 1.26965 1.56446C2.29307 1.22182 3.32444 0.904461 4.36286 0.612657Z" fill="#F77804"/>
<path d="M10.5574 5.62988C10.6073 5.6807 10.6469 5.74106 10.6739 5.80752C10.7009 5.87397 10.7148 5.94522 10.7148 6.01717C10.7148 6.08912 10.7009 6.16037 10.6739 6.22682C10.6469 6.29328 10.6073 6.35364 10.5574 6.40446L7.34313 9.68654C7.29337 9.73749 7.23425 9.7779 7.16917 9.80548C7.10408 9.83306 7.03431 9.84725 6.96384 9.84725C6.89338 9.84725 6.82361 9.83306 6.75852 9.80548C6.69344 9.7779 6.63432 9.73749 6.58456 9.68654L4.97742 8.0455C4.92761 7.99464 4.8881 7.93426 4.86114 7.86781C4.83419 7.80136 4.82031 7.73014 4.82031 7.65821C4.82031 7.58629 4.83419 7.51507 4.86114 7.44862C4.8881 7.38217 4.92761 7.32179 4.97742 7.27093C5.02723 7.22007 5.08636 7.17972 5.15144 7.1522C5.21651 7.12467 5.28626 7.11051 5.3567 7.11051C5.42714 7.11051 5.49689 7.12467 5.56197 7.1522C5.62705 7.17972 5.68618 7.22007 5.73599 7.27093L6.96384 8.52578L9.79884 5.62988C9.84861 5.57894 9.90772 5.53852 9.97281 5.51095C10.0379 5.48337 10.1077 5.46918 10.1781 5.46918C10.2486 5.46918 10.3184 5.48337 10.3834 5.51095C10.4485 5.53852 10.5077 5.57894 10.5574 5.62988Z" fill="#F77804"/>
</svg>
