<svg width="13" height="13" viewBox="0 0 13 13" fill="none" xmlns="http://www.w3.org/2000/svg">
<path fill-rule="evenodd" clip-rule="evenodd" d="M2.22222 3.58398C2.09698 3.58398 1.97687 3.63374 1.88831 3.7223C1.79975 3.81085 1.75 3.93097 1.75 4.05621V10.7784C1.75 10.9037 1.79975 11.0238 1.88831 11.1123C1.97687 11.2009 2.09698 11.2507 2.22222 11.2507H8.94444C9.06969 11.2507 9.1898 11.2009 9.27836 11.1123C9.36691 11.0238 9.41667 10.9037 9.41667 10.7784V7.11176C9.41667 6.69755 9.75245 6.36176 10.1667 6.36176C10.5809 6.36176 10.9167 6.69755 10.9167 7.11176V10.7784C10.9167 11.3015 10.7089 11.8031 10.339 12.173C9.96915 12.5429 9.46751 12.7507 8.94444 12.7507H2.22222C1.69916 12.7507 1.19751 12.5429 0.82765 12.173C0.457787 11.8031 0.25 11.3015 0.25 10.7784V4.05621C0.25 3.53314 0.457787 3.0315 0.82765 2.66163C1.19751 2.29177 1.69916 2.08398 2.22222 2.08398H5.88889C6.3031 2.08398 6.63889 2.41977 6.63889 2.83398C6.63889 3.2482 6.3031 3.58398 5.88889 3.58398H2.22222Z" fill="black"/>
<path fill-rule="evenodd" clip-rule="evenodd" d="M7.58301 1C7.58301 0.585786 7.91879 0.25 8.33301 0.25H11.9997C12.4139 0.25 12.7497 0.585786 12.7497 1V4.66667C12.7497 5.08088 12.4139 5.41667 11.9997 5.41667C11.5855 5.41667 11.2497 5.08088 11.2497 4.66667V1.75H8.33301C7.91879 1.75 7.58301 1.41421 7.58301 1Z" fill="black"/>
<path fill-rule="evenodd" clip-rule="evenodd" d="M12.5299 0.46967C12.8228 0.762563 12.8228 1.23744 12.5299 1.53033L5.80767 8.25255C5.51478 8.54545 5.03991 8.54545 4.74701 8.25255C4.45412 7.95966 4.45412 7.48479 4.74701 7.19189L11.4692 0.46967C11.7621 0.176777 12.237 0.176777 12.5299 0.46967Z" fill="black"/>
</svg>
