<svg width="24" height="16" viewBox="0 0 24 16" fill="none" xmlns="http://www.w3.org/2000/svg">
<path fill-rule="evenodd" clip-rule="evenodd" d="M12 14.25C6.65768 14.25 3.41533 10.4335 1.85429 7.95743C3.07288 5.54252 5.93044 1.75 12 1.75C15.1838 1.75 17.6425 3.03427 19.3767 4.50886C20.9024 5.80628 21.8241 7.2135 22.1702 7.94982C20.9136 10.1495 17.7902 14.25 12 14.25ZM12 0.25C4.78062 0.25 1.54492 5.05879 0.320365 7.68284L0.151794 8.04406L0.356883 8.38587C1.88805 10.9378 5.56952 15.75 12 15.75C18.9296 15.75 22.457 10.5904 23.6604 8.35558L23.814 8.07025L23.7115 7.76283C23.4088 6.85463 22.2648 4.99581 20.3484 3.36614C18.4075 1.71573 15.6162 0.25 12 0.25ZM8.75 8C8.75 6.20507 10.2051 4.75 12 4.75C13.7949 4.75 15.25 6.20507 15.25 8C15.25 9.79493 13.7949 11.25 12 11.25C10.2051 11.25 8.75 9.79493 8.75 8ZM12 3.25C9.37665 3.25 7.25 5.37665 7.25 8C7.25 10.6234 9.37665 12.75 12 12.75C14.6234 12.75 16.75 10.6234 16.75 8C16.75 5.37665 14.6234 3.25 12 3.25Z" fill="#808B9F"/>
</svg>
