<svg width="16" height="19" viewBox="0 0 16 19" fill="none" xmlns="http://www.w3.org/2000/svg">
<path fill-rule="evenodd" clip-rule="evenodd" d="M1.37236 0.496523C2.03449 0.231672 3.01228 0 4.4 0C5.86858 0 7.08447 0.486569 8.11729 0.899878C8.13538 0.907117 8.15341 0.914333 8.17139 0.921523C9.25199 1.35376 10.1443 1.7 11.2 1.7C12.3623 1.7 13.0845 1.50667 13.4849 1.34652C13.6859 1.26609 13.8105 1.19222 13.8726 1.15076C13.8977 1.13406 13.913 1.12234 13.9196 1.11719C14.2052 0.851882 14.6204 0.776078 14.9827 0.92612C15.3564 1.0809 15.6 1.44554 15.6 1.85V12.05C15.6 12.3152 15.4946 12.5696 15.3071 12.7571L14.6 12.05C15.3071 12.7571 15.3066 12.7576 15.3061 12.7582L15.305 12.7592L15.3028 12.7614L15.2981 12.766L15.2877 12.776C15.2803 12.7831 15.2719 12.791 15.2625 12.7995C15.2437 12.8165 15.2211 12.8363 15.1942 12.8585C15.1405 12.9027 15.0703 12.956 14.982 13.0149C14.8052 13.1328 14.5578 13.2714 14.2276 13.4035C13.5655 13.6683 12.5877 13.9 11.2 13.9C9.73141 13.9 8.51553 13.4134 7.48271 13.0001C7.46462 12.9929 7.44659 12.9857 7.42861 12.9785C6.34801 12.5462 5.45569 12.2 4.4 12.2C3.23772 12.2 2.51551 12.3933 2.11514 12.5535C1.91407 12.6339 1.78954 12.7078 1.72736 12.7492C1.70231 12.7659 1.68695 12.7777 1.68044 12.7828C1.39483 13.0481 0.979551 13.1239 0.617317 12.9739C0.243642 12.8191 0 12.4545 0 12.05V1.85C0 1.58478 0.105357 1.33043 0.292893 1.14289L1 1.85C0.292893 1.14289 0.293415 1.14237 0.29394 1.14185L0.295009 1.14078L0.297213 1.1386L0.301886 1.13401L0.312305 1.12395C0.319731 1.11687 0.328119 1.10904 0.337496 1.10051C0.356252 1.08346 0.378948 1.06366 0.405797 1.04155C0.459527 0.997298 0.529696 0.943978 0.617956 0.885137C0.794839 0.767216 1.04218 0.628595 1.37236 0.496523ZM2 2.40235V10.4875C2.61001 10.3207 3.39818 10.2 4.4 10.2C5.86859 10.2 7.08448 10.6866 8.1173 11.0999C8.13538 11.1071 8.15342 11.1143 8.17139 11.1215C9.25199 11.5538 10.1443 11.9 11.2 11.9C12.3623 11.9 13.0845 11.7067 13.4849 11.5465C13.5265 11.5299 13.5648 11.5135 13.6 11.4977V3.41246C12.99 3.57926 12.2018 3.7 11.2 3.7C9.73141 3.7 8.51553 3.21343 7.48271 2.80012C7.46462 2.79288 7.44659 2.78567 7.42861 2.77848C6.34801 2.34624 5.45569 2 4.4 2C3.23772 2 2.51551 2.19333 2.11514 2.35348C2.07352 2.37012 2.03519 2.38649 2 2.40235Z" fill="#F95B02"/>
<path fill-rule="evenodd" clip-rule="evenodd" d="M1 11.0508C1.55228 11.0508 2 11.4985 2 12.0508V18.0008C2 18.5531 1.55228 19.0008 1 19.0008C0.447715 19.0008 0 18.5531 0 18.0008V12.0508C0 11.4985 0.447715 11.0508 1 11.0508Z" fill="#F95B02"/>
</svg>
