<svg width="25" height="21" viewBox="0 0 25 21" fill="none" xmlns="http://www.w3.org/2000/svg">
<path d="M17.7098 12.1275C17.9327 11.5498 18.0458 10.9377 18.0436 10.3208C18.0436 8.95122 17.4825 7.63769 16.4836 6.66922C15.4848 5.70076 14.1301 5.15668 12.7175 5.15668C12.0892 5.15739 11.466 5.26701 10.8774 5.48038L12.1274 6.73001C12.3175 6.70054 12.5096 6.68544 12.702 6.68485C13.7008 6.68283 14.6598 7.06406 15.3697 7.7453C16.0796 8.42654 16.4826 9.35245 16.4908 10.3208C16.4902 10.5074 16.4746 10.6937 16.4442 10.8779L17.7098 12.1275Z" fill="#808B9F"/>
<path d="M24.7748 9.96702C22.1583 5.27712 17.5698 2.43909 12.4922 2.43909C11.1097 2.44223 9.73646 2.65821 8.42383 3.07896L9.67383 4.29849C10.5945 4.06778 11.5412 3.94893 12.4922 3.94467C16.8633 3.94467 20.8385 6.30844 23.2065 10.2907C22.3378 11.7681 21.1862 13.0712 19.8136 14.13L20.9161 15.1989C22.5047 13.9563 23.824 12.4213 24.7981 10.6822L25 10.3208L24.7748 9.96702Z" fill="#808B9F"/>
<path d="M1.93323 1.12166L5.39598 4.47912C3.20724 5.84552 1.41841 7.73552 0.201864 9.96698L0 10.3208L0.201864 10.6821C2.81833 15.372 7.40685 18.2101 12.4845 18.2101C14.4664 18.2097 16.4225 17.7747 18.2066 16.9378L22.0886 20.7018L23.4473 19.5726L3.26088 0L1.93323 1.12166ZM9.50313 8.46139L14.6662 13.4675C14.0828 13.8176 13.4113 14.0051 12.7252 14.0095C12.2267 14.0095 11.7331 13.9139 11.2728 13.7283C10.8126 13.5426 10.3947 13.2705 10.0433 12.9277C9.69189 12.5849 9.41387 12.1781 9.22523 11.7307C9.03658 11.2833 8.94105 10.8041 8.94412 10.3208C8.95287 9.66327 9.14612 9.02048 9.50313 8.46139ZM8.37735 7.36984C7.65098 8.36308 7.31052 9.57349 7.41626 10.7868C7.522 12 8.06711 13.1379 8.95508 13.9989C9.84304 14.8598 11.0166 15.3884 12.2679 15.4909C13.5192 15.5934 14.7676 15.2633 15.792 14.559L17.0342 15.7635C15.5961 16.3595 14.0484 16.6668 12.4845 16.6668C8.11337 16.6668 4.13821 14.3031 1.77019 10.3208C2.90661 8.36971 4.54328 6.73614 6.52176 5.57819L8.37735 7.36984Z" fill="#808B9F"/>
</svg>
