<svg width="22" height="22" viewBox="0 0 22 22" fill="none" xmlns="http://www.w3.org/2000/svg">
<path d="M9.40016 4.98565C9.82726 4.98565 10.2448 5.12029 10.5999 5.37255C10.955 5.6248 11.2318 5.98333 11.3952 6.40282C11.5587 6.8223 11.6014 7.28388 11.5181 7.7292C11.4348 8.17452 11.2291 8.58357 10.9271 8.90462C10.6251 9.22568 10.2403 9.44432 9.82145 9.5329C9.40256 9.62148 8.96837 9.57602 8.57378 9.40227C8.1792 9.22851 7.84194 8.93427 7.60466 8.55675C7.36738 8.17922 7.24073 7.73538 7.24073 7.28133C7.24073 6.67248 7.46824 6.08857 7.87321 5.65804C8.27818 5.22752 8.82744 4.98565 9.40016 4.98565M9.40016 4.06738C8.80223 4.06738 8.21772 4.25588 7.72056 4.60903C7.22339 4.96218 6.8359 5.46414 6.60708 6.05141C6.37826 6.63868 6.31839 7.2849 6.43504 7.90834C6.5517 8.53179 6.83963 9.10446 7.26243 9.55394C7.68523 10.0034 8.22392 10.3095 8.81036 10.4335C9.39681 10.5575 10.0047 10.4939 10.5571 10.2506C11.1095 10.0074 11.5817 9.59544 11.9139 9.06691C12.2461 8.53838 12.4234 7.91699 12.4234 7.28133C12.4234 6.42894 12.1049 5.61146 11.5379 5.00873C10.9709 4.40599 10.202 4.06738 9.40016 4.06738V4.06738Z" fill="#525252"/>
<path d="M13.7188 15.2482H12.855V14.627C12.855 14.3256 12.7992 14.027 12.6906 13.7485C12.5821 13.47 12.4231 13.2169 12.2225 13.0037C12.022 12.7906 11.784 12.6215 11.522 12.5061C11.26 12.3907 10.9792 12.3314 10.6956 12.3314H8.10426C7.53154 12.3314 6.98228 12.5732 6.57731 13.0037C6.17234 13.4343 5.94483 14.0182 5.94483 14.627V16.9227H5.08105V14.627C5.08105 13.7746 5.39957 12.9572 5.96653 12.3544C6.53349 11.7517 7.30246 11.4131 8.10426 11.4131H10.6956C11.4974 11.4131 12.2663 11.7517 12.8333 12.3544C13.4003 12.9572 13.7188 13.7746 13.7188 14.627V15.2482Z" fill="#525252"/>
<path d="M21.0132 19.2089L16.1755 14.3685C17.3402 12.8171 17.9689 10.9288 17.9668 8.98842C17.9668 4.03224 13.9368 0 8.9834 0C4.02999 0 0 4.03224 0 8.98842C0 13.9446 4.02999 17.9768 8.9834 17.9768C10.9226 17.979 12.81 17.3499 14.3605 16.1845L19.1982 21.0249C19.4431 21.244 19.7625 21.3609 20.0908 21.3517C20.4192 21.3425 20.7315 21.2079 20.9638 20.9755C21.1961 20.7431 21.3306 20.4306 21.3398 20.1021C21.349 19.7735 21.2321 19.454 21.0132 19.2089V19.2089ZM2.56669 8.98842C2.56669 7.71861 2.94302 6.47731 3.6481 5.42149C4.35318 4.36568 5.35533 3.54277 6.52783 3.05684C7.70033 2.5709 8.99052 2.44376 10.2352 2.69149C11.48 2.93921 12.6233 3.55069 13.5207 4.44858C14.4181 5.34648 15.0292 6.49047 15.2768 7.73588C15.5244 8.9813 15.3973 10.2722 14.9117 11.4454C14.426 12.6185 13.6036 13.6212 12.5483 14.3267C11.4931 15.0322 10.2525 15.4087 8.9834 15.4087C7.28221 15.4067 5.65128 14.7296 4.44835 13.526C3.24543 12.3224 2.56873 10.6906 2.56669 8.98842V8.98842Z" fill="#525252"/>
</svg>
