<svg width="19" height="19" viewBox="0 0 19 19" fill="none" xmlns="http://www.w3.org/2000/svg">
<path d="M11.8701 9.5L18.5041 2.866C18.8189 2.55171 18.996 2.12522 18.9964 1.68035C18.9968 1.23548 18.8205 0.808671 18.5062 0.493823C18.1919 0.178975 17.7654 0.00187452 17.3205 0.00148164C16.8757 0.00108876 16.4488 0.177436 16.134 0.491728L9.5 7.12573L2.866 0.491728C2.55115 0.17688 2.12413 0 1.67886 0C1.2336 0 0.806577 0.17688 0.491728 0.491728C0.17688 0.806577 0 1.2336 0 1.67886C0 2.12413 0.17688 2.55115 0.491728 2.866L7.12573 9.5L0.491728 16.134C0.17688 16.4488 0 16.8759 0 17.3211C0 17.7664 0.17688 18.1934 0.491728 18.5083C0.806577 18.8231 1.2336 19 1.67886 19C2.12413 19 2.55115 18.8231 2.866 18.5083L9.5 11.8743L16.134 18.5083C16.4488 18.8231 16.8759 19 17.3211 19C17.7664 19 18.1934 18.8231 18.5083 18.5083C18.8231 18.1934 19 17.7664 19 17.3211C19 16.8759 18.8231 16.4488 18.5083 16.134L11.8701 9.5Z" fill="#0D192E"/>
</svg>
