<svg width="16" height="20" viewBox="0 0 16 20" fill="none" xmlns="http://www.w3.org/2000/svg">
<path fill-rule="evenodd" clip-rule="evenodd" d="M13.0603 2.06431C12.5978 2.00213 11.9701 2 10.999 2L4.99903 2.00001C4.02795 2.00001 3.40024 2.00213 2.93773 2.06431C2.50399 2.12263 2.36805 2.21677 2.29192 2.2929C2.2158 2.36902 2.12165 2.50497 2.06333 2.93871C2.00115 3.40122 1.99903 4.02893 1.99903 5.00001L1.99903 15C1.99903 15.9711 2.00115 16.5988 2.06334 17.0613C2.12165 17.495 2.2158 17.631 2.29192 17.7071C2.36805 17.7832 2.50399 17.8774 2.93773 17.9357C3.40024 17.9979 4.02795 18 4.99903 18H7.99903V15C7.99903 14.9818 7.99903 14.9637 7.99902 14.9456C7.99894 14.5215 7.99886 14.1094 8.04456 13.7695C8.09608 13.3863 8.2216 12.949 8.58482 12.5858C8.94803 12.2226 9.38531 12.0971 9.76851 12.0455C10.1084 11.9998 10.5206 11.9999 10.9446 12C10.9627 12 10.9809 12 10.999 12H13.999L13.999 5C13.999 4.02893 13.9969 3.40121 13.9347 2.93871C13.8764 2.50497 13.7823 2.36902 13.7061 2.2929C13.63 2.21677 13.4941 2.12263 13.0603 2.06431ZM13.5848 14L9.99903 17.5858V15C9.99903 14.5003 10.0012 14.2262 10.0267 14.036C10.0271 14.0335 10.0274 14.0311 10.0277 14.0287C10.0301 14.0284 10.0325 14.028 10.035 14.0277C10.2252 14.0021 10.4994 14 10.999 14H13.5848ZM13.3268 0.0821452C13.9823 0.170277 14.6107 0.369022 15.1203 0.878685C15.63 1.38835 15.8288 2.0167 15.9169 2.67221C15.9991 3.28387 15.9991 4.04769 15.999 4.93417L15.999 13.1716C15.999 13.1991 15.9992 13.2273 15.9993 13.2564C16.0007 13.5728 16.0025 13.9753 15.8468 14.3512C15.6911 14.727 15.4052 15.0104 15.1805 15.2331C15.1599 15.2536 15.1398 15.2735 15.1203 15.2929L11.2919 19.1213C11.2725 19.1408 11.2526 19.1609 11.2321 19.1815C11.0094 19.4062 10.726 19.6921 10.3502 19.8478C9.97437 20.0034 9.57181 20.0017 9.25538 20.0003C9.22637 20.0001 9.19808 20 9.1706 20L4.93317 20C4.0467 20.0001 3.28289 20.0001 2.67124 19.9179C2.01572 19.8297 1.38737 19.631 0.877709 19.1213C0.368047 18.6117 0.169302 17.9833 0.0811699 17.3278C-0.00106578 16.7161 -0.00102299 15.9523 -0.000973279 15.0658L-0.00097173 5.00001C-0.00097173 4.97799 -0.000972922 4.95605 -0.000974114 4.93418C-0.00102406 4.04769 -0.00106698 3.28388 0.0811686 2.67221C0.1693 2.0167 0.368046 1.38835 0.877707 0.878686C1.38737 0.369023 2.01572 0.170278 2.67124 0.0821462C3.2829 -8.95783e-05 4.04671 -4.67848e-05 4.9332 2.92552e-06C4.95507 4.11762e-06 4.97701 5.36931e-06 4.99903 5.36931e-06L11.0649 2.44869e-06C11.9513 -4.75e-05 12.7152 -9.04128e-05 13.3268 0.0821452ZM8.99903 6L4.99903 6.00001C4.44674 6.00001 3.99903 5.55229 3.99903 5.00001C3.99903 4.44772 4.44674 4.00001 4.99903 4.00001L8.99903 4C9.55131 4 9.99903 4.44772 9.99903 5C9.99903 5.55229 9.55131 6 8.99903 6ZM10.999 10L4.99903 10C4.44674 10 3.99903 9.55229 3.99903 9.00001C3.99903 8.44772 4.44674 8.00001 4.99903 8.00001L10.999 8C11.5513 8 11.999 8.44772 11.999 9C11.999 9.55229 11.5513 10 10.999 10Z" fill="#333333"/>
</svg>
