<svg width="18" height="17" viewBox="0 0 18 17" fill="none" xmlns="http://www.w3.org/2000/svg">
<path fill-rule="evenodd" clip-rule="evenodd" d="M12 11C12 9.34315 13.3431 8 15 8C16.6569 8 18 9.34315 18 11V14C18 15.6569 16.6569 17 15 17C13.3431 17 12 15.6569 12 14V11ZM15 10C14.4477 10 14 10.4477 14 11V14C14 14.5523 14.4477 15 15 15C15.5523 15 16 14.5523 16 14V11C16 10.4477 15.5523 10 15 10Z" fill="#333333"/>
<path fill-rule="evenodd" clip-rule="evenodd" d="M0 11C0 9.34315 1.34315 8 3 8C4.65685 8 6 9.34315 6 11V14C6 15.6569 4.65685 17 3 17C1.34315 17 0 15.6569 0 14V11ZM3 10C2.44772 10 2 10.4477 2 11V14C2 14.5523 2.44772 15 3 15C3.55228 15 4 14.5523 4 14V11C4 10.4477 3.55228 10 3 10Z" fill="#333333"/>
<path fill-rule="evenodd" clip-rule="evenodd" d="M1 9C1.55228 9 2 9.44772 2 10V13C2 13.5523 1.55228 14 1 14C0.447715 14 0 13.5523 0 13V10C0 9.44772 0.447715 9 1 9Z" fill="#333333"/>
<path fill-rule="evenodd" clip-rule="evenodd" d="M17 9C17.5523 9 18 9.44772 18 10V13C18 13.5523 17.5523 14 17 14C16.4477 14 16 13.5523 16 13V10C16 9.44772 16.4477 9 17 9Z" fill="#333333"/>
<path fill-rule="evenodd" clip-rule="evenodd" d="M17 11C17.5523 11 18 10.5523 18 10C18 7.38337 17.0771 4.85363 15.4043 2.97168C13.728 1.08589 11.4275 0 9 0C6.5725 0 4.272 1.08588 2.59574 2.97167C0.922889 4.85363 3.57628e-07 7.38337 0 10C-1.19209e-07 10.5523 0.447715 11 1 11C1.55228 11 2 10.5523 2 10C2 7.84273 2.76282 5.7941 4.09056 4.3004C5.41488 2.81054 7.18404 2 9 2C10.816 2 12.5851 2.81054 13.9094 4.3004C15.2372 5.7941 16 7.84273 16 10C16 10.5523 16.4477 11 17 11Z" fill="#333333"/>
</svg>
