<svg width="20" height="20" viewBox="0 0 20 20" fill="none" xmlns="http://www.w3.org/2000/svg">
<path fill-rule="evenodd" clip-rule="evenodd" d="M3.45387 5.85899C3.82448 2.52346 6.64386 0 9.99991 0C13.356 0 16.1753 2.52346 16.546 5.85899L16.8038 8.17925C16.9166 9.16248 17.2367 10.1106 17.7428 10.9611L18.3729 12.0114C18.6145 12.4139 18.8333 12.7785 18.979 13.0879C19.1271 13.4024 19.2855 13.8286 19.2093 14.3117C19.1339 14.7893 18.8882 15.2233 18.5174 15.5337C18.1424 15.8476 17.6955 15.931 17.3496 15.9658C17.0092 16.0001 16.584 16 16.1146 16L13.8518 16C13.643 17.0356 13.2143 17.9971 12.5811 18.7259C11.9107 19.4975 11.0102 20 9.99991 20C8.9896 20 8.0891 19.4975 7.41874 18.7259C6.78547 17.9971 6.35683 17.0356 6.14803 16L3.88524 16C3.41585 16 2.9906 16.0001 2.65023 15.9658C2.30434 15.931 1.85746 15.8476 1.48239 15.5337C1.11167 15.2233 0.865891 14.7893 0.790542 14.3117C0.71431 13.8286 0.872681 13.4024 1.0208 13.0879C1.16655 12.7785 1.38537 12.4138 1.62689 12.0114L2.25702 10.9611C2.76315 10.1106 3.08319 9.16248 3.19602 8.17925L3.45387 5.85899ZM8.20455 16C8.37223 16.586 8.62939 17.0699 8.92851 17.4142C9.30602 17.8487 9.68942 18 9.99991 18C10.3104 18 10.6938 17.8487 11.0713 17.4142C11.3704 17.07 11.6276 16.586 11.7953 16H8.20455ZM9.99991 2C7.66295 2 5.69971 3.75718 5.44164 6.07985L5.18298 8.40726C5.03791 9.67142 4.62643 10.8904 3.97569 11.9839L3.36602 13.0001C3.09252 13.456 2.9277 13.733 2.83017 13.9401C2.82484 13.9514 2.81995 13.9621 2.81547 13.972C2.82633 13.9733 2.83798 13.9746 2.85043 13.9759C3.07817 13.9988 3.40055 14 3.93214 14H16.0677C16.5993 14 16.9216 13.9988 17.1494 13.9759C17.1618 13.9746 17.1735 13.9733 17.1844 13.972C17.1799 13.9621 17.175 13.9514 17.1696 13.9401C17.0721 13.733 16.9073 13.456 16.6338 13.0001L16.0241 11.9839C15.3734 10.8904 14.9619 9.67142 14.8168 8.40726L14.5582 6.07985C14.3001 3.75719 12.3369 2 9.99991 2Z" fill="#333333"/>
</svg>
