<svg width="17" height="21" viewBox="0 0 17 21" fill="none" xmlns="http://www.w3.org/2000/svg">
<path fill-rule="evenodd" clip-rule="evenodd" d="M6.93412 0.0769053H9.06585C10.424 0.0768747 11.5362 0.0768497 12.4148 0.194972C13.3341 0.318569 14.1346 0.586514 14.774 1.22595C15.4135 1.86538 15.6814 2.66587 15.805 3.58517C15.9231 4.46375 15.9231 5.57595 15.9231 6.93411L15.9231 8.99998H14.0769V6.99998C14.0769 5.55967 14.0749 4.5723 13.9753 3.83116C13.8792 3.11658 13.7078 2.77062 13.4686 2.53138C13.2293 2.29213 12.8834 2.12074 12.1688 2.02466C11.4277 1.92502 10.4403 1.92306 8.99998 1.92306H6.99998C5.55967 1.92306 4.5723 1.92502 3.83117 2.02466C3.11658 2.12074 2.77062 2.29213 2.53138 2.53138C2.29213 2.77062 2.12074 3.11658 2.02466 3.83117C1.92502 4.5723 1.92306 5.55967 1.92306 6.99998V13C1.92306 14.4403 1.92502 15.4277 2.02466 16.1688C2.12074 16.8834 2.29213 17.2293 2.53138 17.4686C2.77062 17.7078 3.11658 17.8792 3.83117 17.9753C4.5723 18.0749 5.55967 18.0769 6.99998 18.0769H7.99998V19.9231H6.93411C5.57594 19.9231 4.46375 19.9231 3.58517 19.805C2.66587 19.6814 1.86538 19.4135 1.22595 18.774C0.586514 18.1346 0.318569 17.3341 0.194972 16.4148C0.0768497 15.5362 0.0768747 14.424 0.0769053 13.0658V6.93412C0.0768747 5.57595 0.0768497 4.46375 0.194972 3.58517C0.318569 2.66587 0.586514 1.86538 1.22595 1.22595C1.86538 0.586514 2.66587 0.318569 3.58517 0.194972C4.46375 0.0768497 5.57595 0.0768747 6.93412 0.0769053ZM4.07691 4.99998C4.07691 4.49018 4.49018 4.07691 4.99998 4.07691L8.99998 4.07691C9.50978 4.07691 9.92306 4.49018 9.92306 4.99998C9.92306 5.50979 9.50978 5.92306 8.99998 5.92306L4.99998 5.92306C4.49018 5.92306 4.07691 5.50978 4.07691 4.99998ZM4.07691 8.99998C4.07691 8.49018 4.49018 8.07691 4.99998 8.07691L11 8.07691C11.5098 8.07691 11.9231 8.49018 11.9231 8.99998C11.9231 9.50979 11.5098 9.92306 11 9.92306L4.99998 9.92306C4.49018 9.92306 4.07691 9.50978 4.07691 8.99998ZM12.9997 11.9231C12.4049 11.9231 11.9228 12.4052 11.9228 13C11.9228 13.5948 12.4049 14.0769 12.9997 14.0769C13.5945 14.0769 14.0766 13.5948 14.0766 13C14.0766 12.4052 13.5945 11.9231 12.9997 11.9231ZM10.0766 13C10.0766 11.3856 11.3853 10.0769 12.9997 10.0769C14.6141 10.0769 15.9228 11.3856 15.9228 13C15.9228 14.6144 14.6141 15.9231 12.9997 15.9231C11.3853 15.9231 10.0766 14.6144 10.0766 13ZM4.07691 13C4.07691 12.4902 4.49018 12.0769 4.99998 12.0769H7.99998C8.50978 12.0769 8.92306 12.4902 8.92306 13C8.92306 13.5098 8.50978 13.9231 7.99998 13.9231H4.99998C4.49018 13.9231 4.07691 13.5098 4.07691 13ZM10.6118 16.8876C11.2969 16.3619 12.1364 16.0769 13 16.0769C13.8636 16.0769 14.7031 16.3619 15.3882 16.8876C16.0733 17.4133 16.5659 18.1504 16.7894 18.9846C16.9213 19.477 16.6291 19.9832 16.1367 20.1152C15.6442 20.2471 15.1381 19.9549 15.0061 19.4624C14.8878 19.0208 14.6271 18.6306 14.2643 18.3522C13.9016 18.0739 13.4572 17.9231 13 17.9231C12.5428 17.9231 12.0984 18.0739 11.7356 18.3522C11.3729 18.6306 11.1122 19.0208 10.9938 19.4624C10.8619 19.9549 10.3557 20.2471 9.8633 20.1151C9.37086 19.9832 9.07864 19.477 9.21058 18.9846C9.4341 18.1504 9.92662 17.4133 10.6118 16.8876Z" fill="#333333"/>
</svg>
