<svg width="21" height="22" viewBox="0 0 21 22" fill="none" xmlns="http://www.w3.org/2000/svg">
<path fill-rule="evenodd" clip-rule="evenodd" d="M7.85401 0.211367C9.9878 -0.213071 12.1995 0.00476635 14.2095 0.83733C16.2195 1.66989 17.9375 3.07979 19.1462 4.88873C20.3549 6.69767 21 8.82441 21 11C21 13.1756 20.3549 15.3023 19.1462 17.1113C17.9375 18.9202 16.2195 20.3301 14.2095 21.1627C12.1995 21.9952 9.9878 22.2131 7.85401 21.7886C5.72022 21.3642 3.7602 20.3166 2.22183 18.7782C1.8313 18.3877 1.8313 17.7545 2.22183 17.364C2.61235 16.9734 3.24551 16.9734 3.63604 17.364C4.89471 18.6226 6.49836 19.4798 8.24419 19.8271C9.99002 20.1743 11.7996 19.9961 13.4441 19.3149C15.0887 18.6337 16.4943 17.4802 17.4832 16.0001C18.4722 14.5201 19 12.78 19 11C19 9.21997 18.4722 7.47992 17.4832 5.99987C16.4943 4.51983 15.0887 3.36628 13.4442 2.68509C11.7996 2.0039 9.99002 1.82567 8.24419 2.17294C6.49836 2.5202 4.89471 3.37737 3.63604 4.63604C3.24552 5.02657 2.61235 5.02657 2.22183 4.63604C1.8313 4.24552 1.8313 3.61235 2.22183 3.22183C3.7602 1.68345 5.72022 0.635804 7.85401 0.211367ZM10.9194 10L8.21913 6.6247L9.78087 5.37531L14.2806 11L9.78087 16.6247L8.21913 15.3753L10.9194 12H1C0.447715 12 0 11.5523 0 11C0 10.4477 0.447715 10 1 10H10.9194Z" fill="#333333"/>
</svg>
