<svg width="18" height="18" viewBox="0 0 18 18" fill="none" xmlns="http://www.w3.org/2000/svg">
<path fill-rule="evenodd" clip-rule="evenodd" d="M2.94561 7.09714e-06C2.96372 1.06734e-05 2.98186 1.42497e-05 3.00001 1.42497e-05H5.00001C5.01817 1.42497e-05 5.03631 1.06734e-05 5.05442 7.09714e-06C5.47849 -7.62302e-05 5.89062 -0.000157174 6.23053 0.0455431C6.61374 0.0970634 7.05101 0.222585 7.41423 0.585801C7.77744 0.949016 7.90297 1.38629 7.95449 1.76949C8.00019 2.10941 8.0001 2.52154 8.00002 2.9456C8.00002 2.96372 8.00001 2.98186 8.00001 3.00001V6.00001C8.00001 6.01817 8.00002 6.03631 8.00002 6.05442C8.0001 6.47849 8.00019 6.89062 7.95449 7.23053C7.90297 7.61374 7.77744 8.05101 7.41423 8.41423C7.05101 8.77744 6.61374 8.90296 6.23053 8.95448C5.89062 9.00019 5.47849 9.0001 5.05442 9.00002C5.03631 9.00002 5.01817 9.00001 5.00001 9.00001H3.00001C2.98186 9.00001 2.96372 9.00002 2.9456 9.00002C2.52153 9.0001 2.10941 9.00019 1.76949 8.95448C1.38629 8.90296 0.949016 8.77744 0.585801 8.41423C0.222585 8.05101 0.0970634 7.61374 0.0455431 7.23053C-0.000157174 6.89062 -7.62302e-05 6.47849 7.09714e-06 6.05442C1.06734e-05 6.03631 1.42497e-05 6.01817 1.42497e-05 6.00001V3.00001C1.42497e-05 2.98186 1.06734e-05 2.96372 7.09714e-06 2.94561C-7.62302e-05 2.52154 -0.000157174 2.10941 0.0455431 1.76949C0.0970634 1.38629 0.222585 0.949016 0.585801 0.585801C0.949016 0.222585 1.38629 0.0970634 1.76949 0.0455431C2.10941 -0.000157174 2.52154 -7.62302e-05 2.94561 7.09714e-06ZM2.02871 2.02871C2.02838 2.03108 2.02804 2.03351 2.02771 2.03599C2.00214 2.22618 2.00001 2.50034 2.00001 3.00001V6.00001C2.00001 6.49969 2.00214 6.77385 2.02771 6.96404C2.02804 6.96652 2.02838 6.96894 2.02871 6.97132C2.03108 6.97165 2.03351 6.97199 2.03599 6.97232C2.22618 6.99789 2.50034 7.00001 3.00001 7.00001H5.00001C5.49969 7.00001 5.77385 6.99789 5.96404 6.97232C5.96652 6.97199 5.96894 6.97165 5.97132 6.97132C5.97165 6.96894 5.97199 6.96652 5.97232 6.96404C5.99789 6.77385 6.00001 6.49969 6.00001 6.00001V3.00001C6.00001 2.50034 5.99789 2.22618 5.97232 2.03599C5.97199 2.03351 5.97165 2.03108 5.97132 2.02871C5.96894 2.02838 5.96652 2.02804 5.96404 2.02771C5.77385 2.00214 5.49969 2.00001 5.00001 2.00001H3.00001C2.50034 2.00001 2.22618 2.00214 2.03599 2.02771C2.03351 2.02804 2.03108 2.02837 2.02871 2.02871Z" fill="#333333"/>
<path fill-rule="evenodd" clip-rule="evenodd" d="M2.94561 11C2.96372 11 2.98186 11 3.00001 11H5.00001C5.01817 11 5.03631 11 5.05442 11C5.47849 10.9999 5.89062 10.9998 6.23053 11.0455C6.61374 11.0971 7.05101 11.2226 7.41423 11.5858C7.77744 11.949 7.90297 12.3863 7.95449 12.7695C8.00019 13.1094 8.0001 13.5215 8.00002 13.9456C8.00002 13.9637 8.00001 13.9819 8.00001 14V15C8.00001 15.0182 8.00002 15.0363 8.00002 15.0544C8.0001 15.4785 8.00019 15.8906 7.95449 16.2305C7.90297 16.6137 7.77744 17.051 7.41423 17.4142C7.05101 17.7774 6.61374 17.903 6.23053 17.9545C5.89062 18.0002 5.47849 18.0001 5.05442 18C5.03631 18 5.01817 18 5.00001 18H3.00001C2.98186 18 2.96372 18 2.9456 18C2.52153 18.0001 2.10941 18.0002 1.76949 17.9545C1.38629 17.903 0.949016 17.7774 0.585801 17.4142C0.222585 17.051 0.0970634 16.6137 0.0455431 16.2305C-0.000157174 15.8906 -7.62302e-05 15.4785 7.09714e-06 15.0544C1.06734e-05 15.0363 1.42497e-05 15.0182 1.42497e-05 15V14C1.42497e-05 13.9819 1.06734e-05 13.9637 7.09714e-06 13.9456C-7.62302e-05 13.5215 -0.000157174 13.1094 0.0455431 12.7695C0.0970634 12.3863 0.222585 11.949 0.585801 11.5858C0.949016 11.2226 1.38629 11.0971 1.76949 11.0455C2.10941 10.9998 2.52154 10.9999 2.94561 11ZM2.02871 13.0287C2.02838 13.0311 2.02804 13.0335 2.02771 13.036C2.00214 13.2262 2.00001 13.5003 2.00001 14V15C2.00001 15.4997 2.00214 15.7738 2.02771 15.964C2.02804 15.9665 2.02837 15.9689 2.02871 15.9713C2.03108 15.9717 2.03351 15.972 2.03599 15.9723C2.22618 15.9979 2.50034 16 3.00001 16H5.00001C5.49969 16 5.77385 15.9979 5.96404 15.9723C5.96652 15.972 5.96894 15.9717 5.97132 15.9713C5.97165 15.9689 5.97199 15.9665 5.97232 15.964C5.99789 15.7738 6.00001 15.4997 6.00001 15V14C6.00001 13.5003 5.99789 13.2262 5.97232 13.036C5.97199 13.0335 5.97165 13.0311 5.97132 13.0287C5.96894 13.0284 5.96652 13.028 5.96404 13.0277C5.77385 13.0021 5.49969 13 5.00001 13H3.00001C2.50034 13 2.22618 13.0021 2.03599 13.0277C2.03351 13.028 2.03108 13.0284 2.02871 13.0287Z" fill="#333333"/>
<path fill-rule="evenodd" clip-rule="evenodd" d="M12.9456 7.09714e-06C12.9637 1.06734e-05 12.9819 1.42497e-05 13 1.42497e-05H15C15.0182 1.42497e-05 15.0363 1.06734e-05 15.0544 7.09714e-06C15.4785 -7.62302e-05 15.8906 -0.000157174 16.2305 0.0455431C16.6137 0.0970634 17.051 0.222585 17.4142 0.585801C17.7774 0.949016 17.903 1.38629 17.9545 1.76949C18.0002 2.10941 18.0001 2.52154 18 2.9456C18 2.96372 18 2.98186 18 3.00001V4.00001C18 4.01817 18 4.03631 18 4.05442C18.0001 4.47849 18.0002 4.89062 17.9545 5.23053C17.903 5.61374 17.7774 6.05101 17.4142 6.41423C17.051 6.77744 16.6137 6.90297 16.2305 6.95449C15.8906 7.00019 15.4785 7.0001 15.0544 7.00002C15.0363 7.00002 15.0182 7.00001 15 7.00001H13C12.9819 7.00001 12.9637 7.00002 12.9456 7.00002C12.5215 7.0001 12.1094 7.00019 11.7695 6.95449C11.3863 6.90297 10.949 6.77744 10.5858 6.41423C10.2226 6.05101 10.0971 5.61374 10.0455 5.23053C9.99984 4.89062 9.99992 4.47849 10 4.05442C10 4.03631 10 4.01817 10 4.00001V3.00001C10 2.98186 10 2.96372 10 2.94561C9.99992 2.52154 9.99984 2.10941 10.0455 1.76949C10.0971 1.38629 10.2226 0.949016 10.5858 0.585801C10.949 0.222585 11.3863 0.0970634 11.7695 0.0455431C12.1094 -0.000157174 12.5215 -7.62302e-05 12.9456 7.09714e-06ZM12.0287 2.02871C12.0284 2.03108 12.028 2.03351 12.0277 2.03599C12.0021 2.22618 12 2.50034 12 3.00001V4.00001C12 4.49969 12.0021 4.77385 12.0277 4.96404C12.028 4.96652 12.0284 4.96894 12.0287 4.97132C12.0311 4.97165 12.0335 4.97199 12.036 4.97232C12.2262 4.99789 12.5003 5.00001 13 5.00001H15C15.4997 5.00001 15.7738 4.99789 15.964 4.97232C15.9665 4.97199 15.9689 4.97165 15.9713 4.97132C15.9717 4.96894 15.972 4.96652 15.9723 4.96404C15.9979 4.77385 16 4.49969 16 4.00001V3.00001C16 2.50034 15.9979 2.22618 15.9723 2.03599C15.972 2.03351 15.9717 2.03108 15.9713 2.02871C15.9689 2.02838 15.9665 2.02804 15.964 2.02771C15.7738 2.00214 15.4997 2.00001 15 2.00001H13C12.5003 2.00001 12.2262 2.00214 12.036 2.02771C12.0335 2.02804 12.0311 2.02837 12.0287 2.02871Z" fill="#333333"/>
<path fill-rule="evenodd" clip-rule="evenodd" d="M12.9456 9.00001C12.9637 9.00001 12.9819 9.00001 13 9.00001H15C15.0182 9.00001 15.0363 9.00001 15.0544 9.00001C15.4785 8.99992 15.8906 8.99984 16.2305 9.04554C16.6137 9.09706 17.051 9.22259 17.4142 9.5858C17.7774 9.94902 17.903 10.3863 17.9545 10.7695C18.0002 11.1094 18.0001 11.5215 18 11.9456C18 11.9637 18 11.9819 18 12V15C18 15.0182 18 15.0363 18 15.0544C18.0001 15.4785 18.0002 15.8906 17.9545 16.2305C17.903 16.6137 17.7774 17.051 17.4142 17.4142C17.051 17.7774 16.6137 17.903 16.2305 17.9545C15.8906 18.0002 15.4785 18.0001 15.0544 18C15.0363 18 15.0182 18 15 18H13C12.9819 18 12.9637 18 12.9456 18C12.5215 18.0001 12.1094 18.0002 11.7695 17.9545C11.3863 17.903 10.949 17.7774 10.5858 17.4142C10.2226 17.051 10.0971 16.6137 10.0455 16.2305C9.99984 15.8906 9.99992 15.4785 10 15.0544C10 15.0363 10 15.0182 10 15V12C10 11.9819 10 11.9637 10 11.9456C9.99992 11.5215 9.99984 11.1094 10.0455 10.7695C10.0971 10.3863 10.2226 9.94902 10.5858 9.5858C10.949 9.22259 11.3863 9.09706 11.7695 9.04554C12.1094 8.99984 12.5215 8.99992 12.9456 9.00001ZM12.0287 11.0287C12.0284 11.0311 12.028 11.0335 12.0277 11.036C12.0021 11.2262 12 11.5003 12 12V15C12 15.4997 12.0021 15.7738 12.0277 15.964C12.028 15.9665 12.0284 15.9689 12.0287 15.9713C12.0311 15.9717 12.0335 15.972 12.036 15.9723C12.2262 15.9979 12.5003 16 13 16H15C15.4997 16 15.7738 15.9979 15.964 15.9723C15.9665 15.972 15.9689 15.9717 15.9713 15.9713C15.9717 15.9689 15.972 15.9665 15.9723 15.964C15.9979 15.7738 16 15.4997 16 15V12C16 11.5003 15.9979 11.2262 15.9723 11.036C15.972 11.0335 15.9717 11.0311 15.9713 11.0287C15.9689 11.0284 15.9665 11.028 15.964 11.0277C15.7738 11.0021 15.4997 11 15 11H13C12.5003 11 12.2262 11.0021 12.036 11.0277C12.0335 11.028 12.0311 11.0284 12.0287 11.0287Z" fill="#333333"/>
</svg>
