<svg width="20" height="20" viewBox="0 0 20 20" fill="none" xmlns="http://www.w3.org/2000/svg">
<path fill-rule="evenodd" clip-rule="evenodd" d="M10 2C5.58172 2 2 5.58172 2 10C2 14.4183 5.58172 18 10 18C14.4183 18 18 14.4183 18 10C18 5.58172 14.4183 2 10 2ZM0 10C0 4.47715 4.47715 0 10 0C15.5228 0 20 4.47715 20 10C20 15.5228 15.5228 20 10 20C4.47715 20 0 15.5228 0 10ZM6 8C6 5.79086 7.79086 4 10 4H10.0943C12.2514 4 14 5.74864 14 7.90569V8.41886C14 9.79353 13.1204 11.014 11.8162 11.4487C11.3288 11.6112 11 12.0673 11 12.5811V14H9V12.5811C9 11.2065 9.87964 9.98603 11.1838 9.55132C11.6712 9.38884 12 8.93267 12 8.41886V7.90569C12 6.85321 11.1468 6 10.0943 6H10C8.89543 6 8 6.89543 8 8H6ZM10 16.5C10.2761 16.5 10.5 16.2761 10.5 16C10.5 15.7239 10.2761 15.5 10 15.5C9.72386 15.5 9.5 15.7239 9.5 16C9.5 16.2761 9.72386 16.5 10 16.5ZM8.5 16C8.5 15.1716 9.17157 14.5 10 14.5C10.8284 14.5 11.5 15.1716 11.5 16C11.5 16.8284 10.8284 17.5 10 17.5C9.17157 17.5 8.5 16.8284 8.5 16Z" fill="#333333"/>
</svg>
