<svg width="24" height="24" viewBox="0 0 24 24" fill="none" xmlns="http://www.w3.org/2000/svg">
<path d="M2 20V17.2C2 16.65 2.14167 16.1333 2.425 15.65C2.70833 15.1667 3.1 14.8 3.6 14.55C4.45 14.1167 5.40833 13.75 6.475 13.45C7.54167 13.15 8.71667 13 10 13C10.5 13 10.9877 13.025 11.463 13.075C11.9377 13.125 12.4 13.2 12.85 13.3L11.1 15.05C10.9167 15.0167 10.7373 15 10.562 15H10C8.81667 15 7.754 15.1417 6.812 15.425C5.87067 15.7083 5.1 16.0167 4.5 16.35C4.35 16.4333 4.22933 16.55 4.138 16.7C4.046 16.85 4 17.0167 4 17.2V18H10.25L12.25 20H2ZM15.55 20.4L12.1 16.95L13.5 15.55L15.55 17.6L20.6 12.55L22 13.95L15.55 20.4ZM10 12C8.9 12 7.95833 11.6083 7.175 10.825C6.39167 10.0417 6 9.1 6 8C6 6.9 6.39167 5.95833 7.175 5.175C7.95833 4.39167 8.9 4 10 4C11.1 4 12.0417 4.39167 12.825 5.175C13.6083 5.95833 14 6.9 14 8C14 9.1 13.6083 10.0417 12.825 10.825C12.0417 11.6083 11.1 12 10 12ZM10 10C10.55 10 11.021 9.804 11.413 9.412C11.8043 9.02067 12 8.55 12 8C12 7.45 11.8043 6.97933 11.413 6.588C11.021 6.196 10.55 6 10 6C9.45 6 8.97933 6.196 8.588 6.588C8.196 6.97933 8 7.45 8 8C8 8.55 8.196 9.02067 8.588 9.412C8.97933 9.804 9.45 10 10 10Z" fill="#A7B4CA"/>
</svg>
