<svg width="20" height="16" viewBox="0 0 20 16" fill="none" xmlns="http://www.w3.org/2000/svg">
<path d="M4 10.25C3.80109 10.25 3.61032 10.329 3.46967 10.4697C3.32902 10.6103 3.25 10.8011 3.25 11C3.25 11.1989 3.32902 11.3897 3.46967 11.5303C3.61032 11.671 3.80109 11.75 4 11.75H10C10.1989 11.75 10.3897 11.671 10.5303 11.5303C10.671 11.3897 10.75 11.1989 10.75 11C10.75 10.8011 10.671 10.6103 10.5303 10.4697C10.3897 10.329 10.1989 10.25 10 10.25H4Z" fill="#A7B4CA"/>
<path fill-rule="evenodd" clip-rule="evenodd" d="M3 0C2.20435 0 1.44129 0.316071 0.87868 0.87868C0.316071 1.44129 0 2.20435 0 3V13C0 13.7956 0.316071 14.5587 0.87868 15.1213C1.44129 15.6839 2.20435 16 3 16H17C17.7956 16 18.5587 15.6839 19.1213 15.1213C19.6839 14.5587 20 13.7956 20 13V3C20 2.20435 19.6839 1.44129 19.1213 0.87868C18.5587 0.316071 17.7956 0 17 0H3ZM17 1.5H3C2.60218 1.5 2.22064 1.65804 1.93934 1.93934C1.65804 2.22064 1.5 2.60218 1.5 3V4.25H18.5V3C18.5 2.60218 18.342 2.22064 18.0607 1.93934C17.7794 1.65804 17.3978 1.5 17 1.5V1.5ZM1.5 13V5.75H18.5V13C18.5 13.3978 18.342 13.7794 18.0607 14.0607C17.7794 14.342 17.3978 14.5 17 14.5H3C2.60218 14.5 2.22064 14.342 1.93934 14.0607C1.65804 13.7794 1.5 13.3978 1.5 13Z" fill="#A7B4CA"/>
</svg>
