<svg width="18" height="22" viewBox="0 0 18 22" fill="none" xmlns="http://www.w3.org/2000/svg">
<path d="M9 8.99726C9.88974 8.99726 10.7595 8.73342 11.4993 8.2391C12.2391 7.74479 12.8157 7.0422 13.1562 6.22018C13.4967 5.39816 13.5858 4.49364 13.4122 3.62099C13.2386 2.74834 12.8102 1.94676 12.181 1.31762C11.5519 0.688475 10.7503 0.260023 9.87764 0.0864419C9.00499 -0.0871387 8.10047 0.00194916 7.27845 0.34244C6.45643 0.68293 5.75384 1.25953 5.25953 1.99933C4.76521 2.73912 4.50137 3.60889 4.50137 4.49863C4.50137 5.69174 4.97533 6.83598 5.81899 7.67964C6.66265 8.5233 7.80689 8.99726 9 8.99726ZM9 1.79945C9.53385 1.79945 10.0557 1.95776 10.4996 2.25435C10.9435 2.55094 11.2894 2.97249 11.4937 3.4657C11.698 3.95891 11.7515 4.50163 11.6473 5.02521C11.5432 5.5488 11.2861 6.02975 10.9086 6.40724C10.5311 6.78472 10.0502 7.0418 9.52658 7.14594C9.003 7.25009 8.46028 7.19664 7.96707 6.99235C7.47386 6.78805 7.05231 6.44209 6.75572 5.99821C6.45913 5.55434 6.30082 5.03248 6.30082 4.49863C6.30082 3.78276 6.5852 3.09622 7.09139 2.59002C7.59759 2.08383 8.28413 1.79945 9 1.79945ZM12.0771 9.89699H5.92294C4.30324 9.94869 2.77021 10.6409 1.6603 11.8216C0.550381 13.0024 -0.0457451 14.5753 0.00274241 16.1951V20.6937C0.00274241 20.9323 0.0975349 21.1612 0.266266 21.3299C0.434997 21.4986 0.663846 21.5934 0.902468 21.5934H17.0975C17.3362 21.5934 17.565 21.4986 17.7337 21.3299C17.9025 21.1612 17.9973 20.9323 17.9973 20.6937V16.1951C18.0457 14.5753 17.4496 13.0024 16.3397 11.8216C15.2298 10.6409 13.6968 9.94869 12.0771 9.89699ZM16.1978 19.794H1.80219V16.1951C1.75338 15.0524 2.15983 13.937 2.93235 13.0937C3.70487 12.2503 4.78039 11.7478 5.92294 11.6964H12.0771C13.2196 11.7478 14.2951 12.2503 15.0677 13.0937C15.8402 13.937 16.2466 15.0524 16.1978 16.1951V19.794Z" fill="white"/>
</svg>
