<svg width="15" height="13" viewBox="0 0 15 13" fill="none" xmlns="http://www.w3.org/2000/svg">
<path fill-rule="evenodd" clip-rule="evenodd" d="M0.641602 6.49994C0.641602 6.27258 0.73192 6.05454 0.892687 5.89377C1.05345 5.733 1.2715 5.64268 1.49886 5.64268H11.4311L7.74999 1.96333C7.58902 1.80236 7.49859 1.58404 7.49859 1.35639C7.49859 1.12874 7.58902 0.91042 7.74999 0.74945C7.91096 0.588479 8.12928 0.498047 8.35693 0.498047C8.58458 0.498047 8.8029 0.588479 8.96387 0.74945L14.1074 5.893C14.1873 5.97263 14.2506 6.06723 14.2938 6.17138C14.337 6.27553 14.3593 6.38718 14.3593 6.49994C14.3593 6.6127 14.337 6.72435 14.2938 6.8285C14.2506 6.93265 14.1873 7.02725 14.1074 7.10688L8.96387 12.2504C8.8029 12.4114 8.58458 12.5018 8.35693 12.5018C8.12928 12.5018 7.91096 12.4114 7.74999 12.2504C7.58902 12.0895 7.49859 11.8711 7.49859 11.6435C7.49859 11.4158 7.58902 11.1975 7.74999 11.0366L11.4311 7.3572H1.49886C1.2715 7.3572 1.05345 7.26688 0.892687 7.10612C0.73192 6.94535 0.641602 6.7273 0.641602 6.49994Z" fill="#D7E2F4"/>
</svg>
