<svg width="20" height="20" viewBox="0 0 20 20" fill="none" xmlns="http://www.w3.org/2000/svg">
<path fill-rule="evenodd" clip-rule="evenodd" d="M7.03701 3.16699C7.05251 3.16699 7.06806 3.167 7.08367 3.167V5.167C6.47766 5.167 6.09843 5.1682 5.81564 5.19697C5.54957 5.22404 5.48177 5.267 5.46329 5.27935C5.39049 5.32799 5.32799 5.39049 5.27935 5.46328C5.267 5.48177 5.22404 5.54956 5.19697 5.81564C5.16821 6.09843 5.167 6.47766 5.167 7.08366V15.0003C5.167 15.8143 5.16912 16.3241 5.2191 16.6959C5.26521 17.0388 5.33495 17.1111 5.36226 17.1384C5.38957 17.1657 5.46183 17.2355 5.80479 17.2816C6.17653 17.3315 6.68639 17.3337 7.50033 17.3337H12.5003C13.3143 17.3337 13.8241 17.3315 14.1959 17.2816C14.5388 17.2355 14.6111 17.1657 14.6384 17.1384C14.6657 17.1111 14.7355 17.0388 14.7816 16.6959C14.8315 16.3241 14.8337 15.8143 14.8337 15.0003V7.08366C14.8337 6.47766 14.8325 6.09843 14.8037 5.81564C14.7766 5.54956 14.7337 5.48177 14.7213 5.46328C14.6727 5.39049 14.6102 5.32799 14.5374 5.27935C14.5189 5.267 14.4511 5.22404 14.185 5.19697C13.9022 5.1682 13.523 5.167 12.917 5.167V3.167L12.9637 3.16699C13.5089 3.16696 13.9912 3.16693 14.3874 3.20724C14.8116 3.25039 15.2466 3.34788 15.6485 3.61641C15.9397 3.81097 16.1897 4.06097 16.3843 4.35214C16.6528 4.75403 16.7503 5.18902 16.7934 5.61323C16.8337 6.00946 16.8337 6.49178 16.8337 7.03699L16.8337 15.0636C16.8337 15.795 16.8338 16.4414 16.7637 16.9624C16.6878 17.5271 16.5135 18.0918 16.0526 18.5526C15.5918 19.0135 15.0271 19.1878 14.4624 19.2637C13.9414 19.3338 13.295 19.3337 12.5636 19.3337H7.43709C6.70569 19.3337 6.05931 19.3338 5.5383 19.2637C4.97355 19.1878 4.40889 19.0135 3.94805 18.5526C3.4872 18.0918 3.31286 17.5271 3.23694 16.9624C3.16689 16.4414 3.16694 15.795 3.167 15.0636L3.167 7.08366C3.167 7.06806 3.167 7.05251 3.167 7.03701C3.16696 6.49179 3.16694 6.00946 3.20724 5.61323C3.2504 5.18902 3.34788 4.75403 3.61641 4.35214C3.81097 4.06097 4.06097 3.81097 4.35214 3.61641C4.75403 3.34788 5.18902 3.25039 5.61323 3.20724C6.00946 3.16693 6.49179 3.16696 7.03701 3.16699Z" fill="black"/>
<path fill-rule="evenodd" clip-rule="evenodd" d="M6.5 4.16667C6.5 2.69391 7.69391 1.5 9.16667 1.5H10.8333C12.3061 1.5 13.5 2.69391 13.5 4.16667C13.5 5.63943 12.3061 6.83333 10.8333 6.83333H9.16667C7.69391 6.83333 6.5 5.63943 6.5 4.16667ZM9.16667 3.5C8.79848 3.5 8.5 3.79848 8.5 4.16667C8.5 4.53486 8.79848 4.83333 9.16667 4.83333H10.8333C11.2015 4.83333 11.5 4.53486 11.5 4.16667C11.5 3.79848 11.2015 3.5 10.8333 3.5H9.16667Z" fill="black"/>
<path fill-rule="evenodd" clip-rule="evenodd" d="M6.5 10C6.5 9.44772 6.94772 9 7.5 9L12.5 9C13.0523 9 13.5 9.44772 13.5 10C13.5 10.5523 13.0523 11 12.5 11L7.5 11C6.94772 11 6.5 10.5523 6.5 10Z" fill="black"/>
<path fill-rule="evenodd" clip-rule="evenodd" d="M6.5 13.333C6.5 12.7807 6.94772 12.333 7.5 12.333L10.8333 12.333C11.3856 12.333 11.8333 12.7807 11.8333 13.333C11.8333 13.8853 11.3856 14.333 10.8333 14.333L7.5 14.333C6.94772 14.333 6.5 13.8853 6.5 13.333Z" fill="black"/>
</svg>
