<svg width="18" height="16" viewBox="0 0 18 16" fill="none" xmlns="http://www.w3.org/2000/svg">
<path d="M7.8757 14.1669L7.8757 8.85213L2.10619 8.85213C1.4833 8.85213 0.981889 8.39025 0.981889 7.81645C0.981889 7.24265 1.4833 6.78077 2.10619 6.78077L7.8757 6.78077L7.8757 1.46603C7.8757 0.892233 8.37711 0.430347 9 0.430347C9.62289 0.430347 10.1243 0.892233 10.1243 1.46603L10.1243 6.78077L15.8938 6.78077C16.5167 6.78077 17.0181 7.24265 17.0181 7.81645C17.0181 8.39025 16.5167 8.85213 15.8938 8.85213L10.1243 8.85213V14.1669C10.1243 14.7407 9.62289 15.2026 9 15.2026C8.37931 15.2005 7.8757 14.7366 7.8757 14.1669Z" fill="black"/>
</svg>
