<svg width="20" height="20" viewBox="0 0 20 20" fill="none" xmlns="http://www.w3.org/2000/svg">
<path fill-rule="evenodd" clip-rule="evenodd" d="M10.0003 11.3337C10.7367 11.3337 11.3337 10.7367 11.3337 10.0003C11.3337 9.26395 10.7367 8.66699 10.0003 8.66699C9.26395 8.66699 8.66699 9.26395 8.66699 10.0003C8.66699 10.7367 9.26395 11.3337 10.0003 11.3337ZM10.0003 13.3337C11.8413 13.3337 13.3337 11.8413 13.3337 10.0003C13.3337 8.15938 11.8413 6.66699 10.0003 6.66699C8.15938 6.66699 6.66699 8.15938 6.66699 10.0003C6.66699 11.8413 8.15938 13.3337 10.0003 13.3337Z" fill="black"/>
<path fill-rule="evenodd" clip-rule="evenodd" d="M6.60559 7.24015C5.55206 7.97407 4.67372 8.88906 4.08377 9.58605C3.98303 9.70507 3.90845 9.79333 3.8468 9.87099C3.8003 9.92954 3.77044 9.97061 3.75088 10C3.77044 10.0294 3.8003 10.0705 3.8468 10.129C3.90845 10.2067 3.98303 10.2949 4.08377 10.414C4.67372 11.1109 5.55206 12.0259 6.60559 12.7599C7.66543 13.4982 8.8255 14 10.0003 14C11.1751 14 12.3352 13.4982 13.395 12.7599C14.4485 12.0259 15.3269 11.1109 15.9168 10.414C16.0176 10.2949 16.0921 10.2067 16.1538 10.129C16.2003 10.0705 16.2301 10.0294 16.2497 10C16.2301 9.97061 16.2003 9.92954 16.1538 9.87099C16.0921 9.79334 16.0176 9.70507 15.9168 9.58605C15.3269 8.88906 14.4485 7.97408 13.395 7.24015C12.3352 6.50183 11.1751 6 10.0003 6C8.8255 6 7.66543 6.50183 6.60559 7.24015ZM16.2672 9.99988V10C16.2672 9.99992 16.2672 9.99988 16.2672 9.99988ZM5.46237 5.5991C6.7037 4.73434 8.26242 4 10.0003 4C11.7382 4 13.2969 4.73434 14.5382 5.5991C15.7859 6.46825 16.7911 7.52326 17.4434 8.29393C17.4668 8.32158 17.4912 8.35 17.5162 8.37924C17.8348 8.75068 18.2672 9.25478 18.2672 10C18.2672 10.7452 17.8348 11.2493 17.5162 11.6208C17.4912 11.65 17.4668 11.6784 17.4434 11.7061C16.7911 12.4767 15.7859 13.5318 14.5382 14.4009C13.2969 15.2657 11.7382 16 10.0003 16C8.26241 16 6.7037 15.2657 5.46237 14.4009C4.21473 13.5318 3.2095 12.4767 2.5572 11.7061C2.5338 11.6784 2.50942 11.65 2.48434 11.6208C2.16576 11.2493 1.7334 10.7452 1.7334 10C1.7334 9.25478 2.16576 8.75068 2.48434 8.37924C2.50942 8.35 2.5338 8.32158 2.5572 8.29393C3.2095 7.52326 4.21473 6.46825 5.46237 5.5991Z" fill="black"/>
</svg>
