<svg width="18" height="18" viewBox="0 0 18 18" fill="none" xmlns="http://www.w3.org/2000/svg">
<path fill-rule="evenodd" clip-rule="evenodd" d="M9.00018 7.81836C8.34748 7.81836 7.81836 8.34748 7.81836 9.00018C7.81836 9.65288 8.34748 10.182 9.00018 10.182C9.65288 10.182 10.182 9.65288 10.182 9.00018C10.182 8.34748 9.65288 7.81836 9.00018 7.81836ZM5.81836 9.00018C5.81836 7.24291 7.24291 5.81836 9.00018 5.81836C10.7574 5.81836 12.182 7.24291 12.182 9.00018C12.182 10.7574 10.7574 12.182 9.00018 12.182C7.24291 12.182 5.81836 10.7574 5.81836 9.00018Z" fill="black"/>
<path fill-rule="evenodd" clip-rule="evenodd" d="M9 2C8.87945 2 8.76383 2.04789 8.67859 2.13313C8.59334 2.21838 8.54545 2.33399 8.54545 2.45455V2.58217C8.54374 3.01122 8.4166 3.4304 8.1797 3.78812C7.9428 4.14584 7.60647 4.42649 7.21211 4.5955C7.13667 4.62784 7.05772 4.65068 6.97708 4.66366C6.62598 4.7818 6.2496 4.80971 5.88298 4.74323C5.45045 4.66481 5.05134 4.45861 4.7371 4.15123L4.72921 4.14351L4.68562 4.09983C4.64341 4.05757 4.59288 4.02365 4.5377 4.00078C4.48252 3.9779 4.42337 3.96613 4.36364 3.96613C4.3039 3.96613 4.24475 3.9779 4.18957 4.00078C4.13439 4.02365 4.08426 4.05718 4.04205 4.09944L4.04126 4.10023C3.999 4.14244 3.96547 4.19257 3.9426 4.24775C3.91972 4.30294 3.90795 4.36208 3.90795 4.42182C3.90795 4.48155 3.91972 4.5407 3.9426 4.59588C3.96547 4.65106 3.999 4.70119 4.04126 4.74341L4.09309 4.79524C4.40047 5.10948 4.60663 5.50864 4.68505 5.94116C4.7616 6.36332 4.71299 6.79841 4.5456 7.19294C4.39123 7.59476 4.12227 7.9427 3.77178 8.19338C3.41272 8.45019 2.98471 8.59304 2.54338 8.60336L2.52 8.60364H2.45455C2.33399 8.60364 2.21838 8.65153 2.13313 8.73677C2.04789 8.82201 2 8.93763 2 9.05818C2 9.17873 2.04789 9.29435 2.13313 9.37959C2.21838 9.46484 2.33399 9.51273 2.45455 9.51273H2.58217C3.01122 9.51444 3.4304 9.64158 3.78812 9.87848C4.14436 10.1144 4.42416 10.4489 4.5934 10.8412C4.76914 11.242 4.82134 11.6863 4.74323 12.117C4.66481 12.5495 4.45861 12.9487 4.15123 13.2629L4.14351 13.2708L4.09983 13.3144C4.05757 13.3566 4.02365 13.4071 4.00078 13.4623C3.9779 13.5175 3.96613 13.5766 3.96613 13.6364C3.96613 13.6961 3.9779 13.7552 4.00078 13.8104C4.02365 13.8656 4.05718 13.9157 4.09944 13.958L4.10023 13.9587C4.14244 14.001 4.19257 14.0345 4.24775 14.0574C4.30294 14.0803 4.36209 14.0921 4.42182 14.0921C4.48155 14.0921 4.5407 14.0803 4.59588 14.0574C4.65107 14.0345 4.7012 14.001 4.74341 13.9587L4.79524 13.9069C5.10948 13.5995 5.50864 13.3934 5.94116 13.3149C6.36331 13.2384 6.7984 13.287 7.19293 13.4544C7.59475 13.6088 7.9427 13.8777 8.19338 14.2282C8.45019 14.5873 8.59304 15.0153 8.60336 15.4566L8.60364 15.48V15.5455C8.60364 15.666 8.65153 15.7816 8.73677 15.8669C8.82201 15.9521 8.93763 16 9.05818 16C9.17873 16 9.29435 15.9521 9.37959 15.8669C9.46484 15.7816 9.51273 15.666 9.51273 15.5455V15.4178C9.51444 14.9888 9.64158 14.5696 9.87848 14.2119C10.1144 13.8556 10.4489 13.5758 10.8412 13.4066C11.242 13.2309 11.6863 13.1787 12.117 13.2568C12.5495 13.3352 12.9487 13.5414 13.2629 13.8488L13.2708 13.8565L13.3144 13.9002C13.3566 13.9424 13.4071 13.9763 13.4623 13.9992C13.5175 14.0221 13.5766 14.0339 13.6364 14.0339C13.6961 14.0339 13.7552 14.0221 13.8104 13.9992C13.8656 13.9763 13.9157 13.9428 13.958 13.9006L13.9587 13.8998C14.001 13.8576 14.0345 13.8074 14.0574 13.7522C14.0803 13.6971 14.0921 13.6379 14.0921 13.5782C14.0921 13.5184 14.0803 13.4593 14.0574 13.4041C14.0345 13.3489 14.001 13.2988 13.9587 13.2566L13.9069 13.2048C13.5995 12.8905 13.3934 12.4914 13.3149 12.0588C13.2368 11.6281 13.289 11.1839 13.4648 10.783C13.634 10.3907 13.9138 10.0562 14.2701 9.8203C14.6278 9.5834 15.047 9.45626 15.476 9.45455L15.48 9.45454L15.5455 9.45455C15.666 9.45455 15.7816 9.40666 15.8669 9.32141C15.9521 9.23617 16 9.12055 16 9C16 8.87945 15.9521 8.76383 15.8669 8.67859C15.7816 8.59334 15.666 8.54545 15.5455 8.54545H15.4178C14.9888 8.54374 14.5696 8.4166 14.2119 8.1797C13.8542 7.9428 13.5735 7.60647 13.4045 7.21211C13.3722 7.13667 13.3493 7.05772 13.3363 6.97708C13.2182 6.62598 13.1903 6.2496 13.2568 5.88298C13.3352 5.45045 13.5414 5.05134 13.8488 4.7371L13.8565 4.72922L13.9002 4.68562C13.9424 4.64341 13.9763 4.59288 13.9992 4.5377C14.0221 4.48252 14.0339 4.42337 14.0339 4.36364C14.0339 4.3039 14.0221 4.24476 13.9992 4.18957C13.9763 4.13439 13.9428 4.08426 13.9006 4.04205L13.8998 4.04126C13.8576 3.999 13.8074 3.96547 13.7522 3.9426C13.6971 3.91972 13.6379 3.90795 13.5782 3.90795C13.5184 3.90795 13.4593 3.91972 13.4041 3.9426C13.3489 3.96547 13.2988 3.999 13.2566 4.04126L13.2048 4.09309C12.8905 4.40047 12.4914 4.60663 12.0588 4.68505C11.6281 4.76315 11.1839 4.71096 10.783 4.53522C10.3907 4.36598 10.0562 4.08618 9.8203 3.72994C9.5834 3.37222 9.45626 2.95304 9.45455 2.52399L9.45455 2.52V2.45455C9.45455 2.33399 9.40666 2.21838 9.32141 2.13313C9.23617 2.04789 9.12055 2 9 2ZM14.3818 11.1818L15.2967 11.5856C15.2805 11.6221 15.2757 11.6627 15.2829 11.702C15.2898 11.7403 15.3077 11.7757 15.3345 11.8039L15.3722 11.8416C15.3723 11.8417 15.372 11.8415 15.3722 11.8416C15.6002 12.0695 15.7815 12.3404 15.905 12.6382C16.0285 12.9362 16.0921 13.2556 16.0921 13.5782C16.0921 13.9007 16.0285 14.2202 15.905 14.5181C15.7815 14.8159 15.6006 15.0865 15.3726 15.3144C15.1447 15.5424 14.8741 15.7233 14.5763 15.8468C14.2783 15.9703 13.9589 16.0339 13.6364 16.0339C13.3138 16.0339 12.9944 15.9703 12.6964 15.8468C12.3986 15.7233 12.128 15.5424 11.9002 15.3144C11.9 15.3142 11.9003 15.3145 11.9002 15.3144L11.8621 15.2763C11.8339 15.2496 11.7985 15.2316 11.7602 15.2247C11.7209 15.2176 11.6803 15.2224 11.6438 15.2385L11.634 15.2428C11.5981 15.2582 11.5675 15.2837 11.546 15.3162C11.5247 15.3484 11.5131 15.386 11.5127 15.4246V15.5455C11.5127 16.1964 11.2541 16.8208 10.7938 17.2811C10.3335 17.7414 9.70917 18 9.05818 18C8.4072 18 7.78287 17.7414 7.32256 17.2811C6.86224 16.8208 6.60364 16.1964 6.60364 15.5455V15.4966C6.60147 15.4589 6.58867 15.4225 6.56664 15.3917C6.54329 15.3591 6.51067 15.3342 6.473 15.3204C6.45323 15.3131 6.43369 15.3052 6.41442 15.2967C6.37786 15.2805 6.3373 15.2757 6.29798 15.2829C6.25971 15.2898 6.22432 15.3077 6.19612 15.3345L6.15841 15.3722C6.15828 15.3723 6.15854 15.372 6.15841 15.3722C5.93053 15.6002 5.65957 15.7815 5.36176 15.905C5.06379 16.0285 4.74438 16.0921 4.42182 16.0921C4.09925 16.0921 3.77985 16.0285 3.48187 15.905C3.18411 15.7815 2.91357 15.6006 2.68571 15.3727C2.45764 15.1448 2.2767 14.8742 2.15323 14.5763C2.02971 14.2783 1.96613 13.9589 1.96613 13.6364C1.96613 13.3138 2.02971 12.9944 2.15323 12.6964C2.27668 12.3986 2.45759 12.128 2.68562 11.9002C2.68575 11.9 2.68549 11.9003 2.68562 11.9002L2.72372 11.8621C2.75044 11.8339 2.76838 11.7985 2.77532 11.7602C2.78245 11.7209 2.77764 11.6803 2.7615 11.6438L2.75717 11.634C2.74181 11.5981 2.71635 11.5675 2.68383 11.546C2.65164 11.5247 2.61399 11.5131 2.57541 11.5127H2.45455C1.80356 11.5127 1.17924 11.2541 0.71892 10.7938C0.258603 10.3335 0 9.70917 0 9.05818C0 8.4072 0.258603 7.78287 0.71892 7.32256C1.17924 6.86224 1.80356 6.60364 2.45455 6.60364H2.50339C2.5411 6.60147 2.57749 6.58867 2.60829 6.56664C2.64093 6.54329 2.66579 6.51067 2.67965 6.473C2.68692 6.45323 2.69481 6.43369 2.70332 6.41442C2.71945 6.37786 2.72427 6.3373 2.71714 6.29798C2.7102 6.25971 2.69225 6.22431 2.66553 6.19611L2.62783 6.15841C2.39962 5.93045 2.21857 5.65974 2.09505 5.36176C1.97153 5.06379 1.90795 4.74438 1.90795 4.42182C1.90795 4.09925 1.97153 3.77985 2.09505 3.48187C2.2185 3.18407 2.39941 2.9135 2.62744 2.68562C2.85532 2.45759 3.12589 2.27668 3.42369 2.15323C3.72167 2.02971 4.04107 1.96613 4.36364 1.96613C4.6862 1.96613 5.0056 2.02971 5.30358 2.15323C5.60156 2.27675 5.87227 2.4578 6.10023 2.68601L6.13793 2.72371C6.16613 2.75044 6.20153 2.76838 6.2398 2.77532C6.27912 2.78245 6.31968 2.77764 6.35624 2.7615C6.39894 2.74266 6.4428 2.72687 6.48749 2.71421C6.49666 2.70496 6.50495 2.69479 6.51221 2.68383C6.53354 2.65162 6.54508 2.61393 6.54545 2.57532V2.45455C6.54545 1.80356 6.80406 1.17924 7.26437 0.71892C7.72469 0.258603 8.34901 0 9 0C9.65099 0 10.2753 0.258603 10.7356 0.71892C11.1959 1.17924 11.4545 1.80356 11.4545 2.45455V2.51723C11.4549 2.55581 11.4665 2.59346 11.4878 2.62564C11.5093 2.65816 11.5399 2.68368 11.5758 2.69904L11.5856 2.70327C11.6222 2.7194 11.6627 2.72427 11.702 2.71714C11.7403 2.7102 11.7757 2.69226 11.8039 2.66554L11.8416 2.62783C11.8417 2.6277 11.8415 2.62796 11.8416 2.62783C12.0695 2.3998 12.3404 2.2185 12.6382 2.09505C12.9362 1.97153 13.2556 1.90795 13.5782 1.90795C13.9007 1.90795 14.2201 1.97153 14.5181 2.09505C14.816 2.21852 15.0866 2.39946 15.3145 2.62753C15.5425 2.85539 15.7233 3.12592 15.8468 3.42369C15.9703 3.72167 16.0339 4.04107 16.0339 4.36364C16.0339 4.6862 15.9703 5.00561 15.8468 5.30358C15.7232 5.60156 15.5422 5.87226 15.314 6.10022C15.314 6.10022 15.314 6.10022 15.314 6.10022L15.2763 6.13794C15.2496 6.16614 15.2316 6.20153 15.2247 6.2398C15.2176 6.27912 15.2224 6.31968 15.2385 6.35624C15.2573 6.39894 15.2731 6.4428 15.2858 6.48749C15.295 6.49666 15.3052 6.50495 15.3162 6.51221C15.3484 6.53354 15.3861 6.54508 15.4247 6.54545H15.5455C16.1964 6.54545 16.8208 6.80406 17.2811 7.26437C17.7414 7.72469 18 8.34901 18 9C18 9.65099 17.7414 10.2753 17.2811 10.7356C16.8208 11.1959 16.1964 11.4545 15.5455 11.4545H15.4828C15.4442 11.4549 15.4065 11.4665 15.3744 11.4878C15.3418 11.5093 15.3163 11.5399 15.301 11.5758L14.3818 11.1818Z" fill="black"/>
</svg>
