<svg width="20" height="20" viewBox="0 0 20 20" fill="none" xmlns="http://www.w3.org/2000/svg">
<path fill-rule="evenodd" clip-rule="evenodd" d="M8.33301 13.5C7.78072 13.5 7.33301 13.0523 7.33301 12.5L7.33301 10C7.33301 9.44772 7.78072 9 8.33301 9C8.88529 9 9.33301 9.44772 9.33301 10L9.33301 12.5C9.33301 13.0523 8.88529 13.5 8.33301 13.5Z" fill="black"/>
<path fill-rule="evenodd" clip-rule="evenodd" d="M11.667 13.5C11.1147 13.5 10.667 13.0523 10.667 12.5L10.667 10C10.667 9.44772 11.1147 9 11.667 9C12.2193 9 12.667 9.44772 12.667 10L12.667 12.5C12.667 13.0523 12.2193 13.5 11.667 13.5Z" fill="black"/>
<path fill-rule="evenodd" clip-rule="evenodd" d="M3.19509 6.85231C3.12284 6.83794 3.01259 6.8331 2.5 6.8331V4.8331C2.52825 4.8331 2.5562 4.83307 2.58388 4.83305C2.63843 4.83301 2.69189 4.83296 2.74431 4.8331H17.2557C17.3081 4.83296 17.3616 4.83301 17.4161 4.83305C17.4438 4.83307 17.4718 4.8331 17.5 4.8331V6.8331C16.9874 6.8331 16.8772 6.83794 16.8049 6.85231C16.4082 6.93122 16.0981 7.24131 16.0192 7.638C16.0048 7.71025 16 7.82051 16 8.3331L16 12.7323C16.0001 13.6187 16.0001 14.3826 15.9179 14.9942C15.8297 15.6497 15.631 16.2781 15.1213 16.7877C14.6117 17.2974 13.9833 17.4962 13.3278 17.5843C12.7161 17.6665 11.9523 17.6665 11.0658 17.6664H8.93417C8.04768 17.6665 7.28387 17.6665 6.67221 17.5843C6.01669 17.4962 5.38834 17.2974 4.87868 16.7877C4.36902 16.2781 4.17027 15.6497 4.08214 14.9942C3.9999 14.3826 3.99995 13.6187 4 12.7323L4 8.33309C4 7.82051 3.99516 7.71025 3.98079 7.638C3.90188 7.24131 3.59178 6.93122 3.19509 6.85231ZM14.1715 6.8331H5.82853C5.87588 6.96714 5.91407 7.10563 5.94236 7.24782C6.00061 7.54068 6.00035 7.86851 6.00004 8.24921C6.00002 8.27689 6 8.30485 6 8.33309V12.6664C6 13.6375 6.00212 14.2652 6.06431 14.7277C6.12262 15.1615 6.21677 15.2974 6.29289 15.3735C6.36902 15.4497 6.50496 15.5438 6.9387 15.6021C7.40121 15.6643 8.02892 15.6664 9 15.6664H11C11.9711 15.6664 12.5988 15.6643 13.0613 15.6021C13.495 15.5438 13.631 15.4497 13.7071 15.3735C13.7832 15.2974 13.8774 15.1615 13.9357 14.7277C13.9979 14.2652 14 13.6375 14 12.6664V8.3331C14 8.30485 14 8.27689 14 8.24921C13.9997 7.86851 13.9994 7.54068 14.0576 7.24782C14.0859 7.10563 14.1241 6.96714 14.1715 6.8331Z" fill="black"/>
<path fill-rule="evenodd" clip-rule="evenodd" d="M11.2035 1.60401C10.8377 1.53385 10.4163 1.5 10.0005 1.5C9.58461 1.5 9.16322 1.53385 8.79747 1.60401C8.61463 1.63908 8.43214 1.68578 8.26426 1.74859C8.11362 1.80495 7.89594 1.90267 7.7084 2.07765C7.30459 2.45442 7.28266 3.0872 7.65942 3.49102C8.00865 3.86532 8.57785 3.91152 8.98077 3.61622C8.99562 3.6112 9.01571 3.60501 9.04157 3.5981C9.07768 3.58845 9.12183 3.57825 9.17427 3.5682C9.39066 3.52668 9.68255 3.5 10.0005 3.5C10.3184 3.5 10.6103 3.52668 10.8267 3.5682C10.8791 3.57825 10.9233 3.58845 10.9594 3.5981C10.9852 3.60501 11.0053 3.6112 11.0202 3.61622C11.4231 3.91152 11.9923 3.86532 12.3415 3.49102C12.7183 3.0872 12.6964 2.45442 12.2925 2.07765C12.105 1.90267 11.8873 1.80495 11.7367 1.74859C11.5688 1.68578 11.3863 1.63908 11.2035 1.60401Z" fill="black"/>
</svg>
