<svg width="20" height="20" viewBox="0 0 20 20" fill="none" xmlns="http://www.w3.org/2000/svg">
<path fill-rule="evenodd" clip-rule="evenodd" d="M1.79297 5.1267L3.20718 6.54092L5.66674 4.08136L5.66674 14.1671C5.66674 14.7194 6.11446 15.1671 6.66674 15.1671C7.21903 15.1671 7.66674 14.7194 7.66674 14.1671L7.66674 4.08136L10.1263 6.54092L11.5405 5.1267L6.66674 0.252929L1.79297 5.1267Z" fill="black"/>
<path fill-rule="evenodd" clip-rule="evenodd" d="M8.45996 14.8733L9.87417 13.4591L12.3337 15.9186L12.3337 5.83286C12.3337 5.28057 12.7814 4.83286 13.3337 4.83286C13.886 4.83286 14.3337 5.28057 14.3337 5.83286L14.3337 15.9186L16.7933 13.4591L18.2075 14.8733L13.3337 19.7471L8.45996 14.8733Z" fill="black"/>
</svg>
