<svg width="20" height="20" viewBox="0 0 20 20" fill="none" xmlns="http://www.w3.org/2000/svg">
<path fill-rule="evenodd" clip-rule="evenodd" d="M1.7246 6.22358C1.66699 7.15665 1.66699 8.2852 1.66699 9.66685V10.0002H8.41454C8.13721 9.86963 7.83385 9.78353 7.51311 9.75146L5.83366 9.58352C5.30405 9.53055 5.03924 9.50407 4.81367 9.45482C3.21541 9.10583 1.9984 7.82176 1.7246 6.22358ZM18.2078 5.44141L17.917 14.1668C17.1166 14.1668 16.3491 13.8489 15.7831 13.283L14.8439 12.3438C14.7547 12.2546 14.7101 12.21 14.6705 12.1743C13.9102 11.4911 12.7571 11.4911 11.9969 12.1743C11.9572 12.21 11.9126 12.2546 11.8234 12.3438L11.1791 12.9881C10.7441 13.4231 10.0003 13.115 10.0003 12.4998V18.3335H10.3337C14.1049 18.3335 15.9905 18.3335 17.1621 17.1619C18.3337 15.9904 18.3337 14.1048 18.3337 10.3335V9.66685C18.3337 7.87428 18.3337 6.50774 18.2078 5.44141Z" fill="black"/>
<path d="M9.66699 2.66699H10.3337C12.2475 2.66699 13.5824 2.66912 14.5895 2.80452C15.5679 2.93606 16.086 3.17665 16.455 3.54567C16.824 3.91469 17.0646 4.43279 17.1961 5.41115C17.3315 6.41829 17.3337 7.7531 17.3337 9.66699V10.3337C17.3337 12.2475 17.3315 13.5824 17.1961 14.5895C17.0646 15.5679 16.824 16.086 16.455 16.455C16.086 16.824 15.5679 17.0646 14.5895 17.1961C13.7036 17.3152 12.5643 17.3312 11.0003 17.3333V12.0003C11.0003 11.9822 11.0003 11.964 11.0003 11.9459C11.0004 11.5218 11.0005 11.1097 10.9548 10.7698C10.9033 10.3866 10.7778 9.94933 10.4145 9.58611C10.0513 9.2229 9.61405 9.09737 9.23085 9.04585C8.89093 9.00015 8.47881 9.00024 8.05474 9.00032C8.03662 9.00032 8.01848 9.00033 8.00033 9.00033H2.66731C2.66944 7.43638 2.68542 6.29701 2.80452 5.41115C2.93606 4.43279 3.17665 3.91469 3.54567 3.54567C3.91469 3.17665 4.43279 2.93606 5.41115 2.80452C6.41829 2.66912 7.7531 2.66699 9.66699 2.66699Z" stroke="black" stroke-width="2"/>
<circle cx="13.3337" cy="6.66667" r="1.66667" fill="black"/>
<path d="M6.66699 13.333V12.333H7.66699V13.333H6.66699ZM3.12502 17.4472C2.69376 17.7922 2.06447 17.7223 1.71946 17.291C1.37445 16.8598 1.44437 16.2305 1.87563 15.8855L3.12502 17.4472ZM5.66699 17.4997V13.333H7.66699V17.4997H5.66699ZM6.66699 14.333H2.50033V12.333H6.66699V14.333ZM7.29169 14.1139L3.12502 17.4472L1.87563 15.8855L6.0423 12.5521L7.29169 14.1139Z" fill="black"/>
</svg>
