<svg width="20" height="20" viewBox="0 0 20 20" fill="none" xmlns="http://www.w3.org/2000/svg">
<path fill-rule="evenodd" clip-rule="evenodd" d="M13.3333 6.5C14.8061 6.5 16 7.69391 16 9.16667C16 10.6394 14.8061 11.8333 13.3333 11.8333C11.8606 11.8333 10.6667 10.6394 10.6667 9.16667C10.6667 7.69391 11.8606 6.5 13.3333 6.5ZM14 9.16667C14 8.79848 13.7015 8.5 13.3333 8.5C12.9651 8.5 12.6667 8.79848 12.6667 9.16667C12.6667 9.53486 12.9651 9.83333 13.3333 9.83333C13.7015 9.83333 14 9.53486 14 9.16667Z" fill="black"/>
<path fill-rule="evenodd" clip-rule="evenodd" d="M13.3333 13.167C14.8061 13.167 16 14.3609 16 15.8337C16 17.3064 14.8061 18.5003 13.3333 18.5003C11.8606 18.5003 10.6667 17.3064 10.6667 15.8337C10.6667 14.3609 11.8606 13.167 13.3333 13.167ZM14 15.8337C14 15.4655 13.7015 15.167 13.3333 15.167C12.9651 15.167 12.6667 15.4655 12.6667 15.8337C12.6667 16.2018 12.9651 16.5003 13.3333 16.5003C13.7015 16.5003 14 16.2018 14 15.8337Z" fill="black"/>
<path fill-rule="evenodd" clip-rule="evenodd" d="M4.16667 6.83301C2.69391 6.83301 1.5 5.6391 1.5 4.16634C1.5 2.69358 2.69391 1.49967 4.16667 1.49967C5.63943 1.49967 6.83333 2.69358 6.83333 4.16634C6.83333 5.6391 5.63943 6.83301 4.16667 6.83301ZM3.5 4.16634C3.5 4.53453 3.79848 4.83301 4.16667 4.83301C4.53486 4.83301 4.83333 4.53453 4.83333 4.16634C4.83333 3.79815 4.53486 3.49967 4.16667 3.49967C3.79848 3.49967 3.5 3.79815 3.5 4.16634Z" fill="black"/>
<path fill-rule="evenodd" clip-rule="evenodd" d="M3.167 11.8337V6.66699H5.167V11.8337C5.167 12.8047 5.16912 13.4324 5.2313 13.895C5.28962 14.3287 5.38377 14.4646 5.45989 14.5408C5.53601 14.6169 5.67196 14.711 6.1057 14.7694C6.56821 14.8315 7.19592 14.8337 8.167 14.8337H11.667V16.8337L8.10116 16.8337C7.21468 16.8337 6.45087 16.8338 5.83921 16.7515C5.18369 16.6634 4.55534 16.4646 4.04568 15.955C3.53601 15.4453 3.33727 14.817 3.24914 14.1614C3.1669 13.5498 3.16694 12.786 3.16699 11.8995C3.167 11.8776 3.167 11.8557 3.167 11.8337Z" fill="black"/>
<path fill-rule="evenodd" clip-rule="evenodd" d="M3.16699 5.87597C3.16699 5.8617 3.16699 5.84738 3.16699 5.83301H5.16699C5.16699 6.47449 5.16795 6.88874 5.19641 7.20268C5.22361 7.50287 5.26951 7.61186 5.30097 7.66634C5.38874 7.81836 5.51498 7.9446 5.66699 8.03237C5.72148 8.06382 5.83046 8.10972 6.13065 8.13693C6.4446 8.16538 6.85885 8.16634 7.50033 8.16634H11.667V10.1663L7.45737 10.1663C6.87098 10.1664 6.36519 10.1664 5.95013 10.1288C5.51122 10.089 5.07661 10.0009 4.66699 9.76442C4.21094 9.50111 3.83222 9.1224 3.56892 8.66634C3.33243 8.25672 3.24435 7.82212 3.20457 7.38321C3.16695 6.96815 3.16697 6.46236 3.16699 5.87597Z" fill="black"/>
</svg>
