<svg width="45" height="45" viewBox="0 0 45 45" fill="none" xmlns="http://www.w3.org/2000/svg">
<path fill-rule="evenodd" clip-rule="evenodd" d="M13.6667 0.625C14.7712 0.625 15.6667 1.52043 15.6667 2.625L15.6667 7.25H29.3333L29.3333 2.625C29.3333 1.52043 30.2288 0.625 31.3333 0.625C32.4379 0.625 33.3333 1.52043 33.3333 2.625V7.25L33.6759 7.25C35.6433 7.2499 37.3178 7.24983 38.6545 7.42954C40.0789 7.62105 41.4153 8.04906 42.4956 9.1294C43.576 10.2097 44.004 11.5461 44.1955 12.9706C44.3752 14.3072 44.3751 15.9818 44.375 17.9492V33.6758C44.3751 35.6432 44.3752 37.3178 44.1955 38.6544C44.004 40.0789 43.576 41.4153 42.4956 42.4956C41.4153 43.5759 40.0789 44.0039 38.6545 44.1955C37.3178 44.3752 35.6432 44.3751 33.6759 44.375H11.3242C9.35679 44.3751 7.68224 44.3752 6.34556 44.1955C4.92107 44.0039 3.58475 43.5759 2.50441 42.4956C1.42406 41.4153 0.996063 40.0789 0.804544 38.6544C0.624834 37.3178 0.624913 35.6432 0.625004 33.6759V17.9491C0.624913 15.9818 0.624834 14.3072 0.804544 12.9706C0.996063 11.5461 1.42406 10.2097 2.50441 9.1294C3.58475 8.04905 4.92107 7.62105 6.34556 7.42954C7.68223 7.24983 9.35675 7.2499 11.3241 7.25C11.3687 7.25 11.4134 7.25 11.4583 7.25H11.6667L11.6667 2.625C11.6667 1.52043 12.5621 0.625 13.6667 0.625ZM11.6667 11.25H11.4583C9.31977 11.25 7.91703 11.2542 6.87855 11.3939C5.89761 11.5258 5.5461 11.7446 5.33283 11.9578C5.11957 12.1711 4.90076 12.5226 4.76888 13.5035C4.62926 14.542 4.62501 15.9448 4.62501 18.0833V18.3024C4.69349 18.2953 4.76299 18.2917 4.83334 18.2917H40.1667C40.237 18.2917 40.3065 18.2953 40.375 18.3024V18.0833C40.375 15.9448 40.3708 14.542 40.2311 13.5035C40.0993 12.5226 39.8804 12.1711 39.6672 11.9578C39.4539 11.7446 39.1024 11.5258 38.1215 11.3939C37.083 11.2542 35.6803 11.25 33.5417 11.25H33.3333V11.4583C33.3333 12.5629 32.4379 13.4583 31.3333 13.4583C30.2288 13.4583 29.3333 12.5629 29.3333 11.4583V11.25H15.6667V11.4583C15.6667 12.5629 14.7712 13.4583 13.6667 13.4583C12.5621 13.4583 11.6667 12.5629 11.6667 11.4583V11.25ZM40.375 22.2809C40.3065 22.288 40.237 22.2917 40.1667 22.2917H4.83334C4.76299 22.2917 4.69349 22.288 4.62501 22.2809V33.5417C4.62501 35.6802 4.62926 37.083 4.76888 38.1215C4.90076 39.1024 5.11957 39.4539 5.33283 39.6672C5.5461 39.8804 5.89761 40.0992 6.87855 40.2311C7.91703 40.3708 9.31977 40.375 11.4583 40.375H33.5417C35.6803 40.375 37.083 40.3708 38.1215 40.2311C39.1024 40.0992 39.4539 39.8804 39.6672 39.6672C39.8804 39.4539 40.0993 39.1024 40.2311 38.1215C40.3708 37.083 40.375 35.6802 40.375 33.5417V22.2809ZM13.875 31.3333C13.875 30.2288 14.7704 29.3333 15.875 29.3333H29.125C30.2296 29.3333 31.125 30.2288 31.125 31.3333C31.125 32.4379 30.2296 33.3333 29.125 33.3333H15.875C14.7704 33.3333 13.875 32.4379 13.875 31.3333Z" fill="black"/>
</svg>
