<svg width="14" height="14" viewBox="0 0 14 14" fill="none" xmlns="http://www.w3.org/2000/svg">
<path fill-rule="evenodd" clip-rule="evenodd" d="M1 8.25C1.41421 8.25 1.75 8.58579 1.75 9V11.6667C1.75 11.8214 1.81146 11.9697 1.92085 12.0791C2.03025 12.1885 2.17862 12.25 2.33333 12.25H11.6667C11.8214 12.25 11.9697 12.1885 12.0791 12.0791C12.1885 11.9697 12.25 11.8214 12.25 11.6667V9C12.25 8.58579 12.5858 8.25 13 8.25C13.4142 8.25 13.75 8.58579 13.75 9V11.6667C13.75 12.2192 13.5305 12.7491 13.1398 13.1398C12.7491 13.5305 12.2192 13.75 11.6667 13.75H2.33333C1.7808 13.75 1.25089 13.5305 0.860194 13.1398C0.469493 12.7491 0.25 12.2192 0.25 11.6667V9C0.25 8.58579 0.585786 8.25 1 8.25Z" fill="black"/>
<path fill-rule="evenodd" clip-rule="evenodd" d="M6.47 0.46967C6.76289 0.176777 7.23776 0.176777 7.53066 0.46967L10.864 3.803C11.1569 4.0959 11.1569 4.57077 10.864 4.86366C10.5711 5.15656 10.0962 5.15656 9.80333 4.86366L7.00033 2.06066L4.19732 4.86366C3.90443 5.15656 3.42956 5.15656 3.13666 4.86366C2.84377 4.57077 2.84377 4.0959 3.13666 3.803L6.47 0.46967Z" fill="black"/>
<path fill-rule="evenodd" clip-rule="evenodd" d="M7 0.25C7.41421 0.25 7.75 0.585786 7.75 1V9C7.75 9.41421 7.41421 9.75 7 9.75C6.58579 9.75 6.25 9.41421 6.25 9V1C6.25 0.585786 6.58579 0.25 7 0.25Z" fill="black"/>
</svg>
