<svg width="22" height="16" viewBox="0 0 22 16" fill="none" xmlns="http://www.w3.org/2000/svg">
<path fill-rule="evenodd" clip-rule="evenodd" d="M2.64328 7.8C2.72888 7.94561 2.83604 8.12145 2.96426 8.31997C3.35262 8.92131 3.92754 9.7206 4.67329 10.5161C6.18302 12.1264 8.27451 13.6 10.85 13.6C13.4255 13.6 15.517 12.1264 17.0267 10.5161C17.7725 9.7206 18.3474 8.92131 18.7357 8.31997C18.864 8.12145 18.9711 7.94561 19.0567 7.8C18.9711 7.65439 18.864 7.47855 18.7357 7.28003C18.3474 6.67869 17.7725 5.8794 17.0267 5.08394C15.517 3.47356 13.4255 2 10.85 2C8.27451 2 6.18302 3.47356 4.67329 5.08394C3.92754 5.8794 3.35262 6.67869 2.96426 7.28003C2.83604 7.47855 2.72888 7.65439 2.64328 7.8ZM20.2 7.8C21.0944 7.35279 21.0943 7.35245 21.0941 7.3521L21.0926 7.34909L21.0894 7.34291L21.0794 7.32327C21.071 7.30699 21.0593 7.2844 21.0442 7.25591C21.0141 7.19896 20.9706 7.11839 20.9139 7.01755C20.8005 6.81602 20.634 6.53277 20.4158 6.19497C19.9807 5.52131 19.3338 4.6206 18.4858 3.71606C16.808 1.92644 14.2245 0 10.85 0C7.47549 0 4.89198 1.92644 3.21421 3.71606C2.36621 4.6206 1.71925 5.52131 1.28418 6.19497C1.06602 6.53277 0.899503 6.81602 0.786139 7.01755C0.72942 7.11839 0.685895 7.19896 0.655759 7.25591C0.640688 7.2844 0.628955 7.30699 0.620585 7.32327L0.610551 7.34291L0.607429 7.34909L0.606343 7.35125C0.606163 7.35161 0.605573 7.35279 1.5 7.8L0.605573 7.35279C0.464809 7.63431 0.464809 7.96569 0.605573 8.24721L1.5 7.8C0.605573 8.24721 0.605394 8.24686 0.605573 8.24721L0.606343 8.24875L0.607429 8.25091L0.610551 8.25709L0.620585 8.27673C0.628955 8.29301 0.640688 8.3156 0.655759 8.34409C0.685895 8.40104 0.72942 8.48161 0.786139 8.58245C0.899503 8.78398 1.06602 9.06723 1.28418 9.40503C1.71925 10.0787 2.36621 10.9794 3.21421 11.8839C4.89198 13.6736 7.47549 15.6 10.85 15.6C14.2245 15.6 16.808 13.6736 18.4858 11.8839C19.3338 10.9794 19.9807 10.0787 20.4158 9.40503C20.634 9.06723 20.8005 8.78398 20.9139 8.58245C20.9706 8.48161 21.0141 8.40104 21.0442 8.34409C21.0593 8.3156 21.071 8.29301 21.0794 8.27673L21.0894 8.25709L21.0926 8.25091L21.0937 8.24875C21.0938 8.24839 21.0944 8.24721 20.2 7.8ZM20.2 7.8L21.0944 8.24721C21.2352 7.96569 21.2348 7.63362 21.0941 7.3521L20.2 7.8Z" fill="black"/>
<path fill-rule="evenodd" clip-rule="evenodd" d="M10.8498 6.25C9.99376 6.25 9.2998 6.94396 9.2998 7.8C9.2998 8.65604 9.99376 9.35 10.8498 9.35C11.7058 9.35 12.3998 8.65604 12.3998 7.8C12.3998 6.94396 11.7058 6.25 10.8498 6.25ZM7.2998 7.8C7.2998 5.83939 8.88919 4.25 10.8498 4.25C12.8104 4.25 14.3998 5.83939 14.3998 7.8C14.3998 9.76061 12.8104 11.35 10.8498 11.35C8.88919 11.35 7.2998 9.76061 7.2998 7.8Z" fill="black"/>
</svg>
